<?xml version="1.0" encoding="UTF-8" standalone="no"?>
<!-- Created with Bouml (http://bouml.free.fr/) -->
<!DOCTYPE svg PUBLIC "-//W3C//DTD SVG 1.1//EN" "http://www.w3.org/Graphics/SVG/1.1/DTD/svg11.dtd">
<svg width="1121" height="654" version="1.1" xmlns="http://www.w3.org/2000/svg">
<g>
	<rect fill="#f6f6f6" stroke="black" stroke-width="1" stroke-opacity="1" x="8" y="9" width="437" height="29" />
	<rect fill="#808080" stroke="none" stroke-opacity="1" x="445" y="15" width="5" height="22" />
	<text font-family="Helvetica" font-size="15" fill="#000000" xml:space="preserve" text-anchor="middle" x="227" y="31">sofa</text>
	<rect fill="#f6f6f6" stroke="black" stroke-width="1" stroke-opacity="1" x="8" y="38" width="1095" height="598" />
	<rect fill="#808080" stroke="none" stroke-opacity="1" x="1103" y="44" width="5" height="597" />
	<rect fill="#808080" stroke="none" stroke-opacity="1" x="14" y="636" width="1094" height="5" />
</g>
<g>
	<rect fill="#ededed" stroke="black" stroke-width="1" stroke-opacity="1" x="42" y="50" width="417" height="29" />
	<rect fill="#808080" stroke="none" stroke-opacity="1" x="459" y="56" width="5" height="22" />
	<text font-family="Helvetica" font-size="15" fill="#000000" xml:space="preserve" text-anchor="middle" x="251" y="72">core</text>
	<rect fill="#ededed" stroke="black" stroke-width="1" stroke-opacity="1" x="42" y="79" width="1046" height="537" />
	<rect fill="#808080" stroke="none" stroke-opacity="1" x="1088" y="85" width="5" height="536" />
	<rect fill="#808080" stroke="none" stroke-opacity="1" x="48" y="616" width="1045" height="5" />
</g>
<g>
	<rect fill="#dcdcdc" stroke="black" stroke-width="1" stroke-opacity="1" x="83" y="91" width="396" height="29" />
	<rect fill="#808080" stroke="none" stroke-opacity="1" x="479" y="97" width="5" height="22" />
	<text font-family="Helvetica" font-size="15" fill="#000000" xml:space="preserve" text-anchor="middle" x="281" y="113">objectmodel</text>
	<rect fill="#dcdcdc" stroke="black" stroke-width="1" stroke-opacity="1" x="83" y="120" width="993" height="364" />
	<rect fill="#808080" stroke="none" stroke-opacity="1" x="1076" y="126" width="5" height="363" />
	<rect fill="#808080" stroke="none" stroke-opacity="1" x="89" y="484" width="992" height="5" />
</g>
<g>
	<rect fill="#808080" stroke="none" stroke-opacity="1" x="853" y="531" width="5" height="53" />
	<rect fill="#808080" stroke="none" stroke-opacity="1" x="729" y="579" width="129" height="5" />
	<rect fill="#c05800" stroke="black" stroke-width="1" stroke-opacity="1" x="723" y="525" width="130" height="54" />
	<text font-family="Helvetica" font-size="15" fill="#000000" xml:space="preserve" font-weight="bold" text-anchor="middle" x="788" y="543">ExecParams</text>
</g>
<g>
	<rect fill="#808080" stroke="none" stroke-opacity="1" x="387" y="531" width="5" height="53" />
	<rect fill="#808080" stroke="none" stroke-opacity="1" x="239" y="579" width="153" height="5" />
	<rect fill="#ffeb60" stroke="black" stroke-width="1" stroke-opacity="1" x="233" y="525" width="154" height="54" />
	<text font-family="Helvetica" font-size="15" fill="#000000" xml:space="preserve" font-weight="bold" text-anchor="middle" x="310" y="543">RegisterObject</text>
</g>
<g>
	<rect fill="#808080" stroke="none" stroke-opacity="1" x="575" y="517" width="5" height="77" />
	<rect fill="#808080" stroke="none" stroke-opacity="1" x="435" y="589" width="145" height="5" />
	<rect fill="#ffffc0" stroke="black" stroke-width="1" stroke-opacity="1" x="429" y="511" width="146" height="78" />
	<text font-family="Helvetica" font-size="15" fill="#000000" xml:space="preserve" font-weight="bold" text-anchor="middle" x="502" y="553">ObjectCreator</text>
</g>
<g>
	<rect fill="#808080" stroke="none" stroke-opacity="1" x="221" y="531" width="5" height="53" />
	<rect fill="#808080" stroke="none" stroke-opacity="1" x="81" y="579" width="145" height="5" />
	<rect fill="#ffd700" stroke="black" stroke-width="1" stroke-opacity="1" x="75" y="525" width="146" height="54" />
	<text font-family="Helvetica" font-size="15" fill="#000000" xml:space="preserve" font-weight="bold" text-anchor="middle" x="148" y="543">ObjectFactory</text>
</g>
<g>
	<rect fill="white" stroke-dasharray="4,4" stroke="black" stroke-width="1" stroke-opacity="1" x="530" y="493" width="109" height="35" />
	<text font-family="Helvetica" font-size="15" fill="#000000" xml:space="preserve" text-anchor="middle" x="585" y="518">RealObject</text>
</g>
<g>
	<rect fill="#808080" stroke="none" stroke-opacity="1" x="817" y="137" width="5" height="53" />
	<rect fill="#808080" stroke="none" stroke-opacity="1" x="763" y="185" width="59" height="5" />
	<rect fill="#ff8000" stroke="black" stroke-width="1" stroke-opacity="1" x="757" y="131" width="60" height="54" />
	<text font-family="Helvetica" font-size="15" fill="#000000" xml:space="preserve" font-weight="bold" text-anchor="middle" x="787" y="149">Tag</text>
</g>
<g>
	<rect fill="#808080" stroke="none" stroke-opacity="1" x="821" y="228" width="5" height="53" />
	<rect fill="#808080" stroke="none" stroke-opacity="1" x="761" y="276" width="65" height="5" />
	<rect fill="#ffd700" stroke="black" stroke-width="1" stroke-opacity="1" x="755" y="222" width="66" height="54" />
	<text font-family="Helvetica" font-size="15" fill="#000000" xml:space="preserve" font-weight="bold" text-anchor="middle" x="788" y="240">Event</text>
</g>
<g>
	<rect fill="#808080" stroke="none" stroke-opacity="1" x="1034" y="292" width="5" height="77" />
	<rect fill="#808080" stroke="none" stroke-opacity="1" x="974" y="364" width="65" height="5" />
	<rect fill="#ffffc0" stroke="black" stroke-width="1" stroke-opacity="1" x="968" y="286" width="66" height="78" />
	<text font-family="Helvetica" font-size="15" fill="#000000" xml:space="preserve" font-weight="bold" font-style="italic" text-anchor="middle" x="1001" y="328">TData</text>
</g>
<g>
	<rect fill="#808080" stroke="none" stroke-opacity="1" x="404" y="228" width="5" height="53" />
	<rect fill="#808080" stroke="none" stroke-opacity="1" x="288" y="276" width="121" height="5" />
	<rect fill="#ffd700" stroke="black" stroke-width="1" stroke-opacity="1" x="282" y="222" width="122" height="54" />
	<text font-family="Helvetica" font-size="15" fill="#000000" xml:space="preserve" font-weight="bold" text-anchor="middle" x="343" y="240">BaseObject</text>
</g>
<g>
	<rect fill="white" stroke-dasharray="4,4" stroke="black" stroke-width="1" stroke-opacity="1" x="1016" y="268" width="35" height="35" />
	<text font-family="Helvetica" font-size="15" fill="#000000" xml:space="preserve" text-anchor="middle" x="1034" y="293">T</text>
</g>
<g>
	<rect fill="#808080" stroke="none" stroke-opacity="1" x="466" y="325" width="5" height="53" />
	<rect fill="#808080" stroke="none" stroke-opacity="1" x="324" y="373" width="147" height="5" />
	<rect fill="#ffffc0" stroke="black" stroke-width="1" stroke-opacity="1" x="318" y="319" width="148" height="54" />
	<text font-family="Helvetica" font-size="15" fill="#000000" xml:space="preserve" font-weight="bold" font-style="italic" text-anchor="middle" x="392" y="337">ContextObject</text>
</g>
<g>
	<rect fill="#808080" stroke="none" stroke-opacity="1" x="307" y="325" width="5" height="53" />
	<rect fill="#808080" stroke="none" stroke-opacity="1" x="103" y="373" width="209" height="5" />
	<rect fill="#ffffc0" stroke="black" stroke-width="1" stroke-opacity="1" x="97" y="319" width="210" height="54" />
	<text font-family="Helvetica" font-size="15" fill="#000000" xml:space="preserve" font-weight="bold" text-anchor="middle" x="202" y="337">ConfigurationSetting</text>
</g>
<g>
	<line stroke="black" stroke-opacity="1" x1="379" y1="318" x2="363" y2="287" />
	<line stroke="black" stroke-opacity="1" x1="361" y1="282" x2="358" y2="290" />
	<line stroke="black" stroke-opacity="1" x1="361" y1="282" x2="369" y2="284" />
	<line stroke="black" stroke-opacity="1" x1="358" y1="290" x2="369" y2="284" />
</g>
<g>
	<line stroke="black" stroke-opacity="1" x1="246" y1="318" x2="292" y2="285" />
	<line stroke="black" stroke-opacity="1" x1="297" y1="282" x2="288" y2="280" />
	<line stroke="black" stroke-opacity="1" x1="297" y1="282" x2="295" y2="290" />
	<line stroke="black" stroke-opacity="1" x1="288" y1="280" x2="295" y2="290" />
</g>
<g>
	<rect fill="#808080" stroke="none" stroke-opacity="1" x="208" y="137" width="5" height="53" />
	<rect fill="#808080" stroke="none" stroke-opacity="1" x="102" y="185" width="111" height="5" />
	<rect fill="#ff8000" stroke="black" stroke-width="1" stroke-opacity="1" x="96" y="131" width="112" height="54" />
	<text font-family="Helvetica" font-size="15" fill="#000000" xml:space="preserve" font-weight="bold" text-anchor="middle" x="152" y="149">BaseClass</text>
</g>
<g>
	<rect fill="#808080" stroke="none" stroke-opacity="1" x="585" y="228" width="5" height="53" />
	<rect fill="#808080" stroke="none" stroke-opacity="1" x="459" y="276" width="131" height="5" />
	<rect fill="#ffeb60" stroke="black" stroke-width="1" stroke-opacity="1" x="453" y="222" width="132" height="54" />
	<text font-family="Helvetica" font-size="15" fill="#000000" xml:space="preserve" font-weight="bold" text-anchor="middle" x="519" y="240">BaseContext</text>
</g>
<g>
	<rect fill="#808080" stroke="none" stroke-opacity="1" x="1053" y="137" width="5" height="53" />
	<rect fill="#808080" stroke="none" stroke-opacity="1" x="955" y="185" width="103" height="5" />
	<rect fill="#ffa858" stroke="black" stroke-width="1" stroke-opacity="1" x="949" y="131" width="104" height="54" />
	<text font-family="Helvetica" font-size="15" fill="#000000" xml:space="preserve" font-weight="bold" font-style="italic" text-anchor="middle" x="1001" y="149">DDGNode</text>
</g>
<g>
	<rect fill="#808080" stroke="none" stroke-opacity="1" x="190" y="217" width="5" height="77" />
	<rect fill="#808080" stroke="none" stroke-opacity="1" x="120" y="289" width="75" height="5" />
	<rect fill="#ffa858" stroke="black" stroke-width="1" stroke-opacity="1" x="114" y="211" width="76" height="78" />
	<text font-family="Helvetica" font-size="15" fill="#000000" xml:space="preserve" font-weight="bold" text-anchor="middle" x="152" y="253">TClass</text>
</g>
<g>
	<rect fill="#808080" stroke="none" stroke-opacity="1" x="1061" y="531" width="5" height="53" />
	<rect fill="#808080" stroke="none" stroke-opacity="1" x="947" y="579" width="119" height="5" />
	<rect fill="#ff8000" stroke="black" stroke-width="1" stroke-opacity="1" x="941" y="525" width="120" height="54" />
	<text font-family="Helvetica" font-size="15" fill="#000000" xml:space="preserve" font-weight="bold" text-anchor="middle" x="1001" y="543">DataEngine</text>
</g>
<g>
	<rect fill="#808080" stroke="none" stroke-opacity="1" x="550" y="136" width="5" height="53" />
	<rect fill="#808080" stroke="none" stroke-opacity="1" x="496" y="184" width="59" height="5" />
	<rect fill="#ffd700" stroke="black" stroke-width="1" stroke-opacity="1" x="490" y="130" width="60" height="54" />
	<text font-family="Helvetica" font-size="15" fill="#000000" xml:space="preserve" font-weight="bold" text-anchor="middle" x="520" y="148">Base</text>
</g>
<g>
	<rect fill="white" stroke-dasharray="4,4" stroke="black" stroke-width="1" stroke-opacity="1" x="169" y="193" width="104" height="35" />
	<text font-family="Helvetica" font-size="15" fill="#000000" xml:space="preserve" text-anchor="middle" x="221" y="218">T, Parents</text>
</g>
<g>
	<line stroke="black" stroke-opacity="1" x1="402" y1="221" x2="483" y2="177" />
	<line stroke="black" stroke-opacity="1" x1="489" y1="175" x2="480" y2="172" />
	<line stroke="black" stroke-opacity="1" x1="489" y1="175" x2="486" y2="183" />
	<line stroke="black" stroke-opacity="1" x1="480" y1="172" x2="486" y2="183" />
</g>
<g>
	<line stroke="black" stroke-opacity="1" x1="155" y1="210" x2="155" y2="197" />
	<line stroke="black" stroke-opacity="1" x1="155" y1="191" x2="149" y2="197" />
	<line stroke="black" stroke-opacity="1" x1="155" y1="191" x2="161" y2="197" />
	<line stroke="black" stroke-opacity="1" x1="149" y1="197" x2="161" y2="197" />
</g>
<g>
	<line stroke="black" stroke-opacity="1" x1="940" y1="525" x2="415" y2="283" />
	<line stroke="black" stroke-opacity="1" x1="410" y1="281" x2="412" y2="288" />
	<line stroke="black" stroke-opacity="1" x1="410" y1="281" x2="417" y2="278" />
	<line stroke="black" stroke-opacity="1" x1="412" y1="288" x2="417" y2="278" />
</g>
<g>
	<line stroke="black" stroke-opacity="1" x1="522" y1="221" x2="522" y2="196" />
	<line stroke="black" stroke-opacity="1" x1="522" y1="190" x2="516" y2="196" />
	<line stroke="black" stroke-opacity="1" x1="522" y1="190" x2="528" y2="196" />
	<line stroke="black" stroke-opacity="1" x1="516" y1="196" x2="528" y2="196" />
</g>
<g>
	<rect fill="#808080" stroke="none" stroke-opacity="1" x="458" y="137" width="5" height="53" />
	<rect fill="#808080" stroke="none" stroke-opacity="1" x="232" y="185" width="231" height="5" />
	<rect fill="#ffeb60" stroke="black" stroke-width="1" stroke-opacity="1" x="226" y="131" width="232" height="54" />
	<text font-family="Helvetica" font-size="15" fill="#000000" xml:space="preserve" font-weight="bold" text-anchor="middle" x="342" y="149">BaseObjectDescription</text>
</g>
<g>
	<line stroke="black" stroke-opacity="1" x1="1061" y1="524" x2="1067" y2="522" />
</g>
<g>
	<line stroke="black" stroke-opacity="1" x1="1067" y1="522" x2="1067" y2="222" />
</g>
<g>
	<line stroke="black" stroke-opacity="1" x1="1067" y1="222" x2="1040" y2="195" />
	<line stroke="black" stroke-opacity="1" x1="1036" y1="191" x2="1036" y2="199" />
	<line stroke="black" stroke-opacity="1" x1="1036" y1="191" x2="1044" y2="191" />
	<line stroke="black" stroke-opacity="1" x1="1036" y1="199" x2="1044" y2="191" />
</g>
<g>
	<rect fill="#808080" stroke="none" stroke-opacity="1" x="710" y="228" width="5" height="53" />
	<rect fill="#808080" stroke="none" stroke-opacity="1" x="608" y="276" width="107" height="5" />
	<rect fill="#ffeb60" stroke="black" stroke-width="1" stroke-opacity="1" x="602" y="222" width="108" height="54" />
	<text font-family="Helvetica" font-size="15" fill="#000000" xml:space="preserve" font-weight="bold" font-style="italic" text-anchor="middle" x="656" y="240">BaseNode</text>
</g>
<g>
	<rect fill="#808080" stroke="none" stroke-opacity="1" x="738" y="136" width="5" height="53" />
	<rect fill="#808080" stroke="none" stroke-opacity="1" x="666" y="184" width="77" height="5" />
	<rect fill="#ffa858" stroke="black" stroke-width="1" stroke-opacity="1" x="660" y="130" width="78" height="54" />
	<text font-family="Helvetica" font-size="15" fill="#000000" xml:space="preserve" font-weight="bold" text-anchor="middle" x="699" y="148">TagSet</text>
</g>
<g>
	<rect fill="#808080" stroke="none" stroke-opacity="1" x="563" y="325" width="5" height="53" />
	<rect fill="#808080" stroke="none" stroke-opacity="1" x="483" y="373" width="85" height="5" />
	<rect fill="#ffffc0" stroke="black" stroke-width="1" stroke-opacity="1" x="477" y="319" width="86" height="54" />
	<text font-family="Helvetica" font-size="15" fill="#000000" xml:space="preserve" font-weight="bold" text-anchor="middle" x="520" y="337">Context</text>
</g>
<g>
	<rect fill="#808080" stroke="none" stroke-opacity="1" x="752" y="409" width="5" height="53" />
	<rect fill="#808080" stroke="none" stroke-opacity="1" x="580" y="457" width="177" height="5" />
	<rect fill="#ffffc0" stroke="black" stroke-width="1" stroke-opacity="1" x="574" y="403" width="178" height="54" />
	<text font-family="Helvetica" font-size="15" fill="#000000" xml:space="preserve" font-weight="bold" text-anchor="middle" x="663" y="421">KeypressedEvent</text>
</g>
<g>
	<rect fill="#808080" stroke="none" stroke-opacity="1" x="1052" y="215" width="5" height="53" />
	<rect fill="#808080" stroke="none" stroke-opacity="1" x="956" y="263" width="101" height="5" />
	<rect fill="#ffd700" stroke="black" stroke-width="1" stroke-opacity="1" x="950" y="209" width="102" height="54" />
	<text font-family="Helvetica" font-size="15" fill="#000000" xml:space="preserve" font-weight="bold" font-style="italic" text-anchor="middle" x="1001" y="227">BaseData</text>
</g>
<g>
	<line stroke="black" stroke-opacity="1" x1="522" y1="318" x2="522" y2="288" />
	<line stroke="black" stroke-opacity="1" x1="522" y1="282" x2="516" y2="288" />
	<line stroke="black" stroke-opacity="1" x1="522" y1="282" x2="528" y2="288" />
	<line stroke="black" stroke-opacity="1" x1="516" y1="288" x2="528" y2="288" />
</g>
<g>
	<line stroke="black" stroke-opacity="1" x1="685" y1="402" x2="763" y2="286" />
	<line stroke="black" stroke-opacity="1" x1="767" y1="282" x2="758" y2="283" />
	<line stroke="black" stroke-opacity="1" x1="767" y1="282" x2="768" y2="290" />
	<line stroke="black" stroke-opacity="1" x1="758" y1="283" x2="768" y2="290" />
</g>
<g>
	<line stroke="black" stroke-opacity="1" x1="614" y1="221" x2="560" y2="185" />
	<line stroke="black" stroke-opacity="1" x1="556" y1="182" x2="557" y2="190" />
	<line stroke="black" stroke-opacity="1" x1="556" y1="182" x2="564" y2="180" />
	<line stroke="black" stroke-opacity="1" x1="557" y1="190" x2="564" y2="180" />
</g>
<g>
	<line stroke="black" stroke-opacity="1" x1="1004" y1="208" x2="1004" y2="197" />
	<line stroke="black" stroke-opacity="1" x1="1004" y1="191" x2="998" y2="197" />
	<line stroke="black" stroke-opacity="1" x1="1004" y1="191" x2="1010" y2="197" />
	<line stroke="black" stroke-opacity="1" x1="998" y1="197" x2="1010" y2="197" />
</g>
<g>
	<rect fill="#808080" stroke="none" stroke-opacity="1" x="948" y="409" width="5" height="53" />
	<rect fill="#808080" stroke="none" stroke-opacity="1" x="772" y="457" width="181" height="5" />
	<rect fill="#ffffc0" stroke="black" stroke-width="1" stroke-opacity="1" x="766" y="403" width="182" height="54" />
	<text font-family="Helvetica" font-size="15" fill="#000000" xml:space="preserve" font-weight="bold" text-anchor="middle" x="857" y="421">KeyreleasedEvent</text>
</g>
<g>
	<line stroke="black" stroke-opacity="1" x1="847" y1="402" x2="804" y2="287" />
	<line stroke="black" stroke-opacity="1" x1="802" y1="282" x2="798" y2="289" />
	<line stroke="black" stroke-opacity="1" x1="802" y1="282" x2="809" y2="285" />
	<line stroke="black" stroke-opacity="1" x1="798" y1="289" x2="809" y2="285" />
</g>
<g>
	<rect fill="#808080" stroke="none" stroke-opacity="1" x="753" y="325" width="5" height="53" />
	<rect fill="#808080" stroke="none" stroke-opacity="1" x="579" y="373" width="179" height="5" />
	<rect fill="#ffffc0" stroke="black" stroke-width="1" stroke-opacity="1" x="573" y="319" width="180" height="54" />
	<text font-family="Helvetica" font-size="15" fill="#000000" xml:space="preserve" font-weight="bold" text-anchor="middle" x="663" y="337">DetachNodeEvent</text>
</g>
<g>
	<rect fill="#808080" stroke="none" stroke-opacity="1" x="1031" y="392" width="5" height="77" />
	<rect fill="#808080" stroke="none" stroke-opacity="1" x="977" y="464" width="59" height="5" />
	<rect fill="#ffd700" stroke="black" stroke-width="1" stroke-opacity="1" x="971" y="386" width="60" height="78" />
	<text font-family="Helvetica" font-size="15" fill="#000000" xml:space="preserve" font-weight="bold" text-anchor="middle" x="1001" y="428">Data</text>
</g>
<g>
	<rect fill="white" stroke-dasharray="4,4" stroke="black" stroke-width="1" stroke-opacity="1" x="1015" y="368" width="32" height="35" />
	<text font-family="Helvetica" font-size="15" fill="#000000" xml:space="preserve" text-anchor="middle" x="1031" y="393">T</text>
</g>
<g>
	<line stroke="black" stroke-opacity="1" x1="1004" y1="285" x2="1004" y2="275" />
	<line stroke="black" stroke-opacity="1" x1="1004" y1="269" x2="998" y2="275" />
	<line stroke="black" stroke-opacity="1" x1="1004" y1="269" x2="1010" y2="275" />
	<line stroke="black" stroke-opacity="1" x1="998" y1="275" x2="1010" y2="275" />
</g>
<g>
	<line stroke="black" stroke-opacity="1" x1="1005" y1="385" x2="1005" y2="376" />
	<line stroke="black" stroke-opacity="1" x1="1005" y1="370" x2="999" y2="376" />
	<line stroke="black" stroke-opacity="1" x1="1005" y1="370" x2="1011" y2="376" />
	<line stroke="black" stroke-opacity="1" x1="999" y1="376" x2="1011" y2="376" />
</g>
<g>
	<line stroke="black" stroke-opacity="1" x1="702" y1="318" x2="749" y2="280" />
	<line stroke="black" stroke-opacity="1" x1="754" y1="277" x2="745" y2="276" />
	<line stroke="black" stroke-opacity="1" x1="754" y1="277" x2="753" y2="285" />
	<line stroke="black" stroke-opacity="1" x1="745" y1="276" x2="753" y2="285" />
</g>
<g>
	<rect fill="#808080" stroke="none" stroke-opacity="1" x="949" y="325" width="5" height="53" />
	<rect fill="#808080" stroke="none" stroke-opacity="1" x="769" y="373" width="185" height="5" />
	<rect fill="#ffffc0" stroke="black" stroke-width="1" stroke-opacity="1" x="763" y="319" width="186" height="54" />
	<text font-family="Helvetica" font-size="15" fill="#000000" xml:space="preserve" font-weight="bold" text-anchor="middle" x="856" y="337">GLInitializedEvent</text>
</g>
<g>
	<line stroke="black" stroke-opacity="1" x1="837" y1="318" x2="815" y2="286" />
	<line stroke="black" stroke-opacity="1" x1="812" y1="282" x2="810" y2="290" />
	<line stroke="black" stroke-opacity="1" x1="812" y1="282" x2="820" y2="283" />
	<line stroke="black" stroke-opacity="1" x1="810" y1="290" x2="820" y2="283" />
</g>
</svg>
