<?xml version="1.0" encoding="UTF-8" standalone="no"?>
<!-- Created with Bouml (http://bouml.free.fr/) -->
<!DOCTYPE svg PUBLIC "-//W3C//DTD SVG 1.1//EN" "http://www.w3.org/Graphics/SVG/1.1/DTD/svg11.dtd">
<svg width="1121" height="654" version="1.1" xmlns="http://www.w3.org/2000/svg">
<g>
	<rect fill="#f6f6f6" stroke="black" stroke-width="1" stroke-opacity="1" x="8" y="9" width="437" height="29" />
	<rect fill="#808080" stroke="none" stroke-opacity="1" x="445" y="15" width="5" height="22" />
	<text font-family="Helvetica" font-size="15" fill="#000000" xml:space="preserve" text-anchor="middle" x="227" y="31">sofa</text>
	<rect fill="#f6f6f6" stroke="black" stroke-width="1" stroke-opacity="1" x="8" y="38" width="1095" height="598" />
	<rect fill="#808080" stroke="none" stroke-opacity="1" x="1103" y="44" width="5" height="597" />
	<rect fill="#808080" stroke="none" stroke-opacity="1" x="14" y="636" width="1094" height="5" />
</g>
<g>
	<rect fill="#ededed" stroke="black" stroke-width="1" stroke-opacity="1" x="41" y="50" width="417" height="29" />
	<rect fill="#808080" stroke="none" stroke-opacity="1" x="458" y="56" width="5" height="22" />
	<text font-family="Helvetica" font-size="15" fill="#000000" xml:space="preserve" text-anchor="middle" x="250" y="72">core</text>
	<rect fill="#ededed" stroke="black" stroke-width="1" stroke-opacity="1" x="41" y="79" width="1046" height="537" />
	<rect fill="#808080" stroke="none" stroke-opacity="1" x="1087" y="85" width="5" height="536" />
	<rect fill="#808080" stroke="none" stroke-opacity="1" x="47" y="616" width="1045" height="5" />
</g>
<g>
	<rect fill="#dcdcdc" stroke="black" stroke-width="1" stroke-opacity="1" x="781" y="110" width="115" height="29" />
	<rect fill="#808080" stroke="none" stroke-opacity="1" x="896" y="116" width="5" height="22" />
	<text font-family="Helvetica" font-size="15" fill="#000000" xml:space="preserve" text-anchor="middle" x="839" y="132">objectmodel</text>
	<rect fill="#dcdcdc" stroke="black" stroke-width="1" stroke-opacity="1" x="781" y="139" width="290" height="87" />
	<rect fill="#808080" stroke="none" stroke-opacity="1" x="1071" y="145" width="5" height="86" />
	<rect fill="#808080" stroke="none" stroke-opacity="1" x="787" y="226" width="289" height="5" />
</g>
<g>
	<rect fill="#dcdcdc" stroke="black" stroke-width="1" stroke-opacity="1" x="80" y="276" width="396" height="29" />
	<rect fill="#808080" stroke="none" stroke-opacity="1" x="476" y="282" width="5" height="22" />
	<text font-family="Helvetica" font-size="15" fill="#000000" xml:space="preserve" text-anchor="middle" x="278" y="298">behavior</text>
	<rect fill="#dcdcdc" stroke="black" stroke-width="1" stroke-opacity="1" x="80" y="305" width="993" height="289" />
	<rect fill="#808080" stroke="none" stroke-opacity="1" x="1073" y="311" width="5" height="288" />
	<rect fill="#808080" stroke="none" stroke-opacity="1" x="86" y="594" width="992" height="5" />
</g>
<g>
	<rect fill="#808080" stroke="none" stroke-opacity="1" x="918" y="159" width="5" height="53" />
	<rect fill="#808080" stroke="none" stroke-opacity="1" x="802" y="207" width="121" height="5" />
	<rect fill="#ffd700" stroke="black" stroke-width="1" stroke-opacity="1" x="796" y="153" width="122" height="54" />
	<text font-family="Helvetica" font-size="15" fill="#000000" xml:space="preserve" font-weight="bold" text-anchor="middle" x="857" y="171">BaseObject</text>
</g>
<g>
	<rect fill="#808080" stroke="none" stroke-opacity="1" x="739" y="318" width="5" height="53" />
	<rect fill="#808080" stroke="none" stroke-opacity="1" x="585" y="366" width="159" height="5" />
	<rect fill="#ffffc0" stroke="black" stroke-width="1" stroke-opacity="1" x="579" y="312" width="160" height="54" />
	<text font-family="Helvetica" font-size="15" fill="#000000" xml:space="preserve" font-weight="bold" font-style="italic" text-anchor="middle" x="659" y="330">BaseForceField</text>
</g>
<g>
	<rect fill="#808080" stroke="none" stroke-opacity="1" x="566" y="105" width="5" height="53" />
	<rect fill="#808080" stroke="none" stroke-opacity="1" x="464" y="153" width="107" height="5" />
	<rect fill="#ffdca8" stroke="black" stroke-width="1" stroke-opacity="1" x="458" y="99" width="108" height="54" />
	<text font-family="Helvetica" font-size="15" fill="#000000" xml:space="preserve" font-weight="bold" font-style="italic" text-anchor="middle" x="512" y="117">BaseState</text>
</g>
<g>
	<line stroke="black" stroke-opacity="1" x1="572" y1="136" x2="789" y2="170" />
	<line stroke="black" stroke-opacity="1" x1="795" y1="171" x2="790" y2="164" />
	<line stroke="black" stroke-opacity="1" x1="795" y1="171" x2="788" y2="175" />
	<line stroke="black" stroke-opacity="1" x1="790" y1="164" x2="788" y2="175" />
</g>
<g>
	<line stroke="black" stroke-opacity="1" x1="698" y1="311" x2="815" y2="216" />
	<line stroke="black" stroke-opacity="1" x1="820" y1="213" x2="811" y2="212" />
	<line stroke="black" stroke-opacity="1" x1="820" y1="213" x2="819" y2="221" />
	<line stroke="black" stroke-opacity="1" x1="811" y1="212" x2="819" y2="221" />
</g>
<g>
	<rect fill="#808080" stroke="none" stroke-opacity="1" x="647" y="402" width="5" height="77" />
	<rect fill="#808080" stroke="none" stroke-opacity="1" x="541" y="474" width="111" height="5" />
	<rect fill="#ffd700" stroke="black" stroke-width="1" stroke-opacity="1" x="535" y="396" width="112" height="78" />
	<text font-family="Helvetica" font-size="15" fill="#000000" xml:space="preserve" font-weight="bold" font-style="italic" text-anchor="middle" x="591" y="438">ForceField</text>
</g>
<g>
	<rect fill="#808080" stroke="none" stroke-opacity="1" x="931" y="414" width="5" height="53" />
	<rect fill="#808080" stroke="none" stroke-opacity="1" x="675" y="462" width="261" height="5" />
	<rect fill="#ffffc0" stroke="black" stroke-width="1" stroke-opacity="1" x="669" y="408" width="262" height="54" />
	<text font-family="Helvetica" font-size="15" fill="#000000" xml:space="preserve" font-weight="bold" font-style="italic" text-anchor="middle" x="800" y="426">BaseInteractionForceField</text>
</g>
<g>
	<rect fill="#808080" stroke="none" stroke-opacity="1" x="346" y="93" width="5" height="77" />
	<rect fill="#808080" stroke="none" stroke-opacity="1" x="276" y="165" width="75" height="5" />
	<rect fill="#ffa858" stroke="black" stroke-width="1" stroke-opacity="1" x="270" y="87" width="76" height="78" />
	<text font-family="Helvetica" font-size="15" fill="#000000" xml:space="preserve" font-weight="bold" text-anchor="middle" x="308" y="129">TVecId</text>
</g>
<g>
	<rect fill="#808080" stroke="none" stroke-opacity="1" x="542" y="195" width="5" height="77" />
	<rect fill="#808080" stroke="none" stroke-opacity="1" x="488" y="267" width="59" height="5" />
	<rect fill="#c05800" stroke="black" stroke-width="1" stroke-opacity="1" x="482" y="189" width="60" height="78" />
	<text font-family="Helvetica" font-size="15" fill="#000000" xml:space="preserve" font-weight="bold" font-style="italic" text-anchor="middle" x="512" y="231">State</text>
</g>
<g>
	<rect fill="white" stroke-dasharray="4,4" stroke="black" stroke-width="1" stroke-opacity="1" x="325" y="69" width="143" height="35" />
	<text font-family="Helvetica" font-size="15" fill="#000000" xml:space="preserve" text-anchor="middle" x="397" y="94">vtype, vaccess</text>
</g>
<g>
	<rect fill="white" stroke-dasharray="4,4" stroke="black" stroke-width="1" stroke-opacity="1" x="526" y="171" width="107" height="35" />
	<text font-family="Helvetica" font-size="15" fill="#000000" xml:space="preserve" text-anchor="middle" x="580" y="196">DataTypes</text>
</g>
<g>
	<rect fill="white" stroke-dasharray="4,4" stroke="black" stroke-width="1" stroke-opacity="1" x="614" y="378" width="107" height="35" />
	<text font-family="Helvetica" font-size="15" fill="#000000" xml:space="preserve" text-anchor="middle" x="668" y="403">DataTypes</text>
</g>
<g>
	<line stroke="black" stroke-opacity="1" x1="757" y1="407" x2="710" y2="375" />
	<line stroke="black" stroke-opacity="1" x1="706" y1="372" x2="707" y2="380" />
	<line stroke="black" stroke-opacity="1" x1="706" y1="372" x2="714" y2="370" />
	<line stroke="black" stroke-opacity="1" x1="707" y1="380" x2="714" y2="370" />
</g>
<g>
	<line stroke="black" stroke-opacity="1" x1="515" y1="188" x2="515" y2="165" />
	<line stroke="black" stroke-opacity="1" x1="515" y1="159" x2="509" y2="165" />
	<line stroke="black" stroke-opacity="1" x1="515" y1="159" x2="521" y2="165" />
	<line stroke="black" stroke-opacity="1" x1="509" y1="165" x2="521" y2="165" />
</g>
<g>
	<line stroke="black" stroke-opacity="1" x1="623" y1="395" x2="633" y2="377" />
	<line stroke="black" stroke-opacity="1" x1="637" y1="372" x2="628" y2="374" />
	<line stroke="black" stroke-opacity="1" x1="637" y1="372" x2="639" y2="380" />
	<line stroke="black" stroke-opacity="1" x1="628" y1="374" x2="639" y2="380" />
</g>
<g>
	<rect fill="#808080" stroke="none" stroke-opacity="1" x="1059" y="467" width="5" height="53" />
	<rect fill="#808080" stroke="none" stroke-opacity="1" x="933" y="515" width="131" height="5" />
	<rect fill="#ffd700" stroke="black" stroke-width="1" stroke-opacity="1" x="927" y="461" width="132" height="54" />
	<text font-family="Helvetica" font-size="15" fill="#000000" xml:space="preserve" font-weight="bold" font-style="italic" text-anchor="middle" x="993" y="479">LinearSolver</text>
</g>
<g>
	<line stroke="black" stroke-opacity="1" x1="982" y1="460" x2="875" y2="218" />
	<line stroke="black" stroke-opacity="1" x1="873" y1="213" x2="869" y2="220" />
	<line stroke="black" stroke-opacity="1" x1="873" y1="213" x2="880" y2="216" />
	<line stroke="black" stroke-opacity="1" x1="869" y1="220" x2="880" y2="216" />
</g>
<g>
	<rect fill="#808080" stroke="none" stroke-opacity="1" x="823" y="509" width="5" height="77" />
	<rect fill="#808080" stroke="none" stroke-opacity="1" x="575" y="581" width="253" height="5" />
	<rect fill="#ffd700" stroke="black" stroke-width="1" stroke-opacity="1" x="569" y="503" width="254" height="78" />
	<text font-family="Helvetica" font-size="15" fill="#000000" xml:space="preserve" font-weight="bold" font-style="italic" text-anchor="middle" x="696" y="545">PairInteractionForceField</text>
</g>
<g>
	<rect fill="white" stroke-dasharray="4,4" stroke="black" stroke-width="1" stroke-opacity="1" x="742" y="485" width="129" height="35" />
	<text font-family="Helvetica" font-size="15" fill="#000000" xml:space="preserve" text-anchor="middle" x="807" y="510">DataTypes</text>
</g>
<g>
	<line stroke="black" stroke-opacity="1" x1="738" y1="502" x2="766" y2="472" />
	<line stroke="black" stroke-opacity="1" x1="771" y1="468" x2="762" y2="468" />
	<line stroke="black" stroke-opacity="1" x1="771" y1="468" x2="771" y2="476" />
	<line stroke="black" stroke-opacity="1" x1="762" y1="468" x2="771" y2="476" />
</g>
<g>
	<rect fill="#808080" stroke="none" stroke-opacity="1" x="1060" y="395" width="5" height="53" />
	<rect fill="#808080" stroke="none" stroke-opacity="1" x="954" y="443" width="111" height="5" />
	<rect fill="#ffd700" stroke="black" stroke-width="1" stroke-opacity="1" x="948" y="389" width="112" height="54" />
	<text font-family="Helvetica" font-size="15" fill="#000000" xml:space="preserve" font-weight="bold" font-style="italic" text-anchor="middle" x="1004" y="407">OdeSolver</text>
</g>
<g>
	<line stroke="black" stroke-opacity="1" x1="987" y1="388" x2="881" y2="218" />
	<line stroke="black" stroke-opacity="1" x1="878" y1="213" x2="876" y2="221" />
	<line stroke="black" stroke-opacity="1" x1="878" y1="213" x2="886" y2="214" />
	<line stroke="black" stroke-opacity="1" x1="876" y1="221" x2="886" y2="214" />
</g>
<g>
	<rect fill="#808080" stroke="none" stroke-opacity="1" x="1061" y="318" width="5" height="53" />
	<rect fill="#808080" stroke="none" stroke-opacity="1" x="929" y="366" width="137" height="5" />
	<rect fill="#ffd700" stroke="black" stroke-width="1" stroke-opacity="1" x="923" y="312" width="138" height="54" />
	<text font-family="Helvetica" font-size="15" fill="#000000" xml:space="preserve" font-weight="bold" font-style="italic" text-anchor="middle" x="992" y="330">MasterSolver</text>
</g>
<g>
	<line stroke="black" stroke-opacity="1" x1="968" y1="311" x2="888" y2="217" />
	<line stroke="black" stroke-opacity="1" x1="885" y1="213" x2="884" y2="221" />
	<line stroke="black" stroke-opacity="1" x1="885" y1="213" x2="893" y2="213" />
	<line stroke="black" stroke-opacity="1" x1="884" y1="221" x2="893" y2="213" />
</g>
<g>
	<rect fill="#808080" stroke="none" stroke-opacity="1" x="919" y="318" width="5" height="53" />
	<rect fill="#808080" stroke="none" stroke-opacity="1" x="771" y="366" width="153" height="5" />
	<rect fill="#ffffc0" stroke="black" stroke-width="1" stroke-opacity="1" x="765" y="312" width="154" height="54" />
	<text font-family="Helvetica" font-size="15" fill="#000000" xml:space="preserve" font-weight="bold" text-anchor="middle" x="842" y="330">BaseController</text>
</g>
<g>
	<line stroke="black" stroke-opacity="1" x1="847" y1="311" x2="855" y2="218" />
	<line stroke="black" stroke-opacity="1" x1="856" y1="213" x2="849" y2="218" />
	<line stroke="black" stroke-opacity="1" x1="856" y1="213" x2="861" y2="219" />
	<line stroke="black" stroke-opacity="1" x1="849" y1="218" x2="861" y2="219" />
</g>
<g>
	<rect fill="#808080" stroke="none" stroke-opacity="1" x="378" y="404" width="5" height="77" />
	<rect fill="#808080" stroke="none" stroke-opacity="1" x="216" y="476" width="167" height="5" />
	<rect fill="#ffd700" stroke="black" stroke-width="1" stroke-opacity="1" x="210" y="398" width="168" height="78" />
	<text font-family="Helvetica" font-size="15" fill="#000000" xml:space="preserve" font-weight="bold" font-style="italic" text-anchor="middle" x="294" y="440">MechanicalState</text>
</g>
<g>
	<rect fill="white" stroke-dasharray="4,4" stroke="black" stroke-width="1" stroke-opacity="1" x="326" y="380" width="107" height="35" />
	<text font-family="Helvetica" font-size="15" fill="#000000" xml:space="preserve" text-anchor="middle" x="380" y="405">DataTypes</text>
</g>
<g>
	<line stroke="black" stroke-opacity="1" x1="338" y1="397" x2="476" y2="263" />
	<line stroke="black" stroke-opacity="1" x1="481" y1="259" x2="472" y2="258" />
	<line stroke="black" stroke-opacity="1" x1="481" y1="259" x2="480" y2="267" />
	<line stroke="black" stroke-opacity="1" x1="472" y1="258" x2="480" y2="267" />
</g>
<g>
	<rect fill="#808080" stroke="none" stroke-opacity="1" x="194" y="402" width="5" height="77" />
	<rect fill="#808080" stroke="none" stroke-opacity="1" x="94" y="474" width="105" height="5" />
	<rect fill="#ff8000" stroke="black" stroke-width="1" stroke-opacity="1" x="88" y="396" width="106" height="78" />
	<text font-family="Helvetica" font-size="15" fill="#000000" xml:space="preserve" font-weight="bold" text-anchor="middle" x="141" y="438">TMultiVec</text>
</g>
<g>
	<rect fill="white" stroke-dasharray="4,4" stroke="black" stroke-width="1" stroke-opacity="1" x="163" y="378" width="59" height="35" />
	<text font-family="Helvetica" font-size="15" fill="#000000" xml:space="preserve" text-anchor="middle" x="193" y="403">vtype</text>
</g>
<g>
	<rect fill="#808080" stroke="none" stroke-opacity="1" x="490" y="402" width="5" height="77" />
	<rect fill="#808080" stroke="none" stroke-opacity="1" x="434" y="474" width="61" height="5" />
	<rect fill="#ffd700" stroke="black" stroke-width="1" stroke-opacity="1" x="428" y="396" width="62" height="78" />
	<text font-family="Helvetica" font-size="15" fill="#000000" xml:space="preserve" font-weight="bold" text-anchor="middle" x="459" y="438">Mass</text>
</g>
<g>
	<rect fill="#808080" stroke="none" stroke-opacity="1" x="212" y="105" width="5" height="53" />
	<rect fill="#808080" stroke="none" stroke-opacity="1" x="88" y="153" width="129" height="5" />
	<rect fill="#ff8000" stroke="black" stroke-width="1" stroke-opacity="1" x="82" y="99" width="130" height="54" />
	<text font-family="Helvetica" font-size="15" fill="#000000" xml:space="preserve" font-weight="bold" text-anchor="middle" x="147" y="117">ExecParams</text>
</g>
<g>
	<rect fill="white" stroke-dasharray="4,4" stroke="black" stroke-width="1" stroke-opacity="1" x="473" y="378" width="107" height="35" />
	<text font-family="Helvetica" font-size="15" fill="#000000" xml:space="preserve" text-anchor="middle" x="527" y="403">DataTypes</text>
</g>
<g>
	<line stroke="black" stroke-opacity="1" x1="496" y1="438" x2="528" y2="438" />
	<line stroke="black" stroke-opacity="1" x1="534" y1="438" x2="528" y2="432" />
	<line stroke="black" stroke-opacity="1" x1="534" y1="438" x2="528" y2="444" />
	<line stroke="black" stroke-opacity="1" x1="528" y1="432" x2="528" y2="444" />
</g>
<g>
	<rect fill="#808080" stroke="none" stroke-opacity="1" x="508" y="509" width="5" height="77" />
	<rect fill="#808080" stroke="none" stroke-opacity="1" x="242" y="581" width="271" height="5" />
	<rect fill="#ffffc0" stroke="black" stroke-width="1" stroke-opacity="1" x="236" y="503" width="272" height="78" />
	<text font-family="Helvetica" font-size="15" fill="#000000" xml:space="preserve" font-weight="bold" font-style="italic" text-anchor="middle" x="372" y="545">MixedInteractionForceField</text>
</g>
<g>
	<rect fill="white" stroke-dasharray="4,4" stroke="black" stroke-width="1" stroke-opacity="1" x="421" y="485" width="237" height="35" />
	<text font-family="Helvetica" font-size="15" fill="#000000" xml:space="preserve" text-anchor="middle" x="540" y="510">DataTypes1, DataTypes2</text>
</g>
<g>
	<line stroke="black" stroke-opacity="1" x1="514" y1="508" x2="665" y2="469" />
	<line stroke="black" stroke-opacity="1" x1="671" y1="468" x2="663" y2="463" />
	<line stroke="black" stroke-opacity="1" x1="671" y1="468" x2="666" y2="475" />
	<line stroke="black" stroke-opacity="1" x1="663" y1="463" x2="666" y2="475" />
</g>
<g>
	<rect fill="#808080" stroke="none" stroke-opacity="1" x="243" y="207" width="5" height="53" />
	<rect fill="#808080" stroke="none" stroke-opacity="1" x="57" y="255" width="191" height="5" />
	<rect fill="#c05800" stroke="black" stroke-width="1" stroke-opacity="1" x="51" y="201" width="192" height="54" />
	<text font-family="Helvetica" font-size="15" fill="#000000" xml:space="preserve" font-weight="bold" text-anchor="middle" x="147" y="219">MechanicalParams</text>
</g>
<g>
	<rect fill="#808080" stroke="none" stroke-opacity="1" x="1043" y="159" width="5" height="53" />
	<rect fill="#808080" stroke="none" stroke-opacity="1" x="989" y="207" width="59" height="5" />
	<rect fill="#ffeb60" stroke="black" stroke-width="1" stroke-opacity="1" x="983" y="153" width="60" height="54" />
	<text font-family="Helvetica" font-size="15" fill="#000000" xml:space="preserve" font-weight="bold" text-anchor="middle" x="1013" y="171">Base</text>
</g>
<g>
	<rect fill="#808080" stroke="none" stroke-opacity="1" x="513" y="318" width="5" height="53" />
	<rect fill="#808080" stroke="none" stroke-opacity="1" x="411" y="366" width="107" height="5" />
	<rect fill="#ffffc0" stroke="black" stroke-width="1" stroke-opacity="1" x="405" y="312" width="108" height="54" />
	<text font-family="Helvetica" font-size="15" fill="#000000" xml:space="preserve" font-weight="bold" font-style="italic" text-anchor="middle" x="459" y="330">BaseMass</text>
</g>
<g>
	<rect fill="#808080" stroke="none" stroke-opacity="1" x="1061" y="533" width="5" height="53" />
	<rect fill="#808080" stroke="none" stroke-opacity="1" x="841" y="581" width="225" height="5" />
	<rect fill="#ffa858" stroke="black" stroke-width="1" stroke-opacity="1" x="835" y="527" width="226" height="54" />
	<text font-family="Helvetica" font-size="15" fill="#000000" xml:space="preserve" font-weight="bold" font-style="italic" text-anchor="middle" x="948" y="545">BaseVectorOperations</text>
</g>
<g>
	<line stroke="black" stroke-opacity="1" x1="519" y1="318" x2="789" y2="208" />
	<line stroke="black" stroke-opacity="1" x1="795" y1="206" x2="787" y2="202" />
	<line stroke="black" stroke-opacity="1" x1="795" y1="206" x2="791" y2="213" />
	<line stroke="black" stroke-opacity="1" x1="787" y1="202" x2="791" y2="213" />
</g>
<g>
	<line stroke="black" stroke-opacity="1" x1="462" y1="395" x2="462" y2="378" />
	<line stroke="black" stroke-opacity="1" x1="462" y1="372" x2="456" y2="378" />
	<line stroke="black" stroke-opacity="1" x1="462" y1="372" x2="468" y2="378" />
	<line stroke="black" stroke-opacity="1" x1="456" y1="378" x2="468" y2="378" />
</g>
<g>
	<line stroke="black" stroke-opacity="1" x1="924" y1="183" x2="976" y2="183" />
	<line stroke="black" stroke-opacity="1" x1="982" y1="183" x2="976" y2="177" />
	<line stroke="black" stroke-opacity="1" x1="982" y1="183" x2="976" y2="189" />
	<line stroke="black" stroke-opacity="1" x1="976" y1="177" x2="976" y2="189" />
</g>
<g>
	<line stroke="black" stroke-opacity="1" x1="150" y1="200" x2="150" y2="165" />
	<line stroke="black" stroke-opacity="1" x1="150" y1="159" x2="144" y2="165" />
	<line stroke="black" stroke-opacity="1" x1="150" y1="159" x2="156" y2="165" />
	<line stroke="black" stroke-opacity="1" x1="144" y1="165" x2="156" y2="165" />
</g>
<g>
	<rect fill="#808080" stroke="none" stroke-opacity="1" x="207" y="509" width="5" height="77" />
	<rect fill="#808080" stroke="none" stroke-opacity="1" x="93" y="581" width="119" height="5" />
	<rect fill="#ffd700" stroke="black" stroke-width="1" stroke-opacity="1" x="87" y="503" width="120" height="78" />
	<text font-family="Helvetica" font-size="15" fill="#000000" xml:space="preserve" font-weight="bold" text-anchor="middle" x="147" y="545">MultiMatrix</text>
</g>
<g>
	<rect fill="white" stroke-dasharray="4,4" stroke="black" stroke-width="1" stroke-opacity="1" x="171" y="485" width="70" height="35" />
	<text font-family="Helvetica" font-size="15" fill="#000000" xml:space="preserve" text-anchor="middle" x="206" y="510">Parent</text>
</g>
<g>
	<rect fill="#808080" stroke="none" stroke-opacity="1" x="402" y="318" width="5" height="53" />
	<rect fill="#808080" stroke="none" stroke-opacity="1" x="192" y="366" width="215" height="5" />
	<rect fill="#ffffc0" stroke="black" stroke-width="1" stroke-opacity="1" x="186" y="312" width="216" height="54" />
	<text font-family="Helvetica" font-size="15" fill="#000000" xml:space="preserve" font-weight="bold" font-style="italic" text-anchor="middle" x="294" y="330">BaseMechanicalState</text>
</g>
<g>
	<line stroke="black" stroke-opacity="1" x1="297" y1="397" x2="297" y2="378" />
	<line stroke="black" stroke-opacity="1" x1="297" y1="372" x2="291" y2="378" />
	<line stroke="black" stroke-opacity="1" x1="297" y1="372" x2="303" y2="378" />
	<line stroke="black" stroke-opacity="1" x1="291" y1="378" x2="303" y2="378" />
</g>
<g>
	<line stroke="black" stroke-opacity="1" x1="326" y1="311" x2="475" y2="163" />
	<line stroke="black" stroke-opacity="1" x1="480" y1="159" x2="471" y2="158" />
	<line stroke="black" stroke-opacity="1" x1="480" y1="159" x2="479" y2="167" />
	<line stroke="black" stroke-opacity="1" x1="471" y1="158" x2="479" y2="167" />
</g>
<g>
	<rect fill="#808080" stroke="none" stroke-opacity="1" x="730" y="195" width="5" height="77" />
	<rect fill="#808080" stroke="none" stroke-opacity="1" x="642" y="267" width="93" height="5" />
	<rect fill="#ff8000" stroke="black" stroke-width="1" stroke-opacity="1" x="636" y="189" width="94" height="78" />
	<text font-family="Helvetica" font-size="15" fill="#000000" xml:space="preserve" font-weight="bold" font-style="italic" text-anchor="middle" x="683" y="231">Mapping</text>
</g>
<g>
	<rect fill="white" stroke-dasharray="4,4" stroke="black" stroke-width="1" stroke-opacity="1" x="703" y="171" width="73" height="35" />
	<text font-family="Helvetica" font-size="15" fill="#000000" xml:space="preserve" text-anchor="middle" x="740" y="196">In, Out</text>
</g>
<g>
	<rect fill="#808080" stroke="none" stroke-opacity="1" x="371" y="195" width="5" height="77" />
	<rect fill="#808080" stroke="none" stroke-opacity="1" x="253" y="267" width="123" height="5" />
	<rect fill="#ffa858" stroke="black" stroke-width="1" stroke-opacity="1" x="247" y="189" width="124" height="78" />
	<text font-family="Helvetica" font-size="15" fill="#000000" xml:space="preserve" font-weight="bold" text-anchor="middle" x="309" y="231">TMultiVecId</text>
</g>
<g>
	<rect fill="white" stroke-dasharray="4,4" stroke="black" stroke-width="1" stroke-opacity="1" x="334" y="171" width="143" height="35" />
	<text font-family="Helvetica" font-size="15" fill="#000000" xml:space="preserve" text-anchor="middle" x="406" y="196">vtype, vaccess</text>
</g>
<g>
	<rect fill="#808080" stroke="none" stroke-opacity="1" x="753" y="105" width="5" height="53" />
	<rect fill="#808080" stroke="none" stroke-opacity="1" x="619" y="153" width="139" height="5" />
	<rect fill="#ffdca8" stroke="black" stroke-width="1" stroke-opacity="1" x="613" y="99" width="140" height="54" />
	<text font-family="Helvetica" font-size="15" fill="#000000" xml:space="preserve" font-weight="bold" font-style="italic" text-anchor="middle" x="683" y="117">BaseMapping</text>
</g>
<g>
	<line stroke="black" stroke-opacity="1" x1="686" y1="188" x2="686" y2="165" />
	<line stroke="black" stroke-opacity="1" x1="686" y1="159" x2="680" y2="165" />
	<line stroke="black" stroke-opacity="1" x1="686" y1="159" x2="692" y2="165" />
	<line stroke="black" stroke-opacity="1" x1="680" y1="165" x2="692" y2="165" />
</g>
<g>
	<line stroke="black" stroke-opacity="1" x1="759" y1="151" x2="789" y2="160" />
	<line stroke="black" stroke-opacity="1" x1="795" y1="162" x2="791" y2="154" />
	<line stroke="black" stroke-opacity="1" x1="795" y1="162" x2="787" y2="165" />
	<line stroke="black" stroke-opacity="1" x1="791" y1="154" x2="787" y2="165" />
</g>
</svg>
