<?xml version="1.0" encoding="UTF-8" standalone="no"?>
<!-- Created with Bouml (http://bouml.free.fr/) -->
<!DOCTYPE svg PUBLIC "-//W3C//DTD SVG 1.1//EN" "http://www.w3.org/Graphics/SVG/1.1/DTD/svg11.dtd">
<svg width="1121" height="654" version="1.1" xmlns="http://www.w3.org/2000/svg">
<g>
	<rect fill="#f6f6f6" stroke="black" stroke-width="1" stroke-opacity="1" x="8" y="9" width="437" height="29" />
	<rect fill="#808080" stroke="none" stroke-opacity="1" x="445" y="15" width="5" height="22" />
	<text font-family="Helvetica" font-size="15" fill="#000000" xml:space="preserve" text-anchor="middle" x="227" y="31">sofa</text>
	<rect fill="#f6f6f6" stroke="black" stroke-width="1" stroke-opacity="1" x="8" y="38" width="1095" height="598" />
	<rect fill="#808080" stroke="none" stroke-opacity="1" x="1103" y="44" width="5" height="597" />
	<rect fill="#808080" stroke="none" stroke-opacity="1" x="14" y="636" width="1094" height="5" />
</g>
<g>
	<rect fill="#ededed" stroke="black" stroke-width="1" stroke-opacity="1" x="42" y="50" width="418" height="29" />
	<rect fill="#808080" stroke="none" stroke-opacity="1" x="460" y="56" width="5" height="22" />
	<text font-family="Helvetica" font-size="15" fill="#000000" xml:space="preserve" text-anchor="middle" x="251" y="72">core</text>
	<rect fill="#ededed" stroke="black" stroke-width="1" stroke-opacity="1" x="42" y="79" width="1047" height="537" />
	<rect fill="#808080" stroke="none" stroke-opacity="1" x="1089" y="85" width="5" height="536" />
	<rect fill="#808080" stroke="none" stroke-opacity="1" x="48" y="616" width="1046" height="5" />
</g>
<g>
	<rect fill="#dcdcdc" stroke="black" stroke-width="1" stroke-opacity="1" x="83" y="92" width="396" height="29" />
	<rect fill="#808080" stroke="none" stroke-opacity="1" x="479" y="98" width="5" height="22" />
	<text font-family="Helvetica" font-size="15" fill="#000000" xml:space="preserve" text-anchor="middle" x="281" y="114">objectmodel</text>
	<rect fill="#dcdcdc" stroke="black" stroke-width="1" stroke-opacity="1" x="83" y="121" width="993" height="364" />
	<rect fill="#808080" stroke="none" stroke-opacity="1" x="1076" y="127" width="5" height="363" />
	<rect fill="#808080" stroke="none" stroke-opacity="1" x="89" y="485" width="992" height="5" />
</g>
<g>
	<rect fill="#808080" stroke="none" stroke-opacity="1" x="222" y="531" width="5" height="53" />
	<rect fill="#808080" stroke="none" stroke-opacity="1" x="82" y="579" width="145" height="5" />
	<rect fill="#ffd700" stroke="black" stroke-width="1" stroke-opacity="1" x="76" y="525" width="146" height="54" />
	<text font-family="Helvetica" font-size="15" fill="#000000" xml:space="preserve" font-weight="bold" text-anchor="middle" x="149" y="543">ObjectFactory</text>
</g>
<g>
	<rect fill="#808080" stroke="none" stroke-opacity="1" x="852" y="531" width="5" height="53" />
	<rect fill="#808080" stroke="none" stroke-opacity="1" x="728" y="579" width="129" height="5" />
	<rect fill="#c05800" stroke="black" stroke-width="1" stroke-opacity="1" x="722" y="525" width="130" height="54" />
	<text font-family="Helvetica" font-size="15" fill="#000000" xml:space="preserve" font-weight="bold" text-anchor="middle" x="787" y="543">ExecParams</text>
</g>
<g>
	<rect fill="#808080" stroke="none" stroke-opacity="1" x="576" y="518" width="5" height="77" />
	<rect fill="#808080" stroke="none" stroke-opacity="1" x="436" y="590" width="145" height="5" />
	<rect fill="#ffffc0" stroke="black" stroke-width="1" stroke-opacity="1" x="430" y="512" width="146" height="78" />
	<text font-family="Helvetica" font-size="15" fill="#000000" xml:space="preserve" font-weight="bold" text-anchor="middle" x="503" y="554">ObjectCreator</text>
</g>
<g>
	<rect fill="#808080" stroke="none" stroke-opacity="1" x="388" y="531" width="5" height="53" />
	<rect fill="#808080" stroke="none" stroke-opacity="1" x="240" y="579" width="153" height="5" />
	<rect fill="#ffeb60" stroke="black" stroke-width="1" stroke-opacity="1" x="234" y="525" width="154" height="54" />
	<text font-family="Helvetica" font-size="15" fill="#000000" xml:space="preserve" font-weight="bold" text-anchor="middle" x="311" y="543">RegisterObject</text>
</g>
<g>
	<rect fill="white" stroke-dasharray="4,4" stroke="black" stroke-width="1" stroke-opacity="1" x="531" y="494" width="109" height="35" />
	<text font-family="Helvetica" font-size="15" fill="#000000" xml:space="preserve" text-anchor="middle" x="586" y="519">RealObject</text>
</g>
<g>
	<rect fill="#808080" stroke="none" stroke-opacity="1" x="405" y="228" width="5" height="53" />
	<rect fill="#808080" stroke="none" stroke-opacity="1" x="289" y="276" width="121" height="5" />
	<rect fill="#ffd700" stroke="black" stroke-width="1" stroke-opacity="1" x="283" y="222" width="122" height="54" />
	<text font-family="Helvetica" font-size="15" fill="#000000" xml:space="preserve" font-weight="bold" font-style="italic" text-anchor="middle" x="344" y="240">BaseObject</text>
</g>
<g>
	<rect fill="#808080" stroke="none" stroke-opacity="1" x="818" y="136" width="5" height="53" />
	<rect fill="#808080" stroke="none" stroke-opacity="1" x="764" y="184" width="59" height="5" />
	<rect fill="#ff8000" stroke="black" stroke-width="1" stroke-opacity="1" x="758" y="130" width="60" height="54" />
	<text font-family="Helvetica" font-size="15" fill="#000000" xml:space="preserve" font-weight="bold" text-anchor="middle" x="788" y="148">Tag</text>
</g>
<g>
	<rect fill="#808080" stroke="none" stroke-opacity="1" x="820" y="228" width="5" height="53" />
	<rect fill="#808080" stroke="none" stroke-opacity="1" x="760" y="276" width="65" height="5" />
	<rect fill="#ffd700" stroke="black" stroke-width="1" stroke-opacity="1" x="754" y="222" width="66" height="54" />
	<text font-family="Helvetica" font-size="15" fill="#000000" xml:space="preserve" font-weight="bold" font-style="italic" text-anchor="middle" x="787" y="240">Event</text>
</g>
<g>
	<rect fill="#808080" stroke="none" stroke-opacity="1" x="1033" y="293" width="5" height="77" />
	<rect fill="#808080" stroke="none" stroke-opacity="1" x="973" y="365" width="65" height="5" />
	<rect fill="#ffffc0" stroke="black" stroke-width="1" stroke-opacity="1" x="967" y="287" width="66" height="78" />
	<text font-family="Helvetica" font-size="15" fill="#000000" xml:space="preserve" font-weight="bold" font-style="italic" text-anchor="middle" x="1000" y="329">TData</text>
</g>
<g>
	<rect fill="white" stroke-dasharray="4,4" stroke="black" stroke-width="1" stroke-opacity="1" x="1015" y="269" width="35" height="35" />
	<text font-family="Helvetica" font-size="15" fill="#000000" xml:space="preserve" text-anchor="middle" x="1033" y="294">T</text>
</g>
<g>
	<rect fill="#808080" stroke="none" stroke-opacity="1" x="308" y="326" width="5" height="53" />
	<rect fill="#808080" stroke="none" stroke-opacity="1" x="104" y="374" width="209" height="5" />
	<rect fill="#ffffc0" stroke="black" stroke-width="1" stroke-opacity="1" x="98" y="320" width="210" height="54" />
	<text font-family="Helvetica" font-size="15" fill="#000000" xml:space="preserve" font-weight="bold" text-anchor="middle" x="203" y="338">ConfigurationSetting</text>
</g>
<g>
	<rect fill="#808080" stroke="none" stroke-opacity="1" x="465" y="326" width="5" height="53" />
	<rect fill="#808080" stroke="none" stroke-opacity="1" x="323" y="374" width="147" height="5" />
	<rect fill="#ffffc0" stroke="black" stroke-width="1" stroke-opacity="1" x="317" y="320" width="148" height="54" />
	<text font-family="Helvetica" font-size="15" fill="#000000" xml:space="preserve" font-weight="bold" font-style="italic" text-anchor="middle" x="391" y="338">ContextObject</text>
</g>
<g>
	<line stroke="black" stroke-opacity="1" x1="247" y1="319" x2="293" y2="285" />
	<line stroke="black" stroke-opacity="1" x1="298" y1="282" x2="289" y2="280" />
	<line stroke="black" stroke-opacity="1" x1="298" y1="282" x2="296" y2="290" />
	<line stroke="black" stroke-opacity="1" x1="289" y1="280" x2="296" y2="290" />
</g>
<g>
	<line stroke="black" stroke-opacity="1" x1="379" y1="319" x2="364" y2="287" />
	<line stroke="black" stroke-opacity="1" x1="362" y1="282" x2="359" y2="289" />
	<line stroke="black" stroke-opacity="1" x1="362" y1="282" x2="369" y2="284" />
	<line stroke="black" stroke-opacity="1" x1="359" y1="289" x2="369" y2="284" />
</g>
<g>
	<rect fill="#808080" stroke="none" stroke-opacity="1" x="207" y="136" width="5" height="53" />
	<rect fill="#808080" stroke="none" stroke-opacity="1" x="101" y="184" width="111" height="5" />
	<rect fill="#ff8000" stroke="black" stroke-width="1" stroke-opacity="1" x="95" y="130" width="112" height="54" />
	<text font-family="Helvetica" font-size="15" fill="#000000" xml:space="preserve" font-weight="bold" font-style="italic" text-anchor="middle" x="151" y="148">BaseClass</text>
</g>
<g>
	<rect fill="#808080" stroke="none" stroke-opacity="1" x="1052" y="136" width="5" height="53" />
	<rect fill="#808080" stroke="none" stroke-opacity="1" x="954" y="184" width="103" height="5" />
	<rect fill="#ffa858" stroke="black" stroke-width="1" stroke-opacity="1" x="948" y="130" width="104" height="54" />
	<text font-family="Helvetica" font-size="15" fill="#000000" xml:space="preserve" font-weight="bold" font-style="italic" text-anchor="middle" x="1000" y="148">DDGNode</text>
</g>
<g>
	<rect fill="#808080" stroke="none" stroke-opacity="1" x="585" y="228" width="5" height="53" />
	<rect fill="#808080" stroke="none" stroke-opacity="1" x="459" y="276" width="131" height="5" />
	<rect fill="#ffeb60" stroke="black" stroke-width="1" stroke-opacity="1" x="453" y="222" width="132" height="54" />
	<text font-family="Helvetica" font-size="15" fill="#000000" xml:space="preserve" font-weight="bold" font-style="italic" text-anchor="middle" x="519" y="240">BaseContext</text>
</g>
<g>
	<rect fill="#808080" stroke="none" stroke-opacity="1" x="189" y="218" width="5" height="77" />
	<rect fill="#808080" stroke="none" stroke-opacity="1" x="119" y="290" width="75" height="5" />
	<rect fill="#ffa858" stroke="black" stroke-width="1" stroke-opacity="1" x="113" y="212" width="76" height="78" />
	<text font-family="Helvetica" font-size="15" fill="#000000" xml:space="preserve" font-weight="bold" text-anchor="middle" x="151" y="254">TClass</text>
</g>
<g>
	<rect fill="#808080" stroke="none" stroke-opacity="1" x="551" y="137" width="5" height="53" />
	<rect fill="#808080" stroke="none" stroke-opacity="1" x="497" y="185" width="59" height="5" />
	<rect fill="#ffd700" stroke="black" stroke-width="1" stroke-opacity="1" x="491" y="131" width="60" height="54" />
	<text font-family="Helvetica" font-size="15" fill="#000000" xml:space="preserve" font-weight="bold" font-style="italic" text-anchor="middle" x="521" y="149">Base</text>
</g>
<g>
	<rect fill="#808080" stroke="none" stroke-opacity="1" x="1060" y="531" width="5" height="53" />
	<rect fill="#808080" stroke="none" stroke-opacity="1" x="946" y="579" width="119" height="5" />
	<rect fill="#ff8000" stroke="black" stroke-width="1" stroke-opacity="1" x="940" y="525" width="120" height="54" />
	<text font-family="Helvetica" font-size="15" fill="#000000" xml:space="preserve" font-weight="bold" font-style="italic" text-anchor="middle" x="1000" y="543">DataEngine</text>
</g>
<g>
	<rect fill="white" stroke-dasharray="4,4" stroke="black" stroke-width="1" stroke-opacity="1" x="168" y="194" width="104" height="35" />
	<text font-family="Helvetica" font-size="15" fill="#000000" xml:space="preserve" text-anchor="middle" x="220" y="219">T, Parents</text>
</g>
<g>
	<rect fill="#808080" stroke="none" stroke-opacity="1" x="458" y="136" width="5" height="53" />
	<rect fill="#808080" stroke="none" stroke-opacity="1" x="232" y="184" width="231" height="5" />
	<rect fill="#ffeb60" stroke="black" stroke-width="1" stroke-opacity="1" x="226" y="130" width="232" height="54" />
	<text font-family="Helvetica" font-size="15" fill="#000000" xml:space="preserve" font-weight="bold" font-style="italic" text-anchor="middle" x="342" y="148">BaseObjectDescription</text>
</g>
<g>
	<line stroke="black" stroke-opacity="1" x1="154" y1="211" x2="154" y2="196" />
	<line stroke="black" stroke-opacity="1" x1="154" y1="190" x2="148" y2="196" />
	<line stroke="black" stroke-opacity="1" x1="154" y1="190" x2="160" y2="196" />
	<line stroke="black" stroke-opacity="1" x1="148" y1="196" x2="160" y2="196" />
</g>
<g>
	<line stroke="black" stroke-opacity="1" x1="522" y1="221" x2="522" y2="197" />
	<line stroke="black" stroke-opacity="1" x1="522" y1="191" x2="516" y2="197" />
	<line stroke="black" stroke-opacity="1" x1="522" y1="191" x2="528" y2="197" />
	<line stroke="black" stroke-opacity="1" x1="516" y1="197" x2="528" y2="197" />
</g>
<g>
	<line stroke="black" stroke-opacity="1" x1="403" y1="221" x2="484" y2="178" />
	<line stroke="black" stroke-opacity="1" x1="490" y1="176" x2="481" y2="173" />
	<line stroke="black" stroke-opacity="1" x1="490" y1="176" x2="487" y2="184" />
	<line stroke="black" stroke-opacity="1" x1="481" y1="173" x2="487" y2="184" />
</g>
<g>
	<line stroke="black" stroke-opacity="1" x1="1060" y1="524" x2="1066" y2="522" />
</g>
<g>
	<line stroke="black" stroke-opacity="1" x1="1066" y1="522" x2="1066" y2="222" />
</g>
<g>
	<line stroke="black" stroke-opacity="1" x1="1066" y1="222" x2="1037" y2="194" />
	<line stroke="black" stroke-opacity="1" x1="1033" y1="190" x2="1033" y2="198" />
	<line stroke="black" stroke-opacity="1" x1="1033" y1="190" x2="1041" y2="189" />
	<line stroke="black" stroke-opacity="1" x1="1033" y1="198" x2="1041" y2="189" />
</g>
<g>
	<line stroke="black" stroke-opacity="1" x1="939" y1="525" x2="416" y2="283" />
	<line stroke="black" stroke-opacity="1" x1="411" y1="281" x2="413" y2="288" />
	<line stroke="black" stroke-opacity="1" x1="411" y1="281" x2="418" y2="278" />
	<line stroke="black" stroke-opacity="1" x1="413" y1="288" x2="418" y2="278" />
</g>
<g>
	<rect fill="#808080" stroke="none" stroke-opacity="1" x="1051" y="214" width="5" height="53" />
	<rect fill="#808080" stroke="none" stroke-opacity="1" x="955" y="262" width="101" height="5" />
	<rect fill="#ffd700" stroke="black" stroke-width="1" stroke-opacity="1" x="949" y="208" width="102" height="54" />
	<text font-family="Helvetica" font-size="15" fill="#000000" xml:space="preserve" font-weight="bold" font-style="italic" text-anchor="middle" x="1000" y="226">BaseData</text>
</g>
<g>
	<rect fill="#808080" stroke="none" stroke-opacity="1" x="738" y="137" width="5" height="53" />
	<rect fill="#808080" stroke="none" stroke-opacity="1" x="666" y="185" width="77" height="5" />
	<rect fill="#ffa858" stroke="black" stroke-width="1" stroke-opacity="1" x="660" y="131" width="78" height="54" />
	<text font-family="Helvetica" font-size="15" fill="#000000" xml:space="preserve" font-weight="bold" text-anchor="middle" x="699" y="149">TagSet</text>
</g>
<g>
	<rect fill="#808080" stroke="none" stroke-opacity="1" x="709" y="228" width="5" height="53" />
	<rect fill="#808080" stroke="none" stroke-opacity="1" x="607" y="276" width="107" height="5" />
	<rect fill="#ffeb60" stroke="black" stroke-width="1" stroke-opacity="1" x="601" y="222" width="108" height="54" />
	<text font-family="Helvetica" font-size="15" fill="#000000" xml:space="preserve" font-weight="bold" font-style="italic" text-anchor="middle" x="655" y="240">BaseNode</text>
</g>
<g>
	<rect fill="#808080" stroke="none" stroke-opacity="1" x="564" y="326" width="5" height="53" />
	<rect fill="#808080" stroke="none" stroke-opacity="1" x="484" y="374" width="85" height="5" />
	<rect fill="#ffffc0" stroke="black" stroke-width="1" stroke-opacity="1" x="478" y="320" width="86" height="54" />
	<text font-family="Helvetica" font-size="15" fill="#000000" xml:space="preserve" font-weight="bold" font-style="italic" text-anchor="middle" x="521" y="338">Context</text>
</g>
<g>
	<rect fill="#808080" stroke="none" stroke-opacity="1" x="752" y="410" width="5" height="53" />
	<rect fill="#808080" stroke="none" stroke-opacity="1" x="580" y="458" width="177" height="5" />
	<rect fill="#ffffc0" stroke="black" stroke-width="1" stroke-opacity="1" x="574" y="404" width="178" height="54" />
	<text font-family="Helvetica" font-size="15" fill="#000000" xml:space="preserve" font-weight="bold" text-anchor="middle" x="663" y="422">KeypressedEvent</text>
</g>
<g>
	<line stroke="black" stroke-opacity="1" x1="1003" y1="207" x2="1003" y2="196" />
	<line stroke="black" stroke-opacity="1" x1="1003" y1="190" x2="997" y2="196" />
	<line stroke="black" stroke-opacity="1" x1="1003" y1="190" x2="1009" y2="196" />
	<line stroke="black" stroke-opacity="1" x1="997" y1="196" x2="1009" y2="196" />
</g>
<g>
	<line stroke="black" stroke-opacity="1" x1="613" y1="221" x2="561" y2="186" />
	<line stroke="black" stroke-opacity="1" x1="557" y1="183" x2="558" y2="191" />
	<line stroke="black" stroke-opacity="1" x1="557" y1="183" x2="565" y2="181" />
	<line stroke="black" stroke-opacity="1" x1="558" y1="191" x2="565" y2="181" />
</g>
<g>
	<line stroke="black" stroke-opacity="1" x1="523" y1="319" x2="522" y2="287" />
	<line stroke="black" stroke-opacity="1" x1="522" y1="282" x2="516" y2="288" />
	<line stroke="black" stroke-opacity="1" x1="522" y1="282" x2="528" y2="287" />
	<line stroke="black" stroke-opacity="1" x1="516" y1="288" x2="528" y2="287" />
</g>
<g>
	<line stroke="black" stroke-opacity="1" x1="685" y1="403" x2="762" y2="286" />
	<line stroke="black" stroke-opacity="1" x1="766" y1="282" x2="757" y2="283" />
	<line stroke="black" stroke-opacity="1" x1="766" y1="282" x2="767" y2="290" />
	<line stroke="black" stroke-opacity="1" x1="757" y1="283" x2="767" y2="290" />
</g>
<g>
	<rect fill="#808080" stroke="none" stroke-opacity="1" x="947" y="410" width="5" height="53" />
	<rect fill="#808080" stroke="none" stroke-opacity="1" x="771" y="458" width="181" height="5" />
	<rect fill="#ffffc0" stroke="black" stroke-width="1" stroke-opacity="1" x="765" y="404" width="182" height="54" />
	<text font-family="Helvetica" font-size="15" fill="#000000" xml:space="preserve" font-weight="bold" text-anchor="middle" x="856" y="422">KeyreleasedEvent</text>
</g>
<g>
	<rect fill="#808080" stroke="none" stroke-opacity="1" x="1030" y="391" width="5" height="77" />
	<rect fill="#808080" stroke="none" stroke-opacity="1" x="976" y="463" width="59" height="5" />
	<rect fill="#ffd700" stroke="black" stroke-width="1" stroke-opacity="1" x="970" y="385" width="60" height="78" />
	<text font-family="Helvetica" font-size="15" fill="#000000" xml:space="preserve" font-weight="bold" text-anchor="middle" x="1000" y="427">Data</text>
</g>
<g>
	<rect fill="#808080" stroke="none" stroke-opacity="1" x="753" y="326" width="5" height="53" />
	<rect fill="#808080" stroke="none" stroke-opacity="1" x="579" y="374" width="179" height="5" />
	<rect fill="#ffffc0" stroke="black" stroke-width="1" stroke-opacity="1" x="573" y="320" width="180" height="54" />
	<text font-family="Helvetica" font-size="15" fill="#000000" xml:space="preserve" font-weight="bold" text-anchor="middle" x="663" y="338">DetachNodeEvent</text>
</g>
<g>
	<line stroke="black" stroke-opacity="1" x1="846" y1="403" x2="803" y2="287" />
	<line stroke="black" stroke-opacity="1" x1="801" y1="282" x2="797" y2="289" />
	<line stroke="black" stroke-opacity="1" x1="801" y1="282" x2="808" y2="285" />
	<line stroke="black" stroke-opacity="1" x1="797" y1="289" x2="808" y2="285" />
</g>
<g>
	<rect fill="white" stroke-dasharray="4,4" stroke="black" stroke-width="1" stroke-opacity="1" x="1014" y="367" width="32" height="35" />
	<text font-family="Helvetica" font-size="15" fill="#000000" xml:space="preserve" text-anchor="middle" x="1030" y="392">T</text>
</g>
<g>
	<line stroke="black" stroke-opacity="1" x1="702" y1="319" x2="748" y2="281" />
	<line stroke="black" stroke-opacity="1" x1="753" y1="278" x2="744" y2="277" />
	<line stroke="black" stroke-opacity="1" x1="753" y1="278" x2="752" y2="286" />
	<line stroke="black" stroke-opacity="1" x1="744" y1="277" x2="752" y2="286" />
</g>
<g>
	<line stroke="black" stroke-opacity="1" x1="1003" y1="286" x2="1003" y2="274" />
	<line stroke="black" stroke-opacity="1" x1="1003" y1="268" x2="997" y2="274" />
	<line stroke="black" stroke-opacity="1" x1="1003" y1="268" x2="1009" y2="274" />
	<line stroke="black" stroke-opacity="1" x1="997" y1="274" x2="1009" y2="274" />
</g>
<g>
	<line stroke="black" stroke-opacity="1" x1="1004" y1="384" x2="1004" y2="377" />
	<line stroke="black" stroke-opacity="1" x1="1004" y1="371" x2="998" y2="377" />
	<line stroke="black" stroke-opacity="1" x1="1004" y1="371" x2="1010" y2="377" />
	<line stroke="black" stroke-opacity="1" x1="998" y1="377" x2="1010" y2="377" />
</g>
<g>
	<rect fill="#808080" stroke="none" stroke-opacity="1" x="950" y="326" width="5" height="53" />
	<rect fill="#808080" stroke="none" stroke-opacity="1" x="770" y="374" width="185" height="5" />
	<rect fill="#ffffc0" stroke="black" stroke-width="1" stroke-opacity="1" x="764" y="320" width="186" height="54" />
	<text font-family="Helvetica" font-size="15" fill="#000000" xml:space="preserve" font-weight="bold" text-anchor="middle" x="857" y="338">GLInitializedEvent</text>
</g>
<g>
	<line stroke="black" stroke-opacity="1" x1="837" y1="319" x2="814" y2="286" />
	<line stroke="black" stroke-opacity="1" x1="811" y1="282" x2="809" y2="290" />
	<line stroke="black" stroke-opacity="1" x1="811" y1="282" x2="819" y2="283" />
	<line stroke="black" stroke-opacity="1" x1="809" y1="290" x2="819" y2="283" />
</g>
</svg>
