<?xml version="1.0" encoding="UTF-8" standalone="no"?>
<svg
   xmlns:dc="http://purl.org/dc/elements/1.1/"
   xmlns:cc="http://creativecommons.org/ns#"
   xmlns:rdf="http://www.w3.org/1999/02/22-rdf-syntax-ns#"
   xmlns:svg="http://www.w3.org/2000/svg"
   xmlns="http://www.w3.org/2000/svg"
   xmlns:sodipodi="http://sodipodi.sourceforge.net/DTD/sodipodi-0.dtd"
   xmlns:inkscape="http://www.inkscape.org/namespaces/inkscape"
   viewBox="0 -256 1850 1850"
   id="svg2"
   version="1.1"
   inkscape:version="0.48.3.1 r9886"
   width="100%"
   height="100%"
   sodipodi:docname="eye_open_font_awesome.svg">
  <metadata
     id="metadata12">
    <rdf:RDF>
      <cc:Work
         rdf:about="">
        <dc:format>image/svg+xml</dc:format>
        <dc:type
           rdf:resource="http://purl.org/dc/dcmitype/StillImage" />
      </cc:Work>
    </rdf:RDF>
  </metadata>
  <defs
     id="defs10" />
  <sodipodi:namedview
     pagecolor="#ffffff"
     bordercolor="#666666"
     borderopacity="1"
     objecttolerance="10"
     gridtolerance="10"
     guidetolerance="10"
     inkscape:pageopacity="0"
     inkscape:pageshadow="2"
     inkscape:window-width="640"
     inkscape:window-height="480"
     id="namedview8"
     showgrid="false"
     inkscape:zoom="0.13169643"
     inkscape:cx="896"
     inkscape:cy="896"
     inkscape:window-x="0"
     inkscape:window-y="25"
     inkscape:window-maximized="0"
     inkscape:current-layer="svg2" />
  <g
     transform="matrix(1,0,0,-1,30.372881,1259.8983)"
     id="g4">
    <path
       d="m 1664,576 q -152,236 -381,353 61,-104 61,-225 0,-185 -131.5,-316.5 Q 1081,256 896,256 711,256 579.5,387.5 448,519 448,704 448,825 509,929 280,812 128,576 261,371 461.5,249.5 662,128 896,128 1130,128 1330.5,249.5 1531,371 1664,576 z M 944,960 q 0,20 -14,34 -14,14 -34,14 -125,0 -214.5,-89.5 Q 592,829 592,704 q 0,-20 14,-34 14,-14 34,-14 20,0 34,14 14,14 14,34 0,86 61,147 61,61 147,61 20,0 34,14 14,14 14,34 z m 848,-384 q 0,-34 -20,-69 Q 1632,277 1395.5,138.5 1159,0 896,0 633,0 396.5,139 160,278 20,507 0,542 0,576 q 0,34 20,69 140,229 376.5,368 236.5,139 499.5,139 263,0 499.5,-139 236.5,-139 376.5,-368 20,-35 20,-69 z"
       id="path6"
       inkscape:connector-curvature="0"
       style="fill:currentColor" />
  </g>
</svg>
