<?xml version="1.0" ?><svg height="22px" version="1.1" viewBox="0 0 22 22" width="22px" xmlns="http://www.w3.org/2000/svg" xmlns:sketch="http://www.bohemiancoding.com/sketch/ns" xmlns:xlink="http://www.w3.org/1999/xlink"><title/><defs><path d="M19,14 L21,14 L21,8 L1,8 L1,14 L3,14 L3,15 L1.1,15 C1.1,15 1.56319394e-15,15 0,13.8888889 L0,8.11111111 C0,8.11111111 0,7 1.09999993,7 L20.9,7 C22,7 22,8.11111111 22,8.11111111 L22,13.8888889 C22,15 20.9,15 20.9,15 L19,15 L19,14 Z M3.51035626,10 C3.51035626,10 3.00000065,10 3,10.5 C2.99999971,11 3.51035626,11 3.51035626,11 L18.4896437,11 C18.4896437,11 19,11 19,10.5 C18.9999996,10 18.4896437,10 18.4896437,10 L3.51035626,10 L3.51035626,10 Z M4,14 L4,22 L18,22 L18,14 L4,14 L4,14 Z M6,19 L16,19 L16,18 L6,18 L6,19 Z M6,16 L6,17 L16,17 L16,16 L6,16 L6,16 Z M5,15 L5,21 L17,21 L17,15 L5,15 L5,15 Z M17,1 L5,1 L5,6 L4,5.99999998 L4,0 L18,9.46659323e-09 L18,5.99999998 L17,6 L17,1 Z" id="path-1"/></defs><g fill="none" fill-rule="evenodd" id="miu" stroke="none" stroke-width="1"><g id="common_printer_print_outline_stroke"><use fill="#000000" fill-rule="evenodd" xlink:href="#path-1"/><use fill="none" xlink:href="#path-1"/></g></g></svg>