<?xml version="1.0"?><svg width="640" height="480" xmlns="http://www.w3.org/2000/svg">
 <title>Hand Cursor</title>
 <metadata id="metadata7">image/svg+xmlSergio Luiz Araujo Silvahandcomputermousecursor</metadata>
 <g>
  <title>Layer 1</title>
  <g id="g3922">
   <path fill="#000000" fill-rule="nonzero" stroke="#000000" stroke-width="1.148979" stroke-miterlimit="4" stroke-dashoffset="0" id="path3917" d="m238.516052,-12.725395c-17.384979,0 -33.5,12.946594 -33.5,30.937393a13.5661,13.5661 0 0 00,0.062607l1.031006,195.281181l-16.531006,-43.25a13.5661,13.5661 0 0 0-1.812988,-3.312988c-6.506989,-8.640015 -15.037964,-14.58699 -23.999969,-16.061996c-8.962006,-1.475006 -16.313004,0.610992 -23.406006,2.375c-10.75499,2.675003 -16.92601,11.787003 -19.375,20.374985c-2.327011,8.161011 -2.029999,16.970001 1.094009,25.5l-0.031006,0l35.905991,125.75a13.5661,13.5661 0 0 01.219009,2.937988l60.311966,107.156006l14.563019,49a13.5661,13.5661 0 0 013.125,9.687012l138.342987,-1.125a13.5661,13.5661 0 0 013.156982,-10.812012l37.656006,-181a13.5661,13.5661 0 0 00.125,-0.656006c1.863037,-11.858978 1.20105,-31.791992 0.75,-52.343994c-0.225952,-10.276001 -0.513,-20.225983 -0.718994,-27.937988c-0.205994,-7.712006 -0.151978,-14.96402 -0.25,-13.531006a13.5661,13.5661 0 0 00.031006,-0.937012l0,-60.656967a13.5661,13.5661 0 0 0-0.312012,-2.937012c-1.638977,-7.381989 -3.932983,-14.329987 -9.187988,-20.405991c-4.883972,-5.649002 -13.495972,-9.206009 -21.593994,-8.75l0,-0.126007c-0.370972,0 -0.723022,0.111008 -1.093018,0.126007c-0.248962,0.024994 -0.502991,-0.035004 -0.75,0l0,0.093002c-5.651978,0.362991 -10.968994,2.291 -15.343994,5.312988l0,-4c0,-18.001999 -16.138,-30.937988 -33.531006,-30.937988l-0.093994,0c-9.922974,0 -19.32196,4.317993 -25.656006,11.280991l0,-18.218002c0,-17.972992 -16.132996,-30.906998 -33.5,-30.906998c-8.628967,0 -16.955994,3.180008 -23.155975,8.594009l0,-35.624809c0,-17.961494 -16.084015,-30.9375 -33.469025,-30.9375l0,0.000107z"/>
   <path fill="#ffffff" fill-rule="nonzero" stroke="#000000" stroke-width="0.534572" stroke-miterlimit="4" stroke-dashoffset="0" id="rect3906" d="m238.502075,0.840103c-11.03302,0 -19.927002,7.741295 -19.927002,17.367096l1.187988,226.750595c-0.311981,8.213989 -12.534973,9.669983 -14.838989,3.661987l-28.057007,-73.462982c-10.453979,-13.882996 -19.378983,-12.14502 -33.278976,-8.687012c-9.445007,2.348999 -13.356003,17.106995 -8.557999,28.994995l35.882996,125.75l61.065002,108.501038l15.015991,50.445984l138.326965,-1.126038l37.675049,-181.016968c2.480957,-15.784027 -0.769043,-86.542023 -0.351013,-92.663025l0,-60.640976c-2.755005,-12.412003 -7.921997,-20.000992 -17.546997,-18.67099c-11.054016,0 -16.731018,9.044998 -16.731018,18.67099l0,60.019974c1.929016,8.136017 -14.734009,10.256012 -14.021973,-0.040985l0,-90.656982c0,-9.626007 -8.905029,-17.380997 -19.958008,-17.380997l-0.093994,0c-11.05304,0 -19.942017,7.75499 -19.942017,17.380997l0,72.805969c2.013977,8.801025 -19.737976,11.376007 -19.257019,-0.040985l0,-110.636993c0,-9.625992 -8.904968,-17.366989 -19.958008,-17.366989c-11.053955,0 -19.957947,7.740997 -19.957947,17.366989l0,116.296997c0.872986,8.067993 -16.323029,10.10199 -16.765015,-0.027008l0,-174.227585c0,-9.6259 -8.877014,-17.367195 -19.911011,-17.367195l0,0l0,0l0,0.000099l0,0l0,0z"/>
  </g>
 </g>
</svg>