/* XPM */
static char * back_xpm[] = {
"29 27 25 1",
" 	c None",
".	c #619E78",
"+	c #5E9C76",
"@	c #6AA57E",
"#	c #619E7A",
"$	c #6CA681",
"%	c #B2DAB7",
"&	c #B3DBB7",
"*	c #BAE0BD",
"=	c #6AA480",
"-	c #6BA581",
";	c #6AA47E",
">	c #B1D9B6",
",	c #629F79",
"'	c #6CA781",
")	c #B3DBB8",
"!	c #69A37E",
"~	c #619E7B",
"{	c #609F79",
"]	c #6BA680",
"^	c #68A37E",
"/	c #69A37D",
"(	c #B0D9B5",
"_	c #67A37D",
":	c #69A47E",
"                             ",
"                             ",
"                             ",
"                             ",
"           .+                ",
"           @+                ",
"         #$%+                ",
"        #$&*+                ",
"       #=&**+                ",
"      #-&***+                ",
"     #-&****+                ",
"     ;>*****+++++++++++++++  ",
"    ;>********************+  ",
"  .-&*********************+  ",
"  ,')*********************+  ",
"    !>********************+  ",
"    ~$%*****+++++++++++++++  ",
"     {]&****+                ",
"       ^>***+                ",
"        /(**+                ",
"         /(*+                ",
"          _(+                ",
"           :+                ",
"            +                ",
"                             ",
"                             ",
"                             "};
