/* XPM */
const static char * iconprefab_xpm[] = {
"20 20 3 1",
" 	c None",
".	c #000000",
"+	c #67578F",
"                    ",
"                    ",
"                    ",
"    ......          ",
"    .++++.          ",
"   .++++++.         ",
"  .++++++++.        ",
" .++++++++++.       ",
" .++++++++++.       ",
".++++++++++++.      ",
".++++++++++++.      ",
".++++++++++++.      ",
" .++++++++++.       ",
" .++++++++++.       ",
"  .++++++++.        ",
"   .++++++.         ",
"    .++++.          ",
"    ......          ",
"                    ",
"                    "};
