# Blender v2.75 (sub 0) OBJ File: ''
# www.blender.org
o Tube.001_Cube.005
v -0.328229 -0.020371 0.230351
v 0.030068 0.337926 0.230351
v 0.388365 -0.020371 0.230351
v 0.030068 -0.378668 0.230351
v 0.002969 -0.002012 -0.000080
v 0.002970 -0.002012 3.236127
v 0.030068 -0.378668 3.004242
v 0.116140 -0.436982 2.539617
v 0.206668 -0.498315 2.074872
v 0.245590 -0.524685 1.495934
v 0.206668 -0.498315 1.150242
v 0.116140 -0.436982 0.690356
v 0.388365 -0.020371 3.004242
v 0.474437 -0.078685 2.539617
v 0.564965 -0.140018 2.074872
v 0.603887 -0.166388 1.495934
v 0.564964 -0.140018 1.150242
v 0.474437 -0.078685 0.690356
v 0.030068 0.337926 3.004242
v 0.116140 0.279612 2.539617
v 0.206668 0.218279 2.074872
v 0.245590 0.191909 1.495934
v 0.206668 0.218279 1.150242
v 0.116140 0.279612 0.690356
v -0.328229 -0.020371 3.004242
v -0.242157 -0.078685 2.539617
v -0.151629 -0.140018 2.074872
v -0.112707 -0.166388 1.495934
v -0.151629 -0.140018 1.150242
v -0.242157 -0.078685 0.690356
v -0.112707 -0.166388 1.727092
v 0.245590 0.191909 1.727092
v 0.603887 -0.166388 1.727092
v 0.245590 -0.524685 1.727092
v -0.238654 -0.289094 3.004242
v -0.259186 -0.006461 3.178162
v -0.238654 0.248351 0.230351
v -0.259186 -0.006461 0.057533
v 0.009537 0.262262 3.178162
v 0.298791 0.248351 0.230351
v 0.009537 0.262262 0.057533
v 0.278259 -0.006461 3.178162
v 0.298791 -0.289094 0.230351
v 0.278259 -0.006461 0.057533
v 0.009537 -0.275184 3.178162
v 0.009537 -0.275184 0.057533
v -0.238654 -0.289094 0.230351
v -0.152583 -0.347408 0.690356
v -0.062055 -0.408740 1.150242
v -0.023133 -0.435110 1.727092
v -0.062055 -0.408740 2.074872
v -0.152583 -0.347408 2.539617
v -0.238654 0.248351 3.004242
v -0.152583 0.190038 2.539617
v -0.062055 0.128705 2.074872
v -0.023133 0.102335 1.495934
v -0.062055 0.128705 1.150242
v -0.152583 0.190038 0.690356
v 0.298791 0.248351 3.004242
v 0.384863 0.190038 2.539617
v 0.475390 0.128705 2.074872
v 0.514313 0.102335 1.495934
v 0.475390 0.128705 1.150242
v 0.384863 0.190038 0.690356
v 0.298791 -0.289094 3.004242
v 0.384863 -0.347408 2.539617
v 0.475390 -0.408740 2.074872
v 0.514313 -0.435110 1.495934
v 0.475390 -0.408740 1.150242
v 0.384863 -0.347408 0.690356
v 0.069233 -0.405203 2.772034
v 0.164161 -0.469516 2.307171
v 0.234127 -0.516919 1.871873
v 0.234127 -0.516919 1.351768
v 0.164161 -0.469516 0.920225
v 0.069233 -0.405203 0.460457
v 0.427530 -0.046906 2.772034
v 0.522458 -0.111219 2.307171
v 0.592424 -0.158622 1.871873
v 0.592424 -0.158622 1.351768
v 0.522458 -0.111219 0.920225
v 0.427530 -0.046906 0.460457
v 0.069233 0.311391 2.772034
v 0.164161 0.247078 2.307171
v 0.234127 0.199675 1.871873
v 0.234127 0.199675 1.351768
v 0.164161 0.247078 0.920225
v 0.069233 0.311391 0.460457
v -0.289064 -0.046906 2.772034
v -0.194136 -0.111219 2.307171
v -0.124170 -0.158622 1.871873
v -0.124170 -0.158622 1.351768
v -0.194136 -0.111219 0.920225
v -0.289064 -0.046906 0.460457
v -0.023133 -0.435110 1.495934
v -0.023133 0.102335 1.727092
v 0.514313 0.102335 1.727092
v 0.514313 -0.435110 1.727092
v -0.109670 -0.168445 1.611431
v 0.248627 0.189852 1.611431
v 0.606923 -0.168445 1.611431
v 0.248627 -0.526742 1.611431
v -0.185290 -0.208379 0.102367
v -0.185290 -0.208379 3.133101
v -0.185290 0.189729 0.102367
v -0.185290 0.189729 3.133101
v 0.212817 -0.208379 0.102367
v 0.212817 -0.208379 3.133101
v 0.212817 0.189729 0.102367
v 0.212817 0.189729 3.133101
v -0.199490 -0.315628 0.460457
v -0.104562 -0.379942 0.920225
v -0.034596 -0.427344 1.351768
v -0.034596 -0.427344 1.871873
v -0.104562 -0.379942 2.307171
v -0.199490 -0.315628 2.772034
v -0.199490 0.221817 2.772034
v -0.104562 0.157503 2.307171
v -0.034596 0.110101 1.871873
v -0.034596 0.110101 1.351768
v -0.104562 0.157503 0.920225
v -0.199490 0.221817 0.460457
v 0.337956 0.221817 2.772034
v 0.432884 0.157503 2.307171
v 0.502850 0.110101 1.871873
v 0.502850 0.110101 1.351768
v 0.432884 0.157503 0.920225
v 0.337956 0.221817 0.460457
v 0.337956 -0.315628 2.772034
v 0.432884 -0.379942 2.307171
v 0.502850 -0.427344 1.871873
v 0.502850 -0.427344 1.351768
v 0.432884 -0.379942 0.920225
v 0.337956 -0.315628 0.460457
v -0.020096 -0.437168 1.611431
v -0.020096 0.100278 1.611431
v 0.517349 0.100278 1.611431
v 0.517349 -0.437168 1.611431
vn -0.941400 -0.313800 0.124000
vn -0.930600 0.310200 0.194200
vn -0.853000 0.338300 -0.397400
vn -0.832900 -0.331500 -0.443200
vn -0.312100 0.936300 0.161100
vn 0.315700 0.947200 0.055500
vn 0.325500 0.815200 -0.479200
vn -0.335900 0.845900 -0.414300
vn 0.941400 0.313800 -0.124000
vn 0.930600 -0.310200 -0.194200
vn 0.751800 -0.303400 -0.585500
vn 0.774300 0.311300 -0.551000
vn 0.312100 -0.936300 -0.161100
vn -0.315700 -0.947200 -0.055500
vn -0.317800 -0.792800 -0.520100
vn 0.306200 -0.759700 -0.573600
vn -0.243700 -0.243700 -0.938700
vn -0.251900 0.251900 -0.934400
vn 0.240000 0.240000 -0.940700
vn 0.232500 -0.232500 -0.944400
vn 0.233600 -0.233600 0.943800
vn 0.241200 0.241200 0.940000
vn -0.253200 0.253200 0.933700
vn -0.244900 -0.244900 0.938100
vn 0.306800 -0.761400 0.571100
vn -0.318200 -0.794200 0.517700
vn -0.315700 -0.947200 0.055000
vn 0.312200 -0.936500 0.159700
vn 0.310500 -0.931400 0.190000
vn -0.315500 -0.946600 0.065800
vn -0.315500 -0.946500 0.067300
vn 0.310200 -0.930600 0.194300
vn 0.311500 -0.934400 0.172800
vn -0.315700 -0.947000 0.059600
vn -0.315900 -0.947800 0.044100
vn 0.313600 -0.940800 0.128600
vn 0.316100 -0.948400 -0.025200
vn -0.316200 -0.948600 -0.008600
vn -0.316100 -0.948400 -0.026000
vn 0.315300 -0.945900 -0.076000
vn 0.313600 -0.940700 -0.129600
vn -0.315900 -0.947700 -0.044400
vn -0.315700 -0.947000 -0.060200
vn 0.311400 -0.934100 -0.174500
vn 0.310100 -0.930200 -0.196400
vn -0.315500 -0.946500 -0.068100
vn -0.315500 -0.946600 -0.066500
vn 0.310300 -0.931000 -0.192000
vn 0.775800 0.311800 0.548500
vn 0.753500 -0.304000 0.583000
vn 0.930900 -0.310300 0.192500
vn 0.941500 0.313800 0.122900
vn 0.938400 0.312800 0.146600
vn 0.923600 -0.307900 0.228500
vn 0.922400 -0.307500 0.233600
vn 0.937900 0.312600 0.150000
vn 0.940200 0.313400 0.133200
vn 0.927900 -0.309300 0.208100
vn 0.937200 -0.312400 0.155400
vn 0.944000 0.314700 0.098900
vn 0.948500 0.316200 -0.019300
vn 0.948200 -0.316100 -0.030600
vn 0.944700 -0.314900 -0.092100
vn 0.947100 0.315700 -0.058300
vn 0.944000 0.314700 -0.099600
vn 0.937000 -0.312300 -0.156500
vn 0.927500 -0.309200 -0.210100
vn 0.940100 0.313400 -0.134500
vn 0.937700 0.312600 -0.151700
vn 0.921900 -0.307300 -0.236100
vn 0.923100 -0.307700 -0.230900
vn 0.938200 0.312700 -0.148200
vn -0.336200 0.846900 0.412100
vn 0.325900 0.816400 0.476700
vn 0.315700 0.947200 -0.055000
vn -0.312200 0.936500 -0.159700
vn -0.310500 0.931400 -0.190000
vn 0.315500 0.946600 -0.065800
vn 0.315500 0.946500 -0.067300
vn -0.310200 0.930600 -0.194300
vn -0.311500 0.934400 -0.172800
vn 0.315700 0.947000 -0.059600
vn 0.315900 0.947800 -0.044100
vn -0.313600 0.940800 -0.128600
vn -0.316100 0.948400 0.025200
vn 0.316200 0.948600 0.008600
vn 0.316100 0.948400 0.026000
vn -0.315300 0.945900 0.076000
vn -0.313600 0.940700 0.129600
vn 0.315900 0.947700 0.044400
vn 0.315700 0.947000 0.060200
vn -0.311400 0.934100 0.174500
vn -0.310100 0.930200 0.196400
vn 0.315500 0.946500 0.068100
vn 0.315500 0.946600 0.066500
vn -0.310300 0.931000 0.192000
vn -0.834000 -0.331900 0.440900
vn -0.853900 0.338600 0.395200
vn -0.930900 0.310300 -0.192500
vn -0.941500 -0.313800 -0.122900
vn -0.938400 -0.312800 -0.146600
vn -0.923600 0.307900 -0.228500
vn -0.922400 0.307500 -0.233600
vn -0.937900 -0.312600 -0.150000
vn -0.940200 -0.313400 -0.133200
vn -0.927900 0.309300 -0.208100
vn -0.937200 0.312400 -0.155400
vn -0.944000 -0.314700 -0.098900
vn -0.948500 -0.316200 0.019300
vn -0.948200 0.316100 0.030600
vn -0.944700 0.314900 0.092100
vn -0.947100 -0.315700 0.058300
vn -0.944000 -0.314700 0.099600
vn -0.937000 0.312300 0.156500
vn -0.927500 0.309200 0.210100
vn -0.940100 -0.313400 0.134500
vn -0.937700 -0.312600 0.151700
vn -0.921900 0.307300 0.236100
vn -0.923100 0.307700 0.230900
vn -0.938200 -0.312700 0.148200
vn -0.947100 -0.315700 -0.058000
vn -0.944700 0.314900 -0.091700
vn -0.948200 0.316100 -0.030500
vn -0.948500 -0.316200 -0.019300
vn -0.315300 0.946000 -0.075700
vn 0.316100 0.948400 -0.025800
vn 0.316200 0.948600 -0.008600
vn -0.316100 0.948400 -0.025200
vn 0.947100 0.315700 0.058000
vn 0.944700 -0.314900 0.091700
vn 0.948200 -0.316100 0.030500
vn 0.948500 0.316200 0.019300
vn 0.315300 -0.946000 0.075700
vn -0.316100 -0.948400 0.025800
vn -0.316200 -0.948600 0.008600
vn 0.316100 -0.948400 0.025200
s off
f 1//1 47//1 111//1 94//1
f 1//2 94//2 122//2 37//2
f 1//3 37//3 105//3 38//3
f 1//4 38//4 103//4 47//4
f 2//5 37//5 122//5 88//5
f 2//6 88//6 128//6 40//6
f 2//7 40//7 109//7 41//7
f 2//8 41//8 105//8 37//8
f 3//9 40//9 128//9 82//9
f 3//10 82//10 134//10 43//10
f 3//11 43//11 107//11 44//11
f 3//12 44//12 109//12 40//12
f 4//13 43//13 134//13 76//13
f 4//14 76//14 111//14 47//14
f 4//15 47//15 103//15 46//15
f 4//16 46//16 107//16 43//16
f 5//17 46//17 103//17 38//17
f 5//18 38//18 105//18 41//18
f 5//19 41//19 109//19 44//19
f 5//20 44//20 107//20 46//20
f 6//21 45//21 108//21 42//21
f 6//22 42//22 110//22 39//22
f 6//23 39//23 106//23 36//23
f 6//24 36//24 104//24 45//24
f 7//25 65//25 108//25 45//25
f 7//26 45//26 104//26 35//26
f 7//27 35//27 116//27 71//27
f 7//28 71//28 129//28 65//28
f 8//29 66//29 129//29 71//29
f 8//30 71//30 116//30 52//30
f 8//31 52//31 115//31 72//31
f 8//32 72//32 130//32 66//32
f 9//33 67//33 130//33 72//33
f 9//34 72//34 115//34 51//34
f 9//35 51//35 114//35 73//35
f 9//36 73//36 131//36 67//36
f 10//37 68//37 138//37 102//37
f 10//38 102//38 135//38 95//38
f 10//39 95//39 113//39 74//39
f 10//40 74//40 132//40 68//40
f 11//41 69//41 132//41 74//41
f 11//42 74//42 113//42 49//42
f 11//43 49//43 112//43 75//43
f 11//44 75//44 133//44 69//44
f 12//45 70//45 133//45 75//45
f 12//46 75//46 112//46 48//46
f 12//47 48//47 111//47 76//47
f 12//48 76//48 134//48 70//48
f 13//49 59//49 110//49 42//49
f 13//50 42//50 108//50 65//50
f 13//51 65//51 129//51 77//51
f 13//52 77//52 123//52 59//52
f 14//53 60//53 123//53 77//53
f 14//54 77//54 129//54 66//54
f 14//55 66//55 130//55 78//55
f 14//56 78//56 124//56 60//56
f 15//57 61//57 124//57 78//57
f 15//58 78//58 130//58 67//58
f 15//59 67//59 131//59 79//59
f 15//60 79//60 125//60 61//60
f 16//61 62//61 137//61 101//61
f 16//62 101//62 138//62 68//62
f 16//63 68//63 132//63 80//63
f 16//64 80//64 126//64 62//64
f 17//65 63//65 126//65 80//65
f 17//66 80//66 132//66 69//66
f 17//67 69//67 133//67 81//67
f 17//68 81//68 127//68 63//68
f 18//69 64//69 127//69 81//69
f 18//70 81//70 133//70 70//70
f 18//71 70//71 134//71 82//71
f 18//72 82//72 128//72 64//72
f 19//73 53//73 106//73 39//73
f 19//74 39//74 110//74 59//74
f 19//75 59//75 123//75 83//75
f 19//76 83//76 117//76 53//76
f 20//77 54//77 117//77 83//77
f 20//78 83//78 123//78 60//78
f 20//79 60//79 124//79 84//79
f 20//80 84//80 118//80 54//80
f 21//81 55//81 118//81 84//81
f 21//82 84//82 124//82 61//82
f 21//83 61//83 125//83 85//83
f 21//84 85//84 119//84 55//84
f 22//85 56//85 136//85 100//85
f 22//86 100//86 137//86 62//86
f 22//87 62//87 126//87 86//87
f 22//88 86//88 120//88 56//88
f 23//89 57//89 120//89 86//89
f 23//90 86//90 126//90 63//90
f 23//91 63//91 127//91 87//91
f 23//92 87//92 121//92 57//92
f 24//93 58//93 121//93 87//93
f 24//94 87//94 127//94 64//94
f 24//95 64//95 128//95 88//95
f 24//96 88//96 122//96 58//96
f 25//97 35//97 104//97 36//97
f 25//98 36//98 106//98 53//98
f 25//99 53//99 117//99 89//99
f 25//100 89//100 116//100 35//100
f 26//101 52//101 116//101 89//101
f 26//102 89//102 117//102 54//102
f 26//103 54//103 118//103 90//103
f 26//104 90//104 115//104 52//104
f 27//105 51//105 115//105 90//105
f 27//106 90//106 118//106 55//106
f 27//107 55//107 119//107 91//107
f 27//108 91//108 114//108 51//108
f 28//109 95//109 135//109 99//109
f 28//110 99//110 136//110 56//110
f 28//111 56//111 120//111 92//111
f 28//112 92//112 113//112 95//112
f 29//113 49//113 113//113 92//113
f 29//114 92//114 120//114 57//114
f 29//115 57//115 121//115 93//115
f 29//116 93//116 112//116 49//116
f 30//117 48//117 112//117 93//117
f 30//118 93//118 121//118 58//118
f 30//119 58//119 122//119 94//119
f 30//120 94//120 111//120 48//120
f 31//121 50//121 114//121 91//121
f 31//122 91//122 119//122 96//122
f 31//123 96//123 136//123 99//123
f 31//124 99//124 135//124 50//124
f 32//125 96//125 119//125 85//125
f 32//126 85//126 125//126 97//126
f 32//127 97//127 137//127 100//127
f 32//128 100//128 136//128 96//128
f 33//129 97//129 125//129 79//129
f 33//130 79//130 131//130 98//130
f 33//131 98//131 138//131 101//131
f 33//132 101//132 137//132 97//132
f 34//133 98//133 131//133 73//133
f 34//134 73//134 114//134 50//134
f 34//135 50//135 135//135 102//135
f 34//136 102//136 138//136 98//136
