# OBJ output by FlowVR Render
mtllib ./BuffoonBox.mtl
#Face Count 204
#Vertex Count 104
v -0.129000 0.130000 0.001000
v -0.130000 0.129000 0.206056
v -0.130000 0.130000 0.211016
v -0.126000 0.126000 0.212056
v -0.125000 0.124000 0.031000
v 0.129000 0.130000 0.001000
v 0.129000 0.130000 0.207056
v 0.129000 0.129000 0.212056
v 0.124000 0.125000 0.211056
v 0.124000 0.124000 0.030000
v 0.130000 -0.129000 0.001000
v 0.130707 -0.129000 0.206349
v 0.129000 -0.129000 0.212056
v 0.125000 -0.124000 0.211056
v 0.124000 -0.124000 0.030000
v -0.129000 -0.129000 0.000000
v -0.130000 -0.129000 0.206056
v -0.130923 -0.129000 0.211672
v -0.126000 -0.126000 0.212056
v -0.125000 -0.124000 0.031000
v 0.132795 0.130000 0.209851
v 0.132795 -0.130000 0.209851
v -0.132795 -0.130000 0.209851
v -0.132795 0.130000 0.209851
v 0.218388 0.130000 0.120082
v 0.221211 0.129000 0.122905
v 0.220504 -0.130000 0.122197
v 0.217681 -0.129000 0.119374
v -0.218388 -0.130000 0.120081
v -0.221211 -0.129000 0.122904
v -0.220504 0.130000 0.122198
v -0.217681 0.129000 0.119375
v -0.129000 0.129000 0.000000
v -0.130000 0.129000 0.001000
v -0.130707 0.129000 0.206349
v -0.130707 0.130000 0.207763
v -0.130000 0.130000 0.208056
v -0.129000 0.130000 0.207056
v -0.130923 0.129000 0.211672
v -0.129000 0.129000 0.212056
v -0.125000 0.124000 0.211056
v -0.124000 0.125000 0.211056
v -0.124000 0.124000 0.030000
v -0.124000 0.125000 0.031000
v 0.130000 0.129000 0.001000
v 0.129000 0.129000 0.000000
v 0.130000 0.130000 0.208056
v 0.130707 0.130000 0.207763
v 0.130707 0.129000 0.206349
v 0.130000 0.129000 0.206056
v 0.130923 0.129000 0.211672
v 0.130000 0.130000 0.211016
v 0.125000 0.124000 0.211056
v 0.126000 0.126000 0.212056
v 0.125000 0.124000 0.031000
v 0.124000 0.125000 0.031000
v 0.129000 -0.130000 0.001000
v 0.129000 -0.129000 0.000000
v 0.130707 -0.130000 0.207763
v 0.130000 -0.130000 0.208056
v 0.129000 -0.130000 0.207056
v 0.130000 -0.129000 0.206056
v 0.130000 -0.130000 0.211016
v 0.130923 -0.129000 0.211672
v 0.124000 -0.125000 0.211056
v 0.126000 -0.126000 0.212056
v 0.124000 -0.125000 0.031000
v 0.125000 -0.124000 0.031000
v -0.129000 -0.130000 0.001000
v -0.130000 -0.129000 0.001000
v -0.129000 -0.130000 0.207056
v -0.130000 -0.130000 0.208056
v -0.130707 -0.130000 0.207763
v -0.130707 -0.129000 0.206349
v -0.130000 -0.130000 0.211016
v -0.129000 -0.129000 0.212056
v -0.124000 -0.125000 0.211056
v -0.125000 -0.124000 0.211056
v -0.124000 -0.125000 0.031000
v -0.124000 -0.124000 0.030000
v 0.132607 0.129000 0.210971
v 0.134237 0.129000 0.209879
v 0.134237 -0.129000 0.209879
v 0.132607 -0.129000 0.210971
v -0.132607 -0.129000 0.210971
v -0.134237 -0.129000 0.209879
v -0.134237 0.129000 0.209879
v -0.132607 0.129000 0.210971
v 0.219095 0.129000 0.119375
v 0.217681 0.129000 0.119375
v 0.221211 0.129000 0.121491
v 0.220504 0.130000 0.122198
v 0.221211 -0.129000 0.121490
v 0.221211 -0.129000 0.122904
v 0.219095 -0.129000 0.119374
v 0.218388 -0.130000 0.120081
v -0.219095 -0.129000 0.119374
v -0.217681 -0.129000 0.119374
v -0.221211 -0.129000 0.121490
v -0.220504 -0.130000 0.122197
v -0.221211 0.129000 0.121491
v -0.221211 0.129000 0.122905
v -0.219095 0.129000 0.119375
v -0.218388 0.130000 0.120082
vn -0.378446 0.892863 -0.244079
vn -3.872897 3.904286 -1.409506
vn -3.872897 3.904286 -1.409506
vn -0.058396 0.922077 0.382575
vn 0.158934 -0.270360 0.949550
vn 2.577350 -0.577350 0.577351
vn 0.292403 0.841993 -0.453375
vn 0.183547 0.976873 -0.109680
vn 0.053632 0.320800 0.945627
vn 0.000000 -1.000000 0.000000
vn 0.000000 -1.000000 0.000000
vn -0.577350 -0.577350 2.577351
vn 0.841993 -0.292403 -0.453375
vn -1.056833 -2.451054 -2.894667
vn -1.056833 -2.451054 -2.894667
vn 0.082627 -0.206315 0.974991
vn -1.000000 0.000000 -0.000000
vn -1.000000 0.000000 -0.000000
vn -0.577350 0.577350 1.577351
vn -0.453374 -0.292403 -0.841993
vn -2.165776 -3.197170 -1.409512
vn -2.165776 -3.197170 -1.409512
vn -0.282551 -0.236130 0.929735
vn 0.270358 0.158932 0.949551
vn 1.577350 0.577350 0.577351
vn 0.264019 0.895840 0.357441
vn 0.229609 -0.894481 0.383645
vn -0.264022 -0.895840 0.357440
vn -0.229606 0.894481 0.383647
vn -0.113825 0.841992 -0.527345
vn 0.800895 0.457006 0.386928
vn 0.524522 -0.844059 0.111544
vn -0.388622 -0.453373 -0.802138
vn 0.113824 -0.841993 -0.527345
vn -0.800896 -0.457002 0.386929
vn -0.524517 0.844062 0.111538
vn 0.388619 0.453376 -0.802138
vn -0.244078 0.378446 -0.892863
vn -0.841993 0.292403 -0.453375
vn 1.181653 0.794115 -1.975721
vn 1.181653 0.794115 -1.975721
vn 0.146577 0.939726 -0.308917
vn -0.047332 0.982981 -0.177506
vn -0.299956 0.947614 -0.109793
vn -0.276300 0.434128 0.857433
vn -0.082625 0.206312 0.974992
vn 1.000000 -0.000000 -0.000000
vn 1.000000 -0.000000 -0.000000
vn 0.000000 -2.000000 0.000000
vn 0.000000 -2.000000 0.000000
vn 0.577350 -0.577350 1.577351
vn 0.577350 -1.577350 0.577351
vn 0.892863 0.378446 -0.244079
vn 0.453374 0.292403 -0.841993
vn 0.000000 1.000000 0.000000
vn -0.047675 0.980771 -0.189249
vn -0.241944 1.588206 -1.830148
vn -0.241944 1.588206 -1.830148
vn 1.939681 1.501204 -0.561532
vn 1.939681 1.501204 -0.561532
vn 0.282550 0.236129 0.929736
vn 0.109985 0.894501 0.433325
vn -2.000000 0.000000 0.000000
vn -2.000000 0.000000 0.000000
vn -0.270360 -0.158936 0.949550
vn -1.577350 -0.577350 0.577351
vn -0.577350 -2.577350 0.577351
vn 0.378446 -0.892863 -0.244079
vn 0.244078 -0.378446 -0.892863
vn -0.221081 -0.934173 -0.280077
vn 0.021772 -0.986827 -0.160305
vn 0.279270 -0.939608 -0.197853
vn 3.646788 -2.208311 -0.561532
vn 3.646788 -2.208311 -0.561532
vn 0.066663 -0.897121 0.436727
vn 0.276302 -0.434129 0.857432
vn 0.000000 2.000000 -0.000000
vn 0.000000 2.000000 -0.000000
vn -0.158934 0.270357 0.949551
vn -0.577350 1.577350 0.577351
vn -2.577350 0.577350 0.577351
vn -0.292403 -0.841993 -0.453375
vn -0.892863 -0.378446 -0.244079
vn -0.244036 -0.968224 -0.054668
vn -0.047330 -0.982981 -0.177508
vn 0.080222 -0.960107 -0.267878
vn 0.474541 -0.794107 -1.268623
vn 0.474541 -0.794107 -1.268623
vn -0.096356 -0.920113 0.379616
vn -0.053632 -0.320802 0.945627
vn 0.000000 1.000000 -0.000000
vn 0.000000 1.000000 -0.000000
vn 2.000000 -0.000000 -0.000000
vn 2.000000 -0.000000 -0.000000
vn 0.577350 2.577350 0.577351
vn 0.577350 0.577350 2.577351
vn 0.413356 0.434227 0.800365
vn 0.614830 0.242095 0.750582
vn 0.578546 -0.445107 0.683494
vn 0.460033 -0.236303 0.855880
vn -0.413358 -0.434229 0.800363
vn -0.614830 -0.242098 0.750582
vn -0.578544 0.445108 0.683495
vn -0.460032 0.236302 0.855881
vn 0.458756 0.378445 -0.803942
vn -0.363749 0.244079 -0.898951
vn 0.915962 0.292403 -0.274798
vn 0.440166 0.892878 -0.094988
vn 0.803938 -0.378445 -0.458762
vn 0.898952 -0.244076 0.363747
vn 0.274793 -0.292400 -0.915965
vn 0.095013 -0.892863 -0.440191
vn -0.458758 -0.378444 -0.803941
vn 0.363750 -0.244078 -0.898951
vn -0.915962 -0.292404 -0.274796
vn -0.440173 -0.892875 -0.094982
vn -0.803936 0.378446 -0.458765
vn -0.898952 0.244078 0.363745
vn -0.274793 0.292403 -0.915964
vn -0.095010 0.892862 -0.440194
vt 0.000083 0.000125
vt 0.166583 0.999875
vt 0.166583 0.999875
vt 0.298668 1.000000
vt 0.533333 0.000000
vt 0.533333 1.000000
vt 0.833208 0.999875
vt 0.000083 0.249875
vt 0.166667 0.249038
vt 0.383333 0.250000
vt 0.583458 0.249875
vt 0.583458 0.249875
vt 0.833333 0.250125
vt 0.000083 0.499875
vt 0.166667 0.499875
vt 0.166667 0.499875
vt 0.383333 0.500000
vt 0.583458 0.499875
vt 0.583458 0.499875
vt 0.833333 0.499875
vt 0.000000 0.749875
vt 0.166583 0.750125
vt 0.166583 0.750125
vt 0.333333 0.750125
vt 0.533333 0.750000
vt 0.833208 0.750125
vt 0.298640 0.250000
vt 0.298640 0.500000
vt 0.298640 0.750000
vt 0.298640 1.000000
vt 0.166750 0.250000
vt 0.333333 0.250125
vt 0.333250 0.500000
vt 0.166667 0.499875
vt 0.166750 0.750000
vt 0.333333 0.750125
vt 0.333250 1.000000
vt 0.166667 0.999875
vt 0.000000 0.999625
vt 0.000083 0.999875
vt 0.166667 0.999875
vt 0.166667 0.999875
vt 0.200052 1.000000
vt 0.200000 0.200000
vt 0.200000 1.000000
vt 0.166667 0.000962
vt 0.333333 0.999875
vt 0.383333 0.000000
vt 0.383333 1.000000
vt 0.583458 0.999875
vt 0.583458 0.999875
vt 0.583458 0.000125
vt 0.583458 0.000125
vt 0.833333 0.000375
vt 0.833208 0.000125
vt 0.000083 0.250125
vt 0.000000 0.250375
vt 0.200000 0.250000
vt 0.200000 0.250000
vt 0.200052 0.250000
vt 0.166667 0.250125
vt 0.166667 0.250125
vt 0.166583 0.250125
vt 0.166583 0.250125
vt 0.333333 0.250125
vt 0.298668 0.250000
vt 0.298668 0.250000
vt 0.583458 0.250125
vt 0.583458 0.250125
vt 0.533333 0.250000
vt 0.833208 0.250125
vt 0.833208 0.249875
vt 0.000083 0.500125
vt 0.000000 0.500125
vt 0.200052 0.500000
vt 0.200000 0.500000
vt 0.200000 0.500000
vt 0.166667 0.500962
vt 0.166583 0.499875
vt 0.166583 0.499875
vt 0.298668 0.500000
vt 0.298668 0.500000
vt 0.333333 0.499875
vt 0.583458 0.500125
vt 0.583458 0.500125
vt 0.533334 0.500000
vt 0.833208 0.500125
vt 0.833208 0.499875
vt 0.000083 0.749875
vt 0.000083 0.750125
vt 0.166667 0.749038
vt 0.200000 0.750000
vt 0.200052 0.750000
vt 0.166667 0.750125
vt 0.166667 0.750125
vt 0.298668 0.750000
vt 0.383333 0.750000
vt 0.583458 0.749875
vt 0.583458 0.749875
vt 0.583458 0.750125
vt 0.583458 0.750125
vt 0.833208 0.749875
vt 0.833333 0.749625
vt 0.333333 0.250125
vt 0.333333 0.250125
vt 0.333333 0.499875
vt 0.333333 0.499875
vt 0.333333 0.750125
vt 0.333333 0.750125
vt 0.333333 0.999875
vt 0.333333 0.999875
vt 0.166750 0.250125
vt 0.166667 0.250125
vt 0.333250 0.250125
vt 0.333250 0.250000
vt 0.333250 0.499875
vt 0.333333 0.499875
vt 0.166750 0.499875
vt 0.166750 0.500000
vt 0.166750 0.750125
vt 0.166667 0.750125
vt 0.333250 0.750125
vt 0.333250 0.750000
vt 0.333250 0.999875
vt 0.333333 0.999875
vt 0.166750 0.999875
vt 0.166750 1.000000
g BuffoonBox
usemtl Purple
f 1/1/1 38/46/44 7/9/8
f 7/9/8 6/8/7 1/1/1
f 40/48/46 4/5/5 54/70/65
f 54/70/65 8/10/9 40/48/46
usemtl Red
f 42/53/49 44/55/52 56/72/67
f 56/72/67 9/12/10 42/53/49
usemtl Purple
f 45/56/53 50/63/59 62/79/73
f 62/79/73 11/14/13 45/56/53
f 89/112/105 91/114/107 93/116/109
f 93/116/109 95/118/111 89/112/105
f 8/10/9 54/70/65 66/86/79
f 66/86/79 13/17/16 8/10/9
usemtl Red
f 53/69/63 55/71/66 68/88/81
f 68/88/81 14/19/17 53/69/63
usemtl Purple
f 57/73/68 61/78/72 71/91/84
f 71/91/84 69/89/82 57/73/68
f 13/17/16 66/86/79 19/25/24
f 19/25/24 76/97/90 13/17/16
usemtl Red
f 65/85/77 67/87/80 79/102/95
f 79/102/95 77/99/91 65/85/77
usemtl Purple
f 70/90/83 17/22/21 2/2/2
f 2/2/2 34/40/39 70/90/83
f 97/120/113 99/122/115 101/124/117
f 101/124/117 103/126/119 97/120/113
f 76/97/90 19/25/24 4/6/5
f 4/6/5 40/49/46 76/97/90
usemtl Red
f 78/101/93 20/26/25 5/7/6
f 5/7/6 41/51/47 78/101/93
usemtl Purple
f 58/74/69 16/21/20 33/39/38
f 33/39/38 46/57/54 58/74/69
usemtl Red
f 80/103/96 15/20/19 10/13/12
f 10/13/12 43/54/51 80/103/96
usemtl Purple
f 52/67/62 47/59/55 7/9/8
f 3/4/4 52/67/62 7/9/8
f 37/44/43 3/4/4 7/9/8
f 38/46/44 37/44/43 7/9/8
f 75/96/89 72/92/85 71/91/84
f 71/91/84 61/78/72 60/76/71
f 75/96/89 71/91/84 60/76/71
f 63/82/75 75/96/89 60/76/71
f 21/27/26 48/60/56 47/58/55
f 47/58/55 52/66/62 21/27/26
f 51/65/61 64/83/76 84/107/100
f 84/107/100 81/104/97 51/65/61
f 63/81/75 60/77/71 59/75/70
f 59/75/70 22/28/27 63/81/75
f 23/29/28 73/93/86 72/92/85
f 72/92/85 75/96/89 23/29/28
f 18/24/23 39/47/45 88/111/104
f 88/111/104 85/108/101 18/24/23
f 3/4/4 37/45/43 36/43/42
f 36/43/42 24/30/29 3/4/4
f 48/60/56 21/27/26 92/115/108
f 92/115/108 25/31/30 48/60/56
f 82/105/98 83/106/99 94/117/110
f 94/117/110 26/32/31 82/105/98
f 22/28/27 59/75/70 96/119/112
f 96/119/112 27/33/32 22/28/27
f 12/15/14 49/61/57 90/113/106
f 90/113/106 28/34/33 12/15/14
f 73/93/86 23/29/28 100/123/116
f 100/123/116 29/35/34 73/93/86
f 86/109/102 87/110/103 102/125/118
f 102/125/118 30/36/35 86/109/102
f 24/30/29 36/43/42 104/127/120
f 104/127/120 31/37/36 24/30/29
f 35/41/40 74/94/87 98/121/114
f 98/121/114 32/38/37 35/41/40
f 1/1/1 33/39/38 34/40/39
f 2/2/2 35/41/40 36/43/42
f 2/2/2 36/43/42 37/45/43
f 2/2/2 37/45/43 38/46/44
f 3/4/4 39/47/45 40/48/46
f 4/5/5 41/50/47 42/52/49
f 5/7/6 43/54/51 44/55/52
f 6/8/7 45/56/53 46/57/54
f 7/9/8 47/58/55 48/60/56
f 7/9/8 48/60/56 49/61/57
f 7/9/8 49/61/57 50/63/59
f 8/10/9 51/65/61 52/66/62
f 9/11/10 53/68/63 54/70/65
f 10/13/12 55/71/66 56/72/67
f 11/14/13 57/73/68 58/74/69
f 12/15/14 59/75/70 60/77/71
f 12/15/14 60/77/71 61/78/72
f 12/15/14 61/78/72 62/79/73
f 13/17/16 63/81/75 64/83/76
f 14/18/17 65/84/77 66/86/79
f 15/20/19 67/87/80 68/88/81
f 16/21/20 69/89/82 70/90/83
f 17/22/21 71/91/84 72/92/85
f 17/22/21 72/92/85 73/93/86
f 17/22/21 73/93/86 74/94/87
f 18/24/23 75/96/89 76/97/90
f 19/25/24 77/98/91 78/100/93
f 20/26/25 79/102/95 80/103/96
f 21/27/26 81/104/97 82/105/98
f 22/28/27 83/106/99 84/107/100
f 23/29/28 85/108/101 86/109/102
f 24/30/29 87/110/103 88/111/104
f 25/31/30 89/112/105 90/113/106
f 26/32/31 91/114/107 92/115/108
f 27/33/32 93/116/109 94/117/110
f 28/34/33 95/118/111 96/119/112
f 29/35/34 97/120/113 98/121/114
f 30/36/35 99/122/115 100/123/116
f 31/37/36 101/124/117 102/125/118
f 32/38/37 103/126/119 104/127/120
f 7/9/8 50/63/59 45/56/53
f 45/56/53 6/8/7 7/9/8
f 6/8/7 46/57/54 33/39/38
f 33/39/38 1/1/1 6/8/7
f 1/1/1 34/40/39 2/2/2
f 2/2/2 38/46/44 1/1/1
f 8/10/9 52/66/62 3/4/4
f 3/4/4 40/48/46 8/10/9
f 4/5/5 42/52/49 9/11/10
f 9/11/10 54/70/65 4/5/5
f 56/72/67 55/71/66 53/69/63
f 53/69/63 9/12/10 56/72/67
f 42/53/49 41/51/47 5/7/6
f 5/7/6 44/55/52 42/53/49
f 44/55/52 43/54/51 10/13/12
f 10/13/12 56/72/67 44/55/52
f 62/79/73 61/78/72 57/73/68
f 57/73/68 11/14/13 62/79/73
f 11/14/13 58/74/69 46/57/54
f 46/57/54 45/56/53 11/14/13
f 51/65/61 8/10/9 13/17/16
f 13/17/16 64/83/76 51/65/61
f 54/70/65 53/68/63 14/18/17
f 14/18/17 66/86/79 54/70/65
f 68/88/81 67/87/80 65/85/77
f 65/85/77 14/19/17 68/88/81
f 55/71/66 10/13/12 15/20/19
f 15/20/19 68/88/81 55/71/66
f 71/91/84 17/22/21 70/90/83
f 70/90/83 69/89/82 71/91/84
f 69/89/82 16/21/20 58/74/69
f 58/74/69 57/73/68 69/89/82
f 76/97/90 75/96/89 63/81/75
f 63/81/75 13/17/16 76/97/90
f 66/86/79 65/84/77 77/98/91
f 77/98/91 19/25/24 66/86/79
f 79/102/95 20/26/25 78/101/93
f 78/101/93 77/99/91 79/102/95
f 67/87/80 15/20/19 80/103/96
f 80/103/96 79/102/95 67/87/80
f 34/40/39 33/39/38 16/21/20
f 16/21/20 70/90/83 34/40/39
f 18/24/23 76/97/90 40/48/46
f 40/48/46 39/47/45 18/24/23
f 19/25/24 78/100/93 41/50/47
f 41/50/47 4/5/5 19/25/24
f 20/26/25 80/103/96 43/54/51
f 43/54/51 5/7/6 20/26/25
f 52/66/62 51/65/61 81/104/97
f 81/104/97 21/27/26 52/66/62
f 64/83/76 63/81/75 22/28/27
f 22/28/27 84/107/100 64/83/76
f 82/105/98 81/104/97 84/107/100
f 84/107/100 83/106/99 82/105/98
f 12/16/14 62/80/73 50/64/59
f 50/64/59 49/62/57 12/16/14
f 75/96/89 18/24/23 85/108/101
f 85/108/101 23/29/28 75/96/89
f 39/47/45 3/4/4 24/30/29
f 24/30/29 88/111/104 39/47/45
f 86/109/102 85/108/101 88/111/104
f 88/111/104 87/110/103 86/109/102
f 35/42/40 2/3/2 17/23/21
f 17/23/21 74/95/87 35/42/40
f 49/61/57 48/60/56 25/31/30
f 25/31/30 90/113/106 49/61/57
f 21/27/26 82/105/98 26/32/31
f 26/32/31 92/115/108 21/27/26
f 83/106/99 22/28/27 27/33/32
f 27/33/32 94/117/110 83/106/99
f 59/75/70 12/15/14 28/34/33
f 28/34/33 96/119/112 59/75/70
f 89/112/105 25/31/30 92/115/108
f 92/115/108 91/114/107 89/112/105
f 91/114/107 26/32/31 94/117/110
f 94/117/110 93/116/109 91/114/107
f 93/116/109 27/33/32 96/119/112
f 96/119/112 95/118/111 93/116/109
f 95/118/111 28/34/33 90/113/106
f 90/113/106 89/112/105 95/118/111
f 74/94/87 73/93/86 29/35/34
f 29/35/34 98/121/114 74/94/87
f 23/29/28 86/109/102 30/36/35
f 30/36/35 100/123/116 23/29/28
f 87/110/103 24/30/29 31/37/36
f 31/37/36 102/125/118 87/110/103
f 36/43/42 35/41/40 32/38/37
f 32/38/37 104/127/120 36/43/42
f 97/120/113 29/35/34 100/123/116
f 100/123/116 99/122/115 97/120/113
f 99/122/115 30/36/35 102/125/118
f 102/125/118 101/124/117 99/122/115
f 101/124/117 31/37/36 104/127/120
f 104/127/120 103/126/119 101/124/117
f 103/126/119 32/38/37 98/121/114
f 98/121/114 97/120/113 103/126/119
