# OBJ output by FlowVR Render
mtllib ./BuffoonBox.mtl
#Face Count 194
#Vertex Count 104
v -0.129000 0.130000 0.001000
v -0.130000 0.129000 0.206056
v -0.130000 0.130000 0.211016
v -0.126000 0.126000 0.212056
v -0.125000 0.124000 0.031000
v 0.129000 0.130000 0.001000
v 0.129000 0.130000 0.207056
v 0.129000 0.129000 0.212056
v 0.124000 0.125000 0.211056
v 0.124000 0.124000 0.030000
v 0.130000 -0.129000 0.001000
v 0.130707 -0.129000 0.206349
v 0.129000 -0.129000 0.212056
v 0.125000 -0.124000 0.211056
v 0.124000 -0.124000 0.030000
v -0.129000 -0.129000 0.000000
v -0.130000 -0.129000 0.206056
v -0.130923 -0.129000 0.211672
v -0.126000 -0.126000 0.212056
v -0.125000 -0.124000 0.031000
v 0.132795 0.130000 0.209851
v 0.132795 -0.130000 0.209851
v -0.132795 -0.130000 0.209851
v -0.132795 0.130000 0.209851
v 0.218388 0.130000 0.120082
v 0.221211 0.129000 0.122905
v 0.220504 -0.130000 0.122197
v 0.217681 -0.129000 0.119374
v -0.218388 -0.130000 0.120081
v -0.221211 -0.129000 0.122904
v -0.220504 0.130000 0.122198
v -0.217681 0.129000 0.119375
v -0.129000 0.129000 0.000000
v -0.130000 0.129000 0.001000
v -0.130707 0.129000 0.206349
v -0.130707 0.130000 0.207763
v -0.130000 0.130000 0.208056
v -0.129000 0.130000 0.207056
v -0.130923 0.129000 0.211672
v -0.129000 0.129000 0.212056
v -0.125000 0.124000 0.211056
v -0.124000 0.125000 0.211056
v -0.124000 0.124000 0.030000
v -0.124000 0.125000 0.031000
v 0.130000 0.129000 0.001000
v 0.129000 0.129000 0.000000
v 0.130000 0.130000 0.208056
v 0.130707 0.130000 0.207763
v 0.130707 0.129000 0.206349
v 0.130000 0.129000 0.206056
v 0.130923 0.129000 0.211672
v 0.130000 0.130000 0.211016
v 0.125000 0.124000 0.211056
v 0.126000 0.126000 0.212056
v 0.125000 0.124000 0.031000
v 0.124000 0.125000 0.031000
v 0.129000 -0.130000 0.001000
v 0.129000 -0.129000 0.000000
v 0.130707 -0.130000 0.207763
v 0.130000 -0.130000 0.208056
v 0.129000 -0.130000 0.207056
v 0.130000 -0.129000 0.206056
v 0.130000 -0.130000 0.211016
v 0.130923 -0.129000 0.211672
v 0.124000 -0.125000 0.211056
v 0.126000 -0.126000 0.212056
v 0.124000 -0.125000 0.031000
v 0.125000 -0.124000 0.031000
v -0.129000 -0.130000 0.001000
v -0.130000 -0.129000 0.001000
v -0.129000 -0.130000 0.207056
v -0.130000 -0.130000 0.208056
v -0.130707 -0.130000 0.207763
v -0.130707 -0.129000 0.206349
v -0.130000 -0.130000 0.211016
v -0.129000 -0.129000 0.212056
v -0.124000 -0.125000 0.211056
v -0.125000 -0.124000 0.211056
v -0.124000 -0.125000 0.031000
v -0.124000 -0.124000 0.030000
v 0.132607 0.129000 0.210971
v 0.134237 0.129000 0.209879
v 0.134237 -0.129000 0.209879
v 0.132607 -0.129000 0.210971
v -0.132607 -0.129000 0.210971
v -0.134237 -0.129000 0.209879
v -0.134237 0.129000 0.209879
v -0.132607 0.129000 0.210971
v 0.219095 0.129000 0.119375
v 0.217681 0.129000 0.119375
v 0.221211 0.129000 0.121491
v 0.220504 0.130000 0.122198
v 0.221211 -0.129000 0.121490
v 0.221211 -0.129000 0.122904
v 0.219095 -0.129000 0.119374
v 0.218388 -0.130000 0.120081
v -0.219095 -0.129000 0.119374
v -0.217681 -0.129000 0.119374
v -0.221211 -0.129000 0.121490
v -0.220504 -0.130000 0.122197
v -0.221211 0.129000 0.121491
v -0.221211 0.129000 0.122905
v -0.219095 0.129000 0.119375
v -0.218388 0.130000 0.120082
vn -0.378446 0.892863 -0.244079
vn -3.872897 3.904286 -1.409506
vn -0.058396 0.922077 0.382575
vn 0.158934 -0.270360 0.949550
vn 2.577350 -0.577350 0.577351
vn 0.292403 0.841993 -0.453375
vn 0.183547 0.976873 -0.109680
vn 0.053632 0.320800 0.945627
vn 0.000000 -1.000000 0.000000
vn -0.577350 -0.577350 2.577351
vn 0.841993 -0.292403 -0.453375
vn -1.056833 -2.451054 -2.894667
vn 0.082627 -0.206315 0.974991
vn -1.000000 0.000000 -0.000000
vn -0.577350 0.577350 1.577351
vn -0.453374 -0.292403 -0.841993
vn -2.165776 -3.197170 -1.409512
vn -0.282551 -0.236130 0.929735
vn 0.270358 0.158932 0.949551
vn 1.577350 0.577350 0.577351
vn 0.264019 0.895840 0.357441
vn 0.229609 -0.894481 0.383645
vn -0.264022 -0.895840 0.357440
vn -0.229606 0.894481 0.383647
vn -0.113825 0.841992 -0.527345
vn 0.800895 0.457006 0.386928
vn 0.524522 -0.844059 0.111544
vn -0.388622 -0.453373 -0.802138
vn 0.113824 -0.841993 -0.527345
vn -0.800896 -0.457002 0.386929
vn -0.524517 0.844062 0.111538
vn 0.388619 0.453376 -0.802138
vn -0.244078 0.378446 -0.892863
vn -0.841993 0.292403 -0.453375
vn 1.181653 0.794115 -1.975721
vn 0.146577 0.939726 -0.308917
vn -0.047332 0.982981 -0.177506
vn -0.299956 0.947614 -0.109793
vn -0.276300 0.434128 0.857433
vn -0.082625 0.206312 0.974992
vn 1.000000 -0.000000 -0.000000
vn 0.000000 -2.000000 0.000000
vn 0.577350 -0.577350 1.577351
vn 0.577350 -1.577350 0.577351
vn 0.892863 0.378446 -0.244079
vn 0.453374 0.292403 -0.841993
vn 0.000000 1.000000 0.000000
vn -0.047675 0.980771 -0.189249
vn -0.241944 1.588206 -1.830148
vn 1.939681 1.501204 -0.561532
vn 0.282550 0.236129 0.929736
vn 0.109985 0.894501 0.433325
vn -2.000000 0.000000 0.000000
vn -0.270360 -0.158936 0.949550
vn -1.577350 -0.577350 0.577351
vn -0.577350 -2.577350 0.577351
vn 0.378446 -0.892863 -0.244079
vn 0.244078 -0.378446 -0.892863
vn -0.221081 -0.934173 -0.280077
vn 0.021772 -0.986827 -0.160305
vn 0.279270 -0.939608 -0.197853
vn 3.646788 -2.208311 -0.561532
vn 0.066663 -0.897121 0.436727
vn 0.276302 -0.434129 0.857432
vn 0.000000 2.000000 -0.000000
vn -0.158934 0.270357 0.949551
vn -0.577350 1.577350 0.577351
vn -2.577350 0.577350 0.577351
vn -0.292403 -0.841993 -0.453375
vn -0.892863 -0.378446 -0.244079
vn -0.244036 -0.968224 -0.054668
vn -0.047330 -0.982981 -0.177508
vn 0.080222 -0.960107 -0.267878
vn 0.474541 -0.794107 -1.268623
vn -0.096356 -0.920113 0.379616
vn -0.053632 -0.320802 0.945627
vn 0.000000 1.000000 -0.000000
vn 2.000000 -0.000000 -0.000000
vn 0.577350 2.577350 0.577351
vn 0.577350 0.577350 2.577351
vn 0.413356 0.434227 0.800365
vn 0.614830 0.242095 0.750582
vn 0.578546 -0.445107 0.683494
vn 0.460033 -0.236303 0.855880
vn -0.413358 -0.434229 0.800363
vn -0.614830 -0.242098 0.750582
vn -0.578544 0.445108 0.683495
vn -0.460032 0.236302 0.855881
vn 0.458756 0.378445 -0.803942
vn -0.363749 0.244079 -0.898951
vn 0.915962 0.292403 -0.274798
vn 0.440166 0.892878 -0.094988
vn 0.803938 -0.378445 -0.458762
vn 0.898952 -0.244076 0.363747
vn 0.274793 -0.292400 -0.915965
vn 0.095013 -0.892863 -0.440191
vn -0.458758 -0.378444 -0.803941
vn 0.363750 -0.244078 -0.898951
vn -0.915962 -0.292404 -0.274796
vn -0.440173 -0.892875 -0.094982
vn -0.803936 0.378446 -0.458765
vn -0.898952 0.244078 0.363745
vn -0.274793 0.292403 -0.915964
vn -0.095010 0.892862 -0.440194
vt 0.000083 0.000125
vt 0.166583 0.999875
vt 0.166583 0.999875
vt 0.298668 1.000000
vt 0.533333 0.000000
vt 0.533333 1.000000
vt 0.833208 0.999875
vt 0.000083 0.249875
vt 0.166667 0.249038
vt 0.383333 0.250000
vt 0.583458 0.249875
vt 0.583458 0.249875
vt 0.833333 0.250125
vt 0.000083 0.499875
vt 0.166667 0.499875
vt 0.166667 0.499875
vt 0.383333 0.500000
vt 0.583458 0.499875
vt 0.583458 0.499875
vt 0.833333 0.499875
vt 0.000000 0.749875
vt 0.166583 0.750125
vt 0.166583 0.750125
vt 0.333333 0.750125
vt 0.533333 0.750000
vt 0.833208 0.750125
vt 0.298640 0.250000
vt 0.298640 0.500000
vt 0.298640 0.750000
vt 0.298640 1.000000
vt 0.166750 0.250000
vt 0.333333 0.250125
vt 0.333250 0.500000
vt 0.166667 0.499875
vt 0.166750 0.750000
vt 0.333333 0.750125
vt 0.333250 1.000000
vt 0.166667 0.999875
vt 0.000000 0.999625
vt 0.000083 0.999875
vt 0.166667 0.999875
vt 0.166667 0.999875
vt 0.200052 1.000000
vt 0.200000 0.200000
vt 0.200000 1.000000
vt 0.166667 0.000962
vt 0.333333 0.999875
vt 0.383333 0.000000
vt 0.383333 1.000000
vt 0.583458 0.999875
vt 0.583458 0.999875
vt 0.583458 0.000125
vt 0.583458 0.000125
vt 0.833333 0.000375
vt 0.833208 0.000125
vt 0.000083 0.250125
vt 0.000000 0.250375
vt 0.200000 0.250000
vt 0.200000 0.250000
vt 0.200052 0.250000
vt 0.166667 0.250125
vt 0.166667 0.250125
vt 0.166583 0.250125
vt 0.166583 0.250125
vt 0.333333 0.250125
vt 0.298668 0.250000
vt 0.298668 0.250000
vt 0.583458 0.250125
vt 0.583458 0.250125
vt 0.533333 0.250000
vt 0.833208 0.250125
vt 0.833208 0.249875
vt 0.000083 0.500125
vt 0.000000 0.500125
vt 0.200052 0.500000
vt 0.200000 0.500000
vt 0.200000 0.500000
vt 0.166667 0.500962
vt 0.166583 0.499875
vt 0.166583 0.499875
vt 0.298668 0.500000
vt 0.298668 0.500000
vt 0.333333 0.499875
vt 0.583458 0.500125
vt 0.583458 0.500125
vt 0.533334 0.500000
vt 0.833208 0.500125
vt 0.833208 0.499875
vt 0.000083 0.749875
vt 0.000083 0.750125
vt 0.166667 0.749038
vt 0.200000 0.750000
vt 0.200052 0.750000
vt 0.166667 0.750125
vt 0.166667 0.750125
vt 0.298668 0.750000
vt 0.383333 0.750000
vt 0.583458 0.749875
vt 0.583458 0.749875
vt 0.583458 0.750125
vt 0.583458 0.750125
vt 0.833208 0.749875
vt 0.833333 0.749625
vt 0.333333 0.250125
vt 0.333333 0.250125
vt 0.333333 0.499875
vt 0.333333 0.499875
vt 0.333333 0.750125
vt 0.333333 0.750125
vt 0.333333 0.999875
vt 0.333333 0.999875
vt 0.166750 0.250125
vt 0.166667 0.250125
vt 0.333250 0.250125
vt 0.333250 0.250000
vt 0.333250 0.499875
vt 0.333333 0.499875
vt 0.166750 0.499875
vt 0.166750 0.500000
vt 0.166750 0.750125
vt 0.166667 0.750125
vt 0.333250 0.750125
vt 0.333250 0.750000
vt 0.333250 0.999875
vt 0.333333 0.999875
vt 0.166750 0.999875
vt 0.166750 1.000000
g BuffoonBox
usemtl Purple
f 1/1/1 38/46/38 7/9/7
f 7/9/7 6/8/6 1/1/1
f 40/48/40 4/5/4 54/70/54
f 54/70/54 8/10/8 40/48/40
usemtl Purple
f 45/56/45 50/63/50 62/79/62
f 62/79/62 11/14/11 45/56/45
f 89/112/89 91/114/91 93/116/93
f 93/116/93 95/118/95 89/112/89
f 8/10/8 54/70/54 66/86/66
f 66/86/66 13/17/13 8/10/8
usemtl Purple
f 57/73/57 61/78/61 71/91/71
f 71/91/71 69/89/69 57/73/57
f 13/17/13 66/86/66 19/25/19
f 19/25/19 76/97/76 13/17/13
usemtl Purple
f 70/90/70 17/22/17 2/2/2
f 2/2/2 34/40/34 70/90/70
f 97/120/97 99/122/99 101/124/101
f 101/124/101 103/126/103 97/120/97
f 76/97/76 19/25/19 4/6/4
f 4/6/4 40/49/40 76/97/76
usemtl Purple
f 58/74/58 16/21/16 33/39/33
f 33/39/33 46/57/46 58/74/58
usemtl Purple
f 52/67/52 47/59/47 7/9/7
f 3/4/3 52/67/52 7/9/7
f 37/44/37 3/4/3 7/9/7
f 38/46/38 37/44/37 7/9/7
f 75/96/75 72/92/72 71/91/71
f 71/91/71 61/78/61 60/76/60
f 75/96/75 71/91/71 60/76/60
f 63/82/63 75/96/75 60/76/60
f 21/27/21 48/60/48 47/58/47
f 47/58/47 52/66/52 21/27/21
f 51/65/51 64/83/64 84/107/84
f 84/107/84 81/104/81 51/65/51
f 63/81/63 60/77/60 59/75/59
f 59/75/59 22/28/22 63/81/63
f 23/29/23 73/93/73 72/92/72
f 72/92/72 75/96/75 23/29/23
f 18/24/18 39/47/39 88/111/88
f 88/111/88 85/108/85 18/24/18
f 3/4/3 37/45/37 36/43/36
f 36/43/36 24/30/24 3/4/3
f 48/60/48 21/27/21 92/115/92
f 92/115/92 25/31/25 48/60/48
f 82/105/82 83/106/83 94/117/94
f 94/117/94 26/32/26 82/105/82
f 22/28/22 59/75/59 96/119/96
f 96/119/96 27/33/27 22/28/22
f 12/15/12 49/61/49 90/113/90
f 90/113/90 28/34/28 12/15/12
f 73/93/73 23/29/23 100/123/100
f 100/123/100 29/35/29 73/93/73
f 86/109/86 87/110/87 102/125/102
f 102/125/102 30/36/30 86/109/86
f 24/30/24 36/43/36 104/127/104
f 104/127/104 31/37/31 24/30/24
f 35/41/35 74/94/74 98/121/98
f 98/121/98 32/38/32 35/41/35
f 1/1/1 33/39/33 34/40/34
f 2/2/2 35/41/35 36/43/36
f 2/2/2 36/43/36 37/45/37
f 2/2/2 37/45/37 38/46/38
f 3/4/3 39/47/39 40/48/40
f 4/5/4 41/50/41 42/52/42
f 5/7/5 43/54/43 44/55/44
f 6/8/6 45/56/45 46/57/46
f 7/9/7 47/58/47 48/60/48
f 7/9/7 48/60/48 49/61/49
f 7/9/7 49/61/49 50/63/50
f 8/10/8 51/65/51 52/66/52
f 9/11/9 53/68/53 54/70/54
f 10/13/10 55/71/55 56/72/56
f 11/14/11 57/73/57 58/74/58
f 12/15/12 59/75/59 60/77/60
f 12/15/12 60/77/60 61/78/61
f 12/15/12 61/78/61 62/79/62
f 13/17/13 63/81/63 64/83/64
f 14/18/14 65/84/65 66/86/66
f 15/20/15 67/87/67 68/88/68
f 16/21/16 69/89/69 70/90/70
f 17/22/17 71/91/71 72/92/72
f 17/22/17 72/92/72 73/93/73
f 17/22/17 73/93/73 74/94/74
f 18/24/18 75/96/75 76/97/76
f 19/25/19 77/98/77 78/100/78
f 20/26/20 79/102/79 80/103/80
f 21/27/21 81/104/81 82/105/82
f 22/28/22 83/106/83 84/107/84
f 23/29/23 85/108/85 86/109/86
f 24/30/24 87/110/87 88/111/88
f 25/31/25 89/112/89 90/113/90
f 26/32/26 91/114/91 92/115/92
f 27/33/27 93/116/93 94/117/94
f 28/34/28 95/118/95 96/119/96
f 29/35/29 97/120/97 98/121/98
f 30/36/30 99/122/99 100/123/100
f 31/37/31 101/124/101 102/125/102
f 32/38/32 103/126/103 104/127/104
f 7/9/7 50/63/50 45/56/45
f 45/56/45 6/8/6 7/9/7
f 6/8/6 46/57/46 33/39/33
f 33/39/33 1/1/1 6/8/6
f 1/1/1 34/40/34 2/2/2
f 2/2/2 38/46/38 1/1/1
f 8/10/8 52/66/52 3/4/3
f 3/4/3 40/48/40 8/10/8
f 4/5/4 42/52/42 9/11/9
f 9/11/9 54/70/54 4/5/4
f 56/72/56 55/71/55 53/69/53
f 53/69/53 9/12/9 56/72/56
f 42/53/42 41/51/41 5/7/5
f 5/7/5 44/55/44 42/53/42
f 44/55/44 43/54/43 10/13/10
f 10/13/10 56/72/56 44/55/44
f 62/79/62 61/78/61 57/73/57
f 57/73/57 11/14/11 62/79/62
f 11/14/11 58/74/58 46/57/46
f 46/57/46 45/56/45 11/14/11
f 51/65/51 8/10/8 13/17/13
f 13/17/13 64/83/64 51/65/51
f 54/70/54 53/68/53 14/18/14
f 14/18/14 66/86/66 54/70/54
f 68/88/68 67/87/67 65/85/65
f 65/85/65 14/19/14 68/88/68
f 55/71/55 10/13/10 15/20/15
f 15/20/15 68/88/68 55/71/55
f 71/91/71 17/22/17 70/90/70
f 70/90/70 69/89/69 71/91/71
f 69/89/69 16/21/16 58/74/58
f 58/74/58 57/73/57 69/89/69
f 76/97/76 75/96/75 63/81/63
f 63/81/63 13/17/13 76/97/76
f 66/86/66 65/84/65 77/98/77
f 77/98/77 19/25/19 66/86/66
f 79/102/79 20/26/20 78/101/78
f 78/101/78 77/99/77 79/102/79
f 67/87/67 15/20/15 80/103/80
f 80/103/80 79/102/79 67/87/67
f 34/40/34 33/39/33 16/21/16
f 16/21/16 70/90/70 34/40/34
f 18/24/18 76/97/76 40/48/40
f 40/48/40 39/47/39 18/24/18
f 19/25/19 78/100/78 41/50/41
f 41/50/41 4/5/4 19/25/19
f 20/26/20 80/103/80 43/54/43
f 43/54/43 5/7/5 20/26/20
f 52/66/52 51/65/51 81/104/81
f 81/104/81 21/27/21 52/66/52
f 64/83/64 63/81/63 22/28/22
f 22/28/22 84/107/84 64/83/64
f 82/105/82 81/104/81 84/107/84
f 84/107/84 83/106/83 82/105/82
f 12/16/12 62/80/62 50/64/50
f 50/64/50 49/62/49 12/16/12
f 75/96/75 18/24/18 85/108/85
f 85/108/85 23/29/23 75/96/75
f 39/47/39 3/4/3 24/30/24
f 24/30/24 88/111/88 39/47/39
f 86/109/86 85/108/85 88/111/88
f 88/111/88 87/110/87 86/109/86
f 35/42/35 2/3/2 17/23/17
f 17/23/17 74/95/74 35/42/35
f 49/61/49 48/60/48 25/31/25
f 25/31/25 90/113/90 49/61/49
f 21/27/21 82/105/82 26/32/26
f 26/32/26 92/115/92 21/27/21
f 83/106/83 22/28/22 27/33/27
f 27/33/27 94/117/94 83/106/83
f 59/75/59 12/15/12 28/34/28
f 28/34/28 96/119/96 59/75/59
f 89/112/89 25/31/25 92/115/92
f 92/115/92 91/114/91 89/112/89
f 91/114/91 26/32/26 94/117/94
f 94/117/94 93/116/93 91/114/91
f 93/116/93 27/33/27 96/119/96
f 96/119/96 95/118/95 93/116/93
f 95/118/95 28/34/28 90/113/90
f 90/113/90 89/112/89 95/118/95
f 74/94/74 73/93/73 29/35/29
f 29/35/29 98/121/98 74/94/74
f 23/29/23 86/109/86 30/36/30
f 30/36/30 100/123/100 23/29/23
f 87/110/87 24/30/24 31/37/31
f 31/37/31 102/125/102 87/110/87
f 36/43/36 35/41/35 32/38/32
f 32/38/32 104/127/104 36/43/36
f 97/120/97 29/35/29 100/123/100
f 100/123/100 99/122/99 97/120/97
f 99/122/99 30/36/30 102/125/102
f 102/125/102 101/124/101 99/122/99
f 101/124/101 31/37/31 104/127/104
f 104/127/104 103/126/103 101/124/101
f 103/126/103 32/38/32 98/121/98
f 98/121/98 97/120/97 103/126/103
