# OBJ output by FlowVR Render
mtllib ./BuffoonBox.mtl
#Face Count 10
#Vertex Count 20
v -0.125000 0.124000 0.031000
v 0.124000 0.125000 0.211056
v 0.124000 0.124000 0.030000
v 0.125000 -0.124000 0.211056
v 0.124000 -0.124000 0.030000
v -0.125000 -0.124000 0.031000
v -0.125000 0.124000 0.211056
v -0.124000 0.125000 0.211056
v -0.124000 0.124000 0.030000
v -0.124000 0.125000 0.031000
v 0.125000 0.124000 0.211056
v 0.125000 0.124000 0.031000
v 0.124000 0.125000 0.031000
v 0.124000 -0.125000 0.211056
v 0.124000 -0.125000 0.031000
v 0.125000 -0.124000 0.031000
v -0.124000 -0.125000 0.211056
v -0.125000 -0.124000 0.211056
v -0.124000 -0.125000 0.031000
v -0.124000 -0.124000 0.030000
vn 2.577350 -0.577350 0.577351
vn 0.000000 -1.000000 0.000000
vn -0.577350 -0.577350 2.577351
vn -1.000000 0.000000 -0.000000
vn -0.577350 0.577350 1.577351
vn 1.577350 0.577350 0.577351
vn 1.000000 -0.000000 -0.000000
vn 0.000000 -2.000000 0.000000
vn 0.577350 -0.577350 1.577351
vn 0.577350 -1.577350 0.577351
vn -2.000000 0.000000 0.000000
vn -1.577350 -0.577350 0.577351
vn -0.577350 -2.577350 0.577351
vn 0.000000 2.000000 -0.000000
vn -0.577350 1.577350 0.577351
vn -2.577350 0.577350 0.577351
vn 0.000000 1.000000 -0.000000
vn 2.000000 -0.000000 -0.000000
vn 0.577350 2.577350 0.577351
vn 0.577350 0.577350 2.577351
vt 0.833208 0.999875
vt 0.583458 0.249875
vt 0.833333 0.250125
vt 0.583458 0.499875
vt 0.833333 0.499875
vt 0.833208 0.750125
vt 0.583458 0.999875
vt 0.583458 0.000125
vt 0.833333 0.000375
vt 0.833208 0.000125
vt 0.583458 0.250125
vt 0.833208 0.250125
vt 0.833208 0.249875
vt 0.583458 0.500125
vt 0.833208 0.500125
vt 0.833208 0.499875
vt 0.583458 0.749875
vt 0.583458 0.750125
vt 0.833208 0.749875
vt 0.833333 0.749625
g BuffoonBox
usemtl Red
f 8/8/8 10/10/10 13/13/13
f 13/13/13 2/2/2 8/8/8
usemtl Red
f 11/11/11 12/12/12 16/16/16
f 16/16/16 4/4/4 11/11/11
usemtl Red
f 14/14/14 15/15/15 19/19/19
f 19/19/19 17/17/17 14/14/14
usemtl Red
f 18/18/18 6/6/6 1/1/1
f 1/1/1 7/7/7 18/18/18
usemtl Red
f 20/20/20 5/5/5 3/3/3
f 3/3/3 9/9/9 20/20/20
