# Blender v2.74 (sub 0) OBJ File: 'styluscollision.blend'
# www.blender.org
mtllib stylus_collision.mtl
o default.001
v -0.000607 0.000024 1.277971
v 0.039448 0.149562 0.465588
v 0.076787 0.134088 0.465618
v 0.148929 0.040111 0.465670
v 0.000000 0.000000 0.000000
v 0.154218 0.000031 0.465673
v -0.000625 0.154838 1.277965
v -0.040693 0.149544 1.277939
v -0.078019 0.134057 1.277916
v -0.110056 0.109465 1.277894
v -0.134683 0.077420 1.277870
v -0.150111 0.040093 1.277866
v -0.155395 0.000031 1.277862
v -0.150112 -0.040031 1.277869
v -0.134685 -0.077356 1.277876
v -0.110058 -0.109402 1.277902
v -0.078019 -0.134041 1.277918
v -0.040693 -0.149526 0.465535
v -0.078019 -0.134041 0.465511
v -0.110058 -0.109402 0.465494
v -0.040693 -0.149526 1.277942
v -0.134685 -0.077356 0.465469
v -0.000625 -0.154777 1.277977
v -0.155395 0.000031 0.465455
v 0.039448 -0.149544 1.277999
v 0.076788 -0.134072 1.278027
v 0.108845 -0.109439 1.278056
v 0.133489 -0.077388 1.278065
v 0.148930 -0.040049 1.278080
v 0.154218 0.000031 1.278081
v 0.148929 0.040111 1.278077
v 0.133488 0.077452 1.278060
v -0.040693 0.149544 0.465532
v 0.108843 0.109501 1.278048
v 0.076787 0.134088 1.278025
v 0.039448 0.149562 1.277996
v -0.000625 0.154838 0.465558
v -0.078019 0.134057 0.465508
v -0.110056 0.109465 0.465486
v -0.134683 0.077420 0.465463
v -0.150111 0.040093 0.465459
v -0.150112 -0.040031 0.465462
v -0.000625 -0.154777 0.465569
v 0.039448 -0.149544 0.465592
v 0.076788 -0.134072 0.465620
v 0.108845 -0.109439 0.465649
v 0.133489 -0.077388 0.465658
v 0.148930 -0.040049 0.465673
v 0.133488 0.077452 0.465653
v 0.108843 0.109501 0.465641
vn 0.363800 -0.877400 -0.312600
vn -0.000800 -0.000100 1.000000
vn -0.000700 0.000200 1.000000
vn -0.000700 0.000000 1.000000
vn -0.000800 0.000200 1.000000
vn -0.000700 -0.000100 1.000000
vn -0.000900 0.000000 1.000000
vn -0.000600 0.000000 1.000000
vn -0.000600 -0.000100 1.000000
vn -0.000700 0.000100 1.000000
vn -0.000800 -0.000000 1.000000
vn -0.000600 0.000200 1.000000
vn -0.383200 -0.923700 0.000000
vn 0.382800 0.923800 0.000000
vn -0.609600 -0.792700 0.000000
vn -0.792900 -0.609300 0.000000
vn 0.991400 0.130800 0.000000
vn 0.753200 -0.579000 -0.312100
vn 0.123200 -0.941800 -0.312900
vn 0.753200 0.579000 -0.312200
vn -0.578000 0.753300 -0.313800
vn 0.579000 -0.753100 -0.312300
vn -0.752700 0.578700 -0.314000
vn 0.878000 -0.363000 -0.312000
vn -0.877400 0.362700 -0.314200
vn 0.578300 0.753700 -0.312400
vn -0.924200 -0.382000 0.000000
vn -0.991400 -0.130700 0.000000
vn 0.792700 0.609600 0.000000
vn 0.924100 -0.382100 0.000000
vn -0.131000 0.991400 0.000000
vn -0.608900 0.793300 0.000000
vn 0.792700 -0.609600 0.000000
vn 0.991400 -0.130800 0.000000
vn -0.941200 0.124200 -0.314200
vn 0.608600 0.793500 0.000000
vn 0.924100 0.382100 0.000000
vn 0.941900 -0.124300 -0.311900
vn -0.130000 -0.991500 0.000000
vn 0.609300 -0.792900 0.000000
vn 0.878000 0.362900 -0.312100
vn -0.941200 -0.124200 -0.314200
vn -0.924200 0.382000 0.000000
vn -0.991400 0.130800 0.000000
vn -0.383200 0.923700 0.000000
vn -0.578700 -0.752800 -0.313700
vn 0.129500 -0.991600 0.000000
vn 0.382800 -0.923800 0.000000
vn 0.130500 0.991400 0.000000
vn -0.123200 -0.941700 -0.313200
vn -0.363700 -0.877200 -0.313500
vn 0.941900 0.124300 -0.312000
vn -0.363700 0.877100 -0.313600
vn -0.752700 -0.578700 -0.314000
vn -0.877400 -0.362700 -0.314100
vn 0.124200 0.941600 -0.313000
vn -0.124200 0.941500 -0.313300
vn -0.792900 0.609400 0.000000
vn 0.363800 0.877400 -0.312700
usemtl omni_chrome
s off
f 5//1 45//1 44//1
f 27//2 1//2 26//2
f 12//3 1//3 11//3
f 8//4 1//4 7//4
f 16//5 1//5 15//5
f 29//6 1//6 28//6
f 32//5 1//5 31//5
f 23//7 1//7 21//7
f 25//8 1//8 23//8
f 9//8 1//8 8//8
f 11//2 1//2 10//2
f 34//9 1//9 32//9
f 30//10 1//10 29//10
f 14//10 1//10 13//10
f 21//4 1//4 17//4
f 36//4 7//4 1//4
f 10//4 1//4 9//4
f 31//4 1//4 30//4
f 35//4 1//4 34//4
f 15//6 1//6 14//6
f 17//9 1//9 16//9
f 26//11 1//11 25//11
f 13//4 1//4 12//4
f 36//11 1//11 35//11
f 28//12 1//12 27//12
f 18//13 21//13 17//13 19//13
f 2//14 36//14 35//14 3//14
f 19//15 17//15 16//15 20//15
f 20//16 16//16 15//16 22//16
f 4//17 31//17 30//17 6//17
f 5//18 47//18 46//18
f 5//19 44//19 43//19
f 49//20 5//20 50//20
f 5//21 39//21 38//21
f 5//22 46//22 45//22
f 39//23 5//23 40//23
f 5//24 48//24 47//24
f 5//25 41//25 40//25
f 5//26 3//26 50//26
f 22//27 15//27 14//27 42//27
f 42//28 14//28 13//28 24//28
f 50//29 34//29 32//29 49//29
f 48//30 29//30 28//30 47//30
f 33//31 8//31 7//31 37//31
f 39//32 10//32 9//32 38//32
f 47//33 28//33 27//33 46//33
f 6//34 30//34 29//34 48//34
f 24//35 41//35 5//35
f 3//36 35//36 34//36 50//36
f 49//37 32//37 31//37 4//37
f 48//38 5//38 6//38
f 43//39 23//39 21//39 18//39
f 46//40 27//40 26//40 45//40
f 49//41 4//41 5//41
f 42//42 24//42 5//42
f 41//43 12//43 11//43 40//43
f 24//44 13//44 12//44 41//44
f 38//45 9//45 8//45 33//45
f 19//46 20//46 5//46
f 44//47 25//47 23//47 43//47
f 45//48 26//48 25//48 44//48
f 2//49 37//49 7//49 36//49
f 5//50 43//50 18//50
f 19//51 5//51 18//51
f 5//52 4//52 6//52
f 33//53 5//53 38//53
f 5//54 20//54 22//54
f 42//55 5//55 22//55
f 37//56 2//56 5//56
f 33//57 37//57 5//57
f 40//58 11//58 10//58 39//58
f 5//59 2//59 3//59
