<?xml version="1.0" encoding="UTF-8" standalone="no"?>
<!-- Created with Bouml (http://bouml.free.fr/) -->
<!DOCTYPE svg PUBLIC "-//W3C//DTD SVG 1.1//EN" "http://www.w3.org/Graphics/SVG/1.1/DTD/svg11.dtd">
<svg width="1164" height="805" version="1.1" xmlns="http://www.w3.org/2000/svg">
<g>
	<rect fill="none" stroke="black" stroke-width="1" stroke-opacity="1" x="34" y="42" width="446" height="20" />
	<text font-family="Helvetica" font-size="-2" fill="black" text-anchor="middle" x="257" y="52">sofa</text>
	<rect fill="none" stroke="black" stroke-width="1" stroke-opacity="1" x="34" y="62" width="1118" height="731" />
</g>
<g>
	<rect fill="#ededed" stroke="black" stroke-width="1" stroke-opacity="1" x="46" y="74" width="435" height="20" />
	<rect fill="#808080" stroke="none" stroke-opacity="1" x="481" y="78" width="3" height="15" />
	<text font-family="Helvetica" font-size="-2" fill="black" text-anchor="middle" x="264" y="84">core</text>
	<rect fill="#ededed" stroke="black" stroke-width="1" stroke-opacity="1" x="46" y="94" width="1091" height="684" />
	<rect fill="#808080" stroke="none" stroke-opacity="1" x="1137" y="98" width="3" height="683" />
	<rect fill="#808080" stroke="none" stroke-opacity="1" x="50" y="778" width="1090" height="3" />
</g>
<g>
	<rect fill="#dcdcdc" stroke="black" stroke-width="1" stroke-opacity="1" x="58" y="367" width="425" height="20" />
	<rect fill="#808080" stroke="none" stroke-opacity="1" x="483" y="371" width="3" height="15" />
	<text font-family="Helvetica" font-size="-2" fill="black" text-anchor="middle" x="271" y="377">componentmodel</text>
	<rect fill="#dcdcdc" stroke="black" stroke-width="1" stroke-opacity="1" x="58" y="387" width="1064" height="379" />
	<rect fill="#808080" stroke="none" stroke-opacity="1" x="1122" y="391" width="3" height="378" />
	<rect fill="#808080" stroke="none" stroke-opacity="1" x="62" y="766" width="1063" height="3" />
</g>
<g>
	<rect fill="none" stroke="black" stroke-width="1" stroke-opacity="1" x="71" y="595" width="316" height="20" />
	<text font-family="Helvetica" font-size="-2" fill="black" text-anchor="middle" x="229" y="605">collision</text>
	<rect fill="none" stroke="black" stroke-width="1" stroke-opacity="1" x="71" y="615" width="793" height="140" />
</g>
<g>
	<rect fill="#dcdcdc" stroke="black" stroke-width="1" stroke-opacity="1" x="606" y="107" width="204" height="20" />
	<rect fill="#808080" stroke="none" stroke-opacity="1" x="810" y="111" width="3" height="15" />
	<text font-family="Helvetica" font-size="-2" fill="black" text-anchor="middle" x="708" y="117">objectmodel</text>
	<rect fill="#dcdcdc" stroke="black" stroke-width="1" stroke-opacity="1" x="606" y="127" width="513" height="222" />
	<rect fill="#808080" stroke="none" stroke-opacity="1" x="1119" y="131" width="3" height="221" />
	<rect fill="#808080" stroke="none" stroke-opacity="1" x="610" y="349" width="512" height="3" />
</g>
<g>
	<rect fill="none" stroke="black" stroke-width="1" stroke-opacity="1" x="71" y="406" width="415" height="20" />
	<text font-family="Helvetica" font-size="-2" fill="black" text-anchor="middle" x="279" y="416">behavior</text>
	<rect fill="none" stroke="black" stroke-width="1" stroke-opacity="1" x="71" y="426" width="1039" height="153" />
</g>
<g>
	<line stroke="black" stroke-opacity="1" x1="997" y1="206" x2="997" y2="186" />
	<line stroke="black" stroke-opacity="1" x1="997" y1="180" x2="991" y2="186" />
	<line stroke="black" stroke-opacity="1" x1="997" y1="180" x2="1003" y2="186" />
	<line stroke="black" stroke-opacity="1" x1="991" y1="186" x2="1003" y2="186" />
</g>
<g>
	<line stroke="black" stroke-opacity="1" x1="163" y1="509" x2="163" y2="486" />
	<line stroke="black" stroke-opacity="1" x1="164" y1="481" x2="157" y2="486" />
	<line stroke="black" stroke-opacity="1" x1="164" y1="481" x2="169" y2="487" />
	<line stroke="black" stroke-opacity="1" x1="157" y1="486" x2="169" y2="487" />
</g>
<g>
	<line stroke="black" stroke-opacity="1" x1="274" y1="257" x2="274" y2="269" />
	<line stroke="black" stroke-opacity="1" x1="274" y1="275" x2="280" y2="269" />
	<line stroke="black" stroke-opacity="1" x1="274" y1="275" x2="268" y2="269" />
	<line stroke="black" stroke-opacity="1" x1="280" y1="269" x2="268" y2="269" />
</g>
<g>
	<line stroke="black" stroke-opacity="1" x1="1018" y1="286" x2="1010" y2="270" />
	<line stroke="black" stroke-opacity="1" x1="1008" y1="265" x2="1005" y2="272" />
	<line stroke="black" stroke-opacity="1" x1="1008" y1="265" x2="1015" y2="267" />
	<line stroke="black" stroke-opacity="1" x1="1005" y1="272" x2="1015" y2="267" />
</g>
<g>
	<line stroke="black" stroke-opacity="1" x1="104" y1="291" x2="104" y2="266" />
	<line stroke="black" stroke-opacity="1" x1="104" y1="260" x2="98" y2="266" />
	<line stroke="black" stroke-opacity="1" x1="104" y1="260" x2="110" y2="266" />
	<line stroke="black" stroke-opacity="1" x1="98" y1="266" x2="110" y2="266" />
</g>
<g>
	<line stroke="black" stroke-opacity="1" x1="690" y1="509" x2="700" y2="486" />
	<line stroke="black" stroke-opacity="1" x1="703" y1="481" x2="695" y2="483" />
	<line stroke="black" stroke-opacity="1" x1="703" y1="481" x2="705" y2="488" />
	<line stroke="black" stroke-opacity="1" x1="695" y1="483" x2="705" y2="488" />
</g>
<g>
	<line stroke="black" stroke-opacity="1" x1="1013" y1="527" x2="980" y2="485" />
	<line stroke="black" stroke-opacity="1" x1="977" y1="481" x2="975" y2="489" />
	<line stroke="black" stroke-opacity="1" x1="977" y1="481" x2="985" y2="482" />
	<line stroke="black" stroke-opacity="1" x1="975" y1="489" x2="985" y2="482" />
</g>
<g>
	<line stroke="black" stroke-opacity="1" x1="817" y1="286" x2="817" y2="261" />
	<line stroke="black" stroke-opacity="1" x1="817" y1="255" x2="811" y2="261" />
	<line stroke="black" stroke-opacity="1" x1="817" y1="255" x2="823" y2="261" />
	<line stroke="black" stroke-opacity="1" x1="811" y1="261" x2="823" y2="261" />
</g>
<g>
	<line stroke="black" stroke-opacity="1" x1="143" y1="694" x2="135" y2="681" />
	<line stroke="black" stroke-opacity="1" x1="133" y1="676" x2="130" y2="684" />
	<line stroke="black" stroke-opacity="1" x1="133" y1="676" x2="141" y2="678" />
	<line stroke="black" stroke-opacity="1" x1="130" y1="684" x2="141" y2="678" />
</g>
<g>
	<line stroke="black" stroke-opacity="1" x1="512" y1="289" x2="523" y2="213" />
	<line stroke="black" stroke-opacity="1" x1="524" y1="208" x2="517" y2="213" />
	<line stroke="black" stroke-opacity="1" x1="524" y1="208" x2="529" y2="214" />
	<line stroke="black" stroke-opacity="1" x1="517" y1="213" x2="529" y2="214" />
</g>
<g>
	<line stroke="black" stroke-opacity="1" x1="967" y1="286" x2="975" y2="270" />
	<line stroke="black" stroke-opacity="1" x1="978" y1="265" x2="969" y2="267" />
	<line stroke="black" stroke-opacity="1" x1="978" y1="265" x2="980" y2="273" />
	<line stroke="black" stroke-opacity="1" x1="969" y1="267" x2="980" y2="273" />
</g>
<g>
	<line stroke="black" stroke-opacity="1" x1="736" y1="214" x2="789" y2="176" />
	<line stroke="black" stroke-opacity="1" x1="794" y1="173" x2="785" y2="171" />
	<line stroke="black" stroke-opacity="1" x1="794" y1="173" x2="792" y2="181" />
	<line stroke="black" stroke-opacity="1" x1="785" y1="171" x2="792" y2="181" />
</g>
<g>
	<line stroke="black" stroke-opacity="1" x1="584" y1="539" x2="633" y2="539" />
	<line stroke="black" stroke-opacity="1" x1="639" y1="539" x2="633" y2="533" />
	<line stroke="black" stroke-opacity="1" x1="639" y1="539" x2="633" y2="545" />
	<line stroke="black" stroke-opacity="1" x1="633" y1="533" x2="633" y2="545" />
</g>
<g>
	<line stroke="black" stroke-opacity="1" x1="881" y1="214" x2="843" y2="181" />
	<line stroke="black" stroke-opacity="1" x1="839" y1="178" x2="839" y2="186" />
	<line stroke="black" stroke-opacity="1" x1="839" y1="178" x2="847" y2="177" />
	<line stroke="black" stroke-opacity="1" x1="839" y1="186" x2="847" y2="177" />
</g>
<g>
	<line stroke="black" stroke-opacity="1" x1="265" y1="709" x2="164" y2="671" />
	<line stroke="black" stroke-opacity="1" x1="159" y1="669" x2="162" y2="676" />
	<line stroke="black" stroke-opacity="1" x1="159" y1="669" x2="166" y2="665" />
	<line stroke="black" stroke-opacity="1" x1="162" y1="676" x2="166" y2="665" />
</g>
<g>
	<line stroke="black" stroke-opacity="1" x1="706" y1="286" x2="706" y2="260" />
	<line stroke="black" stroke-opacity="1" x1="707" y1="255" x2="700" y2="260" />
	<line stroke="black" stroke-opacity="1" x1="707" y1="255" x2="712" y2="261" />
	<line stroke="black" stroke-opacity="1" x1="700" y1="260" x2="712" y2="261" />
</g>
<g>
	<line stroke="black" stroke-opacity="1" x1="775" y1="527" x2="736" y2="485" />
	<line stroke="black" stroke-opacity="1" x1="732" y1="481" x2="731" y2="489" />
	<line stroke="black" stroke-opacity="1" x1="732" y1="481" x2="740" y2="481" />
	<line stroke="black" stroke-opacity="1" x1="731" y1="489" x2="740" y2="481" />
</g>
<g>
	<line stroke="black" stroke-opacity="1" x1="572" y1="509" x2="580" y2="486" />
	<line stroke="black" stroke-opacity="1" x1="583" y1="481" x2="575" y2="484" />
	<line stroke="black" stroke-opacity="1" x1="583" y1="481" x2="586" y2="488" />
	<line stroke="black" stroke-opacity="1" x1="575" y1="484" x2="586" y2="488" />
</g>
<g>
	<line stroke="black" stroke-opacity="1" x1="817" y1="214" x2="817" y2="186" />
	<line stroke="black" stroke-opacity="1" x1="817" y1="180" x2="811" y2="186" />
	<line stroke="black" stroke-opacity="1" x1="817" y1="180" x2="823" y2="186" />
	<line stroke="black" stroke-opacity="1" x1="811" y1="186" x2="823" y2="186" />
</g>
<g>
	<line stroke="black" stroke-opacity="1" x1="153" y1="509" x2="112" y2="355" />
	<line stroke="black" stroke-opacity="1" x1="111" y1="350" x2="106" y2="357" />
	<line stroke="black" stroke-opacity="1" x1="111" y1="350" x2="118" y2="354" />
	<line stroke="black" stroke-opacity="1" x1="106" y1="357" x2="118" y2="354" />
</g>
<g>
	<line stroke="black" stroke-opacity="1" x1="929" y1="509" x2="943" y2="486" />
	<line stroke="black" stroke-opacity="1" x1="947" y1="481" x2="938" y2="482" />
	<line stroke="black" stroke-opacity="1" x1="947" y1="481" x2="948" y2="489" />
	<line stroke="black" stroke-opacity="1" x1="938" y1="482" x2="948" y2="489" />
</g>
<g>
	<rect fill="none" stroke="black" stroke-width="1" stroke-opacity="1" x="911" y="599" width="79" height="20" />
	<text font-family="Helvetica" font-size="-2" fill="black" text-anchor="middle" x="951" y="609">topology</text>
	<rect fill="none" stroke="black" stroke-width="1" stroke-opacity="1" x="911" y="619" width="199" height="136" />
</g>
<g>
	<line stroke="black" stroke-opacity="1" x1="660" y1="668" x2="654" y2="662" />
	<line stroke="black" stroke-opacity="1" x1="660" y1="668" x2="654" y2="674" />
	<line stroke="black" stroke-opacity="1" x1="496" y1="668" x2="660" y2="668" />
	<polygon fill="white" stroke="black" stroke-opacity="1" points="496,668 502,662 508,668 502,674" />
</g>
<g>
	<line stroke="black" stroke-opacity="1" x1="359" y1="709" x2="366" y2="712" />
	<line stroke="black" stroke-opacity="1" x1="359" y1="709" x2="362" y2="701" />
	<line stroke="black" stroke-opacity="1" x1="433" y1="679" x2="359" y2="709" />
	<polygon fill="white" stroke="black" stroke-opacity="1" points="433,679 429,686 421,683 425,675" />
</g>
<g>
	<line stroke="black" stroke-opacity="1" x1="475" y1="647" x2="692" y2="260" />
	<line stroke="black" stroke-opacity="1" x1="695" y1="255" x2="686" y2="257" />
	<line stroke="black" stroke-opacity="1" x1="695" y1="255" x2="697" y2="263" />
	<line stroke="black" stroke-opacity="1" x1="686" y1="257" x2="697" y2="263" />
</g>
<g>
	<line stroke="black" stroke-opacity="1" x1="226" y1="703" x2="232" y2="708" />
	<line stroke="black" stroke-opacity="1" x1="226" y1="703" x2="231" y2="696" />
	<line stroke="black" stroke-opacity="1" x1="433" y1="671" x2="226" y2="703" />
	<polygon fill="white" stroke="black" stroke-opacity="1" points="433,671 427,677 421,672 426,665" />
</g>
<g>
	<line stroke="black" stroke-opacity="1" x1="323" y1="628" x2="682" y2="259" />
	<line stroke="black" stroke-opacity="1" x1="687" y1="255" x2="678" y2="255" />
	<line stroke="black" stroke-opacity="1" x1="687" y1="255" x2="687" y2="263" />
	<line stroke="black" stroke-opacity="1" x1="678" y1="255" x2="687" y2="263" />
</g>
<g>
	<line stroke="black" stroke-opacity="1" x1="347" y1="653" x2="352" y2="659" />
	<line stroke="black" stroke-opacity="1" x1="347" y1="653" x2="353" y2="647" />
	<line stroke="black" stroke-opacity="1" x1="433" y1="663" x2="347" y2="653" />
	<polygon fill="white" stroke="black" stroke-opacity="1" points="433,663 426,668 421,661 427,656" />
</g>
<g>
	<line stroke="black" stroke-opacity="1" x1="148" y1="635" x2="672" y2="258" />
	<line stroke="black" stroke-opacity="1" x1="677" y1="255" x2="668" y2="253" />
	<line stroke="black" stroke-opacity="1" x1="677" y1="255" x2="675" y2="263" />
	<line stroke="black" stroke-opacity="1" x1="668" y1="253" x2="675" y2="263" />
</g>
<g>
	<line stroke="black" stroke-opacity="1" x1="564" y1="709" x2="560" y2="701" />
	<line stroke="black" stroke-opacity="1" x1="564" y1="709" x2="556" y2="712" />
	<line stroke="black" stroke-opacity="1" x1="496" y1="681" x2="564" y2="709" />
	<polygon fill="white" stroke="black" stroke-opacity="1" points="496,681 503,677 507,685 499,688" />
</g>
<g>
	<line stroke="black" stroke-opacity="1" x1="995" y1="662" x2="725" y2="259" />
	<line stroke="black" stroke-opacity="1" x1="722" y1="255" x2="720" y2="263" />
	<line stroke="black" stroke-opacity="1" x1="722" y1="255" x2="730" y2="256" />
	<line stroke="black" stroke-opacity="1" x1="720" y1="263" x2="730" y2="256" />
</g>
<g>
	<line stroke="black" stroke-opacity="1" x1="262" y1="665" x2="254" y2="661" />
	<line stroke="black" stroke-opacity="1" x1="262" y1="665" x2="258" y2="672" />
	<line stroke="black" stroke-opacity="1" x1="197" y1="694" x2="262" y2="665" />
</g>
<g>
	<line stroke="black" stroke-opacity="1" x1="262" y1="650" x2="255" y2="644" />
	<line stroke="black" stroke-opacity="1" x1="262" y1="650" x2="256" y2="656" />
	<line stroke="black" stroke-opacity="1" x1="159" y1="654" x2="262" y2="650" />
</g>
<g>
	<line stroke="black" stroke-opacity="1" x1="465" y1="709" x2="471" y2="703" />
	<line stroke="black" stroke-opacity="1" x1="465" y1="709" x2="459" y2="703" />
	<line stroke="black" stroke-opacity="1" x1="465" y1="688" x2="465" y2="709" />
	<polygon fill="black" stroke="black" stroke-opacity="1" points="465,688 471,694 465,700 459,694" />
</g>
<g>
	<line stroke="black" stroke-opacity="1" x1="307" y1="669" x2="301" y2="675" />
	<line stroke="black" stroke-opacity="1" x1="307" y1="669" x2="313" y2="674" />
	<line stroke="black" stroke-opacity="1" x1="313" y1="709" x2="307" y2="669" />
</g>
<g>
	<rect fill="#808080" stroke="none" stroke-opacity="1" x="1041" y="667" width="3" height="35" />
	<rect fill="#808080" stroke="none" stroke-opacity="1" x="979" y="699" width="65" height="3" />
	<rect fill="#ffffc0" stroke="black" stroke-width="1" stroke-opacity="1" x="975" y="663" width="66" height="36" />
	<text font-family="Helvetica" font-size="-2" fill="black" font-weight="bold" text-anchor="middle" x="1008" y="664">Topology</text>
</g>
<g>
	<rect fill="#808080" stroke="none" stroke-opacity="1" x="343" y="633" width="3" height="35" />
	<rect fill="#808080" stroke="none" stroke-opacity="1" x="267" y="665" width="79" height="3" />
	<rect fill="#ffffc0" stroke="black" stroke-width="1" stroke-opacity="1" x="263" y="629" width="80" height="36" />
	<text font-family="Helvetica" font-size="-2" fill="black" font-weight="bold" font-style="italic" text-anchor="middle" x="303" y="630">Intersection</text>
</g>
<g>
	<rect fill="#808080" stroke="none" stroke-opacity="1" x="492" y="652" width="3" height="35" />
	<rect fill="#808080" stroke="none" stroke-opacity="1" x="438" y="684" width="57" height="3" />
	<rect fill="#ffd700" stroke="black" stroke-width="1" stroke-opacity="1" x="434" y="648" width="58" height="36" />
	<text font-family="Helvetica" font-size="-2" fill="black" font-weight="bold" font-style="italic" text-anchor="middle" x="463" y="649">Pipeline</text>
</g>
<g>
	<rect fill="#808080" stroke="none" stroke-opacity="1" x="155" y="640" width="3" height="35" />
	<rect fill="#808080" stroke="none" stroke-opacity="1" x="93" y="672" width="65" height="3" />
	<rect fill="#ffffc0" stroke="black" stroke-width="1" stroke-opacity="1" x="89" y="636" width="66" height="36" />
	<text font-family="Helvetica" font-size="-2" fill="black" font-weight="bold" text-anchor="middle" x="122" y="637">Detection</text>
</g>
<g>
	<line stroke="black" stroke-opacity="1" x1="310" y1="184" x2="285" y2="216" />
</g>
<g>
	<line stroke="black" stroke-opacity="1" x1="209" y1="440" x2="661" y2="252" />
	<line stroke="black" stroke-opacity="1" x1="667" y1="250" x2="659" y2="246" />
	<line stroke="black" stroke-opacity="1" x1="667" y1="250" x2="663" y2="257" />
	<line stroke="black" stroke-opacity="1" x1="659" y1="246" x2="663" y2="257" />
</g>
<g>
	<line stroke="black" stroke-opacity="1" x1="321" y1="509" x2="328" y2="486" />
	<line stroke="black" stroke-opacity="1" x1="330" y1="481" x2="322" y2="484" />
	<line stroke="black" stroke-opacity="1" x1="330" y1="481" x2="333" y2="488" />
	<line stroke="black" stroke-opacity="1" x1="322" y1="484" x2="333" y2="488" />
</g>
<g>
	<line stroke="black" stroke-opacity="1" x1="484" y1="440" x2="678" y2="259" />
	<line stroke="black" stroke-opacity="1" x1="683" y1="255" x2="674" y2="254" />
	<line stroke="black" stroke-opacity="1" x1="683" y1="255" x2="682" y2="263" />
	<line stroke="black" stroke-opacity="1" x1="674" y1="254" x2="682" y2="263" />
</g>
<g>
	<line stroke="black" stroke-opacity="1" x1="152" y1="239" x2="661" y2="235" />
	<line stroke="black" stroke-opacity="1" x1="667" y1="235" x2="660" y2="229" />
	<line stroke="black" stroke-opacity="1" x1="667" y1="235" x2="661" y2="241" />
	<line stroke="black" stroke-opacity="1" x1="660" y1="229" x2="661" y2="241" />
</g>
<g>
	<line stroke="black" stroke-opacity="1" x1="164" y1="169" x2="661" y2="228" />
	<line stroke="black" stroke-opacity="1" x1="667" y1="229" x2="661" y2="222" />
	<line stroke="black" stroke-opacity="1" x1="667" y1="229" x2="660" y2="234" />
	<line stroke="black" stroke-opacity="1" x1="661" y1="222" x2="660" y2="234" />
</g>
<g>
	<line stroke="black" stroke-opacity="1" x1="366" y1="440" x2="665" y2="258" />
	<line stroke="black" stroke-opacity="1" x1="671" y1="255" x2="662" y2="252" />
	<line stroke="black" stroke-opacity="1" x1="671" y1="255" x2="668" y2="263" />
	<line stroke="black" stroke-opacity="1" x1="662" y1="252" x2="668" y2="263" />
</g>
<g>
	<line stroke="black" stroke-opacity="1" x1="601" y1="440" x2="693" y2="260" />
	<line stroke="black" stroke-opacity="1" x1="696" y1="255" x2="687" y2="257" />
	<line stroke="black" stroke-opacity="1" x1="696" y1="255" x2="698" y2="263" />
	<line stroke="black" stroke-opacity="1" x1="687" y1="257" x2="698" y2="263" />
</g>
<g>
	<line stroke="black" stroke-opacity="1" x1="477" y1="509" x2="686" y2="259" />
	<line stroke="black" stroke-opacity="1" x1="690" y1="255" x2="681" y2="255" />
	<line stroke="black" stroke-opacity="1" x1="690" y1="255" x2="690" y2="263" />
	<line stroke="black" stroke-opacity="1" x1="681" y1="255" x2="690" y2="263" />
</g>
<g>
	<line stroke="black" stroke-opacity="1" x1="263" y1="169" x2="661" y2="227" />
	<line stroke="black" stroke-opacity="1" x1="667" y1="228" x2="661" y2="221" />
	<line stroke="black" stroke-opacity="1" x1="667" y1="228" x2="660" y2="233" />
	<line stroke="black" stroke-opacity="1" x1="661" y1="221" x2="660" y2="233" />
</g>
<g>
	<line stroke="black" stroke-opacity="1" x1="713" y1="440" x2="709" y2="260" />
	<line stroke="black" stroke-opacity="1" x1="709" y1="255" x2="703" y2="261" />
	<line stroke="black" stroke-opacity="1" x1="709" y1="255" x2="715" y2="260" />
	<line stroke="black" stroke-opacity="1" x1="703" y1="261" x2="715" y2="260" />
</g>
<g>
	<line stroke="black" stroke-opacity="1" x1="939" y1="440" x2="736" y2="258" />
	<line stroke="black" stroke-opacity="1" x1="732" y1="255" x2="732" y2="263" />
	<line stroke="black" stroke-opacity="1" x1="732" y1="255" x2="740" y2="254" />
	<line stroke="black" stroke-opacity="1" x1="732" y1="263" x2="740" y2="254" />
</g>
<g>
	<rect fill="#808080" stroke="none" stroke-opacity="1" x="580" y="514" width="3" height="53" />
	<rect fill="#808080" stroke="none" stroke-opacity="1" x="544" y="564" width="39" height="3" />
	<rect fill="#ffeb60" stroke="black" stroke-width="1" stroke-opacity="1" x="540" y="510" width="40" height="54" />
	<text font-family="Helvetica" font-size="-2" fill="black" font-weight="bold" font-style="italic" text-anchor="middle" x="560" y="528">Mass</text>
</g>
<g>
	<rect fill="#808080" stroke="none" stroke-opacity="1" x="499" y="445" width="3" height="35" />
	<rect fill="#808080" stroke="none" stroke-opacity="1" x="431" y="477" width="71" height="3" />
	<rect fill="#ffeb60" stroke="black" stroke-width="1" stroke-opacity="1" x="427" y="441" width="72" height="36" />
	<text font-family="Helvetica" font-size="-2" fill="black" font-weight="bold" font-style="italic" text-anchor="middle" x="463" y="442">OdeSolver</text>
</g>
<g>
	<rect fill="#808080" stroke="none" stroke-opacity="1" x="553" y="294" width="3" height="53" />
	<rect fill="#808080" stroke="none" stroke-opacity="1" x="465" y="344" width="91" height="3" />
	<rect fill="#ffffc0" stroke="black" stroke-width="1" stroke-opacity="1" x="461" y="290" width="92" height="54" />
	<text font-family="Helvetica" font-size="-2" fill="black" font-weight="bold" text-anchor="middle" x="507" y="308">ObjectCreator</text>
</g>
<g>
	<rect fill="#808080" stroke="none" stroke-opacity="1" x="226" y="514" width="3" height="53" />
	<rect fill="#808080" stroke="none" stroke-opacity="1" x="98" y="564" width="131" height="3" />
	<rect fill="#ffeb60" stroke="black" stroke-width="1" stroke-opacity="1" x="94" y="510" width="132" height="54" />
	<text font-family="Helvetica" font-size="-2" fill="black" font-weight="bold" font-style="italic" text-anchor="middle" x="160" y="528">MechanicalMapping</text>
</g>
<g>
	<rect fill="#808080" stroke="none" stroke-opacity="1" x="245" y="445" width="3" height="35" />
	<rect fill="#808080" stroke="none" stroke-opacity="1" x="87" y="477" width="161" height="3" />
	<rect fill="#ffffc0" stroke="black" stroke-width="1" stroke-opacity="1" x="83" y="441" width="162" height="36" />
	<text font-family="Helvetica" font-size="-2" fill="black" font-weight="bold" font-style="italic" text-anchor="middle" x="164" y="442">BaseMechanicalMapping</text>
</g>
<g>
	<rect fill="#808080" stroke="none" stroke-opacity="1" x="1097" y="532" width="3" height="35" />
	<rect fill="#808080" stroke="none" stroke-opacity="1" x="963" y="564" width="137" height="3" />
	<rect fill="#ffeb60" stroke="black" stroke-width="1" stroke-opacity="1" x="959" y="528" width="138" height="36" />
	<text font-family="Helvetica" font-size="-2" fill="black" font-weight="bold" font-style="italic" text-anchor="middle" x="1028" y="529">InteractionConstraint</text>
</g>
<g>
	<rect fill="#808080" stroke="none" stroke-opacity="1" x="1010" y="445" width="3" height="35" />
	<rect fill="#808080" stroke="none" stroke-opacity="1" x="912" y="477" width="101" height="3" />
	<rect fill="#ffffc0" stroke="black" stroke-width="1" stroke-opacity="1" x="908" y="441" width="102" height="36" />
	<text font-family="Helvetica" font-size="-2" fill="black" font-weight="bold" font-style="italic" text-anchor="middle" x="959" y="442">BaseConstraint</text>
</g>
<g>
	<rect fill="#808080" stroke="none" stroke-opacity="1" x="946" y="514" width="3" height="53" />
	<rect fill="#808080" stroke="none" stroke-opacity="1" x="878" y="564" width="71" height="3" />
	<rect fill="#ffeb60" stroke="black" stroke-width="1" stroke-opacity="1" x="874" y="510" width="72" height="54" />
	<text font-family="Helvetica" font-size="-2" fill="black" font-weight="bold" font-style="italic" text-anchor="middle" x="910" y="528">Constraint</text>
</g>
<g>
	<rect fill="#808080" stroke="none" stroke-opacity="1" x="626" y="445" width="3" height="35" />
	<rect fill="#808080" stroke="none" stroke-opacity="1" x="560" y="477" width="69" height="3" />
	<rect fill="#ffffc0" stroke="black" stroke-width="1" stroke-opacity="1" x="556" y="441" width="70" height="36" />
	<text font-family="Helvetica" font-size="-2" fill="black" font-weight="bold" font-style="italic" text-anchor="middle" x="591" y="442">BaseMass</text>
</g>
<g>
	<rect fill="#808080" stroke="none" stroke-opacity="1" x="148" y="224" width="3" height="35" />
	<rect fill="#808080" stroke="none" stroke-opacity="1" x="60" y="256" width="91" height="3" />
	<rect fill="#ffffc0" stroke="black" stroke-width="1" stroke-opacity="1" x="56" y="220" width="92" height="36" />
	<text font-family="Helvetica" font-size="-2" fill="black" font-weight="bold" font-style="italic" text-anchor="middle" x="102" y="221">BaseMapping</text>
</g>
<g>
	<rect fill="#808080" stroke="none" stroke-opacity="1" x="133" y="296" width="3" height="53" />
	<rect fill="#808080" stroke="none" stroke-opacity="1" x="75" y="346" width="61" height="3" />
	<rect fill="#ffeb60" stroke="black" stroke-width="1" stroke-opacity="1" x="71" y="292" width="62" height="54" />
	<text font-family="Helvetica" font-size="-2" fill="black" font-weight="bold" font-style="italic" text-anchor="middle" x="102" y="310">Mapping</text>
</g>
<g>
	<rect fill="#808080" stroke="none" stroke-opacity="1" x="498" y="514" width="3" height="53" />
	<rect fill="#808080" stroke="none" stroke-opacity="1" x="408" y="564" width="93" height="3" />
	<rect fill="#ffffc0" stroke="black" stroke-width="1" stroke-opacity="1" x="404" y="510" width="94" height="54" />
	<text font-family="Helvetica" font-size="-2" fill="black" font-weight="bold" font-style="italic" text-anchor="middle" x="451" y="528">MappedModel</text>
</g>
<g>
	<rect fill="#808080" stroke="none" stroke-opacity="1" x="358" y="280" width="3" height="53" />
	<rect fill="#808080" stroke="none" stroke-opacity="1" x="196" y="330" width="165" height="3" />
	<rect fill="#ffffc0" stroke="black" stroke-width="1" stroke-opacity="1" x="192" y="276" width="166" height="54" />
	<text font-family="Helvetica" font-size="-2" fill="black" font-weight="bold" text-anchor="middle" x="275" y="294">TCollisionElementIterator</text>
</g>
<g>
	<rect fill="#808080" stroke="none" stroke-opacity="1" x="350" y="221" width="3" height="35" />
	<rect fill="#808080" stroke="none" stroke-opacity="1" x="196" y="253" width="157" height="3" />
	<rect fill="#ffffc0" stroke="black" stroke-width="1" stroke-opacity="1" x="192" y="217" width="158" height="36" />
	<text font-family="Helvetica" font-size="-2" fill="black" font-weight="bold" text-anchor="middle" x="271" y="218">CollisionElementIterator</text>
</g>
<g>
	<rect fill="#808080" stroke="none" stroke-opacity="1" x="404" y="445" width="3" height="35" />
	<rect fill="#808080" stroke="none" stroke-opacity="1" x="270" y="477" width="137" height="3" />
	<rect fill="#ffeb60" stroke="black" stroke-width="1" stroke-opacity="1" x="266" y="441" width="138" height="36" />
	<text font-family="Helvetica" font-size="-2" fill="black" font-weight="bold" font-style="italic" text-anchor="middle" x="335" y="442">BaseMechanicalState</text>
</g>
<g>
	<rect fill="#808080" stroke="none" stroke-opacity="1" x="259" y="148" width="3" height="35" />
	<rect fill="#808080" stroke="none" stroke-opacity="1" x="179" y="180" width="83" height="3" />
	<rect fill="#ffd700" stroke="black" stroke-width="1" stroke-opacity="1" x="175" y="144" width="84" height="36" />
	<text font-family="Helvetica" font-size="-2" fill="black" font-weight="bold" font-style="italic" text-anchor="middle" x="217" y="145">VisualModel</text>
</g>
<g>
	<rect fill="#808080" stroke="none" stroke-opacity="1" x="160" y="148" width="3" height="35" />
	<rect fill="#808080" stroke="none" stroke-opacity="1" x="64" y="180" width="99" height="3" />
	<rect fill="#ffd700" stroke="black" stroke-width="1" stroke-opacity="1" x="60" y="144" width="100" height="36" />
	<text font-family="Helvetica" font-size="-2" fill="black" font-weight="bold" font-style="italic" text-anchor="middle" x="110" y="145">BehaviorModel</text>
</g>
<g>
	<rect fill="white" stroke-dasharray="4,4" stroke="black" stroke-width="1" stroke-opacity="1" x="185" y="498" width="67" height="24" />
	<text font-family="Helvetica" font-size="-2" fill="black" text-anchor="middle" x="219" y="510">In, Out</text>
</g>
<g>
	<rect fill="white" stroke-dasharray="4,4" stroke="black" stroke-width="1" stroke-opacity="1" x="525" y="278" width="71" height="24" />
	<text font-family="Helvetica" font-size="-2" fill="black" text-anchor="middle" x="561" y="290">RealObject</text>
</g>
<g>
	<rect fill="white" stroke-dasharray="4,4" stroke="black" stroke-width="1" stroke-opacity="1" x="569" y="498" width="70" height="24" />
	<text font-family="Helvetica" font-size="-2" fill="black" text-anchor="middle" x="604" y="510">DataTypes</text>
</g>
<g>
	<rect fill="white" stroke-dasharray="4,4" stroke="black" stroke-width="1" stroke-opacity="1" x="305" y="264" width="84" height="24" />
	<text font-family="Helvetica" font-size="-2" fill="black" text-anchor="middle" x="347" y="276">Model</text>
</g>
<g>
	<rect fill="white" stroke-dasharray="4,4" stroke="black" stroke-width="1" stroke-opacity="1" x="469" y="498" width="70" height="24" />
	<text font-family="Helvetica" font-size="-2" fill="black" text-anchor="middle" x="504" y="510">DataTypes</text>
</g>
<g>
	<rect fill="white" stroke-dasharray="4,4" stroke="black" stroke-width="1" stroke-opacity="1" x="115" y="280" width="63" height="24" />
	<text font-family="Helvetica" font-size="-2" fill="black" text-anchor="middle" x="147" y="292">TIn, TOut</text>
</g>
<g>
	<rect fill="white" stroke-dasharray="4,4" stroke="black" stroke-width="1" stroke-opacity="1" x="925" y="498" width="70" height="24" />
	<text font-family="Helvetica" font-size="-2" fill="black" text-anchor="middle" x="960" y="510">DataTypes</text>
</g>
<g>
	<line stroke="black" stroke-opacity="1" x1="1040" y1="206" x2="1019" y2="184" />
	<line stroke="black" stroke-opacity="1" x1="1015" y1="180" x2="1014" y2="188" />
	<line stroke="black" stroke-opacity="1" x1="1015" y1="180" x2="1023" y2="180" />
	<line stroke="black" stroke-opacity="1" x1="1014" y1="188" x2="1023" y2="180" />
</g>
<g>
	<line stroke="black" stroke-opacity="1" x1="613" y1="709" x2="702" y2="260" />
	<line stroke="black" stroke-opacity="1" x1="704" y1="255" x2="696" y2="259" />
	<line stroke="black" stroke-opacity="1" x1="704" y1="255" x2="708" y2="262" />
	<line stroke="black" stroke-opacity="1" x1="696" y1="259" x2="708" y2="262" />
</g>
<g>
	<line stroke="black" stroke-opacity="1" x1="739" y1="647" x2="709" y2="260" />
	<line stroke="black" stroke-opacity="1" x1="709" y1="255" x2="703" y2="261" />
	<line stroke="black" stroke-opacity="1" x1="709" y1="255" x2="715" y2="260" />
	<line stroke="black" stroke-opacity="1" x1="703" y1="261" x2="715" y2="260" />
</g>
<g>
	<line stroke="black" stroke-opacity="1" x1="380" y1="173" x2="661" y2="225" />
	<line stroke="black" stroke-opacity="1" x1="667" y1="227" x2="662" y2="219" />
	<line stroke="black" stroke-opacity="1" x1="667" y1="227" x2="659" y2="231" />
	<line stroke="black" stroke-opacity="1" x1="662" y1="219" x2="659" y2="231" />
</g>
<g>
	<line stroke="black" stroke-opacity="1" x1="839" y1="160" x2="960" y2="160" />
	<polygon fill="black" stroke="black" stroke-opacity="1" points="839,160 845,154 851,160 845,166" />
</g>
<g>
	<line stroke="black" stroke-opacity="1" x1="457" y1="208" x2="451" y2="214" />
	<line stroke="black" stroke-opacity="1" x1="457" y1="208" x2="463" y2="214" />
	<line stroke="black" stroke-opacity="1" x1="457" y1="245" x2="457" y2="208" />
	<polygon fill="black" stroke="black" stroke-opacity="1" points="457,245 451,239 457,233 463,239" />
</g>
<g>
	<line stroke="black" stroke-opacity="1" x1="773" y1="235" x2="767" y2="229" />
	<line stroke="black" stroke-opacity="1" x1="773" y1="235" x2="767" y2="241" />
	<line stroke="black" stroke-opacity="1" x1="750" y1="235" x2="773" y2="235" />
</g>
<g>
	<rect fill="#808080" stroke="none" stroke-opacity="1" x="534" y="148" width="3" height="35" />
	<rect fill="#808080" stroke="none" stroke-opacity="1" x="444" y="180" width="93" height="3" />
	<rect fill="#ffd700" stroke="black" stroke-width="1" stroke-opacity="1" x="440" y="144" width="94" height="36" />
	<text font-family="Helvetica" font-size="-2" fill="black" font-weight="bold" text-anchor="middle" x="487" y="145">ObjectFactory</text>
</g>
<g>
	<rect fill="#808080" stroke="none" stroke-opacity="1" x="1015" y="211" width="3" height="53" />
	<rect fill="#808080" stroke="none" stroke-opacity="1" x="979" y="261" width="39" height="3" />
	<rect fill="#ffffc0" stroke="black" stroke-width="1" stroke-opacity="1" x="975" y="207" width="40" height="54" />
	<text font-family="Helvetica" font-size="-2" fill="black" font-weight="bold" text-anchor="middle" x="995" y="225">Field</text>
</g>
<g>
	<rect fill="#808080" stroke="none" stroke-opacity="1" x="1054" y="291" width="3" height="53" />
	<rect fill="#808080" stroke="none" stroke-opacity="1" x="1010" y="341" width="47" height="3" />
	<rect fill="#ffffc0" stroke="black" stroke-width="1" stroke-opacity="1" x="1006" y="287" width="48" height="54" />
	<text font-family="Helvetica" font-size="-2" fill="black" font-weight="bold" text-anchor="middle" x="1030" y="305">VField</text>
</g>
<g>
	<rect fill="#808080" stroke="none" stroke-opacity="1" x="1029" y="144" width="3" height="35" />
	<rect fill="#808080" stroke="none" stroke-opacity="1" x="965" y="176" width="67" height="3" />
	<rect fill="#ffffc0" stroke="black" stroke-width="1" stroke-opacity="1" x="961" y="140" width="68" height="36" />
	<text font-family="Helvetica" font-size="-2" fill="black" font-weight="bold" font-style="italic" text-anchor="middle" x="995" y="141">FieldBase</text>
</g>
<g>
	<rect fill="#808080" stroke="none" stroke-opacity="1" x="835" y="144" width="3" height="35" />
	<rect fill="#808080" stroke="none" stroke-opacity="1" x="799" y="176" width="39" height="3" />
	<rect fill="#ffd700" stroke="black" stroke-width="1" stroke-opacity="1" x="795" y="140" width="40" height="36" />
	<text font-family="Helvetica" font-size="-2" fill="black" font-weight="bold" text-anchor="middle" x="815" y="141">Base</text>
</g>
<g>
	<rect fill="#808080" stroke="none" stroke-opacity="1" x="746" y="219" width="3" height="35" />
	<rect fill="#808080" stroke="none" stroke-opacity="1" x="672" y="251" width="77" height="3" />
	<rect fill="#ffd700" stroke="black" stroke-width="1" stroke-opacity="1" x="668" y="215" width="78" height="36" />
	<text font-family="Helvetica" font-size="-2" fill="black" font-weight="bold" text-anchor="middle" x="707" y="216">BaseObject</text>
</g>
<g>
	<rect fill="#808080" stroke="none" stroke-opacity="1" x="1099" y="211" width="3" height="53" />
	<rect fill="#808080" stroke="none" stroke-opacity="1" x="1037" y="261" width="65" height="3" />
	<rect fill="#ffffc0" stroke="black" stroke-width="1" stroke-opacity="1" x="1033" y="207" width="66" height="54" />
	<text font-family="Helvetica" font-size="-2" fill="black" font-weight="bold" text-anchor="middle" x="1066" y="225">DataField</text>
</g>
<g>
	<rect fill="#808080" stroke="none" stroke-opacity="1" x="366" y="514" width="3" height="53" />
	<rect fill="#808080" stroke="none" stroke-opacity="1" x="262" y="564" width="107" height="3" />
	<rect fill="#ffd700" stroke="black" stroke-width="1" stroke-opacity="1" x="258" y="510" width="108" height="54" />
	<text font-family="Helvetica" font-size="-2" fill="black" font-weight="bold" font-style="italic" text-anchor="middle" x="312" y="528">MechanicalState</text>
</g>
<g>
	<rect fill="#808080" stroke="none" stroke-opacity="1" x="504" y="250" width="3" height="35" />
	<rect fill="#808080" stroke="none" stroke-opacity="1" x="410" y="282" width="97" height="3" />
	<rect fill="#ffffc0" stroke="black" stroke-width="1" stroke-opacity="1" x="406" y="246" width="98" height="36" />
	<text font-family="Helvetica" font-size="-2" fill="black" font-weight="bold" text-anchor="middle" x="455" y="247">RegisterObject</text>
</g>
<g>
	<rect fill="#808080" stroke="none" stroke-opacity="1" x="939" y="219" width="3" height="35" />
	<rect fill="#808080" stroke="none" stroke-opacity="1" x="873" y="251" width="69" height="3" />
	<rect fill="#ffeb60" stroke="black" stroke-width="1" stroke-opacity="1" x="869" y="215" width="70" height="36" />
	<text font-family="Helvetica" font-size="-2" fill="black" font-weight="bold" font-style="italic" text-anchor="middle" x="904" y="216">BaseNode</text>
</g>
<g>
	<rect fill="#808080" stroke="none" stroke-opacity="1" x="842" y="291" width="3" height="35" />
	<rect fill="#808080" stroke="none" stroke-opacity="1" x="792" y="323" width="53" height="3" />
	<rect fill="#ffffc0" stroke="black" stroke-width="1" stroke-opacity="1" x="788" y="287" width="54" height="36" />
	<text font-family="Helvetica" font-size="-2" fill="black" font-weight="bold" text-anchor="middle" x="815" y="288">Context</text>
</g>
<g>
	<rect fill="#808080" stroke="none" stroke-opacity="1" x="1104" y="144" width="3" height="35" />
	<rect fill="#808080" stroke="none" stroke-opacity="1" x="1066" y="176" width="41" height="3" />
	<rect fill="#ffffc0" stroke="black" stroke-width="1" stroke-opacity="1" x="1062" y="140" width="42" height="36" />
	<text font-family="Helvetica" font-size="-2" fill="black" font-weight="bold" text-anchor="middle" x="1083" y="141">Event</text>
</g>
<g>
	<rect fill="white" stroke-dasharray="4,4" stroke="black" stroke-width="1" stroke-opacity="1" x="1041" y="275" width="70" height="24" />
	<text font-family="Helvetica" font-size="-2" fill="black" text-anchor="middle" x="1076" y="287">DataTypes</text>
</g>
<g>
	<rect fill="white" stroke-dasharray="4,4" stroke="black" stroke-width="1" stroke-opacity="1" x="1004" y="195" width="21" height="24" />
	<text font-family="Helvetica" font-size="-2" fill="black" text-anchor="middle" x="1015" y="207">T</text>
</g>
<g>
	<rect fill="white" stroke-dasharray="4,4" stroke="black" stroke-width="1" stroke-opacity="1" x="333" y="498" width="70" height="24" />
	<text font-family="Helvetica" font-size="-2" fill="black" text-anchor="middle" x="368" y="510">DataTypes</text>
</g>
<g>
	<rect fill="white" stroke-dasharray="4,4" stroke="black" stroke-width="1" stroke-opacity="1" x="1080" y="195" width="34" height="24" />
	<text font-family="Helvetica" font-size="-2" fill="black" text-anchor="middle" x="1097" y="207">T</text>
</g>
<g>
	<line stroke="black" stroke-opacity="1" x1="781" y1="255" x2="772" y2="253" />
	<line stroke="black" stroke-opacity="1" x1="781" y1="255" x2="779" y2="263" />
	<line stroke="black" stroke-opacity="1" x1="735" y1="286" x2="781" y2="255" />
</g>
<g>
	<rect fill="#808080" stroke="none" stroke-opacity="1" x="714" y="514" width="3" height="53" />
	<rect fill="#808080" stroke="none" stroke-opacity="1" x="644" y="564" width="73" height="3" />
	<rect fill="#ffeb60" stroke="black" stroke-width="1" stroke-opacity="1" x="640" y="510" width="74" height="54" />
	<text font-family="Helvetica" font-size="-2" fill="black" font-weight="bold" font-style="italic" text-anchor="middle" x="677" y="528">ForceField</text>
</g>
<g>
	<rect fill="#808080" stroke="none" stroke-opacity="1" x="862" y="532" width="3" height="35" />
	<rect fill="#808080" stroke="none" stroke-opacity="1" x="726" y="564" width="139" height="3" />
	<rect fill="#ffeb60" stroke="black" stroke-width="1" stroke-opacity="1" x="722" y="528" width="140" height="36" />
	<text font-family="Helvetica" font-size="-2" fill="black" font-weight="bold" font-style="italic" text-anchor="middle" x="792" y="529">InteractionForceField</text>
</g>
<g>
	<rect fill="#808080" stroke="none" stroke-opacity="1" x="764" y="445" width="3" height="35" />
	<rect fill="#808080" stroke="none" stroke-opacity="1" x="664" y="477" width="103" height="3" />
	<rect fill="#ffffc0" stroke="black" stroke-width="1" stroke-opacity="1" x="660" y="441" width="104" height="36" />
	<text font-family="Helvetica" font-size="-2" fill="black" font-weight="bold" font-style="italic" text-anchor="middle" x="712" y="442">BaseForceField</text>
</g>
<g>
	<rect fill="white" stroke-dasharray="4,4" stroke="black" stroke-width="1" stroke-opacity="1" x="692" y="498" width="70" height="24" />
	<text font-family="Helvetica" font-size="-2" fill="black" text-anchor="middle" x="727" y="510">DataTypes</text>
</g>
<g>
	<rect fill="#808080" stroke="none" stroke-opacity="1" x="751" y="291" width="3" height="35" />
	<rect fill="#808080" stroke="none" stroke-opacity="1" x="661" y="323" width="93" height="3" />
	<rect fill="#ffffc0" stroke="black" stroke-width="1" stroke-opacity="1" x="657" y="287" width="94" height="36" />
	<text font-family="Helvetica" font-size="-2" fill="black" font-weight="bold" font-style="italic" text-anchor="middle" x="704" y="288">ContextObject</text>
</g>
<g>
	<rect fill="#808080" stroke="none" stroke-opacity="1" x="974" y="291" width="3" height="53" />
	<rect fill="#808080" stroke="none" stroke-opacity="1" x="930" y="341" width="47" height="3" />
	<rect fill="#ffffc0" stroke="black" stroke-width="1" stroke-opacity="1" x="926" y="287" width="48" height="54" />
	<text font-family="Helvetica" font-size="-2" fill="black" font-weight="bold" text-anchor="middle" x="950" y="305">XField</text>
</g>
<g>
	<rect fill="white" stroke-dasharray="4,4" stroke="black" stroke-width="1" stroke-opacity="1" x="961" y="275" width="70" height="24" />
	<text font-family="Helvetica" font-size="-2" fill="black" text-anchor="middle" x="996" y="287">DataTypes</text>
</g>
<g>
	<line stroke="black" stroke-opacity="1" x1="409" y1="730" x2="403" y2="724" />
	<line stroke="black" stroke-opacity="1" x1="409" y1="730" x2="403" y2="736" />
	<line stroke="black" stroke-opacity="1" x1="392" y1="730" x2="409" y2="730" />
</g>
<g>
	<line stroke="black" stroke-opacity="1" x1="708" y1="730" x2="702" y2="724" />
	<line stroke="black" stroke-opacity="1" x1="708" y1="730" x2="702" y2="736" />
	<line stroke="black" stroke-opacity="1" x1="666" y1="730" x2="708" y2="730" />
	<polygon fill="black" stroke="black" stroke-opacity="1" points="666,730 672,724 678,730 672,736" />
</g>
<g>
	<line stroke="black" stroke-opacity="1" x1="522" y1="730" x2="528" y2="736" />
	<line stroke="black" stroke-opacity="1" x1="522" y1="730" x2="528" y2="724" />
	<line stroke="black" stroke-opacity="1" x1="553" y1="730" x2="522" y2="730" />
</g>
<g>
	<rect fill="#808080" stroke="none" stroke-opacity="1" x="858" y="219" width="3" height="35" />
	<rect fill="#808080" stroke="none" stroke-opacity="1" x="778" y="251" width="83" height="3" />
	<rect fill="#ffeb60" stroke="black" stroke-width="1" stroke-opacity="1" x="774" y="215" width="84" height="36" />
	<text font-family="Helvetica" font-size="-2" fill="black" font-weight="bold" text-anchor="middle" x="816" y="216">BaseContext</text>
</g>
<g>
	<rect fill="#808080" stroke="none" stroke-opacity="1" x="376" y="148" width="3" height="35" />
	<rect fill="#808080" stroke="none" stroke-opacity="1" x="278" y="180" width="101" height="3" />
	<rect fill="#ffd700" stroke="black" stroke-width="1" stroke-opacity="1" x="274" y="144" width="102" height="36" />
	<text font-family="Helvetica" font-size="-2" fill="black" font-weight="bold" font-style="italic" text-anchor="middle" x="325" y="145">CollisionModel</text>
</g>
<g>
	<rect fill="#808080" stroke="none" stroke-opacity="1" x="222" y="699" width="3" height="35" />
	<rect fill="#808080" stroke="none" stroke-opacity="1" x="86" y="731" width="139" height="3" />
	<rect fill="#ffffc0" stroke="black" stroke-width="1" stroke-opacity="1" x="82" y="695" width="140" height="36" />
	<text font-family="Helvetica" font-size="-2" fill="black" font-weight="bold" font-style="italic" text-anchor="middle" x="152" y="696">BroadPhaseDetection</text>
</g>
<g>
	<rect fill="#808080" stroke="none" stroke-opacity="1" x="817" y="652" width="3" height="35" />
	<rect fill="#808080" stroke="none" stroke-opacity="1" x="665" y="684" width="155" height="3" />
	<rect fill="#ffffc0" stroke="black" stroke-width="1" stroke-opacity="1" x="661" y="648" width="156" height="36" />
	<text font-family="Helvetica" font-size="-2" fill="black" font-weight="bold" font-style="italic" text-anchor="middle" x="739" y="649">CollisionGroupManager</text>
</g>
<g>
	<rect fill="#808080" stroke="none" stroke-opacity="1" x="518" y="714" width="3" height="35" />
	<rect fill="#808080" stroke="none" stroke-opacity="1" x="414" y="746" width="107" height="3" />
	<rect fill="#ffffc0" stroke="black" stroke-width="1" stroke-opacity="1" x="410" y="710" width="108" height="36" />
	<text font-family="Helvetica" font-size="-2" fill="black" font-weight="bold" text-anchor="middle" x="464" y="711">DetectionOutput</text>
</g>
<g>
	<rect fill="#808080" stroke="none" stroke-opacity="1" x="763" y="714" width="3" height="35" />
	<rect fill="#808080" stroke="none" stroke-opacity="1" x="713" y="746" width="53" height="3" />
	<rect fill="#ffffc0" stroke="black" stroke-width="1" stroke-opacity="1" x="709" y="710" width="54" height="36" />
	<text font-family="Helvetica" font-size="-2" fill="black" font-weight="bold" font-style="italic" text-anchor="middle" x="736" y="711">Contact</text>
</g>
<g>
	<rect fill="#808080" stroke="none" stroke-opacity="1" x="764" y="144" width="3" height="35" />
	<rect fill="#808080" stroke="none" stroke-opacity="1" x="620" y="176" width="147" height="3" />
	<rect fill="#ffffc0" stroke="black" stroke-width="1" stroke-opacity="1" x="616" y="140" width="148" height="36" />
	<text font-family="Helvetica" font-size="-2" fill="black" font-weight="bold" font-style="italic" text-anchor="middle" x="690" y="141">BaseObjectDescription</text>
</g>
<g>
	<rect fill="#808080" stroke="none" stroke-opacity="1" x="662" y="714" width="3" height="35" />
	<rect fill="#808080" stroke="none" stroke-opacity="1" x="558" y="746" width="107" height="3" />
	<rect fill="#ffffc0" stroke="black" stroke-width="1" stroke-opacity="1" x="554" y="710" width="108" height="36" />
	<text font-family="Helvetica" font-size="-2" fill="black" font-weight="bold" font-style="italic" text-anchor="middle" x="608" y="711">ContactManager</text>
</g>
<g>
	<rect fill="#808080" stroke="none" stroke-opacity="1" x="493" y="172" width="3" height="35" />
	<rect fill="#808080" stroke="none" stroke-opacity="1" x="423" y="204" width="73" height="3" />
	<rect fill="#ffffc0" stroke="black" stroke-width="1" stroke-opacity="1" x="419" y="168" width="74" height="36" />
	<text font-family="Helvetica" font-size="-2" fill="black" font-weight="bold" text-anchor="middle" x="456" y="169">ClassEntry</text>
</g>
<g>
	<rect fill="#808080" stroke="none" stroke-opacity="1" x="552" y="172" width="3" height="35" />
	<rect fill="#808080" stroke="none" stroke-opacity="1" x="504" y="204" width="51" height="3" />
	<rect fill="#ffffc0" stroke="black" stroke-width="1" stroke-opacity="1" x="500" y="168" width="52" height="36" />
	<text font-family="Helvetica" font-size="-2" fill="black" font-weight="bold" font-style="italic" text-anchor="middle" x="526" y="169">Creator</text>
</g>
<g>
	<rect fill="#808080" stroke="none" stroke-opacity="1" x="388" y="714" width="3" height="35" />
	<rect fill="#808080" stroke="none" stroke-opacity="1" x="244" y="746" width="147" height="3" />
	<rect fill="#ffffc0" stroke="black" stroke-width="1" stroke-opacity="1" x="240" y="710" width="148" height="36" />
	<text font-family="Helvetica" font-size="-2" fill="black" font-weight="bold" font-style="italic" text-anchor="middle" x="314" y="711">NarrowPhaseDetection</text>
</g>
</svg>
