# Blender v2.77 (sub 0) OBJ File: ''
# www.blender.org
mtllib meshtest_uv_n_mtl.mtl
o Cube_Cube.001
v -1.000000 -1.000000 1.000000
v -1.000000 1.000000 1.000000
v -1.000000 -1.000000 -1.000000
v -1.000000 1.000000 -1.000000
v 1.000000 -1.000000 1.000000
v 1.000000 1.000000 1.000000
v 1.000000 -1.000000 -1.000000
v 1.000000 1.000000 -1.000000
v 0.000000 0.000000 2.000000
v 0.545065 0.824192 -2.708004
vt 0.484375 0.480469
vt 0.889022 0.480469
vt 0.889022 0.075822
vt 0.484375 0.075822
vt 0.484375 0.480469
vt 0.889022 0.480469
vt 0.889022 0.075822
vt 0.484375 0.075822
vt 0.484375 0.480469
vt 0.079728 0.480469
vt 0.079728 0.075822
vt 0.484375 0.075822
vt 0.686699 0.278145
vt 0.484375 0.480469
vt 0.484375 0.885116
vt 0.889022 0.885116
vt 0.889022 0.480469
vt 0.484375 0.480469
vt 0.484375 0.885116
vt 0.079728 0.885116
vt 0.079728 0.480469
vt 0.889022 0.480469
vt 0.484375 0.480469
vt 0.282051 0.278145
vt 0.079728 0.480469
vt 0.484375 0.885116
vt 0.282051 0.682792
vn -1.000000 0.000000 0.000000
vn 0.000000 0.000000 -1.000000
vn 1.000000 0.000000 0.000000
vn -0.707100 0.000000 0.707100
vn 0.000000 -1.000000 0.000000
vn 0.000000 1.000000 0.000000
vn 0.000000 0.707100 0.707100
vn 0.000000 -0.707100 0.707100
vn 0.707100 0.000000 0.707100
usemtl None
s off
f 2/1/1 4/2/1 3/3/1 1/4/1
f 4/5/2 8/6/2 7/7/2 3/8/2
f 8/9/3 6/10/3 5/11/3 7/12/3
f 2/1/4 1/4/4 9/13/4
f 1/14/5 3/15/5 7/16/5 5/17/5
f 6/18/6 8/19/6 4/20/6 2/21/6
f 2/1/7 9/13/7 6/22/7
f 5/23/8 9/24/8 1/25/8
f 5/23/9 6/26/9 9/27/9
l 8 10
