/* XPM */
static char * home_xpm[] = {
"40 40 107 2",
"  	c None",
". 	c #A87050",
"+ 	c #A7714F",
"@ 	c #A86F51",
"# 	c #A66F4E",
"$ 	c #B8805F",
"% 	c #E2A883",
"& 	c #E2A882",
"* 	c #B77F5E",
"= 	c #A66F4F",
"- 	c #A7704E",
"; 	c #A76F4E",
"> 	c #CF9672",
", 	c #F5BB94",
"' 	c #FFC49C",
") 	c #A97150",
"! 	c #AF7756",
"~ 	c #D9A07C",
"{ 	c #FBC198",
"] 	c #FEC39C",
"^ 	c #FBC098",
"/ 	c #D9A07B",
"( 	c #AF7757",
"_ 	c #A87251",
": 	c #A56D4D",
"< 	c #BE8663",
"[ 	c #E9AE89",
"} 	c #F9BE97",
"| 	c #D59E7A",
"1 	c #AD7A5B",
"2 	c #E8AE88",
"3 	c #AB7352",
"4 	c #A97252",
"5 	c #D19874",
"6 	c #F6BC94",
"7 	c #EEB48D",
"8 	c #C59171",
"9 	c #A67152",
"0 	c #B69785",
"a 	c #CDD1D3",
"b 	c #CDD0D2",
"c 	c #B59784",
"d 	c #A67253",
"e 	c #EFB48E",
"f 	c #F6BB94",
"g 	c #D19774",
"h 	c #A87151",
"i 	c #AA7253",
"j 	c #A66C4C",
"k 	c #A56E4E",
"l 	c #BD8562",
"m 	c #E6AC86",
"n 	c #FCC199",
"o 	c #B27F61",
"p 	c #AA7A5E",
"q 	c #C2B7AF",
"r 	c #D7EAF4",
"s 	c #DBF2FF",
"t 	c #A87150",
"u 	c #A86F4F",
"v 	c #CB936F",
"w 	c #F2B891",
"x 	c #F3B891",
"y 	c #C99270",
"z 	c #A67252",
"A 	c #B4907C",
"B 	c #CCCDCF",
"C 	c #DAF1FE",
"D 	c #CC936F",
"E 	c #A16A4A",
"F 	c #D79E78",
"G 	c #FABF97",
"H 	c #E9B089",
"I 	c #BF8B6B",
"J 	c #B89E8E",
"K 	c #D0D8DD",
"L 	c #D0D7DC",
"M 	c #C08C6B",
"N 	c #D29A77",
"O 	c #AD8066",
"P 	c #C3BBB7",
"Q 	c #D8EBF6",
"R 	c #AC8066",
"S 	c #C5906F",
"T 	c #B59683",
"U 	c #CDD2D4",
"V 	c #B18165",
"W 	c #A67355",
"X 	c #BBA699",
"Y 	c #D2DEE5",
"Z 	c #BBA598",
"` 	c #B18065",
" .	c #A36B4B",
"..	c #83879C",
"+.	c #DAEEFB",
"@.	c #7496C4",
"#.	c #D6EAF9",
"$.	c #D9EFFC",
"%.	c #DAF0FE",
"&.	c #DBF1FE",
"*.	c #D9EEFC",
"=.	c #DBF1FF",
"-.	c #DAF0FD",
";.	c #D8EDFB",
">.	c #D9EFFD",
",.	c #8FB2C6",
"'.	c #D9F0FD",
"                                                                                ",
"                                      . +                                       ",
"                                @ # $ % & * = -                                 ",
"                            ; # > , ' ' ' ' , > # ;                             ",
"                        ) ! ~ { ' ' ' ] ] ' ' ' ^ / ( _                         ",
"                  - : < [ ' ' ' ' } | 1 1 | } ' ' ' ' 2 < : -                   ",
"              3 4 5 6 ' ' ' ' 7 8 9 0 a b c d 8 e ' ' ' ' f g h i               ",
"        j k l m ] ' ' ' n ~ o p q r s s s s r q p o ~ n ' ' ' ] m l = j         ",
"    t u v w ' ' ' ' x y z A B C s s s s s s s s C B A z y x ' ' ' ' w D u t     ",
"  E F G ' ' ' ' H I 9 J K s s s s s s s s s s s s s s L J 9 M H ' ' ' ' G F E   ",
"  E ' ' ' } N 1 O P Q s s s s s s s s s s s s s s s s s s Q P R 1 N } ' ' ' E   ",
"  E ' 7 S d T U s s s s s s s s s s s s s s s s s s s s s s s s U T d S 7 ' E   ",
"  E V W X Y s s s s s s s s s s s s s s s s s s s s s s s s s s s s Y Z W ` E   ",
"   ...+.s s s s s s s s s s s s s s s s s s s s s s s s s s s s s s s s +... .  ",
"    @.s s s s s s s s s s s s s s s s s s s s s s s s s s s s s s s s s s @.    ",
"    @.s s s s s s s s s s s s s s C #.$.C C C s s s s s s s s s s s s s s @.    ",
"    @.s s s s s s s s s s s s s s C %.&.s s s s s s s s s s s s s s s s s @.    ",
"    @.s s s s s s s s s s C s s C C C s s s s s s s C s s s s s s s s s s @.    ",
"    @.s s s s s s s s s C C C C C C s s s s s s s s C %.s s s s s s s s s @.    ",
"    @.s s s s s s s s C s C s s s &.s s s s s s s s C *.=.s s s s s s s s @.    ",
"    @.s s s s s s s s C C s s s s s s s s s s s s s &.-.;.s s s s s s s s @.    ",
"    @.s s s s s s s s C C C s s s s s s s s s s s s C C $.s s s s s s s s @.    ",
"    @.s s s s s s s s s C s s s s s s s s s s s s s s C s s s s s s s s s @.    ",
"    @.s s s s s s s s s s s s s s s s s s s s s s s s s s s s s s s s s s @.    ",
"    @.s s s s s s s s s s s s s s s s s s s s s s s s s s s s s s s s s s @.    ",
"    @.s s s s s s s s s C s s s s s s s s s s s s s s s s s s s s s s s s @.    ",
"    @.s s s s s s s s >.C s s s ,.,.,.,.,.,.,.,.s s s s C s s s s s s s s @.    ",
"    @.s s s s s s s s $.%.&.s s ,.,.,.,.,.,.,.,.s s s C C s s s s s s s s @.    ",
"    @.s s s s s s s s C *.C s s ,.,.,.,.,.,.,.,.s s s C =.s s s s s s s s @.    ",
"    @.s s s s s s s s s >.'.C s ,.,.,.,.,.,.,.,.s s C C s s s s s s s s s @.    ",
"    @.s s s s s s s s s s C s s ,.,.,.,.,.,.,.,.s s C s s s s s s s s s s @.    ",
"    @.s s s s s s s s s s s s s ,.,.,.,.,.,.,.,.s s s s s s s s s s s s s @.    ",
"    @.s s s s s s s s s s s s s ,.,.,.,.,.,.,.,.s s s s s s s s s s s s s @.    ",
"    @.s s s s s s s s s s s s s ,.,.,.,.,.,.,.,.s s s s s s s s s s s s s @.    ",
"    @.s s s s s s s s s s s s s ,.,.,.,.,.,.,.,.s s s s s s s s s s s s s @.    ",
"    @.s s s s s s s s s s s s s ,.,.,.,.,.,.,.,.s s s s s s s s s s s s s @.    ",
"    @.s s s s s s s s s s s s s ,.,.,.,.,.,.,.,.s s s s s s s s s s s s s @.    ",
"    @.s s s s s s s s s s s s s ,.,.,.,.,.,.,.,.s s s s s s s s s s s s s @.    ",
"    @.@.@.@.@.@.@.@.@.@.@.@.@.@.@.@.@.@.@.@.@.@.@.@.@.@.@.@.@.@.@.@.@.@.@.@.    ",
"                                                                                "};
