/* XPM */
static const char * iconmultinode_xpm[] = {
"20 20 4 1",
" 	c None",
".	c #000000",
"+	c #9F9F9F",
"@	c #5C5656",
"                    ",
"                    ",
"                    ",
"    ......          ",
"    .++++.          ",
"   .++++++......    ",
"  .+++++++.@@@@.    ",
" .+++++++.@@@@@@.   ",
" .++++++.@@@@@@@@.  ",
".++++++.@@@@@@@@@@. ",
".++++++.@@@@@@@@@@. ",
".+++++.@@@@@@@@@@@@.",
" .++++.@@@@@@@@@@@@.",
" .++++.@@@@@@@@@@@@.",
"  .++++.@@@@@@@@@@. ",
"   .+++.@@@@@@@@@@. ",
"    .+++.@@@@@@@@.  ",
"    ......@@@@@@.   ",
"          .@@@@.    ",
"          ......    "};
