/* XPM */
static const char * iconerror_xpm[] = {
"20 20 4 1",
" 	c None",
".	c #000000",
"+	c #C8C8C8",
"@	c #FF4D4D",
"                    ",
"         .          ",
"         .+         ",
"        ...+        ",
"        .@.+        ",
"       ..@..+       ",
"       .@.@.+       ",
"      ..@.@..+      ",
"      .@@.@@.+      ",
"     ..@@.@@..+     ",
"     .@@@.@@@.+     ",
"    ..@@@.@@@..+    ",
"    .@@@@.@@@@.+    ",
"   ..@@@@.@@@@..+   ",
"   .@@@@@@@@@@@.+   ",
"  ..@@@@...@@@@..+  ",
"  .@@@@@...@@@@@.+  ",
" ..@@@@@@@@@@@@@..+ ",
" .................+ ",
"  +++++++++++++++++ "};
