/* XPM */
static const char * icondata_xpm[] = {
"20 20 9 1",
" 	c None",
".	c #000000",
"+	c #00007F",
"@	c #0000BF",
"#	c #0000FF",
"$	c #000098",
"%	c #0000E6",
"&	c #00008F",
"*	c #00003F",
"                    ",
"                    ",
"                    ",
"                    ",
" .                  ",
" +@.                ",
" +##@$              ",
" +####%@.           ",
" +#######@$         ",
" +#########@$$      ",
" +###########%&*    ",
" +#########%@+      ",
" +#######@$         ",
" +####%@+           ",
" +##%@              ",
" +@                 ",
" .                  ",
"                    ",
"                    ",
"                    "};
