####
#
# OBJ File Generated by Meshlab
#
####
# Object A-coarse.obj
#
# Vertices: 138
# Faces: 276
#
####

vn 0.012490 -0.703067 0.711013
v 31.164352 -0.500000 -0.170108
vn 0.652579 0.704163 -0.279814
v 31.249329 0.500000 -0.319993
vn 0.696275 0.560891 0.447887
v 31.309147 0.500000 -0.175267
vn 0.646101 -0.706920 -0.287780
v 31.021772 -0.500000 -0.832026
vn 0.696275 -0.560891 0.447886
v 31.309147 -0.500000 -0.175267
vn 0.652579 -0.704163 -0.279814
v 31.249329 -0.500000 -0.319993
vn 0.646101 0.706920 -0.287780
v 31.021772 0.500000 -0.832026
vn -0.004299 -0.704403 0.709788
v 25.425932 -0.500000 -0.164573
vn 0.643838 -0.707114 0.292341
v 26.106050 -0.500000 -0.225969
vn -0.645100 0.707073 -0.289644
v 25.409304 0.500000 -1.249050
vn 0.102794 0.741205 -0.663361
v 27.477558 0.500000 -2.272392
vn 0.650293 0.713143 0.261813
v 27.254007 0.500000 -2.826381
vn -0.723287 0.669523 -0.169101
v 24.940104 0.500000 -0.190333
vn -0.027792 0.702424 0.711216
v 25.094769 0.500000 -0.170573
vn -0.642515 -0.708473 0.291959
v 28.231991 -0.500000 -4.557352
vn 0.647315 -0.707542 0.283493
v 27.819410 -0.500000 -4.126049
vn -0.648270 -0.707380 0.281710
v 28.788469 -0.500000 -3.295276
vn -0.380858 0.614508 0.690888
v 30.261496 0.500000 -0.175101
vn 0.004391 0.707598 -0.706601
v 27.982925 0.500000 -2.268149
vn -0.645147 0.707113 -0.289442
v 26.905092 0.500000 -4.581103
vn 0.648275 0.707151 0.282272
v 27.620369 0.500000 -3.669169
vn -0.648942 -0.707354 0.280223
v 28.893900 -0.500000 -3.051853
vn -0.363396 -0.913250 -0.184168
v 29.154760 -0.500000 -2.382160
vn -0.002665 0.707162 0.707047
v 28.133032 0.500000 -1.260705
vn 0.645479 0.707064 -0.288821
v 30.561165 0.500000 -1.863003
vn -0.645166 0.707121 -0.289378
v 27.045393 0.500000 -4.893848
vn 0.645267 0.707071 -0.289277
v 30.105228 0.500000 -2.880941
vn -0.645211 -0.707108 -0.289312
v 27.431625 -0.500000 -5.755151
vn 0.530622 0.753841 0.387510
v 26.509815 0.500000 -1.107314
vn -0.645050 0.707112 -0.289662
v 25.711966 0.500000 -1.922938
vn 0.644955 0.707051 -0.290021
v 29.393553 0.500000 -4.466210
vn 0.644865 0.707192 -0.289875
v 29.144846 0.500000 -5.018928
vn 0.646461 -0.708934 -0.281958
v 28.806595 -0.500000 -5.775297
vn 0.122107 -0.910928 0.394082
v 28.113367 -0.500000 -4.774585
vn -0.645080 -0.707113 -0.289591
v 26.055189 -0.500000 -2.687381
vn 0.000239 -0.707561 0.706653
v 27.489477 -0.500000 -1.262311
vn -0.001839 0.707315 0.706896
v 27.848190 0.500000 -1.261709
vn -0.645200 0.707111 -0.289327
v 27.223351 0.500000 -5.290672
vn -0.438946 -0.604003 -0.665213
v 27.530926 -0.500000 -5.976610
vn 0.645370 -0.707066 -0.289059
v 30.339054 -0.500000 -2.359140
vn -0.645211 0.707108 -0.289312
v 27.431625 0.500000 -5.755151
vn -0.645166 -0.707121 -0.289378
v 27.045393 -0.500000 -4.893848
vn 0.645267 -0.707071 -0.289277
v 30.105228 -0.500000 -2.880941
vn 0.645479 -0.707064 -0.288821
v 30.561165 -0.500000 -1.863003
vn -0.002665 -0.707162 0.707047
v 28.133032 -0.500000 -1.260705
vn 0.000239 0.707561 0.706653
v 27.489477 0.500000 -1.262311
vn -0.645080 0.707113 -0.289591
v 26.055189 0.500000 -2.687381
vn 0.122107 0.910928 0.394082
v 28.113367 0.500000 -4.774585
vn 0.646458 0.708938 -0.281954
v 28.806591 0.500000 -5.775297
vn 0.644865 -0.707192 -0.289876
v 29.144846 -0.500000 -5.018928
vn 0.644955 -0.707051 -0.290021
v 29.393553 -0.500000 -4.466210
vn -0.645050 -0.707112 -0.289662
v 25.711966 -0.500000 -1.922938
vn 0.530621 -0.753840 0.387513
v 26.509815 -0.500000 -1.107314
vn 0.019399 0.712847 0.701051
v 27.108381 0.500000 -1.261414
vn -0.645065 0.707113 -0.289625
v 25.880276 0.500000 -2.297779
vn -0.456722 0.783371 0.421586
v 28.138119 0.500000 -4.760657
vn 0.440321 0.601567 -0.666510
v 28.716343 0.500000 -5.986885
vn 0.645173 0.707067 -0.289496
v 29.865707 0.500000 -3.414994
vn 0.643568 0.707227 0.292659
v 26.196377 0.500000 -0.424882
vn -0.006122 -0.705168 -0.709014
v 28.125940 -0.500000 -5.986885
vn 0.645165 -0.707410 -0.288674
v 29.000332 -0.500000 -5.340744
vn 0.645069 -0.707064 -0.289735
v 29.626478 -0.500000 -3.947887
vn -0.645029 -0.707114 -0.289702
v 25.553795 -0.500000 -1.570736
vn 0.236839 -0.791768 0.563037
v 26.651064 -0.500000 -1.237166
vn 0.641822 -0.707875 0.294920
v 26.359783 -0.500000 -0.783715
vn 0.643570 -0.707227 0.292657
v 26.196377 -0.500000 -0.424882
vn 0.641825 0.707872 0.294921
v 26.359787 0.500000 -0.783715
vn 0.236839 0.791768 0.563037
v 26.651064 0.500000 -1.237166
vn -0.645029 0.707114 -0.289702
v 25.553795 0.500000 -1.570736
vn 0.645167 0.707408 -0.288677
v 29.000334 0.500000 -5.340744
vn -0.006122 0.705168 -0.709014
v 28.125940 0.500000 -5.986885
vn 0.645069 0.707064 -0.289735
v 29.626478 0.500000 -3.947887
vn 0.440316 -0.601567 -0.666512
v 28.716343 -0.500000 -5.986885
vn -0.456722 -0.783372 0.421585
v 28.138119 -0.500000 -4.760657
vn 0.645173 -0.707067 -0.289496
v 29.865707 -0.500000 -3.414994
vn -0.645065 -0.707113 -0.289625
v 25.880276 -0.500000 -2.297779
vn 0.019399 -0.712847 0.701051
v 27.108381 -0.500000 -1.261414
vn 0.645370 0.707066 -0.289059
v 30.339054 0.500000 -2.359140
vn -0.438946 0.604003 -0.665213
v 27.530926 0.500000 -5.976610
vn -0.645200 -0.707111 -0.289327
v 27.223351 -0.500000 -5.290672
vn -0.001839 -0.707315 0.706896
v 27.848190 -0.500000 -1.261709
vn -0.608713 -0.577741 0.543769
v 24.939554 -0.500000 -0.179897
vn -0.646250 0.706589 -0.288259
v 25.226389 0.500000 -0.841498
vn 0.636545 0.711932 0.296586
v 28.033331 0.500000 -4.611949
vn -0.645760 0.707765 0.286466
v 28.407642 0.500000 -4.164493
vn -0.647332 0.707496 0.283568
v 28.605234 0.500000 -3.715542
vn 0.433817 0.603547 0.668979
v 26.079958 0.500000 -0.168499
vn 0.648547 -0.707170 0.281598
v 27.339212 -0.500000 -3.022768
vn 0.369666 -0.911140 -0.182133
v 27.092129 -0.500000 -2.391231
vn -0.649015 -0.705926 -0.283632
v 25.021660 -0.500000 -0.379657
vn -0.027792 -0.702424 0.711216
v 25.094765 -0.500000 -0.170573
vn -0.723287 -0.669523 -0.169101
v 24.940104 -0.500000 -0.190333
vn -0.642515 0.708473 0.291959
v 28.231991 0.500000 -4.557352
vn 0.647315 0.707542 0.283493
v 27.819410 0.500000 -4.126049
vn -0.648270 0.707380 0.281710
v 28.788469 0.500000 -3.295276
vn 0.643838 0.707114 0.292341
v 26.106050 0.500000 -0.225969
vn -0.004299 0.704403 0.709788
v 25.425934 0.500000 -0.164573
vn 0.650294 -0.713143 0.261811
v 27.254007 -0.500000 -2.826381
vn 0.102795 -0.741205 -0.663361
v 27.477558 -0.500000 -2.272392
vn -0.645100 -0.707073 -0.289644
v 25.409304 -0.500000 -1.249050
vn -0.635261 0.690515 0.345880
v 29.912043 0.500000 -0.715412
vn -0.285769 0.851245 0.440134
v 29.669291 0.500000 -1.254539
vn 0.001271 0.707610 -0.706602
v 28.390842 0.500000 -2.266504
vn -0.645133 0.707112 -0.289476
v 26.750187 0.500000 -4.235856
vn 0.648391 0.707169 0.281960
v 27.438181 0.500000 -3.250526
vn -0.004037 0.705935 0.708265
v 30.698217 0.500000 -0.170334
vn -0.645114 -0.707114 -0.289512
v 26.584211 -0.500000 -3.865983
vn -0.645096 -0.707114 -0.289554
v 26.328764 -0.500000 -3.296826
vn -0.651012 -0.713052 0.260271
v 28.987843 -0.500000 -2.833643
vn -0.093564 -0.739675 -0.666428
v 28.750868 -0.500000 -2.266660
vn 0.645662 -0.707032 -0.288491
v 30.765574 -0.500000 -1.405941
vn -0.004037 -0.705935 0.708265
v 30.698217 -0.500000 -0.170334
vn 0.645662 0.707032 -0.288491
v 30.765574 0.500000 -1.405941
vn -0.093564 0.739675 -0.666428
v 28.750868 0.500000 -2.266660
vn -0.651012 0.713052 0.260270
v 28.987843 0.500000 -2.833643
vn -0.645114 0.707114 -0.289512
v 26.584211 0.500000 -3.865983
vn -0.645096 0.707114 -0.289554
v 26.328764 0.500000 -3.296826
vn -0.645133 -0.707112 -0.289476
v 26.750187 -0.500000 -4.235856
vn 0.648391 -0.707169 0.281960
v 27.438181 -0.500000 -3.250526
vn 0.001271 -0.707610 -0.706602
v 28.390842 -0.500000 -2.266504
vn -0.285769 -0.851245 0.440134
v 29.669291 -0.500000 -1.254539
vn -0.635260 -0.690515 0.345882
v 29.912043 -0.500000 -0.715412
vn 0.433817 -0.603548 0.668979
v 26.079958 -0.500000 -0.168499
vn -0.649015 0.705926 -0.283632
v 25.021660 0.500000 -0.379657
vn 0.369662 0.911141 -0.182130
v 27.092125 0.500000 -2.391231
vn 0.648547 0.707170 0.281598
v 27.339212 0.500000 -3.022768
vn -0.608712 0.577741 0.543769
v 24.939554 0.500000 -0.179897
vn 0.636545 -0.711932 0.296586
v 28.033331 -0.500000 -4.611949
vn -0.645760 -0.707765 0.286466
v 28.407642 -0.500000 -4.164493
vn -0.647332 -0.707496 0.283568
v 28.605234 -0.500000 -3.715542
vn -0.646250 -0.706589 -0.288259
v 25.226389 -0.500000 -0.841498
vn -0.363398 0.913249 -0.184169
v 29.154758 0.500000 -2.382160
vn -0.648942 0.707354 0.280223
v 28.893900 0.500000 -3.051853
vn -0.645147 -0.707113 -0.289442
v 26.905092 -0.500000 -4.581103
vn 0.648275 -0.707151 0.282272
v 27.620369 -0.500000 -3.669169
vn 0.004391 -0.707598 -0.706601
v 27.982925 -0.500000 -2.268149
vn -0.380855 -0.614509 0.690889
v 30.261499 -0.500000 -0.175101
vn 0.012489 0.703068 0.711013
v 31.164347 0.500000 -0.170108
# 138 vertices, 0 vertices normals


usemtl material_0
vt 0.237374 0.000000
vt 0.247475 0.000000
vt 0.242424 0.000000
f 99/1/99 19/2/19 136/3/136
vt 0.252525 0.000000
f 56/1/56 74/4/74 15/2/15
vt 0.257576 0.000000
f 131/1/131 64/5/64 53/4/53
vt 0.232323 0.000000
f 36/6/36 111/5/111 81/1/81
vt 0.227273 0.000000
f 10/7/10 69/5/69 100/6/100
vt 0.262626 0.000000
f 102/7/102 24/8/24 121/5/121
vt 0.267677 0.000000
f 44/7/44 52/9/52 110/8/110
vt 0.222222 0.000000
f 113/10/113 69/9/69 10/7/10
vt 0.272727 0.000000
f 110/10/110 52/11/52 120/9/120
vt 0.277778 0.000000
f 113/10/113 54/12/54 46/11/46
vt 0.217172 0.000000
f 113/13/113 102/12/102 7/10/7
vt 0.282828 0.000000
f 52/13/52 136/14/136 120/12/120
vt 0.212121 0.000000
f 52/15/52 99/14/99 136/13/136
vt 0.287879 0.000000
f 54/15/54 77/16/77 36/14/36
vt 0.292929 0.000000
f 52/15/52 89/17/89 99/16/99
vt 0.207071 0.000000
f 114/18/114 132/17/132 110/15/110
vt 0.297980 0.000000
f 76/18/76 89/19/89 52/17/52
vt 0.202020 0.000000
f 116/20/116 104/19/104 107/18/107
vt 0.303030 0.000000
f 126/20/126 12/21/12 88/19/88
vt 0.196970 0.000000
f 23/22/23 40/21/40 44/20/44
vt 0.191919 0.000000
f 113/23/113 10/21/10 54/22/54
vt 0.308081 0.000000
f 113/23/113 46/24/46 37/21/37
vt 0.186869 0.000000
f 113/25/113 24/24/24 102/23/102
vt 0.313131 0.000000
f 68/25/68 10/26/10 83/24/83
vt 0.181818 0.000000
f 25/27/25 30/26/30 69/25/69
vt 0.176768 0.000000
f 35/28/35 89/26/89 76/27/76
vt 0.318182 0.000000
f 30/28/30 55/29/55 52/26/52
vt 0.823232 0.000000
f 109/28/109 40/30/40 23/29/23
vt 0.323232 0.000000
f 78/30/78 25/31/25 40/29/40
vt 0.171717 0.000000
f 115/32/115 133/30/133 109/28/109
vt 0.828283 0.000000
f 125/32/125 11/33/11 89/30/89
vt 0.818182 0.000000
f 30/34/30 52/31/52 63/30/63
vt 0.833333 0.000000
f 35/32/35 98/35/98 89/33/89
vt 0.838384 0.000000
f 69/32/69 30/36/30 63/35/63
vt 0.813131 0.000000
f 35/37/35 88/31/88 98/34/98
vt 0.843434 0.000000
f 131/32/131 53/38/53 65/36/65
vt 0.848485 0.000000
f 68/32/68 29/39/29 64/38/64
vt 0.808081 0.000000
f 108/40/108 88/31/88 35/37/35
vt 0.853535 0.000000
f 23/32/23 44/41/44 110/39/110
vt 0.858586 0.000000
f 17/32/17 43/42/43 22/41/22
vt 0.803030 0.000000
f 108/43/108 119/31/119 88/40/88
vt 0.863636 0.000000
f 19/32/19 103/44/103 136/42/136
vt 0.868687 0.000000
f 100/32/100 77/45/77 64/44/64
vt 0.797980 0.000000
f 130/46/130 75/31/75 17/43/17
vt 0.873737 0.000000
f 105/32/105 126/47/126 119/45/119
vt 0.166667 0.000000
f 22/48/22 43/47/43 109/32/109
vt 0.878788 0.000000
f 107/48/107 135/49/135 108/47/108
vt 0.792929 0.000000
f 86/50/86 85/31/85 130/46/130
vt 0.883838 0.000000
f 130/48/130 62/51/62 75/49/75
vt 0.888889 0.000000
f 58/48/58 27/52/27 75/51/75
vt 0.328283 0.000000
f 108/50/108 135/53/135 119/31/119
vt 0.787879 0.000000
f 129/54/129 62/53/62 130/50/130
vt 0.782828 0.000000
f 132/55/132 115/53/115 23/54/23
vt 0.161616 0.000000
f 122/56/122 4/52/4 137/48/137
vt 0.777778 0.000000
f 100/57/100 64/53/64 131/55/131
vt 0.893939 0.000000
f 45/56/45 111/58/111 121/52/121
vt 0.772727 0.000000
f 100/59/100 111/53/111 77/57/77
vt 0.333333 0.000000
f 107/59/107 16/60/16 135/53/135
vt 0.767677 0.000000
f 31/61/31 72/60/72 51/59/51
vt 0.156566 0.000000
f 56/62/56 48/58/48 74/56/74
vt 0.898990 0.000000
f 21/62/21 105/63/105 135/58/135
vt 0.762626 0.000000
f 131/64/131 65/60/65 90/61/90
vt 0.757576 0.000000
f 121/65/121 4/60/4 122/64/122
vt 0.904040 0.000000
f 90/62/90 9/66/9 92/63/92
vt 0.151515 0.000000
f 2/67/2 3/66/3 6/62/6
vt 0.338384 0.000000
f 109/65/109 43/68/43 40/60/40
vt 0.752525 0.000000
f 17/69/17 75/68/75 43/65/43
vt 0.909091 0.000000
f 118/67/118 16/70/16 107/66/107
vt 0.747475 0.000000
f 121/71/121 111/68/111 4/69/4
vt 0.146465 0.000000
f 81/72/81 111/70/111 45/67/45
vt 0.742424 0.000000
f 77/73/77 111/68/111 36/71/36
vt 0.914141 0.000000
f 15/72/15 62/74/62 129/70/129
vt 0.737374 0.000000
f 134/75/134 128/68/128 118/73/118
vt 0.343434 0.000000
f 134/75/134 34/76/34 128/68/128
vt 0.919192 0.000000
f 118/72/118 128/77/128 16/74/16
vt 0.732323 0.000000
f 42/78/42 34/76/34 134/75/134
vt 0.141414 0.000000
f 20/79/20 26/77/26 134/72/134
vt 0.924242 0.000000
f 63/79/63 111/80/111 100/77/100
vt 0.727273 0.000000
f 42/81/42 50/76/50 34/78/34
vt 0.722222 0.000000
f 84/82/84 94/76/94 128/81/128
vt 0.929293 0.000000
f 15/79/15 51/83/51 62/80/62
vt 0.717172 0.000000
f 80/84/80 50/76/50 42/82/42
vt 0.934343 0.000000
f 48/79/48 84/85/84 34/83/34
vt 0.712121 0.000000
f 52/86/52 44/76/44 63/84/63
vt 0.348485 0.000000
f 54/86/54 68/87/68 77/76/77
vt 0.939394 0.000000
f 34/79/34 51/88/51 74/85/74
vt 0.707071 0.000000
f 104/89/104 20/87/20 118/86/118
vt 0.944444 0.000000
f 95/79/95 86/90/86 17/88/17
vt 0.136364 0.000000
f 73/91/73 49/90/49 33/79/33
vt 0.702020 0.000000
f 74/92/74 51/87/51 15/89/15
vt 0.949495 0.000000
f 34/91/34 50/93/50 51/90/51
vt 0.954545 0.000000
f 80/91/80 61/94/61 50/93/50
vt 0.959596 0.000000
f 28/91/28 61/95/61 80/94/80
vt 1.000000 0.000000
f 47/96/47 117/87/117 35/92/35
vt 0.964646 0.000000
f 70/91/70 32/97/32 61/95/61
vt 0.969697 0.000000
f 28/91/28 33/98/33 61/97/61
vt 0.994950 0.000000
f 85/99/85 93/87/93 129/96/129
vt 0.974747 0.000000
f 3/91/3 18/100/18 138/98/138
vt 0.989899 0.000000
f 65/101/65 59/87/59 66/99/66
vt 0.979798 0.000000
f 2/91/2 18/102/18 3/100/3
vt 0.984848 0.000000
f 96/103/96 13/87/13 87/101/87
f 135/91/135 105/103/105 119/102/119
f 133/91/133 22/87/22 109/103/109
vt 0.131313 0.000000
f 27/104/27 95/87/95 133/91/133
vt 0.353535 0.000000
f 75/104/75 27/105/27 43/87/43
vt 0.126263 0.000000
f 58/106/58 95/105/95 27/104/27
vt 0.540404 0.000000
f 138/106/138 18/107/18 106/105/106
vt 0.535354 0.000000
f 21/107/21 117/108/117 105/105/105
vt 0.530303 0.000000
f 43/108/43 78/109/78 40/105/40
vt 0.525253 0.000000
f 115/109/115 109/110/109 23/105/23
vt 0.520202 0.000000
f 87/110/87 14/111/14 97/105/97
vt 0.515152 0.000000
f 9/111/9 87/112/87 123/105/123
vt 0.510101 0.000000
f 88/112/88 12/113/12 98/105/98
vt 0.358586 0.000000
f 58/113/58 86/114/86 95/105/95
vt 0.545455 0.000000
f 62/106/62 58/115/58 75/107/75
vt 0.550505 0.000000
f 63/106/63 44/116/44 111/115/111
vt 0.555556 0.000000
f 55/106/55 47/117/47 76/116/76
vt 0.560606 0.000000
f 67/106/67 124/118/124 59/117/59
vt 0.505050 0.000000
f 111/119/111 7/114/7 4/113/4
vt 0.565657 0.000000
f 64/106/64 29/120/29 53/118/53
vt 0.121212 0.000000
vt 0.570707 0.000000
f 48/121/48 34/122/34 74/106/74
f 72/122/72 85/120/85 86/106/86
vt 0.575758 0.000000
f 128/121/128 94/123/94 16/122/16
vt 0.580808 0.000000
f 94/121/94 116/124/116 21/123/21
vt 0.585859 0.000000
f 116/121/116 107/125/107 108/124/108
vt 0.590909 0.000000
f 72/121/72 93/126/93 85/125/85
vt 0.595960 0.000000
f 86/121/86 130/127/130 17/126/17
vt 0.601010 0.000000
f 72/121/72 86/128/86 58/127/58
vt 0.606061 0.000000
f 84/121/84 104/129/104 94/128/94
vt 0.611111 0.000000
f 71/121/71 79/130/79 57/129/57
vt 0.616162 0.000000
f 21/121/21 116/131/116 117/130/117
vt 0.363636 0.000000
f 57/119/57 79/132/79 49/114/49
vt 0.116162 0.000000
f 60/133/60 57/131/57 73/121/73
vt 0.621212 0.000000
f 138/133/138 106/134/106 1/131/1
vt 0.626263 0.000000
f 39/133/39 33/135/33 28/134/28
vt 0.111111 0.000000
f 119/136/119 126/135/126 88/133/88
vt 0.631313 0.000000
f 25/136/25 69/137/69 113/135/113
vt 0.106061 0.000000
f 49/138/49 79/137/79 41/136/41
vt 0.636364 0.000000
f 125/138/125 55/139/55 30/137/30
vt 0.500000 0.000000
f 94/140/94 104/132/104 116/119/116
vt 0.641414 0.000000
f 31/138/31 48/141/48 56/139/56
vt 0.646465 0.000000
f 48/138/48 20/142/20 84/141/84
vt 0.101010 0.000000
f 20/143/20 134/142/134 118/138/118
vt 0.368687 0.000000
f 70/140/70 38/144/38 32/132/32
vt 0.651515 0.000000
f 32/143/32 48/145/48 31/142/31
vt 0.656566 0.000000
f 10/143/10 100/146/100 131/145/131
vt 0.095960 0.000000
f 70/147/70 41/146/41 38/143/38
vt 0.661616 0.000000
f 33/147/33 70/148/70 61/146/61
vt 0.090909 0.000000
f 84/149/84 20/148/20 104/147/104
vt 0.666667 0.000000
f 32/149/32 38/150/38 26/148/26
vt 0.671717 0.000000
f 117/149/117 108/151/108 35/150/35
vt 0.085859 0.000000
f 50/152/50 31/151/31 51/149/51
vt 0.373737 0.000000
f 49/140/49 41/153/41 70/144/70
vt 0.676768 0.000000
f 32/152/32 26/154/26 48/151/48
vt 0.080808 0.000000
f 41/155/41 28/154/28 80/152/80
vt 0.681818 0.000000
f 93/155/93 15/156/15 129/154/129
vt 0.075758 0.000000
f 48/157/48 26/156/26 20/155/20
vt 0.070707 0.000000
f 31/158/31 56/156/56 93/157/93
vt 0.686869 0.000000
f 51/158/51 72/159/72 62/156/62
vt 0.378788 0.000000
f 126/140/126 47/160/47 12/153/12
vt 0.065657 0.000000
f 95/161/95 17/159/17 22/158/22
vt 0.691919 0.000000
f 27/161/27 115/162/115 78/159/78
vt 0.060606 0.000000
f 11/163/11 30/162/30 19/161/19
vt 0.055556 0.000000
f 30/164/30 114/162/114 103/163/103
vt 0.050505 0.000000
f 54/165/54 10/162/10 68/164/68
vt 0.045455 0.000000
f 98/166/98 125/162/125 89/165/89
vt 0.494949 0.000000
f 12/167/12 47/160/47 125/140/125
vt 0.489899 0.000000
f 104/168/104 118/160/118 107/167/107
vt 0.383838 0.000000
f 78/168/78 132/169/132 25/160/25
vt 0.484848 0.000000
f 105/170/105 117/169/117 126/168/126
vt 0.479798 0.000000
f 31/171/31 93/169/93 72/170/72
vt 0.474747 0.000000
f 26/172/26 42/169/42 134/171/134
vt 0.696970 0.000000
f 113/166/113 37/173/37 24/162/24
vt 0.040404 0.000000
f 29/174/29 83/173/83 67/166/67
vt 0.388889 0.000000
f 69/172/69 63/175/63 100/169/100
vt 0.469697 0.000000
f 87/176/87 13/175/13 127/172/127
vt 0.464646 0.000000
f 39/177/39 71/175/71 60/176/60
vt 0.393939 0.000000
f 125/177/125 30/178/30 11/175/11
vt 0.035354 0.000000
f 34/179/34 84/173/84 128/174/128
vt 0.459596 0.000000
f 126/180/126 117/178/117 47/177/47
vt 0.398990 0.000000
f 68/180/68 83/181/83 29/178/29
vt 0.454545 0.000000
f 7/182/7 18/181/18 2/180/2
vt 0.449495 0.000000
f 101/183/101 122/181/122 137/182/137
vt 0.030303 0.000000
f 53/184/53 67/173/67 65/179/65
vt 0.404040 0.000000
f 25/183/25 132/185/132 114/181/114
vt 0.444444 0.000000
f 39/186/39 73/185/73 33/183/33
vt 0.439394 0.000000
f 114/187/114 110/185/110 120/186/120
vt 0.434343 0.000000
f 136/188/136 103/185/103 120/187/120
vt 0.409091 0.000000
f 89/188/89 11/189/11 99/185/99
vt 0.025253 0.000000
f 19/190/19 30/173/30 103/184/103
vt 0.429293 0.000000
f 30/191/30 25/189/25 114/188/114
vt 0.414141 0.000000
f 16/191/16 21/192/21 135/189/135
vt 0.424242 0.000000
f 27/193/27 133/192/133 115/191/115
vt 0.419192 0.000000
f 7/193/7 102/194/102 101/192/101
vt 0.020202 0.000000
f 87/195/87 127/173/127 14/190/14
vt 0.015152 0.000000
f 59/196/59 124/173/124 96/195/96
vt 0.010101 0.000000
f 7/197/7 101/173/101 18/196/18
vt 0.005051 0.000000
f 85/198/85 129/173/129 130/197/130
vt 0.000000 0.000000
f 125/199/125 47/173/47 55/198/55
f 96/1/96 124/3/124 13/2/13
f 67/1/67 83/2/83 124/4/124
f 78/1/78 115/4/115 132/5/132
f 137/6/137 4/1/4 6/5/6
f 37/7/37 46/6/46 81/5/81
f 90/7/90 65/5/65 66/8/66
f 90/7/90 66/8/66 9/9/9
f 87/10/87 97/7/97 123/9/123
f 137/10/137 6/9/6 5/11/5
f 92/10/92 9/11/9 123/12/123
f 96/13/96 87/10/87 9/12/9
f 92/13/92 123/12/123 82/14/82
f 82/15/82 123/13/123 91/14/91
f 14/15/14 127/14/127 91/16/91
f 137/15/137 5/16/5 1/17/1
f 137/18/137 1/15/1 112/17/112
f 91/18/91 123/17/123 8/19/8
f 97/20/97 14/18/14 8/19/8
f 79/20/79 71/19/71 39/21/39
f 127/22/127 13/20/13 82/21/82
f 13/23/13 124/22/124 92/21/92
f 124/23/124 83/21/83 90/24/90
f 44/25/44 113/23/113 111/24/111
f 83/25/83 10/24/10 131/26/131
f 117/27/117 116/25/116 108/26/108
f 26/28/26 38/27/38 42/26/42
f 38/28/38 41/26/41 80/29/80
f 41/28/41 79/29/79 28/30/28
f 71/30/71 57/29/57 60/31/60
f 57/32/57 49/28/49 73/30/73
f 25/32/25 113/30/113 44/33/44
f 49/34/49 70/30/70 33/31/33
f 32/32/32 31/33/31 50/35/50
f 72/32/72 58/35/58 62/36/62
f 93/37/93 56/34/56 15/31/15
f 94/32/94 21/36/21 16/38/16
f 27/32/27 78/38/78 43/39/43
f 133/40/133 95/37/95 22/31/22
f 113/32/113 7/39/7 111/41/111
f 7/32/7 2/41/2 4/42/4
f 3/43/3 138/40/138 5/31/5
f 106/32/106 18/42/18 112/44/112
f 18/32/18 101/44/101 137/45/137
f 101/46/101 102/43/102 122/31/122
f 24/32/24 37/45/37 45/47/45
f 46/48/46 54/32/54 36/47/36
f 29/48/29 67/47/67 53/49/53
f 67/50/67 59/46/59 65/31/65
f 59/48/59 96/49/96 66/51/66
f 12/48/12 125/51/125 98/52/98
f 11/50/11 19/31/19 99/53/99
f 46/54/46 36/50/36 81/53/81
f 103/55/103 114/54/114 120/53/120
f 37/56/37 81/48/81 45/52/45
f 14/57/14 91/55/91 8/53/8
f 127/56/127 82/52/82 91/58/91
f 5/59/5 138/57/138 1/53/1
f 13/59/13 92/53/92 82/60/82
f 124/61/124 90/59/90 92/60/92
f 83/62/83 131/56/131 90/58/90
f 55/62/55 76/58/76 52/63/52
f 47/64/47 35/61/35 76/60/76
f 38/65/38 80/64/80 42/60/42
f 79/62/79 39/63/39 28/66/28
f 39/67/39 60/62/60 73/66/73
f 61/65/61 32/60/32 50/68/50
f 132/69/132 23/65/23 110/68/110
f 40/67/40 25/66/25 44/70/44
f 4/71/4 2/69/2 6/68/6
f 6/72/6 3/67/3 5/70/5
f 1/73/1 106/71/106 112/68/112
f 18/72/18 137/70/137 112/74/112
f 102/75/102 121/73/121 122/68/122
f 24/75/24 45/68/45 121/76/121
f 77/72/77 68/74/68 64/77/64
f 66/78/66 96/75/96 9/76/9
f 123/79/123 97/72/97 8/77/8
# 276 faces, 199 coords texture

# End of File
