# Blender v2.76 (sub 0) OBJ File: 'untitled.blend'
# www.blender.org
mtllib struct.mtl
o Cube.001
v -3.386226 -0.776164 1.227484
v -3.386226 1.223836 1.227484
v -3.386226 -0.776164 1.363347
v -3.386226 1.223836 1.363347
v 0.915392 -0.776164 1.227484
v 0.915392 1.223836 1.227484
v 0.915392 -0.776164 1.363347
v 0.915392 1.223836 1.363347
v -3.523671 -0.909692 -1.159252
v -3.523671 1.090308 -1.159252
v -3.523671 -0.909692 -1.023390
v -3.523671 1.090308 -1.023390
v 0.777948 -0.909692 -1.159252
v 0.777948 1.090308 -1.159252
v 0.777948 -0.909692 -1.023390
v 0.777948 1.090308 -1.023390
vn 1.000000 0.000000 0.000000
vn 0.000000 0.000000 -1.000000
vn -1.000000 0.000000 0.000000
vn 0.000000 0.000000 1.000000
vn 0.000000 1.000000 0.000000
vn 0.000000 -1.000000 0.000000
usemtl Material.003
s off
f 10//1 12//1 11//1 9//1
f 12//2 16//2 15//2 11//2
f 16//3 14//3 13//3 15//3
f 14//4 10//4 9//4 13//4
f 9//5 11//5 15//5 13//5
f 14//6 16//6 12//6 10//6
usemtl Material.002
f 2//1 4//1 3//1 1//1
f 4//2 8//2 7//2 3//2
f 8//3 6//3 5//3 7//3
f 6//4 2//4 1//4 5//4
f 1//5 3//5 7//5 5//5
f 6//6 8//6 4//6 2//6
