<?xml version="1.0" encoding="UTF-8" standalone="no"?>
<!-- Created with Bouml (http://bouml.free.fr/) -->
<!DOCTYPE svg PUBLIC "-//W3C//DTD SVG 1.1//EN" "http://www.w3.org/Graphics/SVG/1.1/DTD/svg11.dtd">
<svg width="1121" height="654" version="1.1" xmlns="http://www.w3.org/2000/svg">
<g>
	<rect fill="#f6f6f6" stroke="black" stroke-width="1" stroke-opacity="1" x="8" y="9" width="437" height="29" />
	<rect fill="#808080" stroke="none" stroke-opacity="1" x="445" y="15" width="5" height="22" />
	<text font-family="Helvetica" font-size="15" fill="#000000" xml:space="preserve" text-anchor="middle" x="227" y="31">sofa</text>
	<rect fill="#f6f6f6" stroke="black" stroke-width="1" stroke-opacity="1" x="8" y="38" width="1095" height="598" />
	<rect fill="#808080" stroke="none" stroke-opacity="1" x="1103" y="44" width="5" height="597" />
	<rect fill="#808080" stroke="none" stroke-opacity="1" x="14" y="636" width="1094" height="5" />
</g>
<g>
	<rect fill="#ededed" stroke="black" stroke-width="1" stroke-opacity="1" x="41" y="50" width="417" height="29" />
	<rect fill="#808080" stroke="none" stroke-opacity="1" x="458" y="56" width="5" height="22" />
	<text font-family="Helvetica" font-size="15" fill="#000000" xml:space="preserve" text-anchor="middle" x="250" y="72">core</text>
	<rect fill="#ededed" stroke="black" stroke-width="1" stroke-opacity="1" x="41" y="79" width="1046" height="537" />
	<rect fill="#808080" stroke="none" stroke-opacity="1" x="1087" y="85" width="5" height="536" />
	<rect fill="#808080" stroke="none" stroke-opacity="1" x="47" y="616" width="1045" height="5" />
</g>
<g>
	<rect fill="#dcdcdc" stroke="black" stroke-width="1" stroke-opacity="1" x="80" y="276" width="396" height="29" />
	<rect fill="#808080" stroke="none" stroke-opacity="1" x="476" y="282" width="5" height="22" />
	<text font-family="Helvetica" font-size="15" fill="#000000" xml:space="preserve" text-anchor="middle" x="278" y="298">behavior</text>
	<rect fill="#dcdcdc" stroke="black" stroke-width="1" stroke-opacity="1" x="80" y="305" width="993" height="289" />
	<rect fill="#808080" stroke="none" stroke-opacity="1" x="1073" y="311" width="5" height="288" />
	<rect fill="#808080" stroke="none" stroke-opacity="1" x="86" y="594" width="992" height="5" />
</g>
<g>
	<rect fill="#dcdcdc" stroke="black" stroke-width="1" stroke-opacity="1" x="779" y="110" width="115" height="29" />
	<rect fill="#808080" stroke="none" stroke-opacity="1" x="894" y="116" width="5" height="22" />
	<text font-family="Helvetica" font-size="15" fill="#000000" xml:space="preserve" text-anchor="middle" x="837" y="132">objectmodel</text>
	<rect fill="#dcdcdc" stroke="black" stroke-width="1" stroke-opacity="1" x="779" y="139" width="290" height="87" />
	<rect fill="#808080" stroke="none" stroke-opacity="1" x="1069" y="145" width="5" height="86" />
	<rect fill="#808080" stroke="none" stroke-opacity="1" x="785" y="226" width="289" height="5" />
</g>
<g>
	<rect fill="#808080" stroke="none" stroke-opacity="1" x="917" y="159" width="5" height="53" />
	<rect fill="#808080" stroke="none" stroke-opacity="1" x="801" y="207" width="121" height="5" />
	<rect fill="#ffd700" stroke="black" stroke-width="1" stroke-opacity="1" x="795" y="153" width="122" height="54" />
	<text font-family="Helvetica" font-size="15" fill="#000000" xml:space="preserve" font-weight="bold" font-style="italic" text-anchor="middle" x="856" y="171">BaseObject</text>
</g>
<g>
	<rect fill="#808080" stroke="none" stroke-opacity="1" x="738" y="318" width="5" height="53" />
	<rect fill="#808080" stroke="none" stroke-opacity="1" x="584" y="366" width="159" height="5" />
	<rect fill="#ffffc0" stroke="black" stroke-width="1" stroke-opacity="1" x="578" y="312" width="160" height="54" />
	<text font-family="Helvetica" font-size="15" fill="#000000" xml:space="preserve" font-weight="bold" font-style="italic" text-anchor="middle" x="658" y="330">BaseForceField</text>
</g>
<g>
	<rect fill="#808080" stroke="none" stroke-opacity="1" x="565" y="105" width="5" height="53" />
	<rect fill="#808080" stroke="none" stroke-opacity="1" x="463" y="153" width="107" height="5" />
	<rect fill="#ffdca8" stroke="black" stroke-width="1" stroke-opacity="1" x="457" y="99" width="108" height="54" />
	<text font-family="Helvetica" font-size="15" fill="#000000" xml:space="preserve" font-weight="bold" font-style="italic" text-anchor="middle" x="511" y="117">BaseState</text>
</g>
<g>
	<line stroke="black" stroke-opacity="1" x1="697" y1="311" x2="814" y2="216" />
	<line stroke="black" stroke-opacity="1" x1="819" y1="213" x2="810" y2="212" />
	<line stroke="black" stroke-opacity="1" x1="819" y1="213" x2="818" y2="221" />
	<line stroke="black" stroke-opacity="1" x1="810" y1="212" x2="818" y2="221" />
</g>
<g>
	<line stroke="black" stroke-opacity="1" x1="571" y1="136" x2="788" y2="170" />
	<line stroke="black" stroke-opacity="1" x1="794" y1="171" x2="789" y2="164" />
	<line stroke="black" stroke-opacity="1" x1="794" y1="171" x2="787" y2="175" />
	<line stroke="black" stroke-opacity="1" x1="789" y1="164" x2="787" y2="175" />
</g>
<g>
	<rect fill="#808080" stroke="none" stroke-opacity="1" x="647" y="402" width="5" height="77" />
	<rect fill="#808080" stroke="none" stroke-opacity="1" x="541" y="474" width="111" height="5" />
	<rect fill="#ffd700" stroke="black" stroke-width="1" stroke-opacity="1" x="535" y="396" width="112" height="78" />
	<text font-family="Helvetica" font-size="15" fill="#000000" xml:space="preserve" font-weight="bold" font-style="italic" text-anchor="middle" x="591" y="438">ForceField</text>
</g>
<g>
	<rect fill="#808080" stroke="none" stroke-opacity="1" x="541" y="195" width="5" height="77" />
	<rect fill="#808080" stroke="none" stroke-opacity="1" x="487" y="267" width="59" height="5" />
	<rect fill="#c05800" stroke="black" stroke-width="1" stroke-opacity="1" x="481" y="189" width="60" height="78" />
	<text font-family="Helvetica" font-size="15" fill="#000000" xml:space="preserve" font-weight="bold" font-style="italic" text-anchor="middle" x="511" y="231">State</text>
</g>
<g>
	<rect fill="#808080" stroke="none" stroke-opacity="1" x="921" y="414" width="5" height="53" />
	<rect fill="#808080" stroke="none" stroke-opacity="1" x="665" y="462" width="261" height="5" />
	<rect fill="#ffffc0" stroke="black" stroke-width="1" stroke-opacity="1" x="659" y="408" width="262" height="54" />
	<text font-family="Helvetica" font-size="15" fill="#000000" xml:space="preserve" font-weight="bold" font-style="italic" text-anchor="middle" x="790" y="426">BaseInteractionForceField</text>
</g>
<g>
	<rect fill="#808080" stroke="none" stroke-opacity="1" x="345" y="93" width="5" height="77" />
	<rect fill="#808080" stroke="none" stroke-opacity="1" x="275" y="165" width="75" height="5" />
	<rect fill="#ffa858" stroke="black" stroke-width="1" stroke-opacity="1" x="269" y="87" width="76" height="78" />
	<text font-family="Helvetica" font-size="15" fill="#000000" xml:space="preserve" font-weight="bold" text-anchor="middle" x="307" y="129">TVecId</text>
</g>
<g>
	<rect fill="white" stroke-dasharray="4,4" stroke="black" stroke-width="1" stroke-opacity="1" x="614" y="378" width="107" height="35" />
	<text font-family="Helvetica" font-size="15" fill="#000000" xml:space="preserve" text-anchor="middle" x="668" y="403">DataTypes</text>
</g>
<g>
	<rect fill="white" stroke-dasharray="4,4" stroke="black" stroke-width="1" stroke-opacity="1" x="525" y="171" width="107" height="35" />
	<text font-family="Helvetica" font-size="15" fill="#000000" xml:space="preserve" text-anchor="middle" x="579" y="196">DataTypes</text>
</g>
<g>
	<rect fill="white" stroke-dasharray="4,4" stroke="black" stroke-width="1" stroke-opacity="1" x="324" y="69" width="143" height="35" />
	<text font-family="Helvetica" font-size="15" fill="#000000" xml:space="preserve" text-anchor="middle" x="396" y="94">vtype, vaccess</text>
</g>
<g>
	<line stroke="black" stroke-opacity="1" x1="622" y1="395" x2="632" y2="377" />
	<line stroke="black" stroke-opacity="1" x1="636" y1="372" x2="627" y2="374" />
	<line stroke="black" stroke-opacity="1" x1="636" y1="372" x2="638" y2="380" />
	<line stroke="black" stroke-opacity="1" x1="627" y1="374" x2="638" y2="380" />
</g>
<g>
	<line stroke="black" stroke-opacity="1" x1="514" y1="188" x2="514" y2="165" />
	<line stroke="black" stroke-opacity="1" x1="514" y1="159" x2="508" y2="165" />
	<line stroke="black" stroke-opacity="1" x1="514" y1="159" x2="520" y2="165" />
	<line stroke="black" stroke-opacity="1" x1="508" y1="165" x2="520" y2="165" />
</g>
<g>
	<line stroke="black" stroke-opacity="1" x1="750" y1="407" x2="706" y2="375" />
	<line stroke="black" stroke-opacity="1" x1="702" y1="372" x2="703" y2="380" />
	<line stroke="black" stroke-opacity="1" x1="702" y1="372" x2="710" y2="370" />
	<line stroke="black" stroke-opacity="1" x1="703" y1="380" x2="710" y2="370" />
</g>
<g>
	<rect fill="#808080" stroke="none" stroke-opacity="1" x="1059" y="466" width="5" height="53" />
	<rect fill="#808080" stroke="none" stroke-opacity="1" x="933" y="514" width="131" height="5" />
	<rect fill="#ffd700" stroke="black" stroke-width="1" stroke-opacity="1" x="927" y="460" width="132" height="54" />
	<text font-family="Helvetica" font-size="15" fill="#000000" xml:space="preserve" font-weight="bold" font-style="italic" text-anchor="middle" x="993" y="478">LinearSolver</text>
</g>
<g>
	<rect fill="#808080" stroke="none" stroke-opacity="1" x="823" y="508" width="5" height="77" />
	<rect fill="#808080" stroke="none" stroke-opacity="1" x="575" y="580" width="253" height="5" />
	<rect fill="#ffd700" stroke="black" stroke-width="1" stroke-opacity="1" x="569" y="502" width="254" height="78" />
	<text font-family="Helvetica" font-size="15" fill="#000000" xml:space="preserve" font-weight="bold" font-style="italic" text-anchor="middle" x="696" y="544">PairInteractionForceField</text>
</g>
<g>
	<line stroke="black" stroke-opacity="1" x1="981" y1="459" x2="874" y2="218" />
	<line stroke="black" stroke-opacity="1" x1="872" y1="213" x2="868" y2="220" />
	<line stroke="black" stroke-opacity="1" x1="872" y1="213" x2="879" y2="216" />
	<line stroke="black" stroke-opacity="1" x1="868" y1="220" x2="879" y2="216" />
</g>
<g>
	<rect fill="white" stroke-dasharray="4,4" stroke="black" stroke-width="1" stroke-opacity="1" x="742" y="484" width="129" height="35" />
	<text font-family="Helvetica" font-size="15" fill="#000000" xml:space="preserve" text-anchor="middle" x="807" y="509">DataTypes</text>
</g>
<g>
	<line stroke="black" stroke-opacity="1" x1="735" y1="501" x2="760" y2="472" />
	<line stroke="black" stroke-opacity="1" x1="764" y1="468" x2="755" y2="468" />
	<line stroke="black" stroke-opacity="1" x1="764" y1="468" x2="764" y2="476" />
	<line stroke="black" stroke-opacity="1" x1="755" y1="468" x2="764" y2="476" />
</g>
<g>
	<rect fill="#808080" stroke="none" stroke-opacity="1" x="1059" y="394" width="5" height="53" />
	<rect fill="#808080" stroke="none" stroke-opacity="1" x="953" y="442" width="111" height="5" />
	<rect fill="#ffd700" stroke="black" stroke-width="1" stroke-opacity="1" x="947" y="388" width="112" height="54" />
	<text font-family="Helvetica" font-size="15" fill="#000000" xml:space="preserve" font-weight="bold" font-style="italic" text-anchor="middle" x="1003" y="406">OdeSolver</text>
</g>
<g>
	<line stroke="black" stroke-opacity="1" x1="986" y1="387" x2="880" y2="218" />
	<line stroke="black" stroke-opacity="1" x1="877" y1="213" x2="875" y2="221" />
	<line stroke="black" stroke-opacity="1" x1="877" y1="213" x2="885" y2="214" />
	<line stroke="black" stroke-opacity="1" x1="875" y1="221" x2="885" y2="214" />
</g>
<g>
	<rect fill="#808080" stroke="none" stroke-opacity="1" x="918" y="318" width="5" height="53" />
	<rect fill="#808080" stroke="none" stroke-opacity="1" x="770" y="366" width="153" height="5" />
	<rect fill="#ffffc0" stroke="black" stroke-width="1" stroke-opacity="1" x="764" y="312" width="154" height="54" />
	<text font-family="Helvetica" font-size="15" fill="#000000" xml:space="preserve" font-weight="bold" font-style="italic" text-anchor="middle" x="841" y="330">BaseController</text>
</g>
<g>
	<line stroke="black" stroke-opacity="1" x1="846" y1="311" x2="854" y2="218" />
	<line stroke="black" stroke-opacity="1" x1="855" y1="213" x2="848" y2="218" />
	<line stroke="black" stroke-opacity="1" x1="855" y1="213" x2="860" y2="219" />
	<line stroke="black" stroke-opacity="1" x1="848" y1="218" x2="860" y2="219" />
</g>
<g>
	<rect fill="#808080" stroke="none" stroke-opacity="1" x="1061" y="318" width="5" height="53" />
	<rect fill="#808080" stroke="none" stroke-opacity="1" x="929" y="366" width="137" height="5" />
	<rect fill="#ffd700" stroke="black" stroke-width="1" stroke-opacity="1" x="923" y="312" width="138" height="54" />
	<text font-family="Helvetica" font-size="15" fill="#000000" xml:space="preserve" font-weight="bold" font-style="italic" text-anchor="middle" x="992" y="330">MasterSolver</text>
</g>
<g>
	<line stroke="black" stroke-opacity="1" x1="968" y1="311" x2="887" y2="217" />
	<line stroke="black" stroke-opacity="1" x1="884" y1="213" x2="883" y2="221" />
	<line stroke="black" stroke-opacity="1" x1="884" y1="213" x2="892" y2="213" />
	<line stroke="black" stroke-opacity="1" x1="883" y1="221" x2="892" y2="213" />
</g>
<g>
	<rect fill="#808080" stroke="none" stroke-opacity="1" x="490" y="402" width="5" height="77" />
	<rect fill="#808080" stroke="none" stroke-opacity="1" x="434" y="474" width="61" height="5" />
	<rect fill="#ffd700" stroke="black" stroke-width="1" stroke-opacity="1" x="428" y="396" width="62" height="78" />
	<text font-family="Helvetica" font-size="15" fill="#000000" xml:space="preserve" font-weight="bold" font-style="italic" text-anchor="middle" x="459" y="438">Mass</text>
</g>
<g>
	<rect fill="#808080" stroke="none" stroke-opacity="1" x="212" y="105" width="5" height="53" />
	<rect fill="#808080" stroke="none" stroke-opacity="1" x="88" y="153" width="129" height="5" />
	<rect fill="#ff8000" stroke="black" stroke-width="1" stroke-opacity="1" x="82" y="99" width="130" height="54" />
	<text font-family="Helvetica" font-size="15" fill="#000000" xml:space="preserve" font-weight="bold" text-anchor="middle" x="147" y="117">ExecParams</text>
</g>
<g>
	<rect fill="white" stroke-dasharray="4,4" stroke="black" stroke-width="1" stroke-opacity="1" x="473" y="378" width="107" height="35" />
	<text font-family="Helvetica" font-size="15" fill="#000000" xml:space="preserve" text-anchor="middle" x="527" y="403">DataTypes</text>
</g>
<g>
	<line stroke="black" stroke-opacity="1" x1="496" y1="438" x2="528" y2="438" />
	<line stroke="black" stroke-opacity="1" x1="534" y1="438" x2="528" y2="432" />
	<line stroke="black" stroke-opacity="1" x1="534" y1="438" x2="528" y2="444" />
	<line stroke="black" stroke-opacity="1" x1="528" y1="432" x2="528" y2="444" />
</g>
<g>
	<rect fill="#808080" stroke="none" stroke-opacity="1" x="508" y="508" width="5" height="77" />
	<rect fill="#808080" stroke="none" stroke-opacity="1" x="242" y="580" width="271" height="5" />
	<rect fill="#ffffc0" stroke="black" stroke-width="1" stroke-opacity="1" x="236" y="502" width="272" height="78" />
	<text font-family="Helvetica" font-size="15" fill="#000000" xml:space="preserve" font-weight="bold" font-style="italic" text-anchor="middle" x="372" y="544">MixedInteractionForceField</text>
</g>
<g>
	<rect fill="white" stroke-dasharray="4,4" stroke="black" stroke-width="1" stroke-opacity="1" x="421" y="484" width="237" height="35" />
	<text font-family="Helvetica" font-size="15" fill="#000000" xml:space="preserve" text-anchor="middle" x="540" y="509">DataTypes1, DataTypes2</text>
</g>
<g>
	<rect fill="#808080" stroke="none" stroke-opacity="1" x="1042" y="159" width="5" height="53" />
	<rect fill="#808080" stroke="none" stroke-opacity="1" x="988" y="207" width="59" height="5" />
	<rect fill="#ffeb60" stroke="black" stroke-width="1" stroke-opacity="1" x="982" y="153" width="60" height="54" />
	<text font-family="Helvetica" font-size="15" fill="#000000" xml:space="preserve" font-weight="bold" font-style="italic" text-anchor="middle" x="1012" y="171">Base</text>
</g>
<g>
	<rect fill="#808080" stroke="none" stroke-opacity="1" x="243" y="207" width="5" height="53" />
	<rect fill="#808080" stroke="none" stroke-opacity="1" x="57" y="255" width="191" height="5" />
	<rect fill="#c05800" stroke="black" stroke-width="1" stroke-opacity="1" x="51" y="201" width="192" height="54" />
	<text font-family="Helvetica" font-size="15" fill="#000000" xml:space="preserve" font-weight="bold" text-anchor="middle" x="147" y="219">MechanicalParams</text>
</g>
<g>
	<rect fill="#808080" stroke="none" stroke-opacity="1" x="1061" y="532" width="5" height="53" />
	<rect fill="#808080" stroke="none" stroke-opacity="1" x="841" y="580" width="225" height="5" />
	<rect fill="#ffa858" stroke="black" stroke-width="1" stroke-opacity="1" x="835" y="526" width="226" height="54" />
	<text font-family="Helvetica" font-size="15" fill="#000000" xml:space="preserve" font-weight="bold" font-style="italic" text-anchor="middle" x="948" y="544">BaseVectorOperations</text>
</g>
<g>
	<line stroke="black" stroke-opacity="1" x1="514" y1="507" x2="655" y2="469" />
	<line stroke="black" stroke-opacity="1" x1="661" y1="468" x2="653" y2="463" />
	<line stroke="black" stroke-opacity="1" x1="661" y1="468" x2="656" y2="475" />
	<line stroke="black" stroke-opacity="1" x1="653" y1="463" x2="656" y2="475" />
</g>
<g>
	<line stroke="black" stroke-opacity="1" x1="923" y1="183" x2="975" y2="183" />
	<line stroke="black" stroke-opacity="1" x1="981" y1="183" x2="975" y2="177" />
	<line stroke="black" stroke-opacity="1" x1="981" y1="183" x2="975" y2="189" />
	<line stroke="black" stroke-opacity="1" x1="975" y1="177" x2="975" y2="189" />
</g>
<g>
	<line stroke="black" stroke-opacity="1" x1="150" y1="200" x2="150" y2="165" />
	<line stroke="black" stroke-opacity="1" x1="150" y1="159" x2="144" y2="165" />
	<line stroke="black" stroke-opacity="1" x1="150" y1="159" x2="156" y2="165" />
	<line stroke="black" stroke-opacity="1" x1="144" y1="165" x2="156" y2="165" />
</g>
<g>
	<rect fill="#808080" stroke="none" stroke-opacity="1" x="207" y="508" width="5" height="77" />
	<rect fill="#808080" stroke="none" stroke-opacity="1" x="93" y="580" width="119" height="5" />
	<rect fill="#ffd700" stroke="black" stroke-width="1" stroke-opacity="1" x="87" y="502" width="120" height="78" />
	<text font-family="Helvetica" font-size="15" fill="#000000" xml:space="preserve" font-weight="bold" text-anchor="middle" x="147" y="544">MultiMatrix</text>
</g>
<g>
	<rect fill="white" stroke-dasharray="4,4" stroke="black" stroke-width="1" stroke-opacity="1" x="171" y="484" width="70" height="35" />
	<text font-family="Helvetica" font-size="15" fill="#000000" xml:space="preserve" text-anchor="middle" x="206" y="509">Parent</text>
</g>
<g>
	<rect fill="#808080" stroke="none" stroke-opacity="1" x="378" y="404" width="5" height="77" />
	<rect fill="#808080" stroke="none" stroke-opacity="1" x="216" y="476" width="167" height="5" />
	<rect fill="#ffd700" stroke="black" stroke-width="1" stroke-opacity="1" x="210" y="398" width="168" height="78" />
	<text font-family="Helvetica" font-size="15" fill="#000000" xml:space="preserve" font-weight="bold" font-style="italic" text-anchor="middle" x="294" y="440">MechanicalState</text>
</g>
<g>
	<rect fill="#808080" stroke="none" stroke-opacity="1" x="371" y="195" width="5" height="77" />
	<rect fill="#808080" stroke="none" stroke-opacity="1" x="253" y="267" width="123" height="5" />
	<rect fill="#ffa858" stroke="black" stroke-width="1" stroke-opacity="1" x="247" y="189" width="124" height="78" />
	<text font-family="Helvetica" font-size="15" fill="#000000" xml:space="preserve" font-weight="bold" text-anchor="middle" x="309" y="231">TMultiVecId</text>
</g>
<g>
	<rect fill="white" stroke-dasharray="4,4" stroke="black" stroke-width="1" stroke-opacity="1" x="326" y="380" width="107" height="35" />
	<text font-family="Helvetica" font-size="15" fill="#000000" xml:space="preserve" text-anchor="middle" x="380" y="405">DataTypes</text>
</g>
<g>
	<rect fill="white" stroke-dasharray="4,4" stroke="black" stroke-width="1" stroke-opacity="1" x="334" y="171" width="143" height="35" />
	<text font-family="Helvetica" font-size="15" fill="#000000" xml:space="preserve" text-anchor="middle" x="406" y="196">vtype, vaccess</text>
</g>
<g>
	<rect fill="#808080" stroke="none" stroke-opacity="1" x="752" y="105" width="5" height="53" />
	<rect fill="#808080" stroke="none" stroke-opacity="1" x="618" y="153" width="139" height="5" />
	<rect fill="#ffdca8" stroke="black" stroke-width="1" stroke-opacity="1" x="612" y="99" width="140" height="54" />
	<text font-family="Helvetica" font-size="15" fill="#000000" xml:space="preserve" font-weight="bold" font-style="italic" text-anchor="middle" x="682" y="117">BaseMapping</text>
</g>
<g>
	<line stroke="black" stroke-opacity="1" x1="338" y1="397" x2="475" y2="265" />
	<line stroke="black" stroke-opacity="1" x1="480" y1="261" x2="471" y2="260" />
	<line stroke="black" stroke-opacity="1" x1="480" y1="261" x2="479" y2="269" />
	<line stroke="black" stroke-opacity="1" x1="471" y1="260" x2="479" y2="269" />
</g>
<g>
	<line stroke="black" stroke-opacity="1" x1="758" y1="151" x2="788" y2="160" />
	<line stroke="black" stroke-opacity="1" x1="794" y1="162" x2="790" y2="154" />
	<line stroke="black" stroke-opacity="1" x1="794" y1="162" x2="786" y2="165" />
	<line stroke="black" stroke-opacity="1" x1="790" y1="154" x2="786" y2="165" />
</g>
<g>
	<rect fill="#808080" stroke="none" stroke-opacity="1" x="194" y="402" width="5" height="77" />
	<rect fill="#808080" stroke="none" stroke-opacity="1" x="94" y="474" width="105" height="5" />
	<rect fill="#ff8000" stroke="black" stroke-width="1" stroke-opacity="1" x="88" y="396" width="106" height="78" />
	<text font-family="Helvetica" font-size="15" fill="#000000" xml:space="preserve" font-weight="bold" text-anchor="middle" x="141" y="438">TMultiVec</text>
</g>
<g>
	<rect fill="white" stroke-dasharray="4,4" stroke="black" stroke-width="1" stroke-opacity="1" x="163" y="378" width="59" height="35" />
	<text font-family="Helvetica" font-size="15" fill="#000000" xml:space="preserve" text-anchor="middle" x="193" y="403">vtype</text>
</g>
<g>
	<rect fill="#808080" stroke="none" stroke-opacity="1" x="402" y="318" width="5" height="53" />
	<rect fill="#808080" stroke="none" stroke-opacity="1" x="192" y="366" width="215" height="5" />
	<rect fill="#ffffc0" stroke="black" stroke-width="1" stroke-opacity="1" x="186" y="312" width="216" height="54" />
	<text font-family="Helvetica" font-size="15" fill="#000000" xml:space="preserve" font-weight="bold" font-style="italic" text-anchor="middle" x="294" y="330">BaseMechanicalState</text>
</g>
<g>
	<line stroke="black" stroke-opacity="1" x1="297" y1="397" x2="297" y2="378" />
	<line stroke="black" stroke-opacity="1" x1="297" y1="372" x2="291" y2="378" />
	<line stroke="black" stroke-opacity="1" x1="297" y1="372" x2="303" y2="378" />
	<line stroke="black" stroke-opacity="1" x1="291" y1="378" x2="303" y2="378" />
</g>
<g>
	<line stroke="black" stroke-opacity="1" x1="326" y1="311" x2="474" y2="163" />
	<line stroke="black" stroke-opacity="1" x1="479" y1="159" x2="470" y2="158" />
	<line stroke="black" stroke-opacity="1" x1="479" y1="159" x2="478" y2="167" />
	<line stroke="black" stroke-opacity="1" x1="470" y1="158" x2="478" y2="167" />
</g>
<g>
	<rect fill="#808080" stroke="none" stroke-opacity="1" x="513" y="318" width="5" height="53" />
	<rect fill="#808080" stroke="none" stroke-opacity="1" x="411" y="366" width="107" height="5" />
	<rect fill="#ffffc0" stroke="black" stroke-width="1" stroke-opacity="1" x="405" y="312" width="108" height="54" />
	<text font-family="Helvetica" font-size="15" fill="#000000" xml:space="preserve" font-weight="bold" font-style="italic" text-anchor="middle" x="459" y="330">BaseMass</text>
</g>
<g>
	<line stroke="black" stroke-opacity="1" x1="519" y1="318" x2="788" y2="209" />
	<line stroke="black" stroke-opacity="1" x1="794" y1="207" x2="786" y2="203" />
	<line stroke="black" stroke-opacity="1" x1="794" y1="207" x2="790" y2="214" />
	<line stroke="black" stroke-opacity="1" x1="786" y1="203" x2="790" y2="214" />
</g>
<g>
	<line stroke="black" stroke-opacity="1" x1="462" y1="395" x2="462" y2="378" />
	<line stroke="black" stroke-opacity="1" x1="462" y1="372" x2="456" y2="378" />
	<line stroke="black" stroke-opacity="1" x1="462" y1="372" x2="468" y2="378" />
	<line stroke="black" stroke-opacity="1" x1="456" y1="378" x2="468" y2="378" />
</g>
<g>
	<rect fill="#808080" stroke="none" stroke-opacity="1" x="730" y="195" width="5" height="77" />
	<rect fill="#808080" stroke="none" stroke-opacity="1" x="642" y="267" width="93" height="5" />
	<rect fill="#ff8000" stroke="black" stroke-width="1" stroke-opacity="1" x="636" y="189" width="94" height="78" />
	<text font-family="Helvetica" font-size="15" fill="#000000" xml:space="preserve" font-weight="bold" font-style="italic" text-anchor="middle" x="683" y="231">Mapping</text>
</g>
<g>
	<rect fill="white" stroke-dasharray="4,4" stroke="black" stroke-width="1" stroke-opacity="1" x="703" y="171" width="73" height="35" />
	<text font-family="Helvetica" font-size="15" fill="#000000" xml:space="preserve" text-anchor="middle" x="740" y="196">In, Out</text>
</g>
<g>
	<line stroke="black" stroke-opacity="1" x1="685" y1="188" x2="685" y2="165" />
	<line stroke="black" stroke-opacity="1" x1="685" y1="159" x2="679" y2="165" />
	<line stroke="black" stroke-opacity="1" x1="685" y1="159" x2="691" y2="165" />
	<line stroke="black" stroke-opacity="1" x1="679" y1="165" x2="691" y2="165" />
</g>
</svg>
