g 1_Visual
usemtl mat1
v -1.718603 1.952368 2.446352
v -1.982252 2.327232 1.873642
v -1.024677 2.675469 1.922071
v -1.388647 2.069890 2.467047
v 0.120549 2.592460 2.144180
v -1.658752 2.644489 1.416719
v -0.729827 3.241447 1.324405
v -0.695738 3.704357 0.088007
v -0.372262 3.826865 0.390931
v -0.240055 4.125565 -0.440993
v -0.371510 4.407248 -0.582607
v 0.275681 3.927041 -0.576245
v 0.271570 3.583322 0.855173
v 0.200830 3.386265 1.253724
v 1.245442 2.602408 1.414085
v 1.792887 1.646513 1.265713
v 1.482591 2.710976 0.508782
v 1.047306 3.367751 -0.240994
v -0.528560 4.476100 -0.599955
v -0.813593 3.627875 0.016284
v -1.560539 3.453108 -0.547816
v -1.250005 3.117568 0.567545
v -1.769357 3.062906 0.195200
v -1.469285 4.557070 -0.753426
v -1.613438 3.339213 -0.930460
v -2.181345 2.909579 -0.027207
v -2.984536 2.329995 -0.038769
v -2.855280 2.486057 0.216724
v -3.380778 1.720096 0.740280
v -3.493838 1.465174 0.530542
v -3.114177 2.224969 -0.295711
v -3.633204 1.286707 0.296892
v -3.615105 1.250650 0.673259
v -3.757706 1.060363 0.461232
v -3.465377 1.463483 0.908866
v -3.969249 0.194337 1.180208
v -3.728198 0.546007 1.337123
v -4.338883 -0.290418 0.965833
v -4.267430 -0.727721 1.391347
v -4.576937 -1.272540 1.101990
v -3.698879 0.026356 1.800647
v -2.929846 1.529503 1.693678
v -2.963250 0.913161 2.139877
v -2.981223 2.000843 1.350897
v -3.032171 2.189795 1.094012
v -2.067239 1.742719 2.376794
v -2.236132 2.202710 1.864309
v -2.174934 2.623949 1.496282
v -2.304550 2.581070 1.509953
v -2.319840 2.862365 1.107167
v -2.161849 2.919336 1.056075
v -2.179947 2.984766 0.586040
v -2.951174 2.405878 0.676029
v -4.827899 -0.482882 0.433518
v -4.208782 0.534614 -0.068584
v -3.983974 0.841410 -0.311592
v -3.513256 1.738801 -0.985759
v -3.140801 1.980209 -1.639839
v -2.391458 2.807420 -0.939115
v -2.124367 3.158405 -1.181744
v -3.783052 1.307843 -1.660226
v -4.480340 0.240316 -0.994916
v -4.720789 -0.024498 -0.562301
v -2.237987 3.237502 -1.587124
v -3.122947 2.068576 -1.839796
v -3.675540 2.164082 -1.796833
v -3.176239 3.378998 -1.700700
v -2.123900 4.800380 -0.648841
v -2.091805 4.743248 -0.809229
v -3.015830 4.772560 -0.504024
v -3.874546 3.543366 -1.260113
v -4.304572 2.292663 -1.336606
v -4.405404 1.504398 -1.300850
v -4.831588 0.263925 -0.645471
v -4.771412 1.321303 -0.563859
v -4.672470 2.451049 -0.600685
v -4.325628 3.766199 -0.646439
v 0.213680 4.300280 -0.469052
v 1.170805 3.469447 0.023354
v -0.219359 4.615908 -0.661759
v 1.324656 3.100574 0.448260
v 1.208641 3.318193 0.403673
v 1.067872 3.569390 0.887164
v 1.352971 2.856169 0.977473
v 1.169882 3.285076 1.364636
v 0.434642 4.042573 1.809183
v 0.067935 3.083667 2.292548
v -0.222130 4.465130 1.817451
v -0.673968 3.415320 2.440254
v -1.246296 3.469507 2.384106
v -0.798355 4.500744 1.805507
v -0.983472 4.495215 1.807648
v -1.419541 3.466341 2.354043
v -1.592553 2.985540 2.440284
v -2.293166 2.398701 2.479479
v -2.509533 1.378159 2.312379
v -1.959174 3.454692 2.254850
v -1.606798 4.561728 1.738051
v -2.317310 4.935720 1.249190
v -2.323509 4.590008 1.750942
v -2.768167 3.340949 2.043705
v -2.964068 2.224071 2.223472
v -2.987313 1.091988 2.239480
v -3.684004 0.394994 1.956054
v -3.556149 1.937270 1.963249
v -3.349198 3.180534 1.873328
v -2.858676 4.524832 1.621564
v -2.592120 5.019850 0.911118
v -4.356102 -0.610890 1.420956
v -4.247237 1.448396 1.616986
v -4.063280 2.908726 1.565904
v -3.690631 4.293587 1.168597
v -2.964590 4.975810 0.298676
v -4.679907 -1.300249 1.168978
v -4.565011 1.307820 1.297742
v -4.423203 2.735869 1.161735
v -3.945455 4.165165 0.831427
v -3.060820 4.918020 0.097543
v -4.945754 -0.217175 0.446492
v -4.750906 1.356458 0.439918
v -4.693230 2.629601 0.269753
v -4.339043 3.929568 -0.048821
v 0.396228 4.452956 0.362961
v 0.541524 4.299530 0.564979
v -1.707443 4.552708 -0.970296
v -1.881937 3.269114 -1.265674
v -1.831150 4.699090 -0.322722
v -1.813560 5.157170 0.662230
v -0.784062 4.974500 0.263673
v -1.537763 4.627745 -0.420774
v -0.443867 5.027890 0.133754
v -0.069040 4.808793 0.135770
v 0.206850 4.648555 1.182206
v -0.114964 4.841286 1.197513
v -0.674762 4.895640 1.178760
v -0.817242 4.906540 1.185990
v -1.205680 4.941950 1.131210
v -1.620430 5.122820 0.907985
v -0.499531 5.045810 0.672108
v -1.424233 3.145061 1.890577
v -1.694723 4.297644 0.619326
v -2.260882 4.462038 0.958159
v -1.408477 3.622179 1.525038
v -1.298401 3.964917 0.377523
v -1.713654 3.578647 0.484083
v -1.660082 3.902680 0.877123
v -2.328483 3.497743 0.343893
v -1.679277 4.329579 0.221224
v -1.680935 3.728716 0.157745
v -0.894623 4.525602 0.840444
v -2.535164 2.742453 1.773627
v -2.611380 3.117118 1.095595
v -3.058334 2.674944 1.410795
v -2.009660 2.956463 1.668261
v -2.114568 3.386020 0.965349
v -0.980283 4.350181 1.130110
v -3.220234 4.061935 0.196349
v -3.651564 3.236667 -0.037867
v -2.556468 3.825889 -0.527699
v -2.726770 4.266563 0.357947
v -3.083192 3.046018 0.523032
v -3.031992 3.166031 -0.603344
v -3.300546 3.417544 0.888747
v -3.673226 2.623379 -0.628781
v -3.241289 2.860335 -0.895633
v -4.140246 1.370140 0.177809
v -3.762912 2.308933 0.409532
v -2.665293 1.793427 2.175989
v -0.385019 4.436690 0.055881
v -1.025831 4.268105 0.118478
v -2.386747 4.300142 0.478476
v -1.725104 4.316433 -0.314477
v 0.289688 3.972006 0.143027
v -0.131379 4.312573 0.741839
v 1.140723 3.133740 0.484831
v -3.883998 1.920911 1.139292
v -2.735966 3.683760 1.151472
v -3.626679 1.630354 1.415298
v -2.276980 3.880087 1.174466
v -3.801233 1.431556 0.660827
v -4.228132 0.485986 1.234028
v -3.269547 2.711705 1.572773
vn 0.221877 -0.582618 0.781874
vn 0.302731 -0.757895 -0.577883
vn 0.225402 -0.758682 -0.611224
vn 0.293615 -0.589313 0.752662
vn 0.242173 -0.936712 -0.252828
vn 0.336726 -0.849386 -0.406397
vn 0.278131 -0.815739 -0.507162
vn 0.476885 -0.810572 -0.339931
vn 0.186373 -0.897930 -0.398731
vn -0.173796 -0.907766 -0.381779
vn -0.134975 -0.380437 -0.914904
vn -0.381998 -0.797765 -0.466527
vn -0.545977 -0.785293 -0.291931
vn -0.163270 -0.786679 -0.595381
vn -0.192965 -0.954754 0.226293
vn -0.426305 -0.870351 -0.246483
vn -0.467920 -0.691459 -0.550396
vn -0.359736 -0.770363 -0.526432
vn 0.026557 0.259698 -0.965325
vn 0.444513 -0.568679 -0.692107
vn 0.657368 -0.610568 -0.441673
vn 0.305327 -0.901134 -0.307788
vn 0.332865 -0.921760 -0.198897
vn 0.570631 0.233090 -0.787432
vn 0.794676 -0.573483 -0.199016
vn 0.560750 -0.827949 -0.007782
vn 0.706283 -0.707812 -0.012905
vn 0.682481 -0.728574 0.058300
vn 0.859179 -0.510885 -0.028422
vn 0.854993 -0.514864 -0.062471
vn 0.753468 -0.657453 0.006542
vn 0.842219 -0.528950 -0.104301
vn 0.880109 -0.438349 -0.182370
vn 0.841359 -0.489614 -0.228895
vn 0.851745 -0.415087 -0.319739
vn 0.836204 -0.405149 -0.369618
vn 0.779310 -0.399558 -0.482732
vn 0.799043 -0.444133 -0.405310
vn 0.841210 -0.514557 -0.166126
vn 0.781434 -0.406363 -0.473530
vn 0.804884 -0.523160 -0.280118
vn 0.683165 -0.431763 -0.588954
vn 0.697772 -0.539023 -0.471771
vn 0.710206 -0.461101 -0.531972
vn 0.756972 -0.570023 -0.319478
vn 0.618976 -0.696587 0.362817
vn 0.567709 -0.512744 -0.644049
vn 0.054851 -0.785037 -0.617016
vn 0.553769 -0.558349 -0.617726
vn 0.606932 -0.732758 -0.307731
vn 0.019510 -0.908262 -0.417946
vn 0.416513 -0.909041 -0.012680
vn 0.709873 -0.701529 -0.062747
vn 0.584420 -0.649274 -0.486720
vn 0.788191 -0.579817 -0.206318
vn 0.832050 -0.550186 -0.070627
vn 0.815040 -0.579075 -0.019526
vn 0.734921 -0.678142 -0.003856
vn 0.638866 -0.769004 -0.021985
vn 0.587263 -0.240168 -0.772944
vn 0.382448 -0.604909 -0.698440
vn 0.328459 -0.719422 -0.612002
vn 0.364720 -0.874898 -0.318643
vn 0.437988 0.136749 -0.888519
vn 0.231165 -0.148668 -0.961489
vn -0.284346 0.127438 -0.950214
vn -0.105836 0.474750 -0.873734
vn 0.168511 0.674051 -0.719207
vn -0.378457 0.428506 -0.820459
vn -0.337081 0.837336 -0.430401
vn -0.569295 0.424560 -0.704025
vn -0.745324 0.143066 -0.651171
vn -0.736907 -0.026784 -0.675464
vn -0.971358 0.014429 -0.237182
vn -0.979223 0.070757 -0.190040
vn -0.929991 0.199922 -0.308461
vn -0.719794 0.532206 -0.445706
vn 0.662555 0.579442 -0.474623
vn 0.803054 0.552707 -0.222756
vn 0.334262 0.753861 -0.565653
vn 0.911058 0.393853 0.121870
vn 0.847486 0.529549 0.036687
vn 0.819394 0.560758 0.118928
vn 0.911413 0.357988 0.202908
vn 0.734740 0.192405 0.650490
vn 0.676487 0.501149 0.539643
vn 0.399016 0.086009 0.912901
vn 0.218160 0.540048 0.812868
vn 0.104172 0.187753 0.976676
vn -0.032126 0.321201 0.946466
vn 0.007989 0.677984 0.735033
vn -0.009811 0.648836 0.760865
vn -0.112063 0.443667 0.889158
vn -0.040615 0.080810 0.995902
vn -0.192219 0.070031 0.978850
vn -0.160174 -0.118415 0.979960
vn -0.265341 0.342558 0.901248
vn -0.067520 0.590060 0.804531
vn -0.054975 0.851983 0.520675
vn -0.160969 0.424263 0.891117
vn -0.271529 0.275850 0.922051
vn -0.364699 0.107965 0.924845
vn -0.201360 -0.112403 0.973047
vn -0.452948 -0.040278 0.890627
vn -0.482742 0.062668 0.873518
vn -0.404641 0.210298 0.889966
vn -0.441097 0.515154 0.734881
vn -0.341813 0.896689 0.281271
vn -0.494615 -0.059926 0.867044
vn -0.544779 0.027648 0.838124
vn -0.601460 0.249754 0.758860
vn -0.620466 0.605629 0.498232
vn -0.437014 0.891980 0.115715
vn -0.845902 -0.052944 0.530704
vn -0.897799 0.074961 0.433978
vn -0.902990 0.233374 0.360757
vn -0.788902 0.592811 0.161890
vn -0.426434 0.882950 -0.196349
vn -0.990434 0.015960 0.137059
vn -0.989339 0.094723 0.110612
vn -0.969772 0.203352 0.134875
vn -0.832975 0.553217 0.010121
vn 0.714544 0.692505 -0.099315
vn 0.751640 0.657046 0.057693
vn -0.005323 0.295086 -0.955456
vn 0.550801 -0.137721 -0.823196
vn 0.131695 0.953688 -0.270435
vn 0.008185 0.961923 -0.273197
vn -0.008672 0.919286 -0.393494
vn -0.020723 0.918676 -0.394468
vn 0.011572 0.932985 -0.359730
vn 0.599758 0.782392 -0.167789
vn 0.644211 0.741108 0.189077
vn 0.191709 0.880483 0.433587
vn 0.063017 0.884594 0.462084
vn 0.034049 0.871836 0.488614
vn 0.065132 0.861361 0.503801
vn 0.028797 0.938767 0.343348
vn 0.323226 0.944469 0.059189
vt 1.000000 1.000000
vt 1.000000 1.000000
vt 1.000000 1.000000
vt 1.000000 1.000000
vt 1.000000 1.000000
vt 1.000000 1.000000
vt 1.000000 1.000000
vt 1.000000 1.000000
vt 1.000000 1.000000
vt 1.000000 1.000000
vt 1.000000 1.000000
vt 1.000000 1.000000
vt 1.000000 1.000000
vt 1.000000 1.000000
vt 1.000000 1.000000
vt 1.000000 1.000000
vt 1.000000 1.000000
vt 1.000000 1.000000
vt 1.000000 1.000000
vt 1.000000 1.000000
vt 1.000000 1.000000
vt 1.000000 1.000000
vt 1.000000 1.000000
vt 1.000000 1.000000
vt 1.000000 1.000000
vt 1.000000 1.000000
vt 1.000000 1.000000
vt 1.000000 1.000000
vt 1.000000 1.000000
vt 1.000000 1.000000
vt 1.000000 1.000000
vt 1.000000 1.000000
vt 1.000000 1.000000
vt 1.000000 1.000000
vt 1.000000 1.000000
vt 1.000000 1.000000
vt 1.000000 1.000000
vt 1.000000 1.000000
vt 1.000000 1.000000
vt 1.000000 1.000000
vt 1.000000 1.000000
vt 1.000000 1.000000
vt 1.000000 1.000000
vt 1.000000 1.000000
vt 1.000000 1.000000
vt 1.000000 1.000000
vt 1.000000 1.000000
vt 1.000000 1.000000
vt 1.000000 1.000000
vt 1.000000 1.000000
vt 1.000000 1.000000
vt 1.000000 1.000000
vt 1.000000 1.000000
vt 1.000000 1.000000
vt 1.000000 1.000000
vt 1.000000 1.000000
vt 1.000000 1.000000
vt 1.000000 1.000000
vt 1.000000 1.000000
vt 1.000000 1.000000
vt 1.000000 1.000000
vt 1.000000 1.000000
vt 1.000000 1.000000
vt 1.000000 1.000000
vt 1.000000 1.000000
vt 1.000000 1.000000
vt 1.000000 1.000000
vt 1.000000 1.000000
vt 1.000000 1.000000
vt 1.000000 1.000000
vt 1.000000 1.000000
vt 1.000000 1.000000
vt 1.000000 1.000000
vt 1.000000 1.000000
vt 1.000000 1.000000
vt 1.000000 1.000000
vt 1.000000 1.000000
vt 1.000000 1.000000
vt 1.000000 1.000000
vt 1.000000 1.000000
vt 1.000000 1.000000
vt 1.000000 1.000000
vt 1.000000 1.000000
vt 1.000000 1.000000
vt 1.000000 1.000000
vt 1.000000 1.000000
vt 1.000000 1.000000
vt 1.000000 1.000000
vt 1.000000 1.000000
vt 1.000000 1.000000
vt 1.000000 1.000000
vt 1.000000 1.000000
vt 1.000000 1.000000
vt 1.000000 1.000000
vt 1.000000 1.000000
vt 1.000000 1.000000
vt 1.000000 1.000000
vt 1.000000 1.000000
vt 1.000000 1.000000
vt 1.000000 1.000000
vt 1.000000 1.000000
vt 1.000000 1.000000
vt 1.000000 1.000000
vt 1.000000 1.000000
vt 1.000000 1.000000
vt 1.000000 1.000000
vt 1.000000 1.000000
vt 1.000000 1.000000
vt 1.000000 1.000000
vt 1.000000 1.000000
vt 1.000000 1.000000
vt 1.000000 1.000000
vt 1.000000 1.000000
vt 1.000000 1.000000
vt 1.000000 1.000000
vt 1.000000 1.000000
vt 1.000000 1.000000
vt 1.000000 1.000000
vt 1.000000 1.000000
vt 1.000000 1.000000
vt 1.000000 1.000000
vt 1.000000 1.000000
vt 1.000000 1.000000
vt 1.000000 1.000000
vt 1.000000 1.000000
vt 1.000000 1.000000
vt 1.000000 1.000000
vt 1.000000 1.000000
vt 1.000000 1.000000
vt 1.000000 1.000000
vt 1.000000 1.000000
vt 1.000000 1.000000
vt 1.000000 1.000000
vt 1.000000 1.000000
vt 1.000000 1.000000
vt 1.000000 1.000000
vt 1.000000 1.000000
vt 1.000000 1.000000
vt 1.000000 1.000000
f 1/1/1 2/2/2 3/3/3
f 3/3/3 4/4/4 1/1/1
f 3/3/3 5/5/5 4/4/4
f 3/3/3 2/2/2 6/6/6
f 6/6/6 7/7/7 3/3/3
f 7/7/7 6/6/6 8/8/8
f 8/8/8 9/9/9 7/7/7
f 9/9/9 8/8/8 10/10/10
f 10/10/10 8/8/8 11/11/11
f 11/11/11 12/12/12 10/10/10
f 10/10/10 12/12/12 13/13/13
f 13/13/13 9/9/9 10/10/10
f 9/9/9 13/13/13 14/14/14
f 14/14/14 7/7/7 9/9/9
f 7/7/7 14/14/14 5/5/5
f 5/5/5 3/3/3 7/7/7
f 5/5/5 14/14/14 15/15/15
f 13/13/13 15/15/15 14/14/14
f 16/16/16 15/15/15 13/13/13
f 17/17/17 16/16/16 13/13/13
f 18/18/18 17/17/17 13/13/13
f 12/12/12 18/18/18 13/13/13
f 19/19/19 11/11/11 8/8/8
f 8/8/8 20/20/20 19/19/19
f 21/21/21 20/20/20 22/22/22
f 22/22/22 23/23/23 21/21/21
f 24/24/24 19/19/19 20/20/20
f 20/20/20 21/21/21 24/24/24
f 25/25/25 24/24/24 21/21/21
f 21/21/21 23/23/23 26/26/26
f 21/21/21 26/26/26 25/25/25
f 27/27/27 28/28/28 29/29/29
f 29/29/29 30/30/30 27/27/27
f 31/31/31 27/27/27 30/30/30
f 30/30/30 32/32/32 31/31/31
f 32/32/32 30/30/30 33/33/33
f 33/33/33 34/34/34 32/32/32
f 35/35/35 33/33/33 30/30/30
f 30/30/30 29/29/29 35/35/35
f 36/36/36 33/33/33 35/35/35
f 35/35/35 37/37/37 36/36/36
f 34/34/34 33/33/33 36/36/36
f 36/36/36 38/38/38 34/34/34
f 38/38/38 36/36/36 39/39/39
f 39/39/39 40/40/40 38/38/38
f 36/36/36 37/37/37 41/41/41
f 41/41/41 39/39/39 36/36/36
f 41/41/41 37/37/37 42/42/42
f 42/42/42 43/43/43 41/41/41
f 44/44/44 42/42/42 37/37/37
f 37/37/37 35/35/35 44/44/44
f 45/45/45 44/44/44 35/35/35
f 35/35/35 29/29/29 45/45/45
f 2/2/2 1/1/1 46/46/46
f 46/46/46 47/47/47 2/2/2
f 2/2/2 48/48/48 6/6/6
f 48/48/48 2/2/2 47/47/47
f 47/47/47 49/49/49 48/48/48
f 49/49/49 47/47/47 42/42/42
f 42/42/42 44/44/44 49/49/49
f 50/50/50 49/49/49 44/44/44
f 44/44/44 45/45/45 50/50/50
f 51/51/51 48/48/48 49/49/49
f 49/49/49 50/50/50 51/51/51
f 6/6/6 48/48/48 51/51/51
f 51/51/51 22/22/22 6/6/6
f 22/22/22 51/51/51 52/52/52
f 52/52/52 23/23/23 22/22/22
f 52/52/52 26/26/26 23/23/23
f 52/52/52 53/53/53 28/28/28
f 28/28/28 26/26/26 52/52/52
f 29/29/29 28/28/28 53/53/53
f 8/8/8 6/6/6 22/22/22
f 22/22/22 20/20/20 8/8/8
f 38/38/38 54/54/54 55/55/55
f 55/55/55 34/34/34 38/38/38
f 34/34/34 55/55/55 56/56/56
f 56/56/56 32/32/32 34/34/34
f 32/32/32 56/56/56 57/57/57
f 57/57/57 31/31/31 32/32/32
f 31/31/31 57/57/57 58/58/58
f 58/58/58 59/59/59 31/31/31
f 58/58/58 60/60/60 59/59/59
f 61/61/61 57/57/57 56/56/56
f 56/56/56 62/62/62 61/61/61
f 62/62/62 56/56/56 55/55/55
f 55/55/55 63/63/63 62/62/62
f 55/55/55 54/54/54 63/63/63
f 64/64/64 60/60/60 58/58/58
f 58/58/58 65/65/65 64/64/64
f 58/58/58 61/61/61 65/65/65
f 61/61/61 66/66/66 65/65/65
f 64/64/64 65/65/65 66/66/66
f 66/66/66 67/67/67 64/64/64
f 60/60/60 64/64/64 68/68/68
f 68/68/68 69/69/69 60/60/60
f 70/70/70 68/68/68 67/67/67
f 67/67/67 71/71/71 70/70/70
f 71/71/71 67/67/67 66/66/66
f 66/66/66 72/72/72 71/71/71
f 61/61/61 62/62/62 73/73/73
f 62/62/62 63/63/63 74/74/74
f 73/73/73 62/62/62 74/74/74
f 74/74/74 75/75/75 73/73/73
f 72/72/72 73/73/73 75/75/75
f 75/75/75 76/76/76 72/72/72
f 71/71/71 72/72/72 76/76/76
f 76/76/76 77/77/77 71/71/71
f 71/71/71 77/77/77 70/70/70
f 67/67/67 68/68/68 64/64/64
f 54/54/54 38/38/38 40/40/40
f 18/18/18 12/12/12 78/78/78
f 78/78/78 79/79/79 18/18/18
f 78/78/78 12/12/12 11/11/11
f 11/11/11 80/80/80 78/78/78
f 79/79/79 81/81/81 17/17/17
f 17/17/17 18/18/18 79/79/79
f 82/82/82 83/83/83 84/84/84
f 84/84/84 81/81/81 82/82/82
f 81/81/81 84/84/84 16/16/16
f 16/16/16 17/17/17 81/81/81
f 84/84/84 85/85/85 15/15/15
f 15/15/15 16/16/16 84/84/84
f 83/83/83 86/86/86 85/85/85
f 85/85/85 84/84/84 83/83/83
f 85/85/85 87/87/87 5/5/5
f 5/5/5 15/15/15 85/85/85
f 87/87/87 85/85/85 86/86/86
f 87/87/87 86/86/86 88/88/88
f 88/88/88 89/89/89 87/87/87
f 89/89/89 4/4/4 87/87/87
f 4/4/4 5/5/5 87/87/87
f 89/89/89 90/90/90 1/1/1
f 1/1/1 4/4/4 89/89/89
f 88/88/88 91/91/91 90/90/90
f 90/90/90 89/89/89 88/88/88
f 91/91/91 92/92/92 93/93/93
f 93/93/93 90/90/90 91/91/91
f 46/46/46 94/94/94 95/95/95
f 95/95/95 96/96/96 46/46/46
f 97/97/97 95/95/95 94/94/94
f 94/94/94 93/93/93 97/97/97
f 98/98/98 97/97/97 93/93/93
f 93/93/93 92/92/92 98/98/98
f 99/99/99 100/100/100 98/98/98
f 98/98/98 100/100/100 101/101/101
f 101/101/101 97/97/97 98/98/98
f 97/97/97 101/101/101 102/102/102
f 102/102/102 95/95/95 97/97/97
f 43/43/43 42/42/42 47/47/47
f 47/47/47 46/46/46 43/43/43
f 94/94/94 46/46/46 1/1/1
f 1/1/1 90/90/90 94/94/94
f 41/41/41 43/43/43 103/103/103
f 103/103/103 104/104/104 41/41/41
f 104/104/104 103/103/103 102/102/102
f 102/102/102 105/105/105 104/104/104
f 105/105/105 102/102/102 101/101/101
f 101/101/101 106/106/106 105/105/105
f 106/106/106 101/101/101 100/100/100
f 100/100/100 107/107/107 106/106/106
f 107/107/107 100/100/100 99/99/99
f 99/99/99 108/108/108 107/107/107
f 39/39/39 41/41/41 104/104/104
f 104/104/104 109/109/109 39/39/39
f 109/109/109 104/104/104 105/105/105
f 105/105/105 110/110/110 109/109/109
f 110/110/110 105/105/105 106/106/106
f 106/106/106 111/111/111 110/110/110
f 111/111/111 106/106/106 107/107/107
f 107/107/107 112/112/112 111/111/111
f 112/112/112 107/107/107 108/108/108
f 108/108/108 113/113/113 112/112/112
f 40/40/40 39/39/39 109/109/109
f 109/109/109 114/114/114 40/40/40
f 114/114/114 109/109/109 110/110/110
f 110/110/110 115/115/115 114/114/114
f 115/115/115 110/110/110 111/111/111
f 111/111/111 116/116/116 115/115/115
f 116/116/116 111/111/111 112/112/112
f 112/112/112 117/117/117 116/116/116
f 117/117/117 112/112/112 113/113/113
f 113/113/113 118/118/118 117/117/117
f 54/54/54 40/40/40 114/114/114
f 114/114/114 119/119/119 54/54/54
f 119/119/119 114/114/114 115/115/115
f 115/115/115 120/120/120 119/119/119
f 120/120/120 115/115/115 116/116/116
f 116/116/116 121/121/121 120/120/120
f 121/121/121 116/116/116 117/117/117
f 117/117/117 122/122/122 121/121/121
f 70/70/70 122/122/122 117/117/117
f 117/117/117 118/118/118 70/70/70
f 70/70/70 77/77/77 122/122/122
f 122/122/122 77/77/77 76/76/76
f 76/76/76 121/121/121 122/122/122
f 121/121/121 76/76/76 75/75/75
f 75/75/75 120/120/120 121/121/121
f 120/120/120 75/75/75 74/74/74
f 74/74/74 119/119/119 120/120/120
f 119/119/119 74/74/74 63/63/63
f 63/63/63 54/54/54 119/119/119
f 82/82/82 81/81/81 79/79/79
f 11/11/11 19/19/19 80/80/80
f 50/50/50 45/45/45 53/53/53
f 53/53/53 52/52/52 50/50/50
f 50/50/50 52/52/52 51/51/51
f 27/27/27 26/26/26 28/28/28
f 27/27/27 31/31/31 59/59/59
f 59/59/59 26/26/26 27/27/27
f 43/43/43 96/96/96 103/103/103
f 102/102/102 103/103/103 96/96/96
f 96/96/96 95/95/95 102/102/102
f 72/72/72 66/66/66 61/61/61
f 61/61/61 73/73/73 72/72/72
f 58/58/58 57/57/57 61/61/61
f 29/29/29 53/53/53 45/45/45
f 82/82/82 79/79/79 123/123/123
f 123/123/123 124/124/124 82/82/82
f 24/24/24 125/125/125 69/69/69
f 69/69/69 68/68/68 24/24/24
f 60/60/60 69/69/69 125/125/125
f 125/125/125 126/126/126 60/60/60
f 126/126/126 125/125/125 24/24/24
f 24/24/24 25/25/25 126/126/126
f 59/59/59 126/126/126 25/25/25
f 25/25/25 26/26/26 59/59/59
f 60/60/60 126/126/126 59/59/59
f 127/127/127 68/68/68 70/70/70
f 70/70/70 128/128/128 127/127/127
f 113/113/113 128/128/128 118/118/118
f 128/128/128 129/129/129 130/130/130
f 130/130/130 127/127/127 128/128/128
f 129/129/129 24/24/24 130/130/130
f 129/129/129 131/131/131 19/19/19
f 19/19/19 24/24/24 129/129/129
f 131/131/131 132/132/132 80/80/80
f 80/80/80 19/19/19 131/131/131
f 132/132/132 123/123/123 78/78/78
f 78/78/78 80/80/80 132/132/132
f 123/123/123 79/79/79 78/78/78
f 124/124/124 83/83/83 82/82/82
f 124/124/124 133/133/133 86/86/86
f 86/86/86 83/83/83 124/124/124
f 133/133/133 134/134/134 88/88/88
f 88/88/88 86/86/86 133/133/133
f 134/134/134 135/135/135 91/91/91
f 91/91/91 88/88/88 134/134/134
f 135/135/135 136/136/136 92/92/92
f 92/92/92 91/91/91 135/135/135
f 136/136/136 137/137/137 98/98/98
f 98/98/98 92/92/92 136/136/136
f 137/137/137 138/138/138 99/99/99
f 99/99/99 98/98/98 137/137/137
f 138/138/138 128/128/128 108/108/108
f 108/108/108 99/99/99 138/138/138
f 128/128/128 113/113/113 108/108/108
f 139/139/139 129/129/129 128/128/128
f 70/70/70 118/118/118 128/128/128
f 139/139/139 131/131/131 129/129/129
f 139/139/139 132/132/132 131/131/131
f 139/139/139 123/123/123 132/132/132
f 139/139/139 124/124/124 123/123/123
f 139/139/139 133/133/133 124/124/124
f 139/139/139 134/134/134 133/133/133
f 139/139/139 135/135/135 134/134/134
f 139/139/139 136/136/136 135/135/135
f 139/139/139 137/137/137 136/136/136
f 139/139/139 138/138/138 137/137/137
f 139/139/139 128/128/128 138/138/138
f 43/43/43 46/46/46 96/96/96
f 94/94/94 90/90/90 93/93/93
f 24/24/24 68/68/68 127/127/127
f 127/127/127 130/130/130 24/24/24
