g 1_Visual
usemtl mat1
v -0.979259 2.235120 2.612450
v -1.444960 2.547220 2.039060
v -0.481040 2.877970 1.942430
v -0.642848 2.345420 2.572410
v 0.775631 3.149520 1.898970
v -1.234240 2.798150 1.497510
v -0.386844 3.373540 1.274870
v -0.598176 3.755140 -0.017133
v -0.254557 3.914320 0.273387
v -0.201405 4.200790 -0.563663
v -0.362644 4.419350 -0.635039
v 0.366573 4.314050 -0.918723
v 0.433111 4.091070 0.644567
v 0.503617 3.862200 1.038680
v 1.607860 3.845760 0.806178
v 1.803310 4.053420 0.161386
v 1.687330 4.176970 -0.443583
v 1.183700 4.238430 -0.926494
v -0.526793 4.480440 -0.634048
v -0.711019 3.671210 -0.076864
v -1.487820 3.462690 -0.602933
v -1.009210 3.194660 0.546448
v -1.580430 3.116330 0.201245
v -1.470620 4.556860 -0.764356
v -1.555830 3.337490 -0.981817
v -2.000090 2.961290 0.004580
v -2.752450 2.442700 0.090256
v -2.617140 2.610510 0.328871
v -3.024500 2.075600 1.001100
v -3.138610 1.823870 0.817236
v -2.892260 2.315060 -0.151115
v -3.291970 1.622810 0.608249
v -3.231290 1.703640 1.001360
v -3.389840 1.496830 0.815130
v -3.061680 1.914620 1.224990
v -3.417200 1.183600 1.760130
v -3.154080 1.377870 1.886140
v -3.854840 0.866525 1.597390
v -3.608640 0.746535 2.337350
v -4.045150 0.588905 2.043460
v -2.993540 0.961926 2.571930
v -2.360880 1.959950 2.058120
v -2.207510 1.456920 2.622190
v -2.551620 2.337340 1.621230
v -2.675100 2.476200 1.314180
v -1.327190 2.060300 2.612260
v -1.697880 2.455150 2.072940
v -1.771100 2.797600 1.636260
v -1.900810 2.769000 1.667340
v -2.021160 2.994250 1.206460
v -1.869550 3.034240 1.136530
v -1.951410 3.069200 0.634274
v -2.665790 2.601250 0.826129
v -4.546260 0.370815 1.221810
v -3.877740 0.893007 0.422477
v -3.666300 1.069010 0.114659
v -3.284710 1.748850 -0.740466
v -2.961480 1.882920 -1.435410
v -2.268450 2.800340 -0.902428
v -2.057020 3.137420 -1.197570
v -3.542860 1.200220 -1.299690
v -4.166400 0.321424 -0.381803
v -4.404300 0.217888 0.120653
v -2.203000 3.193780 -1.611420
v -2.959170 1.940320 -1.647510
v -3.507760 2.036140 -1.608470
v -3.119050 3.318480 -1.692850
v -2.123900 4.800380 -0.648841
v -2.090600 4.743330 -0.813431
v -3.015830 4.772560 -0.504024
v -3.810220 3.510810 -1.263650
v -4.136310 2.230500 -1.177860
v -4.173190 1.457000 -0.988098
v -4.524280 0.447799 -0.043859
v -4.530370 1.455330 -0.236559
v -4.529940 2.513800 -0.481344
v -4.285010 3.786300 -0.667438
v 0.269475 4.685330 -0.715979
v 1.293720 4.577120 -0.699486
v -0.214014 4.652180 -0.684456
v 1.510080 4.612350 -0.347367
v 1.356520 4.727720 -0.304728
v 1.196990 4.838390 0.498857
v 1.551670 4.594670 0.369886
v 1.405850 4.444300 0.973397
v 0.623638 4.539440 1.677200
v 0.625253 3.549410 2.113870
v -0.161726 4.529390 1.804420
v -0.223497 3.559510 2.456320
v -0.868473 3.562700 2.462400
v -0.764326 4.502950 1.807020
v -0.949013 4.497320 1.811050
v -1.058700 3.554990 2.447720
v -1.096000 3.139510 2.566520
v -1.706720 2.663690 2.728580
v -1.752730 1.782380 2.656250
v -1.641910 3.550240 2.385170
v -1.591130 4.563190 1.741800
v -2.317310 4.935720 1.249190
v -2.314980 4.591230 1.754380
v -2.510580 3.486800 2.218730
v -2.460960 2.596980 2.569800
v -2.245010 1.625280 2.716970
v -2.988260 1.269360 2.699860
v -3.142730 2.480170 2.405280
v -3.157710 3.409520 2.080690
v -2.842240 4.530160 1.630310
v -2.592120 5.019850 0.911118
v -3.755720 0.924324 2.401770
v -3.982950 2.307670 2.137200
v -3.971520 3.319280 1.784720
v -3.703170 4.388180 1.187580
v -2.964590 4.975810 0.298676
v -4.113670 0.760947 2.136530
v -4.381430 2.170850 1.747420
v -4.357960 3.153270 1.343790
v -3.958680 4.289760 0.843611
v -3.060820 4.918020 0.097543
v -4.679280 0.574139 1.135950
v -4.550610 1.844700 0.750916
v -4.600430 2.870890 0.380944
v -4.326910 4.011060 -0.065164
v 0.454310 5.068180 0.153531
v 0.605440 5.041750 0.340064
v -1.709220 4.552040 -0.980986
v -1.834580 3.248000 -1.302210
v -1.831150 4.699090 -0.322722
v -1.813560 5.157170 0.662230
v -0.784062 4.974500 0.263673
v -1.537750 4.627770 -0.421263
v -0.443867 5.027890 0.133754
v -0.034590 4.999930 0.069335
v 0.253078 5.010170 1.122310
v -0.097701 4.953410 1.181270
v -0.674762 4.895640 1.178760
v -0.817242 4.906540 1.185990
v -1.205680 4.941950 1.131210
v -1.620430 5.122820 0.907985
v -0.499531 5.045810 0.672108
v -1.032290 3.260820 1.952340
v -1.662000 4.303410 0.606652
v -2.237770 4.463890 0.958563
v -1.177070 3.674040 1.543430
v -1.229740 3.983530 0.327285
v -1.578890 3.614430 0.457879
v -1.550530 3.923460 0.862902
v -2.204470 3.538890 0.341788
v -1.661280 4.334170 0.199247
v -1.596340 3.750680 0.111116
v -0.882505 4.526820 0.834749
v -2.154100 2.944660 1.962560
v -2.380040 3.236580 1.184980
v -2.759520 2.921290 1.607110
v -1.642050 3.092560 1.779490
v -1.915570 3.450080 0.997549
v -0.939986 4.356230 1.121410
v -3.188990 4.085650 0.182460
v -3.561420 3.320740 -0.004664
v -2.514470 3.829570 -0.563854
v -2.697460 4.273090 0.347196
v -2.916430 3.164700 0.593664
v -2.931630 3.182900 -0.584821
v -3.187860 3.535420 0.949199
v -3.526240 2.667520 -0.533540
v -3.120250 2.860120 -0.839752
v -3.865790 1.722030 0.481217
v -3.559140 2.562850 0.573475
v -2.033610 2.170510 2.509710
v -0.371326 4.455770 0.020749
v -1.010840 4.278760 0.075431
v -2.355840 4.305560 0.468650
v -1.718150 4.317450 -0.349430
v 0.377816 4.510720 -0.131931
v -0.066686 4.470320 0.691843
v 1.263480 4.512660 -0.239236
v -3.611770 2.435480 1.435910
v -2.604600 3.747290 1.195710
v -3.223450 2.196580 1.804420
v -2.155610 3.912060 1.196360
v -3.468940 1.887960 0.964926
v -3.801360 1.560880 1.805840
v -3.000000 3.000000 -1.000000
vn 0.304157 -0.614095 0.728269
vn 0.200870 -0.822466 -0.532166
vn 0.219035 -0.804933 -0.551459
vn 0.522714 -0.582862 0.622127
vn 0.516212 -0.824971 -0.230104
vn 0.297303 -0.876824 -0.377877
vn 0.353074 -0.802250 -0.481387
vn 0.496065 -0.790476 -0.359258
vn 0.448354 -0.820789 -0.353957
vn 0.188311 -0.926361 -0.326181
vn -0.315147 -0.242838 -0.917449
vn -0.072544 -0.890411 -0.449339
vn 0.014596 -0.972862 -0.230925
vn 0.126236 -0.811779 -0.570158
vn 0.510484 -0.841417 -0.177265
vn 0.550689 -0.804324 -0.223169
vn 0.255581 -0.917223 -0.305582
vn 0.032843 -0.867541 -0.496280
vn -0.011555 0.344496 -0.938717
vn 0.437960 -0.530182 -0.726015
vn 0.650409 -0.590386 -0.477925
vn 0.296859 -0.914438 -0.275097
vn 0.316623 -0.931757 -0.177702
vn 0.534424 0.302234 -0.789333
vn 0.816408 -0.530390 -0.228395
vn 0.562239 -0.826973 -0.001516
vn 0.690932 -0.722763 0.015031
vn 0.652438 -0.753483 0.081169
vn 0.841049 -0.540103 -0.030427
vn 0.838548 -0.543583 -0.036801
vn 0.767487 -0.637366 0.068767
vn 0.837069 -0.545653 -0.039743
vn 0.830986 -0.545882 -0.107116
vn 0.760790 -0.645968 -0.062648
vn 0.777251 -0.545560 -0.313441
vn 0.664027 -0.675178 -0.321251
vn 0.631336 -0.588058 -0.505571
vn 0.657046 -0.741044 -0.138363
vn 0.401245 -0.915737 0.020693
vn 0.313086 -0.944979 0.094821
vn 0.542085 -0.781283 -0.309420
vn 0.488113 -0.593271 -0.640137
vn 0.470541 -0.678013 -0.564704
vn 0.587348 -0.596286 -0.547235
vn 0.684999 -0.656086 -0.316745
vn 0.581545 -0.752916 0.308097
vn 0.383070 -0.625121 -0.680060
vn -0.033123 -0.873687 -0.485359
vn 0.408691 -0.672823 -0.616669
vn 0.507954 -0.810255 -0.292353
vn -0.015155 -0.948952 -0.315055
vn 0.374483 -0.927142 0.013027
vn 0.654727 -0.753974 -0.053437
vn 0.431196 -0.894636 0.117032
vn 0.720771 -0.688247 0.082492
vn 0.834270 -0.550416 0.032199
vn 0.829079 -0.556625 0.052880
vn 0.779676 -0.624971 0.038943
vn 0.667403 -0.744676 0.005546
vn 0.577372 -0.190695 -0.793900
vn 0.368084 -0.724143 -0.583207
vn 0.308374 -0.858912 -0.408870
vn 0.300586 -0.945228 0.127247
vn 0.413866 0.096343 -0.905225
vn 0.214215 -0.289833 -0.932796
vn -0.309926 -0.041817 -0.949841
vn -0.129076 0.422213 -0.897260
vn 0.149179 0.667854 -0.729189
vn -0.403882 0.415581 -0.814967
vn -0.316213 0.825681 -0.467184
vn -0.576390 0.325637 -0.749490
vn -0.746734 -0.029891 -0.664451
vn -0.734611 -0.233361 -0.637095
vn -0.962882 -0.108686 -0.247075
vn -0.976567 -0.053266 -0.208518
vn -0.933744 0.082115 -0.348395
vn -0.717764 0.476035 -0.508139
vn -0.003482 0.773702 -0.633541
vn 0.257488 0.783193 -0.565958
vn -0.183840 0.810969 -0.555457
vn 0.845373 0.509168 -0.161529
vn 0.367880 0.918134 -0.147290
vn 0.405246 0.880082 0.247449
vn 0.839144 0.513190 0.180205
vn 0.751684 0.307114 0.583653
vn 0.406783 0.676715 0.613665
vn 0.503119 0.180927 0.845066
vn 0.106277 0.609320 0.785770
vn 0.205781 0.261183 0.943100
vn 0.018176 0.389727 0.920751
vn -0.042149 0.713425 0.699463
vn -0.001485 0.694555 0.719438
vn -0.064654 0.516029 0.854127
vn 0.083015 0.161185 0.983427
vn -0.038368 0.136508 0.989896
vn 0.005210 -0.044774 0.998984
vn -0.159110 0.432253 0.887604
vn -0.038163 0.644574 0.763589
vn -0.052573 0.853733 0.518050
vn -0.128430 0.526225 0.840591
vn -0.180964 0.403044 0.897111
vn -0.181736 0.219788 0.958470
vn 0.039744 -0.013775 0.999115
vn -0.240284 0.058676 0.968928
vn -0.321856 0.224149 0.919873
vn -0.305290 0.368487 0.878075
vn -0.366558 0.608681 0.703664
vn -0.303374 0.910254 0.281782
vn -0.411822 0.047239 0.910039
vn -0.491674 0.186288 0.850619
vn -0.546113 0.402169 0.734861
vn -0.552078 0.694691 0.461100
vn -0.388764 0.916281 0.096389
vn -0.779938 -0.054857 0.623448
vn -0.903484 0.097863 0.417300
vn -0.918967 0.263594 0.293288
vn -0.768700 0.631696 0.100299
vn -0.381769 0.901487 -0.203894
vn -0.984071 -0.032844 0.174713
vn -0.997660 0.047691 0.048983
vn -0.984568 0.158253 0.074713
vn -0.839367 0.539499 -0.066354
vn 0.070669 0.950698 -0.301959
vn 0.260212 0.953776 0.150337
vn -0.035293 0.305036 -0.951687
vn 0.525200 -0.101241 -0.844935
vn 0.132061 0.953796 -0.269875
vn 0.008157 0.961932 -0.273167
vn -0.013795 0.921714 -0.387626
vn -0.022179 0.919574 -0.392290
vn -0.213516 0.904667 -0.368767
vn -0.050442 0.948517 -0.312682
vn 0.166897 0.924919 0.341571
vn -0.070986 0.885195 0.459773
vn -0.050674 0.897902 0.437269
vn 0.033992 0.873595 0.485465
vn 0.065001 0.862762 0.501414
vn 0.028797 0.938767 0.343348
vn 0.017677 0.996909 0.076550
vt 1.000000 1.000000
vt 1.000000 1.000000
vt 1.000000 1.000000
vt 1.000000 1.000000
vt 1.000000 1.000000
vt 1.000000 1.000000
vt 1.000000 1.000000
vt 1.000000 1.000000
vt 1.000000 1.000000
vt 1.000000 1.000000
vt 1.000000 1.000000
vt 1.000000 1.000000
vt 1.000000 1.000000
vt 1.000000 1.000000
vt 1.000000 1.000000
vt 1.000000 1.000000
vt 1.000000 1.000000
vt 1.000000 1.000000
vt 1.000000 1.000000
vt 1.000000 1.000000
vt 1.000000 1.000000
vt 1.000000 1.000000
vt 1.000000 1.000000
vt 1.000000 1.000000
vt 1.000000 1.000000
vt 1.000000 1.000000
vt 1.000000 1.000000
vt 1.000000 1.000000
vt 1.000000 1.000000
vt 1.000000 1.000000
vt 1.000000 1.000000
vt 1.000000 1.000000
vt 1.000000 1.000000
vt 1.000000 1.000000
vt 1.000000 1.000000
vt 1.000000 1.000000
vt 1.000000 1.000000
vt 1.000000 1.000000
vt 1.000000 1.000000
vt 1.000000 1.000000
vt 1.000000 1.000000
vt 1.000000 1.000000
vt 1.000000 1.000000
vt 1.000000 1.000000
vt 1.000000 1.000000
vt 1.000000 1.000000
vt 1.000000 1.000000
vt 1.000000 1.000000
vt 1.000000 1.000000
vt 1.000000 1.000000
vt 1.000000 1.000000
vt 1.000000 1.000000
vt 1.000000 1.000000
vt 1.000000 1.000000
vt 1.000000 1.000000
vt 1.000000 1.000000
vt 1.000000 1.000000
vt 1.000000 1.000000
vt 1.000000 1.000000
vt 1.000000 1.000000
vt 1.000000 1.000000
vt 1.000000 1.000000
vt 1.000000 1.000000
vt 1.000000 1.000000
vt 1.000000 1.000000
vt 1.000000 1.000000
vt 1.000000 1.000000
vt 1.000000 1.000000
vt 1.000000 1.000000
vt 1.000000 1.000000
vt 1.000000 1.000000
vt 1.000000 1.000000
vt 1.000000 1.000000
vt 1.000000 1.000000
vt 1.000000 1.000000
vt 1.000000 1.000000
vt 1.000000 1.000000
vt 1.000000 1.000000
vt 1.000000 1.000000
vt 1.000000 1.000000
vt 1.000000 1.000000
vt 1.000000 1.000000
vt 1.000000 1.000000
vt 1.000000 1.000000
vt 1.000000 1.000000
vt 1.000000 1.000000
vt 1.000000 1.000000
vt 1.000000 1.000000
vt 1.000000 1.000000
vt 1.000000 1.000000
vt 1.000000 1.000000
vt 1.000000 1.000000
vt 1.000000 1.000000
vt 1.000000 1.000000
vt 1.000000 1.000000
vt 1.000000 1.000000
vt 1.000000 1.000000
vt 1.000000 1.000000
vt 1.000000 1.000000
vt 1.000000 1.000000
vt 1.000000 1.000000
vt 1.000000 1.000000
vt 1.000000 1.000000
vt 1.000000 1.000000
vt 1.000000 1.000000
vt 1.000000 1.000000
vt 1.000000 1.000000
vt 1.000000 1.000000
vt 1.000000 1.000000
vt 1.000000 1.000000
vt 1.000000 1.000000
vt 1.000000 1.000000
vt 1.000000 1.000000
vt 1.000000 1.000000
vt 1.000000 1.000000
vt 1.000000 1.000000
vt 1.000000 1.000000
vt 1.000000 1.000000
vt 1.000000 1.000000
vt 1.000000 1.000000
vt 1.000000 1.000000
vt 1.000000 1.000000
vt 1.000000 1.000000
vt 1.000000 1.000000
vt 1.000000 1.000000
vt 1.000000 1.000000
vt 1.000000 1.000000
vt 1.000000 1.000000
vt 1.000000 1.000000
vt 1.000000 1.000000
vt 1.000000 1.000000
vt 1.000000 1.000000
vt 1.000000 1.000000
vt 1.000000 1.000000
vt 1.000000 1.000000
vt 1.000000 1.000000
vt 1.000000 1.000000
vt 1.000000 1.000000
vt 1.000000 1.000000
f 1/1/1 2/2/2 3/3/3
f 3/3/3 4/4/4 1/1/1
f 3/3/3 5/5/5 4/4/4
f 3/3/3 2/2/2 6/6/6
f 6/6/6 7/7/7 3/3/3
f 7/7/7 6/6/6 8/8/8
f 8/8/8 9/9/9 7/7/7
f 9/9/9 8/8/8 10/10/10
f 10/10/10 8/8/8 11/11/11
f 11/11/11 12/12/12 10/10/10
f 10/10/10 12/12/12 13/13/13
f 13/13/13 9/9/9 10/10/10
f 9/9/9 13/13/13 14/14/14
f 14/14/14 7/7/7 9/9/9
f 7/7/7 14/14/14 5/5/5
f 5/5/5 3/3/3 7/7/7
f 5/5/5 14/14/14 15/15/15
f 13/13/13 15/15/15 14/14/14
f 16/16/16 15/15/15 13/13/13
f 17/17/17 16/16/16 13/13/13
f 18/18/18 17/17/17 13/13/13
f 12/12/12 18/18/18 13/13/13
f 19/19/19 11/11/11 8/8/8
f 8/8/8 20/20/20 19/19/19
f 21/21/21 20/20/20 22/22/22
f 22/22/22 23/23/23 21/21/21
f 24/24/24 19/19/19 20/20/20
f 20/20/20 21/21/21 24/24/24
f 25/25/25 24/24/24 21/21/21
f 21/21/21 23/23/23 26/26/26
f 21/21/21 26/26/26 25/25/25
f 27/27/27 28/28/28 29/29/29
f 29/29/29 30/30/30 27/27/27
f 31/31/31 27/27/27 30/30/30
f 30/30/30 32/32/32 31/31/31
f 32/32/32 30/30/30 33/33/33
f 33/33/33 34/34/34 32/32/32
f 35/35/35 33/33/33 30/30/30
f 30/30/30 29/29/29 35/35/35
f 36/36/36 33/33/33 35/35/35
f 35/35/35 37/37/37 36/36/36
f 34/34/34 33/33/33 36/36/36
f 36/36/36 38/38/38 34/34/34
f 38/38/38 36/36/36 39/39/39
f 39/39/39 40/40/40 38/38/38
f 36/36/36 37/37/37 41/41/41
f 41/41/41 39/39/39 36/36/36
f 41/41/41 37/37/37 42/42/42
f 42/42/42 43/43/43 41/41/41
f 44/44/44 42/42/42 37/37/37
f 37/37/37 35/35/35 44/44/44
f 45/45/45 44/44/44 35/35/35
f 35/35/35 29/29/29 45/45/45
f 2/2/2 1/1/1 46/46/46
f 46/46/46 47/47/47 2/2/2
f 2/2/2 48/48/48 6/6/6
f 48/48/48 2/2/2 47/47/47
f 47/47/47 49/49/49 48/48/48
f 49/49/49 47/47/47 42/42/42
f 42/42/42 44/44/44 49/49/49
f 50/50/50 49/49/49 44/44/44
f 44/44/44 45/45/45 50/50/50
f 51/51/51 48/48/48 49/49/49
f 49/49/49 50/50/50 51/51/51
f 6/6/6 48/48/48 51/51/51
f 51/51/51 22/22/22 6/6/6
f 22/22/22 51/51/51 52/52/52
f 52/52/52 23/23/23 22/22/22
f 52/52/52 26/26/26 23/23/23
f 52/52/52 53/53/53 28/28/28
f 28/28/28 26/26/26 52/52/52
f 29/29/29 28/28/28 53/53/53
f 8/8/8 6/6/6 22/22/22
f 22/22/22 20/20/20 8/8/8
f 38/38/38 54/54/54 55/55/55
f 55/55/55 34/34/34 38/38/38
f 34/34/34 55/55/55 56/56/56
f 56/56/56 32/32/32 34/34/34
f 32/32/32 56/56/56 57/57/57
f 57/57/57 31/31/31 32/32/32
f 31/31/31 57/57/57 58/58/58
f 58/58/58 59/59/59 31/31/31
f 58/58/58 60/60/60 59/59/59
f 61/61/61 57/57/57 56/56/56
f 56/56/56 62/62/62 61/61/61
f 62/62/62 56/56/56 55/55/55
f 55/55/55 63/63/63 62/62/62
f 55/55/55 54/54/54 63/63/63
f 64/64/64 60/60/60 58/58/58
f 58/58/58 65/65/65 64/64/64
f 58/58/58 61/61/61 65/65/65
f 61/61/61 66/66/66 65/65/65
f 64/64/64 65/65/65 66/66/66
f 66/66/66 67/67/67 64/64/64
f 60/60/60 64/64/64 68/68/68
f 68/68/68 69/69/69 60/60/60
f 70/70/70 68/68/68 67/67/67
f 67/67/67 71/71/71 70/70/70
f 71/71/71 67/67/67 66/66/66
f 66/66/66 72/72/72 71/71/71
f 61/61/61 62/62/62 73/73/73
f 62/62/62 63/63/63 74/74/74
f 73/73/73 62/62/62 74/74/74
f 74/74/74 75/75/75 73/73/73
f 72/72/72 73/73/73 75/75/75
f 75/75/75 76/76/76 72/72/72
f 71/71/71 72/72/72 76/76/76
f 76/76/76 77/77/77 71/71/71
f 71/71/71 77/77/77 70/70/70
f 67/67/67 68/68/68 64/64/64
f 54/54/54 38/38/38 40/40/40
f 18/18/18 12/12/12 78/78/78
f 78/78/78 79/79/79 18/18/18
f 78/78/78 12/12/12 11/11/11
f 11/11/11 80/80/80 78/78/78
f 79/79/79 81/81/81 17/17/17
f 17/17/17 18/18/18 79/79/79
f 82/82/82 83/83/83 84/84/84
f 84/84/84 81/81/81 82/82/82
f 81/81/81 84/84/84 16/16/16
f 16/16/16 17/17/17 81/81/81
f 84/84/84 85/85/85 15/15/15
f 15/15/15 16/16/16 84/84/84
f 83/83/83 86/86/86 85/85/85
f 85/85/85 84/84/84 83/83/83
f 85/85/85 87/87/87 5/5/5
f 5/5/5 15/15/15 85/85/85
f 87/87/87 85/85/85 86/86/86
f 87/87/87 86/86/86 88/88/88
f 88/88/88 89/89/89 87/87/87
f 89/89/89 4/4/4 87/87/87
f 4/4/4 5/5/5 87/87/87
f 89/89/89 90/90/90 1/1/1
f 1/1/1 4/4/4 89/89/89
f 88/88/88 91/91/91 90/90/90
f 90/90/90 89/89/89 88/88/88
f 91/91/91 92/92/92 93/93/93
f 93/93/93 90/90/90 91/91/91
f 46/46/46 94/94/94 95/95/95
f 95/95/95 96/96/96 46/46/46
f 97/97/97 95/95/95 94/94/94
f 94/94/94 93/93/93 97/97/97
f 98/98/98 97/97/97 93/93/93
f 93/93/93 92/92/92 98/98/98
f 99/99/99 100/100/100 98/98/98
f 98/98/98 100/100/100 101/101/101
f 101/101/101 97/97/97 98/98/98
f 97/97/97 101/101/101 102/102/102
f 102/102/102 95/95/95 97/97/97
f 43/43/43 42/42/42 47/47/47
f 47/47/47 46/46/46 43/43/43
f 94/94/94 46/46/46 1/1/1
f 1/1/1 90/90/90 94/94/94
f 41/41/41 43/43/43 103/103/103
f 103/103/103 104/104/104 41/41/41
f 104/104/104 103/103/103 102/102/102
f 102/102/102 105/105/105 104/104/104
f 105/105/105 102/102/102 101/101/101
f 101/101/101 106/106/106 105/105/105
f 106/106/106 101/101/101 100/100/100
f 100/100/100 107/107/107 106/106/106
f 107/107/107 100/100/100 99/99/99
f 99/99/99 108/108/108 107/107/107
f 39/39/39 41/41/41 104/104/104
f 104/104/104 109/109/109 39/39/39
f 109/109/109 104/104/104 105/105/105
f 105/105/105 110/110/110 109/109/109
f 110/110/110 105/105/105 106/106/106
f 106/106/106 111/111/111 110/110/110
f 111/111/111 106/106/106 107/107/107
f 107/107/107 112/112/112 111/111/111
f 112/112/112 107/107/107 108/108/108
f 108/108/108 113/113/113 112/112/112
f 40/40/40 39/39/39 109/109/109
f 109/109/109 114/114/114 40/40/40
f 114/114/114 109/109/109 110/110/110
f 110/110/110 115/115/115 114/114/114
f 115/115/115 110/110/110 111/111/111
f 111/111/111 116/116/116 115/115/115
f 116/116/116 111/111/111 112/112/112
f 112/112/112 117/117/117 116/116/116
f 117/117/117 112/112/112 113/113/113
f 113/113/113 118/118/118 117/117/117
f 54/54/54 40/40/40 114/114/114
f 114/114/114 119/119/119 54/54/54
f 119/119/119 114/114/114 115/115/115
f 115/115/115 120/120/120 119/119/119
f 120/120/120 115/115/115 116/116/116
f 116/116/116 121/121/121 120/120/120
f 121/121/121 116/116/116 117/117/117
f 117/117/117 122/122/122 121/121/121
f 70/70/70 122/122/122 117/117/117
f 117/117/117 118/118/118 70/70/70
f 70/70/70 77/77/77 122/122/122
f 122/122/122 77/77/77 76/76/76
f 76/76/76 121/121/121 122/122/122
f 121/121/121 76/76/76 75/75/75
f 75/75/75 120/120/120 121/121/121
f 120/120/120 75/75/75 74/74/74
f 74/74/74 119/119/119 120/120/120
f 119/119/119 74/74/74 63/63/63
f 63/63/63 54/54/54 119/119/119
f 82/82/82 81/81/81 79/79/79
f 11/11/11 19/19/19 80/80/80
f 50/50/50 45/45/45 53/53/53
f 53/53/53 52/52/52 50/50/50
f 50/50/50 52/52/52 51/51/51
f 27/27/27 26/26/26 28/28/28
f 27/27/27 31/31/31 59/59/59
f 59/59/59 26/26/26 27/27/27
f 43/43/43 96/96/96 103/103/103
f 102/102/102 103/103/103 96/96/96
f 96/96/96 95/95/95 102/102/102
f 72/72/72 66/66/66 61/61/61
f 61/61/61 73/73/73 72/72/72
f 58/58/58 57/57/57 61/61/61
f 29/29/29 53/53/53 45/45/45
f 82/82/82 79/79/79 123/123/123
f 123/123/123 124/124/124 82/82/82
f 24/24/24 125/125/125 69/69/69
f 69/69/69 68/68/68 24/24/24
f 60/60/60 69/69/69 125/125/125
f 125/125/125 126/126/126 60/60/60
f 126/126/126 125/125/125 24/24/24
f 24/24/24 25/25/25 126/126/126
f 59/59/59 126/126/126 25/25/25
f 25/25/25 26/26/26 59/59/59
f 60/60/60 126/126/126 59/59/59
f 127/127/127 68/68/68 70/70/70
f 70/70/70 128/128/128 127/127/127
f 113/113/113 128/128/128 118/118/118
f 128/128/128 129/129/129 130/130/130
f 130/130/130 127/127/127 128/128/128
f 129/129/129 24/24/24 130/130/130
f 129/129/129 131/131/131 19/19/19
f 19/19/19 24/24/24 129/129/129
f 131/131/131 132/132/132 80/80/80
f 80/80/80 19/19/19 131/131/131
f 132/132/132 123/123/123 78/78/78
f 78/78/78 80/80/80 132/132/132
f 123/123/123 79/79/79 78/78/78
f 124/124/124 83/83/83 82/82/82
f 124/124/124 133/133/133 86/86/86
f 86/86/86 83/83/83 124/124/124
f 133/133/133 134/134/134 88/88/88
f 88/88/88 86/86/86 133/133/133
f 134/134/134 135/135/135 91/91/91
f 91/91/91 88/88/88 134/134/134
f 135/135/135 136/136/136 92/92/92
f 92/92/92 91/91/91 135/135/135
f 136/136/136 137/137/137 98/98/98
f 98/98/98 92/92/92 136/136/136
f 137/137/137 138/138/138 99/99/99
f 99/99/99 98/98/98 137/137/137
f 138/138/138 128/128/128 108/108/108
f 108/108/108 99/99/99 138/138/138
f 128/128/128 113/113/113 108/108/108
f 139/139/139 129/129/129 128/128/128
f 70/70/70 118/118/118 128/128/128
f 139/139/139 131/131/131 129/129/129
f 139/139/139 132/132/132 131/131/131
f 139/139/139 123/123/123 132/132/132
f 139/139/139 124/124/124 123/123/123
f 139/139/139 133/133/133 124/124/124
f 139/139/139 134/134/134 133/133/133
f 139/139/139 135/135/135 134/134/134
f 139/139/139 136/136/136 135/135/135
f 139/139/139 137/137/137 136/136/136
f 139/139/139 138/138/138 137/137/137
f 139/139/139 128/128/128 138/138/138
f 43/43/43 46/46/46 96/96/96
f 94/94/94 90/90/90 93/93/93
f 24/24/24 68/68/68 127/127/127
f 127/127/127 130/130/130 24/24/24
