g 1_Visual
usemtl mat1
v -1.724270 1.960334 2.464492
v -1.986438 2.331108 1.887490
v -1.027130 2.679824 1.935367
v -1.393410 2.078238 2.485302
v 0.120399 2.599788 2.157196
v -1.661430 2.646755 1.428549
v -0.730887 3.243270 1.332583
v -0.696356 3.704051 0.091987
v -0.372729 3.826864 0.394074
v -0.240903 4.125088 -0.439091
v -0.371824 4.407171 -0.581798
v 0.273500 3.924720 -0.574020
v 0.270995 3.583429 0.858616
v 0.200886 3.387802 1.258937
v 1.245664 2.604065 1.419166
v 1.791446 1.646565 1.269483
v 1.480356 2.709115 0.512048
v 1.044135 3.363656 -0.238327
v -0.528712 4.476074 -0.599402
v -0.814312 3.627439 0.020872
v -1.560803 3.451912 -0.542148
v -1.251296 3.117901 0.575901
v -1.770336 3.062607 0.203127
v -1.469252 4.557056 -0.753181
v -1.613524 3.336946 -0.923619
v -2.182089 2.908896 -0.018934
v -2.985524 2.329173 -0.028713
v -2.856529 2.485850 0.226066
v -3.383554 1.720932 0.751908
v -3.496395 1.465525 0.543154
v -3.114813 2.223419 -0.285203
v -3.635517 1.286459 0.310030
v -3.618040 1.251292 0.686182
v -3.760376 1.060458 0.474581
v -3.468596 1.464620 0.921307
v -3.973315 0.195523 1.194123
v -3.732841 0.547726 1.351571
v -4.342362 -0.289996 0.978198
v -4.272145 -0.726746 1.403617
v -4.580084 -1.272757 1.112298
v -3.706135 0.029578 1.816676
v -2.935178 1.532710 1.708692
v -2.971295 0.918793 2.158249
v -2.985058 2.002790 1.362718
v -3.035233 2.191148 1.104443
v -2.073772 1.750137 2.395062
v -2.240699 2.206463 1.878198
v -2.178058 2.626077 1.506999
v -2.307820 2.583193 1.520610
v -2.322038 2.863505 1.115581
v -2.163858 2.920402 1.064442
v -2.181285 2.985136 0.593772
v -2.953245 2.406516 0.685460
v -4.831793 -0.483920 0.446135
v -4.211214 0.532990 -0.054120
v -3.985748 0.839092 -0.296891
v -3.512990 1.734443 -0.973029
v -3.139098 1.972760 -1.626757
v -2.391052 2.804275 -0.929922
v -2.123739 3.155141 -1.174046
v -3.781739 1.299991 -1.645448
v -4.481852 0.235117 -0.978211
v -4.723378 -0.028114 -0.546501
v -2.236802 3.233170 -1.579370
v -3.120699 2.060132 -1.826975
v -3.672901 2.156527 -1.786075
v -3.173650 3.374787 -1.694933
v -2.123900 4.800380 -0.648841
v -2.091779 4.743229 -0.809069
v -3.015830 4.772560 -0.504024
v -3.872270 3.540503 -1.256958
v -4.302706 2.287664 -1.328561
v -4.404667 1.498933 -1.289249
v -4.833985 0.260482 -0.630660
v -4.772836 1.319123 -0.553208
v -4.672346 2.449310 -0.594843
v -4.324535 3.764930 -0.645419
v 0.212614 4.298650 -0.468139
v 1.168589 3.466439 0.025005
v -0.219469 4.615742 -0.661662
v 1.322961 3.098967 0.450537
v 1.207031 3.316630 0.405808
v 1.067213 3.569064 0.889433
v 1.351951 2.855939 0.980442
v 1.169957 3.286088 1.367378
v 0.435700 4.045402 1.811138
v 0.068639 3.090406 2.301938
v -0.221970 4.465663 1.818210
v -0.675010 3.419530 2.448690
v -1.248496 3.472561 2.391684
v -0.798545 4.500836 1.806080
v -0.983698 4.495310 1.808227
v -1.422037 3.469140 2.361423
v -1.596143 2.990299 2.451003
v -2.299078 2.404471 2.492521
v -2.517164 1.385035 2.330913
v -1.962149 3.456892 2.261407
v -1.606937 4.561770 1.738307
v -2.317310 4.935720 1.249190
v -2.323605 4.590029 1.751069
v -2.771546 3.342530 2.049200
v -2.970225 2.228033 2.234761
v -2.995621 1.097788 2.256789
v -3.691927 0.398618 1.971017
v -3.562003 1.940084 1.973044
v -3.352790 3.181979 1.878196
v -2.858917 4.524884 1.621828
v -2.592120 5.019850 0.911118
v -4.360970 -0.609992 1.431844
v -4.252522 1.450775 1.624734
v -4.067037 2.910797 1.569678
v -3.691452 4.294220 1.168929
v -2.964590 4.975810 0.298676
v -4.683230 -1.300134 1.177990
v -4.569989 1.309974 1.305423
v -4.426673 2.738003 1.165599
v -3.946327 4.166002 0.831735
v -3.060820 4.918020 0.097543
v -4.950070 -0.217711 0.458664
v -4.754470 1.357355 0.448840
v -4.695060 2.630483 0.274155
v -4.339048 3.929589 -0.048449
v 0.395747 4.452332 0.364065
v 0.541076 4.299085 0.566341
v -1.707385 4.552663 -0.970016
v -1.881474 3.265739 -1.258148
v -1.831150 4.699090 -0.322722
v -1.813560 5.157170 0.662230
v -0.784062 4.974500 0.263673
v -1.537761 4.627745 -0.420763
v -0.443867 5.027890 0.133754
v -0.069211 4.808531 0.136178
v 0.206988 4.649136 1.183021
v -0.114910 4.841507 1.197815
v -0.674762 4.895640 1.178760
v -0.817242 4.906540 1.185990
v -1.205680 4.941950 1.131210
v -1.620430 5.122820 0.907985
v -0.499531 5.045810 0.672108
v -1.426581 3.147660 1.899426
v -1.694880 4.297693 0.620302
v -2.261056 4.462067 0.958585
v -1.409766 3.623246 1.530000
v -1.298618 3.965003 0.379866
v -1.714229 3.578850 0.488436
v -1.660620 3.902982 0.879778
v -2.329021 3.497844 0.348101
v -1.679306 4.329597 0.222070
v -1.681183 3.728665 0.161149
v -0.894683 4.525618 0.840802
v -2.538881 2.744718 1.782823
v -2.613328 3.118006 1.101770
v -3.061584 2.676462 1.418524
v -2.012502 2.958554 1.677181
v -2.115873 3.386676 0.970659
v -0.980493 4.350298 1.131099
v -3.220364 4.062016 0.197455
v -3.651826 3.236507 -0.034005
v -2.555999 3.825463 -0.525124
v -2.726891 4.266600 0.358732
v -3.084451 3.046411 0.528585
v -3.031400 3.164704 -0.597841
v -3.302094 3.418172 0.892172
v -3.672779 2.621441 -0.621560
v -3.240275 2.857803 -0.888519
v -4.142670 1.369949 0.188746
v -3.764863 2.309415 0.417165
v -2.671835 1.798490 2.191071
v -0.385161 4.436681 0.056545
v -1.025908 4.268116 0.119657
v -2.386885 4.300181 0.479262
v -1.725001 4.316388 -0.313573
v 0.288707 3.971305 0.144814
v -0.131558 4.312585 0.742953
v 1.138987 3.132684 0.487653
v -3.887719 1.922542 1.147553
v -2.737311 3.684270 1.154467
v -3.631090 1.632301 1.425907
v -2.277957 3.880460 1.176993
v -3.804182 1.432314 0.672048
v -4.232519 0.487406 1.244935
v -3.259893 2.731819 1.407629
vn 0.221722 -0.579291 0.784386
vn 0.303863 -0.761988 -0.571876
vn 0.225730 -0.763151 -0.605514
vn 0.294319 -0.586266 0.754764
vn 0.241082 -0.938363 -0.247697
vn 0.336705 -0.851145 -0.402718
vn 0.277084 -0.818588 -0.503129
vn 0.475985 -0.811888 -0.338047
vn 0.185056 -0.899092 -0.396720
vn -0.175538 -0.908040 -0.380328
vn -0.135860 -0.383043 -0.913685
vn -0.384905 -0.797701 -0.464242
vn -0.547894 -0.785242 -0.288456
vn -0.165596 -0.790013 -0.590302
vn -0.194067 -0.953590 0.230226
vn -0.427729 -0.871004 -0.241659
vn -0.469522 -0.692429 -0.547806
vn -0.361813 -0.771103 -0.523919
vn 0.026522 0.256884 -0.966078
vn 0.443807 -0.571248 -0.690443
vn 0.656900 -0.612280 -0.439994
vn 0.305411 -0.901960 -0.305275
vn 0.332976 -0.922119 -0.197036
vn 0.571278 0.229774 -0.787937
vn 0.794963 -0.573793 -0.196966
vn 0.560964 -0.827823 -0.005349
vn 0.706174 -0.707967 -0.010040
vn 0.682194 -0.728647 0.060704
vn 0.858916 -0.511460 -0.025928
vn 0.854842 -0.515431 -0.059803
vn 0.753555 -0.657304 0.010289
vn 0.842162 -0.529626 -0.101291
vn 0.880275 -0.438881 -0.180275
vn 0.841827 -0.489790 -0.226788
vn 0.852228 -0.416245 -0.316935
vn 0.837811 -0.405249 -0.365848
vn 0.781113 -0.401395 -0.478273
vn 0.799944 -0.443800 -0.403895
vn 0.842563 -0.513608 -0.162157
vn 0.782585 -0.404708 -0.473046
vn 0.806413 -0.523973 -0.274137
vn 0.685643 -0.435140 -0.583564
vn 0.699697 -0.542331 -0.465081
vn 0.711323 -0.463900 -0.528030
vn 0.756864 -0.571840 -0.316474
vn 0.618320 -0.695192 0.366590
vn 0.569786 -0.517405 -0.638463
vn 0.056947 -0.788296 -0.612656
vn 0.554926 -0.562227 -0.613154
vn 0.606677 -0.734233 -0.304704
vn 0.020689 -0.909612 -0.414944
vn 0.416323 -0.909155 -0.010658
vn 0.709449 -0.702166 -0.060373
vn 0.585221 -0.648908 -0.486245
vn 0.788357 -0.580253 -0.204448
vn 0.831875 -0.550885 -0.067158
vn 0.814911 -0.579374 -0.015701
vn 0.735330 -0.677710 0.000255
vn 0.639450 -0.768607 -0.018614
vn 0.587094 -0.243679 -0.771972
vn 0.383740 -0.607662 -0.695334
vn 0.329306 -0.721366 -0.609252
vn 0.364804 -0.875570 -0.316695
vn 0.439546 0.131962 -0.888474
vn 0.233581 -0.153854 -0.960088
vn -0.282091 0.122492 -0.951536
vn -0.104731 0.470500 -0.876163
vn 0.169160 0.671278 -0.721645
vn -0.380957 0.424445 -0.821412
vn -0.336999 0.836342 -0.432393
vn -0.567977 0.421207 -0.707097
vn -0.743360 0.140426 -0.653985
vn -0.734690 -0.028953 -0.677785
vn -0.970731 0.014226 -0.239746
vn -0.978647 0.071006 -0.192896
vn -0.929133 0.199220 -0.311487
vn -0.719314 0.530419 -0.448601
vn 0.663717 0.576820 -0.476191
vn 0.803721 0.550541 -0.225692
vn 0.335930 0.752884 -0.565965
vn 0.911861 0.392998 0.118581
vn 0.848082 0.528785 0.033818
vn 0.820074 0.560347 0.116144
vn 0.912302 0.357665 0.199452
vn 0.736788 0.195352 0.647287
vn 0.677050 0.503519 0.536724
vn 0.400394 0.091928 0.911720
vn 0.217121 0.544811 0.809963
vn 0.103688 0.195109 0.975285
vn -0.033010 0.328360 0.943976
vn 0.007469 0.680742 0.732485
vn -0.009718 0.651714 0.758403
vn -0.112604 0.449605 0.886101
vn -0.043058 0.088328 0.995160
vn -0.195619 0.077307 0.977628
vn -0.164330 -0.112739 0.979942
vn -0.267157 0.349031 0.898223
vn -0.067962 0.593053 0.802290
vn -0.054949 0.852059 0.520553
vn -0.161310 0.427598 0.889460
vn -0.273262 0.281311 0.919887
vn -0.368936 0.113950 0.922443
vn -0.208201 -0.107240 0.972189
vn -0.460241 -0.035847 0.887070
vn -0.487542 0.066609 0.870555
vn -0.406687 0.214660 0.887990
vn -0.440860 0.517477 0.733389
vn -0.341444 0.896851 0.281200
vn -0.501383 -0.057136 0.863337
vn -0.547727 0.029902 0.836122
vn -0.602012 0.252932 0.757369
vn -0.619676 0.607224 0.497273
vn -0.436556 0.892234 0.115491
vn -0.845863 -0.052753 0.530785
vn -0.897754 0.075741 0.433936
vn -0.903042 0.235587 0.359184
vn -0.788401 0.593852 0.160510
vn -0.426030 0.883129 -0.196420
vn -0.990493 0.015989 0.136632
vn -0.989439 0.095792 0.108781
vn -0.969769 0.204887 0.132551
vn -0.832847 0.553447 0.007874
vn 0.715415 0.691372 -0.100928
vn 0.752030 0.656791 0.055459
vn -0.005875 0.290040 -0.956997
vn 0.551157 -0.141773 -0.822269
vn 0.131688 0.953684 -0.270452
vn 0.008186 0.961923 -0.273197
vn -0.008604 0.919247 -0.393588
vn -0.020684 0.918652 -0.394526
vn 0.011940 0.932948 -0.359813
vn 0.601029 0.781367 -0.168018
vn 0.643447 0.742144 0.187613
vn 0.190804 0.880847 0.433247
vn 0.062621 0.884795 0.461754
vn 0.033949 0.871993 0.488341
vn 0.065125 0.861421 0.503699
vn 0.028797 0.938767 0.343348
vn 0.323349 0.944451 0.058810
vt 1.000000 1.000000
vt 1.000000 1.000000
vt 1.000000 1.000000
vt 1.000000 1.000000
vt 1.000000 1.000000
vt 1.000000 1.000000
vt 1.000000 1.000000
vt 1.000000 1.000000
vt 1.000000 1.000000
vt 1.000000 1.000000
vt 1.000000 1.000000
vt 1.000000 1.000000
vt 1.000000 1.000000
vt 1.000000 1.000000
vt 1.000000 1.000000
vt 1.000000 1.000000
vt 1.000000 1.000000
vt 1.000000 1.000000
vt 1.000000 1.000000
vt 1.000000 1.000000
vt 1.000000 1.000000
vt 1.000000 1.000000
vt 1.000000 1.000000
vt 1.000000 1.000000
vt 1.000000 1.000000
vt 1.000000 1.000000
vt 1.000000 1.000000
vt 1.000000 1.000000
vt 1.000000 1.000000
vt 1.000000 1.000000
vt 1.000000 1.000000
vt 1.000000 1.000000
vt 1.000000 1.000000
vt 1.000000 1.000000
vt 1.000000 1.000000
vt 1.000000 1.000000
vt 1.000000 1.000000
vt 1.000000 1.000000
vt 1.000000 1.000000
vt 1.000000 1.000000
vt 1.000000 1.000000
vt 1.000000 1.000000
vt 1.000000 1.000000
vt 1.000000 1.000000
vt 1.000000 1.000000
vt 1.000000 1.000000
vt 1.000000 1.000000
vt 1.000000 1.000000
vt 1.000000 1.000000
vt 1.000000 1.000000
vt 1.000000 1.000000
vt 1.000000 1.000000
vt 1.000000 1.000000
vt 1.000000 1.000000
vt 1.000000 1.000000
vt 1.000000 1.000000
vt 1.000000 1.000000
vt 1.000000 1.000000
vt 1.000000 1.000000
vt 1.000000 1.000000
vt 1.000000 1.000000
vt 1.000000 1.000000
vt 1.000000 1.000000
vt 1.000000 1.000000
vt 1.000000 1.000000
vt 1.000000 1.000000
vt 1.000000 1.000000
vt 1.000000 1.000000
vt 1.000000 1.000000
vt 1.000000 1.000000
vt 1.000000 1.000000
vt 1.000000 1.000000
vt 1.000000 1.000000
vt 1.000000 1.000000
vt 1.000000 1.000000
vt 1.000000 1.000000
vt 1.000000 1.000000
vt 1.000000 1.000000
vt 1.000000 1.000000
vt 1.000000 1.000000
vt 1.000000 1.000000
vt 1.000000 1.000000
vt 1.000000 1.000000
vt 1.000000 1.000000
vt 1.000000 1.000000
vt 1.000000 1.000000
vt 1.000000 1.000000
vt 1.000000 1.000000
vt 1.000000 1.000000
vt 1.000000 1.000000
vt 1.000000 1.000000
vt 1.000000 1.000000
vt 1.000000 1.000000
vt 1.000000 1.000000
vt 1.000000 1.000000
vt 1.000000 1.000000
vt 1.000000 1.000000
vt 1.000000 1.000000
vt 1.000000 1.000000
vt 1.000000 1.000000
vt 1.000000 1.000000
vt 1.000000 1.000000
vt 1.000000 1.000000
vt 1.000000 1.000000
vt 1.000000 1.000000
vt 1.000000 1.000000
vt 1.000000 1.000000
vt 1.000000 1.000000
vt 1.000000 1.000000
vt 1.000000 1.000000
vt 1.000000 1.000000
vt 1.000000 1.000000
vt 1.000000 1.000000
vt 1.000000 1.000000
vt 1.000000 1.000000
vt 1.000000 1.000000
vt 1.000000 1.000000
vt 1.000000 1.000000
vt 1.000000 1.000000
vt 1.000000 1.000000
vt 1.000000 1.000000
vt 1.000000 1.000000
vt 1.000000 1.000000
vt 1.000000 1.000000
vt 1.000000 1.000000
vt 1.000000 1.000000
vt 1.000000 1.000000
vt 1.000000 1.000000
vt 1.000000 1.000000
vt 1.000000 1.000000
vt 1.000000 1.000000
vt 1.000000 1.000000
vt 1.000000 1.000000
vt 1.000000 1.000000
vt 1.000000 1.000000
vt 1.000000 1.000000
vt 1.000000 1.000000
vt 1.000000 1.000000
vt 1.000000 1.000000
f 1/1/1 2/2/2 3/3/3
f 3/3/3 4/4/4 1/1/1
f 3/3/3 5/5/5 4/4/4
f 3/3/3 2/2/2 6/6/6
f 6/6/6 7/7/7 3/3/3
f 7/7/7 6/6/6 8/8/8
f 8/8/8 9/9/9 7/7/7
f 9/9/9 8/8/8 10/10/10
f 10/10/10 8/8/8 11/11/11
f 11/11/11 12/12/12 10/10/10
f 10/10/10 12/12/12 13/13/13
f 13/13/13 9/9/9 10/10/10
f 9/9/9 13/13/13 14/14/14
f 14/14/14 7/7/7 9/9/9
f 7/7/7 14/14/14 5/5/5
f 5/5/5 3/3/3 7/7/7
f 5/5/5 14/14/14 15/15/15
f 13/13/13 15/15/15 14/14/14
f 16/16/16 15/15/15 13/13/13
f 17/17/17 16/16/16 13/13/13
f 18/18/18 17/17/17 13/13/13
f 12/12/12 18/18/18 13/13/13
f 19/19/19 11/11/11 8/8/8
f 8/8/8 20/20/20 19/19/19
f 21/21/21 20/20/20 22/22/22
f 22/22/22 23/23/23 21/21/21
f 24/24/24 19/19/19 20/20/20
f 20/20/20 21/21/21 24/24/24
f 25/25/25 24/24/24 21/21/21
f 21/21/21 23/23/23 26/26/26
f 21/21/21 26/26/26 25/25/25
f 27/27/27 28/28/28 29/29/29
f 29/29/29 30/30/30 27/27/27
f 31/31/31 27/27/27 30/30/30
f 30/30/30 32/32/32 31/31/31
f 32/32/32 30/30/30 33/33/33
f 33/33/33 34/34/34 32/32/32
f 35/35/35 33/33/33 30/30/30
f 30/30/30 29/29/29 35/35/35
f 36/36/36 33/33/33 35/35/35
f 35/35/35 37/37/37 36/36/36
f 34/34/34 33/33/33 36/36/36
f 36/36/36 38/38/38 34/34/34
f 38/38/38 36/36/36 39/39/39
f 39/39/39 40/40/40 38/38/38
f 36/36/36 37/37/37 41/41/41
f 41/41/41 39/39/39 36/36/36
f 41/41/41 37/37/37 42/42/42
f 42/42/42 43/43/43 41/41/41
f 44/44/44 42/42/42 37/37/37
f 37/37/37 35/35/35 44/44/44
f 45/45/45 44/44/44 35/35/35
f 35/35/35 29/29/29 45/45/45
f 2/2/2 1/1/1 46/46/46
f 46/46/46 47/47/47 2/2/2
f 2/2/2 48/48/48 6/6/6
f 48/48/48 2/2/2 47/47/47
f 47/47/47 49/49/49 48/48/48
f 49/49/49 47/47/47 42/42/42
f 42/42/42 44/44/44 49/49/49
f 50/50/50 49/49/49 44/44/44
f 44/44/44 45/45/45 50/50/50
f 51/51/51 48/48/48 49/49/49
f 49/49/49 50/50/50 51/51/51
f 6/6/6 48/48/48 51/51/51
f 51/51/51 22/22/22 6/6/6
f 22/22/22 51/51/51 52/52/52
f 52/52/52 23/23/23 22/22/22
f 52/52/52 26/26/26 23/23/23
f 52/52/52 53/53/53 28/28/28
f 28/28/28 26/26/26 52/52/52
f 29/29/29 28/28/28 53/53/53
f 8/8/8 6/6/6 22/22/22
f 22/22/22 20/20/20 8/8/8
f 38/38/38 54/54/54 55/55/55
f 55/55/55 34/34/34 38/38/38
f 34/34/34 55/55/55 56/56/56
f 56/56/56 32/32/32 34/34/34
f 32/32/32 56/56/56 57/57/57
f 57/57/57 31/31/31 32/32/32
f 31/31/31 57/57/57 58/58/58
f 58/58/58 59/59/59 31/31/31
f 58/58/58 60/60/60 59/59/59
f 61/61/61 57/57/57 56/56/56
f 56/56/56 62/62/62 61/61/61
f 62/62/62 56/56/56 55/55/55
f 55/55/55 63/63/63 62/62/62
f 55/55/55 54/54/54 63/63/63
f 64/64/64 60/60/60 58/58/58
f 58/58/58 65/65/65 64/64/64
f 58/58/58 61/61/61 65/65/65
f 61/61/61 66/66/66 65/65/65
f 64/64/64 65/65/65 66/66/66
f 66/66/66 67/67/67 64/64/64
f 60/60/60 64/64/64 68/68/68
f 68/68/68 69/69/69 60/60/60
f 70/70/70 68/68/68 67/67/67
f 67/67/67 71/71/71 70/70/70
f 71/71/71 67/67/67 66/66/66
f 66/66/66 72/72/72 71/71/71
f 61/61/61 62/62/62 73/73/73
f 62/62/62 63/63/63 74/74/74
f 73/73/73 62/62/62 74/74/74
f 74/74/74 75/75/75 73/73/73
f 72/72/72 73/73/73 75/75/75
f 75/75/75 76/76/76 72/72/72
f 71/71/71 72/72/72 76/76/76
f 76/76/76 77/77/77 71/71/71
f 71/71/71 77/77/77 70/70/70
f 67/67/67 68/68/68 64/64/64
f 54/54/54 38/38/38 40/40/40
f 18/18/18 12/12/12 78/78/78
f 78/78/78 79/79/79 18/18/18
f 78/78/78 12/12/12 11/11/11
f 11/11/11 80/80/80 78/78/78
f 79/79/79 81/81/81 17/17/17
f 17/17/17 18/18/18 79/79/79
f 82/82/82 83/83/83 84/84/84
f 84/84/84 81/81/81 82/82/82
f 81/81/81 84/84/84 16/16/16
f 16/16/16 17/17/17 81/81/81
f 84/84/84 85/85/85 15/15/15
f 15/15/15 16/16/16 84/84/84
f 83/83/83 86/86/86 85/85/85
f 85/85/85 84/84/84 83/83/83
f 85/85/85 87/87/87 5/5/5
f 5/5/5 15/15/15 85/85/85
f 87/87/87 85/85/85 86/86/86
f 87/87/87 86/86/86 88/88/88
f 88/88/88 89/89/89 87/87/87
f 89/89/89 4/4/4 87/87/87
f 4/4/4 5/5/5 87/87/87
f 89/89/89 90/90/90 1/1/1
f 1/1/1 4/4/4 89/89/89
f 88/88/88 91/91/91 90/90/90
f 90/90/90 89/89/89 88/88/88
f 91/91/91 92/92/92 93/93/93
f 93/93/93 90/90/90 91/91/91
f 46/46/46 94/94/94 95/95/95
f 95/95/95 96/96/96 46/46/46
f 97/97/97 95/95/95 94/94/94
f 94/94/94 93/93/93 97/97/97
f 98/98/98 97/97/97 93/93/93
f 93/93/93 92/92/92 98/98/98
f 99/99/99 100/100/100 98/98/98
f 98/98/98 100/100/100 101/101/101
f 101/101/101 97/97/97 98/98/98
f 97/97/97 101/101/101 102/102/102
f 102/102/102 95/95/95 97/97/97
f 43/43/43 42/42/42 47/47/47
f 47/47/47 46/46/46 43/43/43
f 94/94/94 46/46/46 1/1/1
f 1/1/1 90/90/90 94/94/94
f 41/41/41 43/43/43 103/103/103
f 103/103/103 104/104/104 41/41/41
f 104/104/104 103/103/103 102/102/102
f 102/102/102 105/105/105 104/104/104
f 105/105/105 102/102/102 101/101/101
f 101/101/101 106/106/106 105/105/105
f 106/106/106 101/101/101 100/100/100
f 100/100/100 107/107/107 106/106/106
f 107/107/107 100/100/100 99/99/99
f 99/99/99 108/108/108 107/107/107
f 39/39/39 41/41/41 104/104/104
f 104/104/104 109/109/109 39/39/39
f 109/109/109 104/104/104 105/105/105
f 105/105/105 110/110/110 109/109/109
f 110/110/110 105/105/105 106/106/106
f 106/106/106 111/111/111 110/110/110
f 111/111/111 106/106/106 107/107/107
f 107/107/107 112/112/112 111/111/111
f 112/112/112 107/107/107 108/108/108
f 108/108/108 113/113/113 112/112/112
f 40/40/40 39/39/39 109/109/109
f 109/109/109 114/114/114 40/40/40
f 114/114/114 109/109/109 110/110/110
f 110/110/110 115/115/115 114/114/114
f 115/115/115 110/110/110 111/111/111
f 111/111/111 116/116/116 115/115/115
f 116/116/116 111/111/111 112/112/112
f 112/112/112 117/117/117 116/116/116
f 117/117/117 112/112/112 113/113/113
f 113/113/113 118/118/118 117/117/117
f 54/54/54 40/40/40 114/114/114
f 114/114/114 119/119/119 54/54/54
f 119/119/119 114/114/114 115/115/115
f 115/115/115 120/120/120 119/119/119
f 120/120/120 115/115/115 116/116/116
f 116/116/116 121/121/121 120/120/120
f 121/121/121 116/116/116 117/117/117
f 117/117/117 122/122/122 121/121/121
f 70/70/70 122/122/122 117/117/117
f 117/117/117 118/118/118 70/70/70
f 70/70/70 77/77/77 122/122/122
f 122/122/122 77/77/77 76/76/76
f 76/76/76 121/121/121 122/122/122
f 121/121/121 76/76/76 75/75/75
f 75/75/75 120/120/120 121/121/121
f 120/120/120 75/75/75 74/74/74
f 74/74/74 119/119/119 120/120/120
f 119/119/119 74/74/74 63/63/63
f 63/63/63 54/54/54 119/119/119
f 82/82/82 81/81/81 79/79/79
f 11/11/11 19/19/19 80/80/80
f 50/50/50 45/45/45 53/53/53
f 53/53/53 52/52/52 50/50/50
f 50/50/50 52/52/52 51/51/51
f 27/27/27 26/26/26 28/28/28
f 27/27/27 31/31/31 59/59/59
f 59/59/59 26/26/26 27/27/27
f 43/43/43 96/96/96 103/103/103
f 102/102/102 103/103/103 96/96/96
f 96/96/96 95/95/95 102/102/102
f 72/72/72 66/66/66 61/61/61
f 61/61/61 73/73/73 72/72/72
f 58/58/58 57/57/57 61/61/61
f 29/29/29 53/53/53 45/45/45
f 82/82/82 79/79/79 123/123/123
f 123/123/123 124/124/124 82/82/82
f 24/24/24 125/125/125 69/69/69
f 69/69/69 68/68/68 24/24/24
f 60/60/60 69/69/69 125/125/125
f 125/125/125 126/126/126 60/60/60
f 126/126/126 125/125/125 24/24/24
f 24/24/24 25/25/25 126/126/126
f 59/59/59 126/126/126 25/25/25
f 25/25/25 26/26/26 59/59/59
f 60/60/60 126/126/126 59/59/59
f 127/127/127 68/68/68 70/70/70
f 70/70/70 128/128/128 127/127/127
f 113/113/113 128/128/128 118/118/118
f 128/128/128 129/129/129 130/130/130
f 130/130/130 127/127/127 128/128/128
f 129/129/129 24/24/24 130/130/130
f 129/129/129 131/131/131 19/19/19
f 19/19/19 24/24/24 129/129/129
f 131/131/131 132/132/132 80/80/80
f 80/80/80 19/19/19 131/131/131
f 132/132/132 123/123/123 78/78/78
f 78/78/78 80/80/80 132/132/132
f 123/123/123 79/79/79 78/78/78
f 124/124/124 83/83/83 82/82/82
f 124/124/124 133/133/133 86/86/86
f 86/86/86 83/83/83 124/124/124
f 133/133/133 134/134/134 88/88/88
f 88/88/88 86/86/86 133/133/133
f 134/134/134 135/135/135 91/91/91
f 91/91/91 88/88/88 134/134/134
f 135/135/135 136/136/136 92/92/92
f 92/92/92 91/91/91 135/135/135
f 136/136/136 137/137/137 98/98/98
f 98/98/98 92/92/92 136/136/136
f 137/137/137 138/138/138 99/99/99
f 99/99/99 98/98/98 137/137/137
f 138/138/138 128/128/128 108/108/108
f 108/108/108 99/99/99 138/138/138
f 128/128/128 113/113/113 108/108/108
f 139/139/139 129/129/129 128/128/128
f 70/70/70 118/118/118 128/128/128
f 139/139/139 131/131/131 129/129/129
f 139/139/139 132/132/132 131/131/131
f 139/139/139 123/123/123 132/132/132
f 139/139/139 124/124/124 123/123/123
f 139/139/139 133/133/133 124/124/124
f 139/139/139 134/134/134 133/133/133
f 139/139/139 135/135/135 134/134/134
f 139/139/139 136/136/136 135/135/135
f 139/139/139 137/137/137 136/136/136
f 139/139/139 138/138/138 137/137/137
f 139/139/139 128/128/128 138/138/138
f 43/43/43 46/46/46 96/96/96
f 94/94/94 90/90/90 93/93/93
f 24/24/24 68/68/68 127/127/127
f 127/127/127 130/130/130 24/24/24
