g 1_Visual
usemtl mat1
v -1.723175 1.967729 2.497476
v -1.984398 2.333042 1.914742
v -1.024092 2.682305 1.959292
v -1.391359 2.085913 2.517518
v 0.125688 2.607046 2.180692
v -1.658423 2.646607 1.452120
v -0.728986 3.243782 1.348143
v -0.695385 3.702195 0.100632
v -0.372049 3.826480 0.399507
v -0.241841 4.123521 -0.435435
v -0.372188 4.406916 -0.580122
v 0.270007 3.919644 -0.570739
v 0.269718 3.585813 0.863769
v 0.201113 3.391582 1.268970
v 1.244862 2.616924 1.429852
v 1.787446 1.639762 1.276310
v 1.479683 2.707374 0.513129
v 1.040011 3.357330 -0.235338
v -0.528826 4.475965 -0.598216
v -0.813275 3.625141 0.031059
v -1.558295 3.448004 -0.527996
v -1.248727 3.116217 0.593567
v -1.766742 3.059511 0.221601
v -1.469084 4.557019 -0.752508
v -1.610892 3.330705 -0.906278
v -2.177379 2.904541 0.001601
v -2.978676 2.322631 -0.002463
v -2.850432 2.481246 0.250154
v -3.378046 1.717623 0.781466
v -3.490150 1.460624 0.575241
v -3.107234 2.214686 -0.257301
v -3.628597 1.279613 0.343799
v -3.612288 1.247075 0.719009
v -3.753932 1.054520 0.508865
v -3.463577 1.461895 0.952476
v -3.970326 0.193194 1.228526
v -3.730387 0.546143 1.386357
v -4.338906 -0.293774 1.009919
v -4.272470 -0.729243 1.433303
v -4.579042 -1.277009 1.138483
v -3.708312 0.029960 1.852513
v -2.933579 1.533393 1.741723
v -2.973078 0.922850 2.196491
v -2.981811 2.002029 1.390465
v -3.031099 2.189635 1.129997
v -2.073532 1.756865 2.429543
v -2.238917 2.208273 1.906375
v -2.175313 2.626060 1.529738
v -2.305118 2.583181 1.543593
v -2.318599 2.862564 1.134877
v -2.160450 2.919395 1.083309
v -2.177252 2.983122 0.612152
v -2.948027 2.403784 0.709346
v -4.829363 -0.493098 0.479484
v -4.203936 0.520974 -0.016123
v -3.977275 0.825316 -0.258516
v -3.503306 1.716963 -0.938783
v -3.129157 1.949558 -1.591947
v -2.385134 2.794093 -0.905702
v -2.119276 3.145810 -1.153388
v -3.770345 1.272671 -1.605913
v -4.472061 0.211421 -0.934134
v -4.715717 -0.047647 -0.504671
v -2.232287 3.221691 -1.557856
v -3.110531 2.034898 -1.792529
v -3.661634 2.131115 -1.754577
v -3.165606 3.361413 -1.676301
v -2.123900 4.800380 -0.648841
v -2.091603 4.743145 -0.808591
v -3.015830 4.772560 -0.504024
v -3.863213 3.527851 -1.243613
v -4.291592 2.265486 -1.301543
v -4.393987 1.474621 -1.254670
v -4.826553 0.240696 -0.590408
v -4.765139 1.302727 -0.520880
v -4.663387 2.434921 -0.572825
v -4.317060 3.754884 -0.637312
v 0.210632 4.295356 -0.467608
v 1.164014 3.464408 0.025769
v -0.219664 4.615396 -0.661598
v 1.319202 3.100453 0.452125
v 1.204150 3.318774 0.408071
v 1.066616 3.574359 0.892939
v 1.349882 2.864557 0.982959
v 1.168642 3.294424 1.374016
v 0.437134 4.049645 1.816622
v 0.073377 3.097163 2.319339
v -0.221521 4.466230 1.819835
v -0.672390 3.423215 2.462976
v -1.247117 3.475147 2.405079
v -0.798376 4.500858 1.807203
v -0.983523 4.495322 1.809382
v -1.420935 3.471486 2.374739
v -1.594929 2.994789 2.470482
v -2.299323 2.410296 2.518145
v -2.518212 1.391046 2.367598
v -1.961478 3.458569 2.274314
v -1.606835 4.561767 1.738876
v -2.317310 4.935720 1.249190
v -2.323539 4.590022 1.751403
v -2.770943 3.343308 2.062082
v -2.970807 2.231205 2.259809
v -2.997854 1.102448 2.293100
v -3.694583 0.399766 2.005227
v -3.562115 1.941218 1.997524
v -3.351973 3.182384 1.891422
v -2.858724 4.524865 1.622659
v -2.592120 5.019850 0.911118
v -4.361365 -0.612668 1.459298
v -4.251825 1.450561 1.647741
v -4.065711 2.910997 1.583059
v -3.690488 4.293813 1.171420
v -2.964590 4.975810 0.298676
v -4.682917 -1.303339 1.201542
v -4.569233 1.308887 1.329494
v -4.424429 2.737039 1.180523
v -3.944482 4.164532 0.835143
v -3.060820 4.918020 0.097543
v -4.948755 -0.226042 0.491612
v -4.750886 1.351549 0.476409
v -4.689478 2.624437 0.291669
v -4.334022 3.923534 -0.043026
v 0.395459 4.453365 0.365268
v 0.541075 4.300949 0.568251
v -1.707189 4.552529 -0.969189
v -1.878046 3.256750 -1.238321
v -1.831150 4.699090 -0.322722
v -1.813560 5.157170 0.662230
v -0.784062 4.974500 0.263673
v -1.537752 4.627741 -0.420733
v -0.443867 5.027890 0.133754
v -0.069333 4.808506 0.136673
v 0.207035 4.650765 1.185304
v -0.114841 4.841977 1.198636
v -0.674762 4.895640 1.178760
v -0.817242 4.906540 1.185990
v -1.205680 4.941950 1.131210
v -1.620430 5.122820 0.907985
v -0.499531 5.045810 0.672108
v -1.424605 3.148950 1.916217
v -1.693998 4.297573 0.622706
v -2.260551 4.462019 0.959818
v -1.408152 3.623449 1.540168
v -1.297022 3.964726 0.384917
v -1.711583 3.578079 0.498829
v -1.658883 3.902887 0.885960
v -2.325449 3.496563 0.359411
v -1.678438 4.329525 0.224175
v -1.678769 3.727618 0.169666
v -0.894574 4.525593 0.841542
v -2.537160 2.745426 1.803172
v -2.610069 3.117304 1.117169
v -3.058827 2.676126 1.438042
v -2.010347 2.959058 1.695727
v -2.113039 3.386105 0.983367
v -0.980178 4.350299 1.133197
v -3.217278 4.061358 0.201640
v -3.645333 3.232107 -0.020555
v -2.552417 3.823462 -0.516968
v -2.725301 4.266412 0.361378
v -3.079562 3.044405 0.544413
v -3.024790 3.158470 -0.581106
v -3.298572 3.417459 0.902924
v -3.664061 2.610825 -0.599139
v -3.232159 2.847387 -0.867137
v -4.136228 1.362151 0.219608
v -3.758838 2.305211 0.439698
v -2.672125 1.802404 2.222358
v -0.385323 4.436652 0.057530
v -1.025286 4.268009 0.121977
v -2.385659 4.300064 0.481652
v -1.724086 4.316082 -0.311171
v 0.287124 3.970910 0.146176
v -0.131888 4.312897 0.744751
v 1.136742 3.135246 0.491265
v -3.884323 1.921379 1.171091
v -2.734975 3.684006 1.162872
v -3.628496 1.631660 1.453182
v -2.276178 3.880287 1.183516
v -3.798682 1.428411 0.702025
v -4.230231 0.485594 1.274360
vn 0.221813 -0.571454 0.790088
vn 0.304092 -0.767638 -0.564146
vn 0.225883 -0.768948 -0.598076
vn 0.295984 -0.579105 0.759625
vn 0.242613 -0.939087 -0.243421
vn 0.336605 -0.853064 -0.398722
vn 0.277006 -0.821652 -0.498152
vn 0.475484 -0.812995 -0.336086
vn 0.185719 -0.900485 -0.393236
vn -0.178639 -0.908755 -0.377163
vn -0.139357 -0.388124 -0.911010
vn -0.390095 -0.798163 -0.459087
vn -0.552350 -0.784932 -0.280698
vn -0.165234 -0.795405 -0.583120
vn -0.189536 -0.950566 0.245968
vn -0.427164 -0.875489 -0.225942
vn -0.472215 -0.692493 -0.545405
vn -0.365062 -0.772852 -0.519066
vn 0.026323 0.250790 -0.967684
vn 0.442052 -0.575339 -0.688168
vn 0.656511 -0.613879 -0.438344
vn 0.305626 -0.902797 -0.302573
vn 0.334229 -0.922190 -0.194567
vn 0.571861 0.222896 -0.789489
vn 0.796940 -0.571898 -0.194473
vn 0.563860 -0.825870 -0.001137
vn 0.708143 -0.706054 -0.004583
vn 0.683810 -0.726717 0.065474
vn 0.859548 -0.510614 -0.021243
vn 0.855647 -0.514684 -0.054484
vn 0.756027 -0.654301 0.017715
vn 0.843349 -0.528919 -0.094904
vn 0.880863 -0.439831 -0.175010
vn 0.842995 -0.490432 -0.220990
vn 0.853065 -0.418195 -0.312079
vn 0.840073 -0.406185 -0.359571
vn 0.783179 -0.404586 -0.472166
vn 0.801592 -0.444321 -0.400036
vn 0.843755 -0.513865 -0.154985
vn 0.784096 -0.403573 -0.471511
vn 0.807887 -0.526044 -0.265699
vn 0.688126 -0.440361 -0.576684
vn 0.701398 -0.547405 -0.456495
vn 0.712403 -0.468170 -0.522780
vn 0.757244 -0.573814 -0.311960
vn 0.618385 -0.691663 0.373098
vn 0.571158 -0.524297 -0.631579
vn 0.058333 -0.792787 -0.606701
vn 0.555455 -0.567832 -0.607484
vn 0.606877 -0.735669 -0.300818
vn 0.021593 -0.911219 -0.411356
vn 0.417667 -0.908572 -0.007165
vn 0.710324 -0.701618 -0.056323
vn 0.587197 -0.649483 -0.483086
vn 0.789309 -0.581319 -0.197635
vn 0.832965 -0.550113 -0.059548
vn 0.816473 -0.577327 -0.008087
vn 0.739002 -0.673662 0.007541
vn 0.643421 -0.765409 -0.012568
vn 0.585654 -0.249757 -0.771123
vn 0.387310 -0.612101 -0.689437
vn 0.332587 -0.725044 -0.603073
vn 0.366270 -0.877749 -0.308874
vn 0.440780 0.121440 -0.889362
vn 0.236836 -0.163283 -0.957730
vn -0.279808 0.110441 -0.953683
vn -0.104691 0.458273 -0.882625
vn 0.169206 0.663270 -0.729001
vn -0.387951 0.412830 -0.824054
vn -0.340030 0.832138 -0.438093
vn -0.568629 0.409793 -0.713253
vn -0.740925 0.132416 -0.658404
vn -0.730919 -0.034801 -0.681577
vn -0.969173 0.012810 -0.246048
vn -0.977666 0.069813 -0.198231
vn -0.928228 0.194590 -0.317060
vn -0.721532 0.521923 -0.454960
vn 0.664418 0.572369 -0.480565
vn 0.803955 0.547628 -0.231860
vn 0.338132 0.751119 -0.566998
vn 0.913891 0.389818 0.113335
vn 0.849158 0.527513 0.025712
vn 0.820148 0.561015 0.112335
vn 0.915370 0.354422 0.191004
vn 0.740721 0.201830 0.640779
vn 0.676507 0.508587 0.532614
vn 0.402355 0.103386 0.909627
vn 0.214656 0.552386 0.805476
vn 0.103002 0.207899 0.972712
vn -0.033594 0.339828 0.939887
vn 0.006625 0.684862 0.728642
vn -0.009589 0.656162 0.754559
vn -0.112598 0.458867 0.881341
vn -0.044881 0.101464 0.993826
vn -0.198520 0.089770 0.975977
vn -0.168533 -0.102300 0.980373
vn -0.268210 0.359373 0.893820
vn -0.068145 0.597913 0.798659
vn -0.054877 0.852192 0.520343
vn -0.161364 0.433920 0.886383
vn -0.274647 0.290872 0.916494
vn -0.373558 0.124047 0.919275
vn -0.217418 -0.097964 0.971150
vn -0.470561 -0.028287 0.881914
vn -0.493727 0.073432 0.866511
vn -0.408885 0.222620 0.885016
vn -0.440438 0.521316 0.730920
vn -0.341427 0.896882 0.281124
vn -0.511314 -0.052465 0.857791
vn -0.550965 0.033938 0.833838
vn -0.602276 0.258500 0.755276
vn -0.619357 0.609030 0.495459
vn -0.437215 0.891946 0.115217
vn -0.845092 -0.052170 0.532069
vn -0.897453 0.077499 0.434248
vn -0.903494 0.238433 0.356158
vn -0.789735 0.592968 0.157183
vn -0.427089 0.882659 -0.196233
vn -0.990807 0.016453 0.134277
vn -0.989739 0.097405 0.104545
vn -0.970212 0.205773 0.127851
vn -0.835050 0.550168 0.002638
vn 0.715910 0.690104 -0.105965
vn 0.751458 0.657685 0.052553
vn -0.008014 0.276663 -0.960934
vn 0.550898 -0.150189 -0.820947
vn 0.131670 0.953676 -0.270491
vn 0.008188 0.961922 -0.273200
vn -0.008455 0.919147 -0.393823
vn -0.020577 0.918585 -0.394687
vn 0.011942 0.932833 -0.360112
vn 0.602199 0.780118 -0.169622
vn 0.641128 0.744413 0.186560
vn 0.188588 0.881474 0.432941
vn 0.061682 0.885172 0.461157
vn 0.033800 0.872244 0.487902
vn 0.065110 0.861529 0.503516
vn 0.028797 0.938767 0.343348
vn 0.322749 0.944681 0.058403
vt 1.000000 1.000000
vt 1.000000 1.000000
vt 1.000000 1.000000
vt 1.000000 1.000000
vt 1.000000 1.000000
vt 1.000000 1.000000
vt 1.000000 1.000000
vt 1.000000 1.000000
vt 1.000000 1.000000
vt 1.000000 1.000000
vt 1.000000 1.000000
vt 1.000000 1.000000
vt 1.000000 1.000000
vt 1.000000 1.000000
vt 1.000000 1.000000
vt 1.000000 1.000000
vt 1.000000 1.000000
vt 1.000000 1.000000
vt 1.000000 1.000000
vt 1.000000 1.000000
vt 1.000000 1.000000
vt 1.000000 1.000000
vt 1.000000 1.000000
vt 1.000000 1.000000
vt 1.000000 1.000000
vt 1.000000 1.000000
vt 1.000000 1.000000
vt 1.000000 1.000000
vt 1.000000 1.000000
vt 1.000000 1.000000
vt 1.000000 1.000000
vt 1.000000 1.000000
vt 1.000000 1.000000
vt 1.000000 1.000000
vt 1.000000 1.000000
vt 1.000000 1.000000
vt 1.000000 1.000000
vt 1.000000 1.000000
vt 1.000000 1.000000
vt 1.000000 1.000000
vt 1.000000 1.000000
vt 1.000000 1.000000
vt 1.000000 1.000000
vt 1.000000 1.000000
vt 1.000000 1.000000
vt 1.000000 1.000000
vt 1.000000 1.000000
vt 1.000000 1.000000
vt 1.000000 1.000000
vt 1.000000 1.000000
vt 1.000000 1.000000
vt 1.000000 1.000000
vt 1.000000 1.000000
vt 1.000000 1.000000
vt 1.000000 1.000000
vt 1.000000 1.000000
vt 1.000000 1.000000
vt 1.000000 1.000000
vt 1.000000 1.000000
vt 1.000000 1.000000
vt 1.000000 1.000000
vt 1.000000 1.000000
vt 1.000000 1.000000
vt 1.000000 1.000000
vt 1.000000 1.000000
vt 1.000000 1.000000
vt 1.000000 1.000000
vt 1.000000 1.000000
vt 1.000000 1.000000
vt 1.000000 1.000000
vt 1.000000 1.000000
vt 1.000000 1.000000
vt 1.000000 1.000000
vt 1.000000 1.000000
vt 1.000000 1.000000
vt 1.000000 1.000000
vt 1.000000 1.000000
vt 1.000000 1.000000
vt 1.000000 1.000000
vt 1.000000 1.000000
vt 1.000000 1.000000
vt 1.000000 1.000000
vt 1.000000 1.000000
vt 1.000000 1.000000
vt 1.000000 1.000000
vt 1.000000 1.000000
vt 1.000000 1.000000
vt 1.000000 1.000000
vt 1.000000 1.000000
vt 1.000000 1.000000
vt 1.000000 1.000000
vt 1.000000 1.000000
vt 1.000000 1.000000
vt 1.000000 1.000000
vt 1.000000 1.000000
vt 1.000000 1.000000
vt 1.000000 1.000000
vt 1.000000 1.000000
vt 1.000000 1.000000
vt 1.000000 1.000000
vt 1.000000 1.000000
vt 1.000000 1.000000
vt 1.000000 1.000000
vt 1.000000 1.000000
vt 1.000000 1.000000
vt 1.000000 1.000000
vt 1.000000 1.000000
vt 1.000000 1.000000
vt 1.000000 1.000000
vt 1.000000 1.000000
vt 1.000000 1.000000
vt 1.000000 1.000000
vt 1.000000 1.000000
vt 1.000000 1.000000
vt 1.000000 1.000000
vt 1.000000 1.000000
vt 1.000000 1.000000
vt 1.000000 1.000000
vt 1.000000 1.000000
vt 1.000000 1.000000
vt 1.000000 1.000000
vt 1.000000 1.000000
vt 1.000000 1.000000
vt 1.000000 1.000000
vt 1.000000 1.000000
vt 1.000000 1.000000
vt 1.000000 1.000000
vt 1.000000 1.000000
vt 1.000000 1.000000
vt 1.000000 1.000000
vt 1.000000 1.000000
vt 1.000000 1.000000
vt 1.000000 1.000000
vt 1.000000 1.000000
vt 1.000000 1.000000
vt 1.000000 1.000000
vt 1.000000 1.000000
vt 1.000000 1.000000
vt 1.000000 1.000000
f 1/1/1 2/2/2 3/3/3
f 3/3/3 4/4/4 1/1/1
f 3/3/3 5/5/5 4/4/4
f 3/3/3 2/2/2 6/6/6
f 6/6/6 7/7/7 3/3/3
f 7/7/7 6/6/6 8/8/8
f 8/8/8 9/9/9 7/7/7
f 9/9/9 8/8/8 10/10/10
f 10/10/10 8/8/8 11/11/11
f 11/11/11 12/12/12 10/10/10
f 10/10/10 12/12/12 13/13/13
f 13/13/13 9/9/9 10/10/10
f 9/9/9 13/13/13 14/14/14
f 14/14/14 7/7/7 9/9/9
f 7/7/7 14/14/14 5/5/5
f 5/5/5 3/3/3 7/7/7
f 5/5/5 14/14/14 15/15/15
f 13/13/13 15/15/15 14/14/14
f 16/16/16 15/15/15 13/13/13
f 17/17/17 16/16/16 13/13/13
f 18/18/18 17/17/17 13/13/13
f 12/12/12 18/18/18 13/13/13
f 19/19/19 11/11/11 8/8/8
f 8/8/8 20/20/20 19/19/19
f 21/21/21 20/20/20 22/22/22
f 22/22/22 23/23/23 21/21/21
f 24/24/24 19/19/19 20/20/20
f 20/20/20 21/21/21 24/24/24
f 25/25/25 24/24/24 21/21/21
f 21/21/21 23/23/23 26/26/26
f 21/21/21 26/26/26 25/25/25
f 27/27/27 28/28/28 29/29/29
f 29/29/29 30/30/30 27/27/27
f 31/31/31 27/27/27 30/30/30
f 30/30/30 32/32/32 31/31/31
f 32/32/32 30/30/30 33/33/33
f 33/33/33 34/34/34 32/32/32
f 35/35/35 33/33/33 30/30/30
f 30/30/30 29/29/29 35/35/35
f 36/36/36 33/33/33 35/35/35
f 35/35/35 37/37/37 36/36/36
f 34/34/34 33/33/33 36/36/36
f 36/36/36 38/38/38 34/34/34
f 38/38/38 36/36/36 39/39/39
f 39/39/39 40/40/40 38/38/38
f 36/36/36 37/37/37 41/41/41
f 41/41/41 39/39/39 36/36/36
f 41/41/41 37/37/37 42/42/42
f 42/42/42 43/43/43 41/41/41
f 44/44/44 42/42/42 37/37/37
f 37/37/37 35/35/35 44/44/44
f 45/45/45 44/44/44 35/35/35
f 35/35/35 29/29/29 45/45/45
f 2/2/2 1/1/1 46/46/46
f 46/46/46 47/47/47 2/2/2
f 2/2/2 48/48/48 6/6/6
f 48/48/48 2/2/2 47/47/47
f 47/47/47 49/49/49 48/48/48
f 49/49/49 47/47/47 42/42/42
f 42/42/42 44/44/44 49/49/49
f 50/50/50 49/49/49 44/44/44
f 44/44/44 45/45/45 50/50/50
f 51/51/51 48/48/48 49/49/49
f 49/49/49 50/50/50 51/51/51
f 6/6/6 48/48/48 51/51/51
f 51/51/51 22/22/22 6/6/6
f 22/22/22 51/51/51 52/52/52
f 52/52/52 23/23/23 22/22/22
f 52/52/52 26/26/26 23/23/23
f 52/52/52 53/53/53 28/28/28
f 28/28/28 26/26/26 52/52/52
f 29/29/29 28/28/28 53/53/53
f 8/8/8 6/6/6 22/22/22
f 22/22/22 20/20/20 8/8/8
f 38/38/38 54/54/54 55/55/55
f 55/55/55 34/34/34 38/38/38
f 34/34/34 55/55/55 56/56/56
f 56/56/56 32/32/32 34/34/34
f 32/32/32 56/56/56 57/57/57
f 57/57/57 31/31/31 32/32/32
f 31/31/31 57/57/57 58/58/58
f 58/58/58 59/59/59 31/31/31
f 58/58/58 60/60/60 59/59/59
f 61/61/61 57/57/57 56/56/56
f 56/56/56 62/62/62 61/61/61
f 62/62/62 56/56/56 55/55/55
f 55/55/55 63/63/63 62/62/62
f 55/55/55 54/54/54 63/63/63
f 64/64/64 60/60/60 58/58/58
f 58/58/58 65/65/65 64/64/64
f 58/58/58 61/61/61 65/65/65
f 61/61/61 66/66/66 65/65/65
f 64/64/64 65/65/65 66/66/66
f 66/66/66 67/67/67 64/64/64
f 60/60/60 64/64/64 68/68/68
f 68/68/68 69/69/69 60/60/60
f 70/70/70 68/68/68 67/67/67
f 67/67/67 71/71/71 70/70/70
f 71/71/71 67/67/67 66/66/66
f 66/66/66 72/72/72 71/71/71
f 61/61/61 62/62/62 73/73/73
f 62/62/62 63/63/63 74/74/74
f 73/73/73 62/62/62 74/74/74
f 74/74/74 75/75/75 73/73/73
f 72/72/72 73/73/73 75/75/75
f 75/75/75 76/76/76 72/72/72
f 71/71/71 72/72/72 76/76/76
f 76/76/76 77/77/77 71/71/71
f 71/71/71 77/77/77 70/70/70
f 67/67/67 68/68/68 64/64/64
f 54/54/54 38/38/38 40/40/40
f 18/18/18 12/12/12 78/78/78
f 78/78/78 79/79/79 18/18/18
f 78/78/78 12/12/12 11/11/11
f 11/11/11 80/80/80 78/78/78
f 79/79/79 81/81/81 17/17/17
f 17/17/17 18/18/18 79/79/79
f 82/82/82 83/83/83 84/84/84
f 84/84/84 81/81/81 82/82/82
f 81/81/81 84/84/84 16/16/16
f 16/16/16 17/17/17 81/81/81
f 84/84/84 85/85/85 15/15/15
f 15/15/15 16/16/16 84/84/84
f 83/83/83 86/86/86 85/85/85
f 85/85/85 84/84/84 83/83/83
f 85/85/85 87/87/87 5/5/5
f 5/5/5 15/15/15 85/85/85
f 87/87/87 85/85/85 86/86/86
f 87/87/87 86/86/86 88/88/88
f 88/88/88 89/89/89 87/87/87
f 89/89/89 4/4/4 87/87/87
f 4/4/4 5/5/5 87/87/87
f 89/89/89 90/90/90 1/1/1
f 1/1/1 4/4/4 89/89/89
f 88/88/88 91/91/91 90/90/90
f 90/90/90 89/89/89 88/88/88
f 91/91/91 92/92/92 93/93/93
f 93/93/93 90/90/90 91/91/91
f 46/46/46 94/94/94 95/95/95
f 95/95/95 96/96/96 46/46/46
f 97/97/97 95/95/95 94/94/94
f 94/94/94 93/93/93 97/97/97
f 98/98/98 97/97/97 93/93/93
f 93/93/93 92/92/92 98/98/98
f 99/99/99 100/100/100 98/98/98
f 98/98/98 100/100/100 101/101/101
f 101/101/101 97/97/97 98/98/98
f 97/97/97 101/101/101 102/102/102
f 102/102/102 95/95/95 97/97/97
f 43/43/43 42/42/42 47/47/47
f 47/47/47 46/46/46 43/43/43
f 94/94/94 46/46/46 1/1/1
f 1/1/1 90/90/90 94/94/94
f 41/41/41 43/43/43 103/103/103
f 103/103/103 104/104/104 41/41/41
f 104/104/104 103/103/103 102/102/102
f 102/102/102 105/105/105 104/104/104
f 105/105/105 102/102/102 101/101/101
f 101/101/101 106/106/106 105/105/105
f 106/106/106 101/101/101 100/100/100
f 100/100/100 107/107/107 106/106/106
f 107/107/107 100/100/100 99/99/99
f 99/99/99 108/108/108 107/107/107
f 39/39/39 41/41/41 104/104/104
f 104/104/104 109/109/109 39/39/39
f 109/109/109 104/104/104 105/105/105
f 105/105/105 110/110/110 109/109/109
f 110/110/110 105/105/105 106/106/106
f 106/106/106 111/111/111 110/110/110
f 111/111/111 106/106/106 107/107/107
f 107/107/107 112/112/112 111/111/111
f 112/112/112 107/107/107 108/108/108
f 108/108/108 113/113/113 112/112/112
f 40/40/40 39/39/39 109/109/109
f 109/109/109 114/114/114 40/40/40
f 114/114/114 109/109/109 110/110/110
f 110/110/110 115/115/115 114/114/114
f 115/115/115 110/110/110 111/111/111
f 111/111/111 116/116/116 115/115/115
f 116/116/116 111/111/111 112/112/112
f 112/112/112 117/117/117 116/116/116
f 117/117/117 112/112/112 113/113/113
f 113/113/113 118/118/118 117/117/117
f 54/54/54 40/40/40 114/114/114
f 114/114/114 119/119/119 54/54/54
f 119/119/119 114/114/114 115/115/115
f 115/115/115 120/120/120 119/119/119
f 120/120/120 115/115/115 116/116/116
f 116/116/116 121/121/121 120/120/120
f 121/121/121 116/116/116 117/117/117
f 117/117/117 122/122/122 121/121/121
f 70/70/70 122/122/122 117/117/117
f 117/117/117 118/118/118 70/70/70
f 70/70/70 77/77/77 122/122/122
f 122/122/122 77/77/77 76/76/76
f 76/76/76 121/121/121 122/122/122
f 121/121/121 76/76/76 75/75/75
f 75/75/75 120/120/120 121/121/121
f 120/120/120 75/75/75 74/74/74
f 74/74/74 119/119/119 120/120/120
f 119/119/119 74/74/74 63/63/63
f 63/63/63 54/54/54 119/119/119
f 82/82/82 81/81/81 79/79/79
f 11/11/11 19/19/19 80/80/80
f 50/50/50 45/45/45 53/53/53
f 53/53/53 52/52/52 50/50/50
f 50/50/50 52/52/52 51/51/51
f 27/27/27 26/26/26 28/28/28
f 27/27/27 31/31/31 59/59/59
f 59/59/59 26/26/26 27/27/27
f 43/43/43 96/96/96 103/103/103
f 102/102/102 103/103/103 96/96/96
f 96/96/96 95/95/95 102/102/102
f 72/72/72 66/66/66 61/61/61
f 61/61/61 73/73/73 72/72/72
f 58/58/58 57/57/57 61/61/61
f 29/29/29 53/53/53 45/45/45
f 82/82/82 79/79/79 123/123/123
f 123/123/123 124/124/124 82/82/82
f 24/24/24 125/125/125 69/69/69
f 69/69/69 68/68/68 24/24/24
f 60/60/60 69/69/69 125/125/125
f 125/125/125 126/126/126 60/60/60
f 126/126/126 125/125/125 24/24/24
f 24/24/24 25/25/25 126/126/126
f 59/59/59 126/126/126 25/25/25
f 25/25/25 26/26/26 59/59/59
f 60/60/60 126/126/126 59/59/59
f 127/127/127 68/68/68 70/70/70
f 70/70/70 128/128/128 127/127/127
f 113/113/113 128/128/128 118/118/118
f 128/128/128 129/129/129 130/130/130
f 130/130/130 127/127/127 128/128/128
f 129/129/129 24/24/24 130/130/130
f 129/129/129 131/131/131 19/19/19
f 19/19/19 24/24/24 129/129/129
f 131/131/131 132/132/132 80/80/80
f 80/80/80 19/19/19 131/131/131
f 132/132/132 123/123/123 78/78/78
f 78/78/78 80/80/80 132/132/132
f 123/123/123 79/79/79 78/78/78
f 124/124/124 83/83/83 82/82/82
f 124/124/124 133/133/133 86/86/86
f 86/86/86 83/83/83 124/124/124
f 133/133/133 134/134/134 88/88/88
f 88/88/88 86/86/86 133/133/133
f 134/134/134 135/135/135 91/91/91
f 91/91/91 88/88/88 134/134/134
f 135/135/135 136/136/136 92/92/92
f 92/92/92 91/91/91 135/135/135
f 136/136/136 137/137/137 98/98/98
f 98/98/98 92/92/92 136/136/136
f 137/137/137 138/138/138 99/99/99
f 99/99/99 98/98/98 137/137/137
f 138/138/138 128/128/128 108/108/108
f 108/108/108 99/99/99 138/138/138
f 128/128/128 113/113/113 108/108/108
f 139/139/139 129/129/129 128/128/128
f 70/70/70 118/118/118 128/128/128
f 139/139/139 131/131/131 129/129/129
f 139/139/139 132/132/132 131/131/131
f 139/139/139 123/123/123 132/132/132
f 139/139/139 124/124/124 123/123/123
f 139/139/139 133/133/133 124/124/124
f 139/139/139 134/134/134 133/133/133
f 139/139/139 135/135/135 134/134/134
f 139/139/139 136/136/136 135/135/135
f 139/139/139 137/137/137 136/136/136
f 139/139/139 138/138/138 137/137/137
f 139/139/139 128/128/128 138/138/138
f 43/43/43 46/46/46 96/96/96
f 94/94/94 90/90/90 93/93/93
f 24/24/24 68/68/68 127/127/127
f 127/127/127 130/130/130 24/24/24
