g 1_Visual
usemtl mat1
v -1.719089 1.951381 2.443569
v -1.982846 2.326890 1.871552
v -1.025354 2.674847 1.919819
v -1.389215 2.068753 2.464144
v 0.119436 2.590732 2.141403
v -1.659508 2.644321 1.414836
v -0.730445 3.241156 1.322915
v -0.696259 3.704386 0.087239
v -0.372630 3.826801 0.390270
v -0.240295 4.125518 -0.441360
v -0.371631 4.407236 -0.582766
v 0.275400 3.926810 -0.576826
v 0.271060 3.582846 0.854241
v 0.200123 3.385530 1.252355
v 1.244522 2.601179 1.412234
v 1.792710 1.645831 1.264482
v 1.482000 2.709732 0.507493
v 1.046823 3.367069 -0.241991
v -0.528650 4.476092 -0.600063
v -0.814195 3.627940 0.015441
v -1.561589 3.453364 -0.548733
v -1.250844 3.117607 0.566135
v -1.770441 3.063103 0.193942
v -1.469349 4.557071 -0.753468
v -1.614778 3.339653 -0.931573
v -2.182720 2.909912 -0.028472
v -2.986443 2.330588 -0.040167
v -2.856867 2.486478 0.215413
v -3.382311 1.720467 0.738752
v -3.495683 1.465689 0.528873
v -3.116395 2.225754 -0.297146
v -3.635366 1.287407 0.295173
v -3.616864 1.251117 0.671569
v -3.759759 1.060993 0.459502
v -3.466833 1.463801 0.907231
v -3.970520 0.194568 1.178401
v -3.729327 0.546143 1.335239
v -4.340332 -0.290027 0.964313
v -4.268222 -0.727643 1.389840
v -4.577904 -1.272282 1.100706
v -3.699554 0.026188 1.798619
v -2.930654 1.529396 1.691624
v -2.963818 0.912699 2.137385
v -2.982148 2.000919 1.349304
v -3.033223 2.189965 1.092619
v -2.067712 1.741892 2.374092
v -2.236731 2.202425 1.862277
v -2.175592 2.623867 1.494693
v -2.305205 2.581006 1.508403
v -2.320597 2.862424 1.105937
v -2.162607 2.919386 1.054820
v -2.180915 2.984918 0.584876
v -2.952456 2.406159 0.674748
v -4.829986 -0.481903 0.432314
v -4.211617 0.535833 -0.070266
v -3.987024 0.842740 -0.313394
v -3.516531 1.740341 -0.987399
v -3.144448 1.982123 -1.641671
v -2.393540 2.808222 -0.940522
v -2.126163 3.159116 -1.182954
v -3.787372 1.310235 -1.662035
v -4.484461 0.242605 -0.996737
v -4.724411 -0.022514 -0.563879
v -2.239936 3.238384 -1.588351
v -3.126705 2.070638 -1.841587
v -3.679340 2.166247 -1.798059
v -3.178437 3.380056 -1.701468
v -2.123900 4.800380 -0.648841
v -2.091854 4.743256 -0.809253
v -3.015830 4.772560 -0.504024
v -3.876487 3.544591 -1.260230
v -4.307932 2.294806 -1.337040
v -4.409279 1.506744 -1.301748
v -4.835199 0.265997 -0.646724
v -4.774500 1.323146 -0.564385
v -4.674987 2.452768 -0.600575
v -4.327005 3.767440 -0.646009
v 0.213581 4.300040 -0.469384
v 1.170487 3.468583 0.022472
v -0.219369 4.615886 -0.661792
v 1.324261 3.099575 0.447230
v 1.208340 3.317311 0.402738
v 1.067546 3.568628 0.886160
v 1.352578 2.855441 0.976165
v 1.169267 3.284032 1.363450
v 0.434130 4.041529 1.808439
v 0.067045 3.082094 2.290449
v -0.222238 4.464971 1.817259
v -0.674292 3.414631 2.438734
v -1.246395 3.469109 2.382853
v -0.798361 4.500732 1.805398
v -0.983476 4.495205 1.807542
v -1.419597 3.466006 2.352856
v -1.592697 2.984963 2.438609
v -2.293287 2.398116 2.477639
v -2.510006 1.377485 2.309762
v -1.959193 3.454485 2.253891
v -1.606800 4.561726 1.738010
v -2.317310 4.935720 1.249190
v -2.323510 4.590008 1.750926
v -2.768248 3.340881 2.043045
v -2.964262 2.223810 2.222051
v -2.987740 1.091510 2.237173
v -3.684531 0.394808 1.954216
v -3.556509 1.937214 1.962158
v -3.349396 3.180541 1.872853
v -2.858691 4.524834 1.621542
v -2.592120 5.019850 0.911118
v -4.356829 -0.610773 1.419699
v -4.247843 1.448512 1.616363
v -4.063708 2.908874 1.565827
v -3.690806 4.293718 1.168732
v -2.964590 4.975810 0.298676
v -4.680649 -1.300017 1.167936
v -4.565854 1.308105 1.297302
v -4.423943 2.736239 1.161850
v -3.945790 4.165483 0.831709
v -3.060820 4.918020 0.097543
v -4.947745 -0.216210 0.445541
v -4.752706 1.357345 0.439548
v -4.694777 2.630596 0.270029
v -4.339926 3.930470 -0.048304
v 0.396119 4.452560 0.362458
v 0.541371 4.299039 0.564377
v -1.707521 4.552717 -0.970342
v -1.883581 3.269783 -1.266883
v -1.831150 4.699090 -0.322722
v -1.813560 5.157170 0.662230
v -0.784062 4.974500 0.263673
v -1.537765 4.627746 -0.420776
v -0.443867 5.027890 0.133754
v -0.069063 4.808672 0.135608
v 0.206704 4.648107 1.181848
v -0.115011 4.841134 1.197392
v -0.674762 4.895640 1.178760
v -0.817242 4.906540 1.185990
v -1.205680 4.941950 1.131210
v -1.620430 5.122820 0.907985
v -0.499531 5.045810 0.672108
v -1.424584 3.144776 1.889139
v -1.694861 4.297654 0.619170
v -2.260940 4.462043 0.958105
v -1.408750 3.622086 1.524207
v -1.298748 3.964931 0.377110
v -1.714248 3.578709 0.483363
v -1.660383 3.902682 0.876687
v -2.329241 3.497872 0.343286
v -1.679434 4.329589 0.221085
v -1.681514 3.728793 0.157172
v -0.894654 4.525600 0.840375
v -2.535577 2.742360 1.772369
v -2.612016 3.117200 1.094759
v -3.058961 2.675016 1.409841
v -2.010099 2.956335 1.666922
v -2.115119 3.386063 0.964556
v -0.980352 4.350165 1.129921
v -3.220745 4.062041 0.196291
v -3.652935 3.237203 -0.038129
v -2.557324 3.826068 -0.528049
v -2.727016 4.266593 0.357871
v -3.084229 3.046266 0.522368
v -3.033666 3.166600 -0.604038
v -3.301191 3.417686 0.888424
v -3.675541 2.624422 -0.629501
v -3.243518 2.861260 -0.896514
v -4.142460 1.371047 0.176725
v -3.764483 2.309476 0.408775
v -2.665702 1.793017 2.173923
v -0.385090 4.436677 0.055733
v -1.025995 4.268114 0.118256
v -2.386928 4.300160 0.478380
v -1.725338 4.316452 -0.314624
v 0.289509 3.971606 0.142430
v -0.131530 4.312424 0.741545
v 1.140354 3.132821 0.483799
v -3.885019 1.921167 1.138469
v -2.736323 3.683808 1.151115
v -3.627561 1.630483 1.414038
v -2.277227 3.880109 1.174120
v -3.802912 1.432043 0.659484
v -4.229216 0.486213 1.232827
v -3.155541 2.916660 -0.062682
vn 0.221965 -0.583288 0.781349
vn 0.302256 -0.757412 -0.578765
vn 0.224851 -0.758073 -0.612182
vn 0.293560 -0.589978 0.752162
vn 0.241748 -0.936580 -0.253724
vn 0.336445 -0.849230 -0.406956
vn 0.277803 -0.815392 -0.507899
vn 0.476713 -0.810535 -0.340262
vn 0.186096 -0.897795 -0.399165
vn -0.174208 -0.907592 -0.382005
vn -0.135116 -0.379801 -0.915147
vn -0.382438 -0.797405 -0.466784
vn -0.546176 -0.785029 -0.292269
vn -0.163461 -0.785912 -0.596341
vn -0.192779 -0.955039 0.225248
vn -0.426226 -0.870260 -0.246937
vn -0.468170 -0.691433 -0.550215
vn -0.360159 -0.769974 -0.526711
vn 0.026544 0.260163 -0.965200
vn 0.444391 -0.568517 -0.692319
vn 0.657018 -0.610729 -0.441970
vn 0.305067 -0.901089 -0.308178
vn 0.332569 -0.921796 -0.199225
vn 0.570491 0.233125 -0.787523
vn 0.794113 -0.574071 -0.199569
vn 0.560290 -0.828254 -0.008418
vn 0.705883 -0.708194 -0.013812
vn 0.682181 -0.728919 0.057501
vn 0.858947 -0.511222 -0.029361
vn 0.854703 -0.515213 -0.063545
vn 0.752986 -0.658015 0.005350
vn 0.841828 -0.529324 -0.105549
vn 0.879834 -0.438381 -0.183612
vn 0.840991 -0.489610 -0.230252
vn 0.851405 -0.415025 -0.320725
vn 0.835804 -0.404988 -0.370697
vn 0.778875 -0.399350 -0.483605
vn 0.798511 -0.443941 -0.406567
vn 0.841115 -0.514295 -0.167412
vn 0.780898 -0.406031 -0.474697
vn 0.804655 -0.522965 -0.281137
vn 0.682668 -0.431438 -0.589767
vn 0.697359 -0.538724 -0.472722
vn 0.709781 -0.460869 -0.532739
vn 0.756633 -0.570042 -0.320248
vn 0.618992 -0.696965 0.362062
vn 0.567177 -0.512292 -0.644878
vn 0.054294 -0.784599 -0.617622
vn 0.553333 -0.558007 -0.618426
vn 0.606625 -0.732760 -0.308332
vn 0.019144 -0.908075 -0.418369
vn 0.416263 -0.909149 -0.013173
vn 0.709597 -0.701744 -0.063460
vn 0.583668 -0.649073 -0.487889
vn 0.787772 -0.579831 -0.207871
vn 0.831668 -0.550581 -0.072039
vn 0.814630 -0.579606 -0.020857
vn 0.734266 -0.678844 -0.004972
vn 0.638238 -0.769499 -0.022875
vn 0.586844 -0.240168 -0.773262
vn 0.381362 -0.604624 -0.699280
vn 0.327399 -0.719117 -0.612927
vn 0.364039 -0.874722 -0.319902
vn 0.437542 0.137038 -0.888694
vn 0.230251 -0.148032 -0.961806
vn -0.284983 0.128481 -0.949883
vn -0.106025 0.475544 -0.873279
vn 0.168413 0.674431 -0.718874
vn -0.377840 0.429515 -0.820216
vn -0.336785 0.837726 -0.429874
vn -0.569448 0.425669 -0.703232
vn -0.745907 0.144167 -0.650261
vn -0.737755 -0.025865 -0.674573
vn -0.971701 0.014918 -0.235743
vn -0.979418 0.071360 -0.188806
vn -0.930121 0.200843 -0.307469
vn -0.719568 0.533166 -0.444922
vn 0.662661 0.579373 -0.474560
vn 0.803240 0.552423 -0.222787
vn 0.334311 0.753865 -0.565618
vn 0.911264 0.393568 0.121252
vn 0.847642 0.529301 0.036652
vn 0.819481 0.560540 0.119354
vn 0.911252 0.357995 0.203617
vn 0.734480 0.191394 0.651082
vn 0.676745 0.500298 0.540109
vn 0.399159 0.084624 0.912968
vn 0.218847 0.539012 0.813371
vn 0.104696 0.186377 0.976884
vn -0.031765 0.320045 0.946870
vn 0.008235 0.677528 0.735451
vn -0.009806 0.648398 0.761239
vn -0.111849 0.442796 0.889619
vn -0.039994 0.079699 0.996016
vn -0.191465 0.069059 0.979067
vn -0.159321 -0.119197 0.980005
vn -0.264852 0.341747 0.901700
vn -0.067379 0.589657 0.804838
vn -0.054973 0.851976 0.520688
vn -0.160855 0.423937 0.891293
vn -0.271118 0.275234 0.922356
vn -0.363919 0.107281 0.925232
vn -0.200187 -0.113104 0.973207
vn -0.451941 -0.040791 0.891115
vn -0.481947 0.062229 0.873988
vn -0.404100 0.209888 0.890309
vn -0.440862 0.515060 0.735088
vn -0.341723 0.896721 0.281276
vn -0.493673 -0.060311 0.867554
vn -0.544079 0.027322 0.838589
vn -0.600985 0.249579 0.759294
vn -0.620163 0.605735 0.498480
vn -0.436822 0.892071 0.115740
vn -0.845398 -0.053135 0.531488
vn -0.897358 0.074822 0.434915
vn -0.902624 0.233496 0.361594
vn -0.788471 0.593245 0.162398
vn -0.426293 0.883013 -0.196374
vn -0.990237 0.015985 0.138474
vn -0.989180 0.094903 0.111876
vn -0.969542 0.203787 0.135868
vn -0.832485 0.553941 0.010862
vn 0.714788 0.692263 -0.099245
vn 0.751869 0.656756 0.058003
vn -0.005243 0.295923 -0.955197
vn 0.550558 -0.137663 -0.823368
vn 0.131697 0.953687 -0.270438
vn 0.008185 0.961923 -0.273196
vn -0.008682 0.919293 -0.393479
vn -0.020729 0.918680 -0.394458
vn 0.011672 0.932991 -0.359710
vn 0.599982 0.782239 -0.167704
vn 0.644815 0.740541 0.189242
vn 0.192243 0.880357 0.433607
vn 0.063253 0.884530 0.462174
vn 0.034069 0.871810 0.488658
vn 0.065133 0.861352 0.503815
vn 0.028797 0.938767 0.343348
vn 0.323463 0.944384 0.059251
vt 1.000000 1.000000
vt 1.000000 1.000000
vt 1.000000 1.000000
vt 1.000000 1.000000
vt 1.000000 1.000000
vt 1.000000 1.000000
vt 1.000000 1.000000
vt 1.000000 1.000000
vt 1.000000 1.000000
vt 1.000000 1.000000
vt 1.000000 1.000000
vt 1.000000 1.000000
vt 1.000000 1.000000
vt 1.000000 1.000000
vt 1.000000 1.000000
vt 1.000000 1.000000
vt 1.000000 1.000000
vt 1.000000 1.000000
vt 1.000000 1.000000
vt 1.000000 1.000000
vt 1.000000 1.000000
vt 1.000000 1.000000
vt 1.000000 1.000000
vt 1.000000 1.000000
vt 1.000000 1.000000
vt 1.000000 1.000000
vt 1.000000 1.000000
vt 1.000000 1.000000
vt 1.000000 1.000000
vt 1.000000 1.000000
vt 1.000000 1.000000
vt 1.000000 1.000000
vt 1.000000 1.000000
vt 1.000000 1.000000
vt 1.000000 1.000000
vt 1.000000 1.000000
vt 1.000000 1.000000
vt 1.000000 1.000000
vt 1.000000 1.000000
vt 1.000000 1.000000
vt 1.000000 1.000000
vt 1.000000 1.000000
vt 1.000000 1.000000
vt 1.000000 1.000000
vt 1.000000 1.000000
vt 1.000000 1.000000
vt 1.000000 1.000000
vt 1.000000 1.000000
vt 1.000000 1.000000
vt 1.000000 1.000000
vt 1.000000 1.000000
vt 1.000000 1.000000
vt 1.000000 1.000000
vt 1.000000 1.000000
vt 1.000000 1.000000
vt 1.000000 1.000000
vt 1.000000 1.000000
vt 1.000000 1.000000
vt 1.000000 1.000000
vt 1.000000 1.000000
vt 1.000000 1.000000
vt 1.000000 1.000000
vt 1.000000 1.000000
vt 1.000000 1.000000
vt 1.000000 1.000000
vt 1.000000 1.000000
vt 1.000000 1.000000
vt 1.000000 1.000000
vt 1.000000 1.000000
vt 1.000000 1.000000
vt 1.000000 1.000000
vt 1.000000 1.000000
vt 1.000000 1.000000
vt 1.000000 1.000000
vt 1.000000 1.000000
vt 1.000000 1.000000
vt 1.000000 1.000000
vt 1.000000 1.000000
vt 1.000000 1.000000
vt 1.000000 1.000000
vt 1.000000 1.000000
vt 1.000000 1.000000
vt 1.000000 1.000000
vt 1.000000 1.000000
vt 1.000000 1.000000
vt 1.000000 1.000000
vt 1.000000 1.000000
vt 1.000000 1.000000
vt 1.000000 1.000000
vt 1.000000 1.000000
vt 1.000000 1.000000
vt 1.000000 1.000000
vt 1.000000 1.000000
vt 1.000000 1.000000
vt 1.000000 1.000000
vt 1.000000 1.000000
vt 1.000000 1.000000
vt 1.000000 1.000000
vt 1.000000 1.000000
vt 1.000000 1.000000
vt 1.000000 1.000000
vt 1.000000 1.000000
vt 1.000000 1.000000
vt 1.000000 1.000000
vt 1.000000 1.000000
vt 1.000000 1.000000
vt 1.000000 1.000000
vt 1.000000 1.000000
vt 1.000000 1.000000
vt 1.000000 1.000000
vt 1.000000 1.000000
vt 1.000000 1.000000
vt 1.000000 1.000000
vt 1.000000 1.000000
vt 1.000000 1.000000
vt 1.000000 1.000000
vt 1.000000 1.000000
vt 1.000000 1.000000
vt 1.000000 1.000000
vt 1.000000 1.000000
vt 1.000000 1.000000
vt 1.000000 1.000000
vt 1.000000 1.000000
vt 1.000000 1.000000
vt 1.000000 1.000000
vt 1.000000 1.000000
vt 1.000000 1.000000
vt 1.000000 1.000000
vt 1.000000 1.000000
vt 1.000000 1.000000
vt 1.000000 1.000000
vt 1.000000 1.000000
vt 1.000000 1.000000
vt 1.000000 1.000000
vt 1.000000 1.000000
vt 1.000000 1.000000
vt 1.000000 1.000000
vt 1.000000 1.000000
vt 1.000000 1.000000
f 1/1/1 2/2/2 3/3/3
f 3/3/3 4/4/4 1/1/1
f 3/3/3 5/5/5 4/4/4
f 3/3/3 2/2/2 6/6/6
f 6/6/6 7/7/7 3/3/3
f 7/7/7 6/6/6 8/8/8
f 8/8/8 9/9/9 7/7/7
f 9/9/9 8/8/8 10/10/10
f 10/10/10 8/8/8 11/11/11
f 11/11/11 12/12/12 10/10/10
f 10/10/10 12/12/12 13/13/13
f 13/13/13 9/9/9 10/10/10
f 9/9/9 13/13/13 14/14/14
f 14/14/14 7/7/7 9/9/9
f 7/7/7 14/14/14 5/5/5
f 5/5/5 3/3/3 7/7/7
f 5/5/5 14/14/14 15/15/15
f 13/13/13 15/15/15 14/14/14
f 16/16/16 15/15/15 13/13/13
f 17/17/17 16/16/16 13/13/13
f 18/18/18 17/17/17 13/13/13
f 12/12/12 18/18/18 13/13/13
f 19/19/19 11/11/11 8/8/8
f 8/8/8 20/20/20 19/19/19
f 21/21/21 20/20/20 22/22/22
f 22/22/22 23/23/23 21/21/21
f 24/24/24 19/19/19 20/20/20
f 20/20/20 21/21/21 24/24/24
f 25/25/25 24/24/24 21/21/21
f 21/21/21 23/23/23 26/26/26
f 21/21/21 26/26/26 25/25/25
f 27/27/27 28/28/28 29/29/29
f 29/29/29 30/30/30 27/27/27
f 31/31/31 27/27/27 30/30/30
f 30/30/30 32/32/32 31/31/31
f 32/32/32 30/30/30 33/33/33
f 33/33/33 34/34/34 32/32/32
f 35/35/35 33/33/33 30/30/30
f 30/30/30 29/29/29 35/35/35
f 36/36/36 33/33/33 35/35/35
f 35/35/35 37/37/37 36/36/36
f 34/34/34 33/33/33 36/36/36
f 36/36/36 38/38/38 34/34/34
f 38/38/38 36/36/36 39/39/39
f 39/39/39 40/40/40 38/38/38
f 36/36/36 37/37/37 41/41/41
f 41/41/41 39/39/39 36/36/36
f 41/41/41 37/37/37 42/42/42
f 42/42/42 43/43/43 41/41/41
f 44/44/44 42/42/42 37/37/37
f 37/37/37 35/35/35 44/44/44
f 45/45/45 44/44/44 35/35/35
f 35/35/35 29/29/29 45/45/45
f 2/2/2 1/1/1 46/46/46
f 46/46/46 47/47/47 2/2/2
f 2/2/2 48/48/48 6/6/6
f 48/48/48 2/2/2 47/47/47
f 47/47/47 49/49/49 48/48/48
f 49/49/49 47/47/47 42/42/42
f 42/42/42 44/44/44 49/49/49
f 50/50/50 49/49/49 44/44/44
f 44/44/44 45/45/45 50/50/50
f 51/51/51 48/48/48 49/49/49
f 49/49/49 50/50/50 51/51/51
f 6/6/6 48/48/48 51/51/51
f 51/51/51 22/22/22 6/6/6
f 22/22/22 51/51/51 52/52/52
f 52/52/52 23/23/23 22/22/22
f 52/52/52 26/26/26 23/23/23
f 52/52/52 53/53/53 28/28/28
f 28/28/28 26/26/26 52/52/52
f 29/29/29 28/28/28 53/53/53
f 8/8/8 6/6/6 22/22/22
f 22/22/22 20/20/20 8/8/8
f 38/38/38 54/54/54 55/55/55
f 55/55/55 34/34/34 38/38/38
f 34/34/34 55/55/55 56/56/56
f 56/56/56 32/32/32 34/34/34
f 32/32/32 56/56/56 57/57/57
f 57/57/57 31/31/31 32/32/32
f 31/31/31 57/57/57 58/58/58
f 58/58/58 59/59/59 31/31/31
f 58/58/58 60/60/60 59/59/59
f 61/61/61 57/57/57 56/56/56
f 56/56/56 62/62/62 61/61/61
f 62/62/62 56/56/56 55/55/55
f 55/55/55 63/63/63 62/62/62
f 55/55/55 54/54/54 63/63/63
f 64/64/64 60/60/60 58/58/58
f 58/58/58 65/65/65 64/64/64
f 58/58/58 61/61/61 65/65/65
f 61/61/61 66/66/66 65/65/65
f 64/64/64 65/65/65 66/66/66
f 66/66/66 67/67/67 64/64/64
f 60/60/60 64/64/64 68/68/68
f 68/68/68 69/69/69 60/60/60
f 70/70/70 68/68/68 67/67/67
f 67/67/67 71/71/71 70/70/70
f 71/71/71 67/67/67 66/66/66
f 66/66/66 72/72/72 71/71/71
f 61/61/61 62/62/62 73/73/73
f 62/62/62 63/63/63 74/74/74
f 73/73/73 62/62/62 74/74/74
f 74/74/74 75/75/75 73/73/73
f 72/72/72 73/73/73 75/75/75
f 75/75/75 76/76/76 72/72/72
f 71/71/71 72/72/72 76/76/76
f 76/76/76 77/77/77 71/71/71
f 71/71/71 77/77/77 70/70/70
f 67/67/67 68/68/68 64/64/64
f 54/54/54 38/38/38 40/40/40
f 18/18/18 12/12/12 78/78/78
f 78/78/78 79/79/79 18/18/18
f 78/78/78 12/12/12 11/11/11
f 11/11/11 80/80/80 78/78/78
f 79/79/79 81/81/81 17/17/17
f 17/17/17 18/18/18 79/79/79
f 82/82/82 83/83/83 84/84/84
f 84/84/84 81/81/81 82/82/82
f 81/81/81 84/84/84 16/16/16
f 16/16/16 17/17/17 81/81/81
f 84/84/84 85/85/85 15/15/15
f 15/15/15 16/16/16 84/84/84
f 83/83/83 86/86/86 85/85/85
f 85/85/85 84/84/84 83/83/83
f 85/85/85 87/87/87 5/5/5
f 5/5/5 15/15/15 85/85/85
f 87/87/87 85/85/85 86/86/86
f 87/87/87 86/86/86 88/88/88
f 88/88/88 89/89/89 87/87/87
f 89/89/89 4/4/4 87/87/87
f 4/4/4 5/5/5 87/87/87
f 89/89/89 90/90/90 1/1/1
f 1/1/1 4/4/4 89/89/89
f 88/88/88 91/91/91 90/90/90
f 90/90/90 89/89/89 88/88/88
f 91/91/91 92/92/92 93/93/93
f 93/93/93 90/90/90 91/91/91
f 46/46/46 94/94/94 95/95/95
f 95/95/95 96/96/96 46/46/46
f 97/97/97 95/95/95 94/94/94
f 94/94/94 93/93/93 97/97/97
f 98/98/98 97/97/97 93/93/93
f 93/93/93 92/92/92 98/98/98
f 99/99/99 100/100/100 98/98/98
f 98/98/98 100/100/100 101/101/101
f 101/101/101 97/97/97 98/98/98
f 97/97/97 101/101/101 102/102/102
f 102/102/102 95/95/95 97/97/97
f 43/43/43 42/42/42 47/47/47
f 47/47/47 46/46/46 43/43/43
f 94/94/94 46/46/46 1/1/1
f 1/1/1 90/90/90 94/94/94
f 41/41/41 43/43/43 103/103/103
f 103/103/103 104/104/104 41/41/41
f 104/104/104 103/103/103 102/102/102
f 102/102/102 105/105/105 104/104/104
f 105/105/105 102/102/102 101/101/101
f 101/101/101 106/106/106 105/105/105
f 106/106/106 101/101/101 100/100/100
f 100/100/100 107/107/107 106/106/106
f 107/107/107 100/100/100 99/99/99
f 99/99/99 108/108/108 107/107/107
f 39/39/39 41/41/41 104/104/104
f 104/104/104 109/109/109 39/39/39
f 109/109/109 104/104/104 105/105/105
f 105/105/105 110/110/110 109/109/109
f 110/110/110 105/105/105 106/106/106
f 106/106/106 111/111/111 110/110/110
f 111/111/111 106/106/106 107/107/107
f 107/107/107 112/112/112 111/111/111
f 112/112/112 107/107/107 108/108/108
f 108/108/108 113/113/113 112/112/112
f 40/40/40 39/39/39 109/109/109
f 109/109/109 114/114/114 40/40/40
f 114/114/114 109/109/109 110/110/110
f 110/110/110 115/115/115 114/114/114
f 115/115/115 110/110/110 111/111/111
f 111/111/111 116/116/116 115/115/115
f 116/116/116 111/111/111 112/112/112
f 112/112/112 117/117/117 116/116/116
f 117/117/117 112/112/112 113/113/113
f 113/113/113 118/118/118 117/117/117
f 54/54/54 40/40/40 114/114/114
f 114/114/114 119/119/119 54/54/54
f 119/119/119 114/114/114 115/115/115
f 115/115/115 120/120/120 119/119/119
f 120/120/120 115/115/115 116/116/116
f 116/116/116 121/121/121 120/120/120
f 121/121/121 116/116/116 117/117/117
f 117/117/117 122/122/122 121/121/121
f 70/70/70 122/122/122 117/117/117
f 117/117/117 118/118/118 70/70/70
f 70/70/70 77/77/77 122/122/122
f 122/122/122 77/77/77 76/76/76
f 76/76/76 121/121/121 122/122/122
f 121/121/121 76/76/76 75/75/75
f 75/75/75 120/120/120 121/121/121
f 120/120/120 75/75/75 74/74/74
f 74/74/74 119/119/119 120/120/120
f 119/119/119 74/74/74 63/63/63
f 63/63/63 54/54/54 119/119/119
f 82/82/82 81/81/81 79/79/79
f 11/11/11 19/19/19 80/80/80
f 50/50/50 45/45/45 53/53/53
f 53/53/53 52/52/52 50/50/50
f 50/50/50 52/52/52 51/51/51
f 27/27/27 26/26/26 28/28/28
f 27/27/27 31/31/31 59/59/59
f 59/59/59 26/26/26 27/27/27
f 43/43/43 96/96/96 103/103/103
f 102/102/102 103/103/103 96/96/96
f 96/96/96 95/95/95 102/102/102
f 72/72/72 66/66/66 61/61/61
f 61/61/61 73/73/73 72/72/72
f 58/58/58 57/57/57 61/61/61
f 29/29/29 53/53/53 45/45/45
f 82/82/82 79/79/79 123/123/123
f 123/123/123 124/124/124 82/82/82
f 24/24/24 125/125/125 69/69/69
f 69/69/69 68/68/68 24/24/24
f 60/60/60 69/69/69 125/125/125
f 125/125/125 126/126/126 60/60/60
f 126/126/126 125/125/125 24/24/24
f 24/24/24 25/25/25 126/126/126
f 59/59/59 126/126/126 25/25/25
f 25/25/25 26/26/26 59/59/59
f 60/60/60 126/126/126 59/59/59
f 127/127/127 68/68/68 70/70/70
f 70/70/70 128/128/128 127/127/127
f 113/113/113 128/128/128 118/118/118
f 128/128/128 129/129/129 130/130/130
f 130/130/130 127/127/127 128/128/128
f 129/129/129 24/24/24 130/130/130
f 129/129/129 131/131/131 19/19/19
f 19/19/19 24/24/24 129/129/129
f 131/131/131 132/132/132 80/80/80
f 80/80/80 19/19/19 131/131/131
f 132/132/132 123/123/123 78/78/78
f 78/78/78 80/80/80 132/132/132
f 123/123/123 79/79/79 78/78/78
f 124/124/124 83/83/83 82/82/82
f 124/124/124 133/133/133 86/86/86
f 86/86/86 83/83/83 124/124/124
f 133/133/133 134/134/134 88/88/88
f 88/88/88 86/86/86 133/133/133
f 134/134/134 135/135/135 91/91/91
f 91/91/91 88/88/88 134/134/134
f 135/135/135 136/136/136 92/92/92
f 92/92/92 91/91/91 135/135/135
f 136/136/136 137/137/137 98/98/98
f 98/98/98 92/92/92 136/136/136
f 137/137/137 138/138/138 99/99/99
f 99/99/99 98/98/98 137/137/137
f 138/138/138 128/128/128 108/108/108
f 108/108/108 99/99/99 138/138/138
f 128/128/128 113/113/113 108/108/108
f 139/139/139 129/129/129 128/128/128
f 70/70/70 118/118/118 128/128/128
f 139/139/139 131/131/131 129/129/129
f 139/139/139 132/132/132 131/131/131
f 139/139/139 123/123/123 132/132/132
f 139/139/139 124/124/124 123/123/123
f 139/139/139 133/133/133 124/124/124
f 139/139/139 134/134/134 133/133/133
f 139/139/139 135/135/135 134/134/134
f 139/139/139 136/136/136 135/135/135
f 139/139/139 137/137/137 136/136/136
f 139/139/139 138/138/138 137/137/137
f 139/139/139 128/128/128 138/138/138
f 43/43/43 46/46/46 96/96/96
f 94/94/94 90/90/90 93/93/93
f 24/24/24 68/68/68 127/127/127
f 127/127/127 130/130/130 24/24/24
