g 1_Visual
usemtl mat1
v -1.266314 2.114459 2.458086
v -1.714045 2.378466 1.948668
v -0.711938 2.791549 1.879750
v -0.917806 2.249401 2.433332
v 0.628668 3.109455 1.861385
v -1.479561 2.683968 1.470684
v -0.497420 3.336050 1.274356
v -0.626276 3.753555 0.003268
v -0.271956 3.913494 0.284971
v -0.201405 4.200790 -0.563663
v -0.362644 4.419350 -0.635039
v 0.366573 4.314050 -0.918723
v 0.429755 4.090806 0.646049
v 0.472187 3.856489 1.043222
v 1.579544 3.840801 0.815180
v 1.797215 4.053150 0.165094
v 1.687330 4.176970 -0.443583
v 1.183700 4.238430 -0.926494
v -0.526793 4.480440 -0.634048
v -0.744878 3.669197 -0.051822
v -1.527171 3.457142 -0.565788
v -1.089847 3.185376 0.596374
v -1.649212 3.101629 0.262106
v -1.470620 4.556860 -0.764356
v -1.597039 3.331594 -0.937776
v -2.063550 2.934577 0.078799
v -2.814177 2.365717 0.178683
v -2.683151 2.542635 0.422162
v -3.136738 1.761963 1.015303
v -3.254019 1.526883 0.842912
v -2.946397 2.234988 -0.063584
v -3.391733 1.349394 0.648847
v -3.362573 1.281054 1.002732
v -3.508683 1.081304 0.828810
v -3.201734 1.482837 1.208757
v -3.640283 0.238189 1.647280
v -3.413136 0.569064 1.766612
v -4.018149 -0.199136 1.459626
v -3.827750 -0.378986 2.043052
v -4.216759 -0.734901 1.783958
v -3.279193 0.168950 2.267610
v -2.598752 1.521810 1.937750
v -2.525346 0.979669 2.373960
v -2.710081 1.950157 1.571158
v -2.790049 2.181159 1.302086
v -1.625218 1.888661 2.443050
v -1.947066 2.238576 1.973735
v -1.974194 2.605384 1.592604
v -2.095334 2.551796 1.618501
v -2.139176 2.864384 1.211242
v -1.988891 2.928703 1.147363
v -2.027231 3.024513 0.691375
v -2.748739 2.448200 0.878783
v -4.599439 -0.761639 1.077759
v -3.906377 0.479411 0.433715
v -3.709400 0.768009 0.148315
v -3.316724 1.650635 -0.644963
v -3.004071 1.842482 -1.357170
v -2.315342 2.776143 -0.820848
v -2.095301 3.125067 -1.139145
v -3.570425 1.091401 -1.232741
v -4.125572 -0.009332 -0.401664
v -4.349066 -0.289184 0.087856
v -2.234370 3.184543 -1.556715
v -3.001614 1.909276 -1.572707
v -3.536479 1.960178 -1.522679
v -3.135436 3.304662 -1.642093
v -2.123900 4.800380 -0.648841
v -2.090952 4.743041 -0.812716
v -3.015830 4.772560 -0.504024
v -3.806830 3.411994 -1.207888
v -4.135505 2.065576 -1.073838
v -4.182034 1.260117 -0.887002
v -4.471799 -0.026440 -0.051966
v -4.525052 1.076572 -0.147252
v -4.491993 2.234933 -0.365398
v -4.256888 3.606759 -0.620930
v 0.269475 4.685330 -0.715979
v 1.293720 4.577120 -0.699486
v -0.214014 4.652180 -0.684456
v 1.510080 4.612350 -0.347367
v 1.356520 4.727720 -0.304728
v 1.196990 4.838390 0.498857
v 1.551670 4.594670 0.369886
v 1.405850 4.444300 0.973397
v 0.623638 4.539440 1.677200
v 0.535705 3.531111 2.083312
v -0.161726 4.529390 1.804420
v -0.321809 3.540008 2.407733
v -0.972887 3.537605 2.409294
v -0.764326 4.502950 1.807020
v -0.949013 4.497320 1.811050
v -1.166738 3.527176 2.393207
v -1.280676 3.099530 2.462268
v -1.935861 2.564250 2.550653
v -2.053714 1.483971 2.448861
v -1.738483 3.500527 2.329749
v -1.591130 4.563190 1.741800
v -2.317310 4.935720 1.249190
v -2.314980 4.591230 1.754380
v -2.576880 3.376837 2.161833
v -2.639519 2.379594 2.393127
v -2.547512 1.192003 2.457108
v -3.298383 0.558696 2.366191
v -3.273283 2.108823 2.229339
v -3.189103 3.221705 2.022221
v -2.842240 4.530160 1.630310
v -2.592120 5.019850 0.911118
v -3.970346 -0.244719 2.091092
v -4.004556 1.456815 1.975986
v -3.885612 2.727045 1.732668
v -3.664185 4.173448 1.191309
v -2.964590 4.975810 0.298676
v -4.283515 -0.583026 1.866147
v -4.343318 1.103303 1.652670
v -4.244432 2.494337 1.333941
v -3.908356 4.027939 0.852731
v -3.060820 4.918020 0.097543
v -4.712296 -0.523678 1.026662
v -4.538244 1.178019 0.797594
v -4.539118 2.439844 0.509134
v -4.280563 3.760208 -0.035027
v 0.454310 5.068180 0.153531
v 0.605440 5.041750 0.340064
v -1.709220 4.552040 -0.980986
v -1.871800 3.240115 -1.251792
v -1.831150 4.699090 -0.322722
v -1.813560 5.157170 0.662230
v -0.784062 4.974500 0.263673
v -1.537750 4.627770 -0.421263
v -0.443867 5.027890 0.133754
v -0.034590 4.999930 0.069335
v 0.253078 5.010170 1.122310
v -0.097701 4.953410 1.181270
v -0.674762 4.895640 1.178760
v -0.817242 4.906540 1.185990
v -1.205680 4.941950 1.131210
v -1.620430 5.122820 0.907985
v -0.499531 5.045810 0.672108
v -1.205393 3.187813 1.904630
v -1.662000 4.303410 0.606652
v -2.237770 4.463890 0.958563
v -1.261961 3.634331 1.532803
v -1.240837 3.982573 0.335380
v -1.615565 3.606257 0.489237
v -1.571686 3.913305 0.869238
v -2.236333 3.520444 0.381517
v -1.661280 4.334170 0.199247
v -1.621238 3.745278 0.133620
v -0.882505 4.526820 0.834749
v -2.304550 2.742563 1.887735
v -2.451168 3.115985 1.191216
v -2.836143 2.644728 1.566988
v -1.821388 2.946039 1.733573
v -1.981233 3.393764 1.012504
v -0.939986 4.356230 1.121410
v -3.187140 4.069004 0.186541
v -3.558816 3.191730 0.063688
v -2.523976 3.821761 -0.544538
v -2.697460 4.273090 0.347196
v -2.954732 3.098577 0.658389
v -2.950979 3.151521 -0.519868
v -3.201916 3.431926 0.969210
v -3.531701 2.552820 -0.430780
v -3.137136 2.820003 -0.752829
v -3.906229 1.364356 0.547853
v -3.581820 2.330063 0.670495
v -2.284191 1.893221 2.330267
v -0.371326 4.455770 0.020749
v -1.010840 4.278760 0.075431
v -2.355840 4.305560 0.468650
v -1.718150 4.317450 -0.349430
v 0.377816 4.510720 -0.131931
v -0.066686 4.470320 0.691843
v 1.263480 4.512660 -0.239236
v -3.633010 1.864418 1.402369
v -2.629515 3.689831 1.198184
v -3.341686 1.601801 1.719314
v -2.175850 3.885973 1.197518
v -3.558303 1.439408 0.977887
v -3.956950 0.538534 1.698377
vn 0.291740 -0.580535 0.760175
vn 0.282747 -0.765766 -0.577630
vn 0.248537 -0.766983 -0.591580
vn 0.490026 -0.616959 0.615821
vn 0.510702 -0.825382 -0.240682
vn 0.329379 -0.842403 -0.426459
vn 0.360028 -0.792823 -0.491744
vn 0.474393 -0.803120 -0.360485
vn 0.436137 -0.829481 -0.348921
vn 0.182531 -0.928610 -0.323058
vn -0.317252 -0.249104 -0.915040
vn -0.072534 -0.890444 -0.449275
vn 0.014249 -0.972567 -0.232184
vn 0.128628 -0.797799 -0.589043
vn 0.504458 -0.846022 -0.172536
vn 0.550818 -0.805778 -0.217535
vn 0.256170 -0.917529 -0.304166
vn 0.032758 -0.867775 -0.495877
vn -0.013764 0.325327 -0.945501
vn 0.426388 -0.562946 -0.708015
vn 0.639341 -0.615878 -0.460366
vn 0.296203 -0.901307 -0.316085
vn 0.335873 -0.923705 -0.184276
vn 0.539416 0.267763 -0.798332
vn 0.808703 -0.546923 -0.216504
vn 0.585514 -0.810650 -0.004454
vn 0.729831 -0.683549 -0.010355
vn 0.708627 -0.704896 0.031151
vn 0.867242 -0.486583 -0.105487
vn 0.861589 -0.496331 -0.106397
vn 0.798776 -0.600112 0.042695
vn 0.878272 -0.472556 -0.073004
vn 0.869069 -0.427601 -0.248752
vn 0.854235 -0.472331 -0.217222
vn 0.814307 -0.428204 -0.391849
vn 0.799394 -0.458094 -0.388742
vn 0.721043 -0.441276 -0.534202
vn 0.794627 -0.514658 -0.322016
vn 0.724782 -0.688950 0.006224
vn 0.633378 -0.762995 -0.129120
vn 0.747183 -0.602911 -0.279671
vn 0.598740 -0.462431 -0.653963
vn 0.622110 -0.547969 -0.559204
vn 0.651072 -0.477582 -0.589932
vn 0.714739 -0.544512 -0.438925
vn 0.650692 -0.656167 0.382158
vn 0.508485 -0.508936 -0.694570
vn 0.085086 -0.794961 -0.600664
vn 0.519387 -0.558739 -0.646567
vn 0.582919 -0.703963 -0.405760
vn 0.033367 -0.892009 -0.450784
vn 0.423673 -0.904133 -0.055182
vn 0.715391 -0.680737 -0.157518
vn 0.676802 -0.705753 -0.209408
vn 0.847116 -0.521068 -0.104321
vn 0.889427 -0.456862 -0.014007
vn 0.865839 -0.499664 0.025666
vn 0.797614 -0.602711 0.023466
vn 0.684586 -0.728932 0.000609
vn 0.584394 -0.227266 -0.778996
vn 0.442604 -0.647663 -0.620189
vn 0.439797 -0.734059 -0.517432
vn 0.580659 -0.790017 -0.196744
vn 0.419921 0.063819 -0.905314
vn 0.225630 -0.288065 -0.930650
vn -0.328366 -0.048679 -0.943295
vn -0.152796 0.395272 -0.905767
vn 0.152821 0.649985 -0.744423
vn -0.417627 0.396242 -0.817668
vn -0.397474 0.805006 -0.440432
vn -0.634743 0.295529 -0.713978
vn -0.771421 -0.018203 -0.636064
vn -0.728972 -0.195418 -0.656058
vn -0.948143 -0.095922 -0.303025
vn -0.978215 -0.034143 -0.204767
vn -0.949767 0.081824 -0.302072
vn -0.784405 0.431982 -0.445084
vn -0.003482 0.773702 -0.633541
vn 0.257488 0.783193 -0.565958
vn -0.183840 0.810969 -0.555457
vn 0.847862 0.505697 -0.159374
vn 0.367880 0.918134 -0.147290
vn 0.405246 0.880082 0.247449
vn 0.845234 0.501234 0.185323
vn 0.755958 0.246511 0.606432
vn 0.414767 0.656836 0.629710
vn 0.496375 0.087140 0.863724
vn 0.103680 0.579001 0.808708
vn 0.192045 0.176226 0.965434
vn 0.004660 0.320516 0.947232
vn -0.043020 0.695893 0.716856
vn -0.004582 0.673369 0.739293
vn -0.077544 0.467512 0.880579
vn 0.040414 0.068126 0.996858
vn -0.072403 0.059685 0.995588
vn -0.028030 -0.073701 0.996886
vn -0.194749 0.355178 0.914287
vn -0.050493 0.615837 0.786254
vn -0.052573 0.853733 0.518050
vn -0.144705 0.471912 0.869689
vn -0.215074 0.321615 0.922121
vn -0.219296 0.119184 0.968351
vn -0.027545 -0.050740 0.998332
vn -0.257432 0.006227 0.966276
vn -0.374579 0.126953 0.918462
vn -0.413409 0.282497 0.865614
vn -0.489634 0.528422 0.693562
vn -0.385075 0.879442 0.279819
vn -0.420174 0.009843 0.907390
vn -0.554733 0.123046 0.822879
vn -0.650160 0.293268 0.700918
vn -0.667106 0.562772 0.488115
vn -0.489392 0.860460 0.141788
vn -0.797521 -0.020135 0.602955
vn -0.893706 0.110169 0.434916
vn -0.895746 0.217192 0.387901
vn -0.826089 0.534506 0.178552
vn -0.479273 0.857609 -0.186559
vn -0.993375 0.000786 0.114911
vn -0.994339 0.065063 0.084006
vn -0.977758 0.155911 0.140287
vn -0.877799 0.478923 0.010058
vn 0.070669 0.950698 -0.301959
vn 0.260212 0.953776 0.150337
vn -0.050143 0.273329 -0.960613
vn 0.522941 -0.149915 -0.839081
vn 0.132061 0.953796 -0.269875
vn 0.008157 0.961932 -0.273167
vn -0.013795 0.921714 -0.387626
vn -0.022179 0.919574 -0.392290
vn -0.213516 0.904667 -0.368767
vn -0.050442 0.948517 -0.312682
vn 0.166897 0.924919 0.341571
vn -0.070986 0.885195 0.459773
vn -0.050674 0.897902 0.437269
vn 0.033992 0.873595 0.485465
vn 0.065001 0.862762 0.501414
vn 0.028797 0.938767 0.343348
vn 0.017677 0.996909 0.076550
vt 1.000000 1.000000
vt 1.000000 1.000000
vt 1.000000 1.000000
vt 1.000000 1.000000
vt 1.000000 1.000000
vt 1.000000 1.000000
vt 1.000000 1.000000
vt 1.000000 1.000000
vt 1.000000 1.000000
vt 1.000000 1.000000
vt 1.000000 1.000000
vt 1.000000 1.000000
vt 1.000000 1.000000
vt 1.000000 1.000000
vt 1.000000 1.000000
vt 1.000000 1.000000
vt 1.000000 1.000000
vt 1.000000 1.000000
vt 1.000000 1.000000
vt 1.000000 1.000000
vt 1.000000 1.000000
vt 1.000000 1.000000
vt 1.000000 1.000000
vt 1.000000 1.000000
vt 1.000000 1.000000
vt 1.000000 1.000000
vt 1.000000 1.000000
vt 1.000000 1.000000
vt 1.000000 1.000000
vt 1.000000 1.000000
vt 1.000000 1.000000
vt 1.000000 1.000000
vt 1.000000 1.000000
vt 1.000000 1.000000
vt 1.000000 1.000000
vt 1.000000 1.000000
vt 1.000000 1.000000
vt 1.000000 1.000000
vt 1.000000 1.000000
vt 1.000000 1.000000
vt 1.000000 1.000000
vt 1.000000 1.000000
vt 1.000000 1.000000
vt 1.000000 1.000000
vt 1.000000 1.000000
vt 1.000000 1.000000
vt 1.000000 1.000000
vt 1.000000 1.000000
vt 1.000000 1.000000
vt 1.000000 1.000000
vt 1.000000 1.000000
vt 1.000000 1.000000
vt 1.000000 1.000000
vt 1.000000 1.000000
vt 1.000000 1.000000
vt 1.000000 1.000000
vt 1.000000 1.000000
vt 1.000000 1.000000
vt 1.000000 1.000000
vt 1.000000 1.000000
vt 1.000000 1.000000
vt 1.000000 1.000000
vt 1.000000 1.000000
vt 1.000000 1.000000
vt 1.000000 1.000000
vt 1.000000 1.000000
vt 1.000000 1.000000
vt 1.000000 1.000000
vt 1.000000 1.000000
vt 1.000000 1.000000
vt 1.000000 1.000000
vt 1.000000 1.000000
vt 1.000000 1.000000
vt 1.000000 1.000000
vt 1.000000 1.000000
vt 1.000000 1.000000
vt 1.000000 1.000000
vt 1.000000 1.000000
vt 1.000000 1.000000
vt 1.000000 1.000000
vt 1.000000 1.000000
vt 1.000000 1.000000
vt 1.000000 1.000000
vt 1.000000 1.000000
vt 1.000000 1.000000
vt 1.000000 1.000000
vt 1.000000 1.000000
vt 1.000000 1.000000
vt 1.000000 1.000000
vt 1.000000 1.000000
vt 1.000000 1.000000
vt 1.000000 1.000000
vt 1.000000 1.000000
vt 1.000000 1.000000
vt 1.000000 1.000000
vt 1.000000 1.000000
vt 1.000000 1.000000
vt 1.000000 1.000000
vt 1.000000 1.000000
vt 1.000000 1.000000
vt 1.000000 1.000000
vt 1.000000 1.000000
vt 1.000000 1.000000
vt 1.000000 1.000000
vt 1.000000 1.000000
vt 1.000000 1.000000
vt 1.000000 1.000000
vt 1.000000 1.000000
vt 1.000000 1.000000
vt 1.000000 1.000000
vt 1.000000 1.000000
vt 1.000000 1.000000
vt 1.000000 1.000000
vt 1.000000 1.000000
vt 1.000000 1.000000
vt 1.000000 1.000000
vt 1.000000 1.000000
vt 1.000000 1.000000
vt 1.000000 1.000000
vt 1.000000 1.000000
vt 1.000000 1.000000
vt 1.000000 1.000000
vt 1.000000 1.000000
vt 1.000000 1.000000
vt 1.000000 1.000000
vt 1.000000 1.000000
vt 1.000000 1.000000
vt 1.000000 1.000000
vt 1.000000 1.000000
vt 1.000000 1.000000
vt 1.000000 1.000000
vt 1.000000 1.000000
vt 1.000000 1.000000
vt 1.000000 1.000000
vt 1.000000 1.000000
vt 1.000000 1.000000
vt 1.000000 1.000000
vt 1.000000 1.000000
vt 1.000000 1.000000
f 1/1/1 2/2/2 3/3/3
f 3/3/3 4/4/4 1/1/1
f 3/3/3 5/5/5 4/4/4
f 3/3/3 2/2/2 6/6/6
f 6/6/6 7/7/7 3/3/3
f 7/7/7 6/6/6 8/8/8
f 8/8/8 9/9/9 7/7/7
f 9/9/9 8/8/8 10/10/10
f 10/10/10 8/8/8 11/11/11
f 11/11/11 12/12/12 10/10/10
f 10/10/10 12/12/12 13/13/13
f 13/13/13 9/9/9 10/10/10
f 9/9/9 13/13/13 14/14/14
f 14/14/14 7/7/7 9/9/9
f 7/7/7 14/14/14 5/5/5
f 5/5/5 3/3/3 7/7/7
f 5/5/5 14/14/14 15/15/15
f 13/13/13 15/15/15 14/14/14
f 16/16/16 15/15/15 13/13/13
f 17/17/17 16/16/16 13/13/13
f 18/18/18 17/17/17 13/13/13
f 12/12/12 18/18/18 13/13/13
f 19/19/19 11/11/11 8/8/8
f 8/8/8 20/20/20 19/19/19
f 21/21/21 20/20/20 22/22/22
f 22/22/22 23/23/23 21/21/21
f 24/24/24 19/19/19 20/20/20
f 20/20/20 21/21/21 24/24/24
f 25/25/25 24/24/24 21/21/21
f 21/21/21 23/23/23 26/26/26
f 21/21/21 26/26/26 25/25/25
f 27/27/27 28/28/28 29/29/29
f 29/29/29 30/30/30 27/27/27
f 31/31/31 27/27/27 30/30/30
f 30/30/30 32/32/32 31/31/31
f 32/32/32 30/30/30 33/33/33
f 33/33/33 34/34/34 32/32/32
f 35/35/35 33/33/33 30/30/30
f 30/30/30 29/29/29 35/35/35
f 36/36/36 33/33/33 35/35/35
f 35/35/35 37/37/37 36/36/36
f 34/34/34 33/33/33 36/36/36
f 36/36/36 38/38/38 34/34/34
f 38/38/38 36/36/36 39/39/39
f 39/39/39 40/40/40 38/38/38
f 36/36/36 37/37/37 41/41/41
f 41/41/41 39/39/39 36/36/36
f 41/41/41 37/37/37 42/42/42
f 42/42/42 43/43/43 41/41/41
f 44/44/44 42/42/42 37/37/37
f 37/37/37 35/35/35 44/44/44
f 45/45/45 44/44/44 35/35/35
f 35/35/35 29/29/29 45/45/45
f 2/2/2 1/1/1 46/46/46
f 46/46/46 47/47/47 2/2/2
f 2/2/2 48/48/48 6/6/6
f 48/48/48 2/2/2 47/47/47
f 47/47/47 49/49/49 48/48/48
f 49/49/49 47/47/47 42/42/42
f 42/42/42 44/44/44 49/49/49
f 50/50/50 49/49/49 44/44/44
f 44/44/44 45/45/45 50/50/50
f 51/51/51 48/48/48 49/49/49
f 49/49/49 50/50/50 51/51/51
f 6/6/6 48/48/48 51/51/51
f 51/51/51 22/22/22 6/6/6
f 22/22/22 51/51/51 52/52/52
f 52/52/52 23/23/23 22/22/22
f 52/52/52 26/26/26 23/23/23
f 52/52/52 53/53/53 28/28/28
f 28/28/28 26/26/26 52/52/52
f 29/29/29 28/28/28 53/53/53
f 8/8/8 6/6/6 22/22/22
f 22/22/22 20/20/20 8/8/8
f 38/38/38 54/54/54 55/55/55
f 55/55/55 34/34/34 38/38/38
f 34/34/34 55/55/55 56/56/56
f 56/56/56 32/32/32 34/34/34
f 32/32/32 56/56/56 57/57/57
f 57/57/57 31/31/31 32/32/32
f 31/31/31 57/57/57 58/58/58
f 58/58/58 59/59/59 31/31/31
f 58/58/58 60/60/60 59/59/59
f 61/61/61 57/57/57 56/56/56
f 56/56/56 62/62/62 61/61/61
f 62/62/62 56/56/56 55/55/55
f 55/55/55 63/63/63 62/62/62
f 55/55/55 54/54/54 63/63/63
f 64/64/64 60/60/60 58/58/58
f 58/58/58 65/65/65 64/64/64
f 58/58/58 61/61/61 65/65/65
f 61/61/61 66/66/66 65/65/65
f 64/64/64 65/65/65 66/66/66
f 66/66/66 67/67/67 64/64/64
f 60/60/60 64/64/64 68/68/68
f 68/68/68 69/69/69 60/60/60
f 70/70/70 68/68/68 67/67/67
f 67/67/67 71/71/71 70/70/70
f 71/71/71 67/67/67 66/66/66
f 66/66/66 72/72/72 71/71/71
f 61/61/61 62/62/62 73/73/73
f 62/62/62 63/63/63 74/74/74
f 73/73/73 62/62/62 74/74/74
f 74/74/74 75/75/75 73/73/73
f 72/72/72 73/73/73 75/75/75
f 75/75/75 76/76/76 72/72/72
f 71/71/71 72/72/72 76/76/76
f 76/76/76 77/77/77 71/71/71
f 71/71/71 77/77/77 70/70/70
f 67/67/67 68/68/68 64/64/64
f 54/54/54 38/38/38 40/40/40
f 18/18/18 12/12/12 78/78/78
f 78/78/78 79/79/79 18/18/18
f 78/78/78 12/12/12 11/11/11
f 11/11/11 80/80/80 78/78/78
f 79/79/79 81/81/81 17/17/17
f 17/17/17 18/18/18 79/79/79
f 82/82/82 83/83/83 84/84/84
f 84/84/84 81/81/81 82/82/82
f 81/81/81 84/84/84 16/16/16
f 16/16/16 17/17/17 81/81/81
f 84/84/84 85/85/85 15/15/15
f 15/15/15 16/16/16 84/84/84
f 83/83/83 86/86/86 85/85/85
f 85/85/85 84/84/84 83/83/83
f 85/85/85 87/87/87 5/5/5
f 5/5/5 15/15/15 85/85/85
f 87/87/87 85/85/85 86/86/86
f 87/87/87 86/86/86 88/88/88
f 88/88/88 89/89/89 87/87/87
f 89/89/89 4/4/4 87/87/87
f 4/4/4 5/5/5 87/87/87
f 89/89/89 90/90/90 1/1/1
f 1/1/1 4/4/4 89/89/89
f 88/88/88 91/91/91 90/90/90
f 90/90/90 89/89/89 88/88/88
f 91/91/91 92/92/92 93/93/93
f 93/93/93 90/90/90 91/91/91
f 46/46/46 94/94/94 95/95/95
f 95/95/95 96/96/96 46/46/46
f 97/97/97 95/95/95 94/94/94
f 94/94/94 93/93/93 97/97/97
f 98/98/98 97/97/97 93/93/93
f 93/93/93 92/92/92 98/98/98
f 99/99/99 100/100/100 98/98/98
f 98/98/98 100/100/100 101/101/101
f 101/101/101 97/97/97 98/98/98
f 97/97/97 101/101/101 102/102/102
f 102/102/102 95/95/95 97/97/97
f 43/43/43 42/42/42 47/47/47
f 47/47/47 46/46/46 43/43/43
f 94/94/94 46/46/46 1/1/1
f 1/1/1 90/90/90 94/94/94
f 41/41/41 43/43/43 103/103/103
f 103/103/103 104/104/104 41/41/41
f 104/104/104 103/103/103 102/102/102
f 102/102/102 105/105/105 104/104/104
f 105/105/105 102/102/102 101/101/101
f 101/101/101 106/106/106 105/105/105
f 106/106/106 101/101/101 100/100/100
f 100/100/100 107/107/107 106/106/106
f 107/107/107 100/100/100 99/99/99
f 99/99/99 108/108/108 107/107/107
f 39/39/39 41/41/41 104/104/104
f 104/104/104 109/109/109 39/39/39
f 109/109/109 104/104/104 105/105/105
f 105/105/105 110/110/110 109/109/109
f 110/110/110 105/105/105 106/106/106
f 106/106/106 111/111/111 110/110/110
f 111/111/111 106/106/106 107/107/107
f 107/107/107 112/112/112 111/111/111
f 112/112/112 107/107/107 108/108/108
f 108/108/108 113/113/113 112/112/112
f 40/40/40 39/39/39 109/109/109
f 109/109/109 114/114/114 40/40/40
f 114/114/114 109/109/109 110/110/110
f 110/110/110 115/115/115 114/114/114
f 115/115/115 110/110/110 111/111/111
f 111/111/111 116/116/116 115/115/115
f 116/116/116 111/111/111 112/112/112
f 112/112/112 117/117/117 116/116/116
f 117/117/117 112/112/112 113/113/113
f 113/113/113 118/118/118 117/117/117
f 54/54/54 40/40/40 114/114/114
f 114/114/114 119/119/119 54/54/54
f 119/119/119 114/114/114 115/115/115
f 115/115/115 120/120/120 119/119/119
f 120/120/120 115/115/115 116/116/116
f 116/116/116 121/121/121 120/120/120
f 121/121/121 116/116/116 117/117/117
f 117/117/117 122/122/122 121/121/121
f 70/70/70 122/122/122 117/117/117
f 117/117/117 118/118/118 70/70/70
f 70/70/70 77/77/77 122/122/122
f 122/122/122 77/77/77 76/76/76
f 76/76/76 121/121/121 122/122/122
f 121/121/121 76/76/76 75/75/75
f 75/75/75 120/120/120 121/121/121
f 120/120/120 75/75/75 74/74/74
f 74/74/74 119/119/119 120/120/120
f 119/119/119 74/74/74 63/63/63
f 63/63/63 54/54/54 119/119/119
f 82/82/82 81/81/81 79/79/79
f 11/11/11 19/19/19 80/80/80
f 50/50/50 45/45/45 53/53/53
f 53/53/53 52/52/52 50/50/50
f 50/50/50 52/52/52 51/51/51
f 27/27/27 26/26/26 28/28/28
f 27/27/27 31/31/31 59/59/59
f 59/59/59 26/26/26 27/27/27
f 43/43/43 96/96/96 103/103/103
f 102/102/102 103/103/103 96/96/96
f 96/96/96 95/95/95 102/102/102
f 72/72/72 66/66/66 61/61/61
f 61/61/61 73/73/73 72/72/72
f 58/58/58 57/57/57 61/61/61
f 29/29/29 53/53/53 45/45/45
f 82/82/82 79/79/79 123/123/123
f 123/123/123 124/124/124 82/82/82
f 24/24/24 125/125/125 69/69/69
f 69/69/69 68/68/68 24/24/24
f 60/60/60 69/69/69 125/125/125
f 125/125/125 126/126/126 60/60/60
f 126/126/126 125/125/125 24/24/24
f 24/24/24 25/25/25 126/126/126
f 59/59/59 126/126/126 25/25/25
f 25/25/25 26/26/26 59/59/59
f 60/60/60 126/126/126 59/59/59
f 127/127/127 68/68/68 70/70/70
f 70/70/70 128/128/128 127/127/127
f 113/113/113 128/128/128 118/118/118
f 128/128/128 129/129/129 130/130/130
f 130/130/130 127/127/127 128/128/128
f 129/129/129 24/24/24 130/130/130
f 129/129/129 131/131/131 19/19/19
f 19/19/19 24/24/24 129/129/129
f 131/131/131 132/132/132 80/80/80
f 80/80/80 19/19/19 131/131/131
f 132/132/132 123/123/123 78/78/78
f 78/78/78 80/80/80 132/132/132
f 123/123/123 79/79/79 78/78/78
f 124/124/124 83/83/83 82/82/82
f 124/124/124 133/133/133 86/86/86
f 86/86/86 83/83/83 124/124/124
f 133/133/133 134/134/134 88/88/88
f 88/88/88 86/86/86 133/133/133
f 134/134/134 135/135/135 91/91/91
f 91/91/91 88/88/88 134/134/134
f 135/135/135 136/136/136 92/92/92
f 92/92/92 91/91/91 135/135/135
f 136/136/136 137/137/137 98/98/98
f 98/98/98 92/92/92 136/136/136
f 137/137/137 138/138/138 99/99/99
f 99/99/99 98/98/98 137/137/137
f 138/138/138 128/128/128 108/108/108
f 108/108/108 99/99/99 138/138/138
f 128/128/128 113/113/113 108/108/108
f 139/139/139 129/129/129 128/128/128
f 70/70/70 118/118/118 128/128/128
f 139/139/139 131/131/131 129/129/129
f 139/139/139 132/132/132 131/131/131
f 139/139/139 123/123/123 132/132/132
f 139/139/139 124/124/124 123/123/123
f 139/139/139 133/133/133 124/124/124
f 139/139/139 134/134/134 133/133/133
f 139/139/139 135/135/135 134/134/134
f 139/139/139 136/136/136 135/135/135
f 139/139/139 137/137/137 136/136/136
f 139/139/139 138/138/138 137/137/137
f 139/139/139 128/128/128 138/138/138
f 43/43/43 46/46/46 96/96/96
f 94/94/94 90/90/90 93/93/93
f 24/24/24 68/68/68 127/127/127
f 127/127/127 130/130/130 24/24/24
