g 1_Visual
usemtl mat1
v -1.990461 1.791131 2.337392
v -2.532930 2.022199 1.909903
v -1.385134 2.570471 1.852732
v -1.638015 2.006393 2.304816
v 0.214887 3.070817 1.851241
v -2.232287 2.376561 1.537205
v -0.839649 3.257091 1.344703
v -0.722165 3.764724 0.082661
v -0.335015 3.919152 0.332382
v -0.201405 4.200790 -0.563663
v -0.362644 4.419350 -0.635039
v 0.366573 4.314050 -0.918723
v 0.417596 4.091473 0.652922
v 0.370533 3.853949 1.078602
v 1.481716 3.841577 0.862604
v 1.774433 4.055973 0.179973
v 1.687330 4.176970 -0.443583
v 1.183700 4.238430 -0.926494
v -0.526793 4.480440 -0.634048
v -0.858430 3.683250 0.044479
v -1.654284 3.490268 -0.445567
v -1.376858 3.186846 0.811790
v -1.909955 3.130490 0.480844
v -1.470620 4.556860 -0.764356
v -1.737054 3.370335 -0.805313
v -2.345062 2.988264 0.307239
v -3.190558 2.466592 0.402140
v -3.053681 2.626209 0.670161
v -3.743943 1.853639 1.150162
v -3.813150 1.652554 0.982182
v -3.326782 2.354104 0.141991
v -3.915349 1.548116 0.781327
v -3.984123 1.449282 1.117936
v -4.098375 1.327070 0.937172
v -3.884279 1.574168 1.316303
v -4.447848 0.566285 1.735618
v -4.191442 0.723715 1.859753
v -4.828149 0.449735 1.549940
v -4.627341 0.369524 2.274337
v -5.059985 0.245313 1.970926
v -4.026071 0.531619 2.481182
v -3.395937 1.406158 1.958880
v -3.246671 0.924285 2.423137
v -3.544732 1.881167 1.623485
v -3.511022 2.183164 1.405819
v -2.356344 1.511059 2.345316
v -2.757351 1.947157 1.940890
v -2.791337 2.373449 1.628458
v -2.945401 2.339221 1.649291
v -2.692239 2.787811 1.323271
v -2.499124 2.847024 1.269879
v -2.361484 3.037381 0.897064
v -3.266453 2.498524 1.071134
v -5.435492 0.253194 1.105029
v -4.533905 0.920886 0.452547
v -4.285847 1.118395 0.213026
v -3.759455 1.866827 -0.487129
v -3.383358 1.977565 -1.198991
v -2.571256 2.860277 -0.608135
v -2.275489 3.175256 -0.983648
v -4.060583 1.368296 -1.135671
v -4.817367 0.470573 -0.436249
v -5.106451 0.320689 -0.001688
v -2.397475 3.220943 -1.419023
v -3.361600 2.030835 -1.417823
v -3.892731 2.163231 -1.391250
v -3.280571 3.343936 -1.530423
v -2.123900 4.800380 -0.648841
v -2.093271 4.743804 -0.810906
v -3.015830 4.772560 -0.504024
v -3.938009 3.603208 -1.164502
v -4.500488 2.416063 -0.963741
v -4.669772 1.679843 -0.806299
v -5.185953 0.592922 -0.113252
v -5.060553 1.655748 -0.091080
v -4.870242 2.726845 -0.255542
v -4.352034 3.917872 -0.642164
v 0.269475 4.685330 -0.715979
v 1.293720 4.577120 -0.699486
v -0.214014 4.652180 -0.684456
v 1.510080 4.612350 -0.347367
v 1.356520 4.727720 -0.304728
v 1.196990 4.838390 0.498857
v 1.551670 4.594670 0.369886
v 1.405850 4.444300 0.973397
v 0.623638 4.539440 1.677200
v 0.274478 3.526222 2.054417
v -0.161726 4.529390 1.804420
v -0.607603 3.486956 2.351253
v -1.265875 3.431848 2.357148
v -0.764326 4.502950 1.807020
v -0.949013 4.497320 1.811050
v -1.467475 3.403395 2.342796
v -1.785963 2.888838 2.360394
v -2.592190 2.363510 2.408970
v -2.774190 1.250667 2.409099
v -2.046403 3.398404 2.289408
v -1.591130 4.563190 1.741800
v -2.317310 4.935720 1.249190
v -2.314980 4.591230 1.754380
v -2.933289 3.359342 2.139859
v -3.307997 2.364069 2.313622
v -3.245081 1.170387 2.488398
v -3.992240 0.899456 2.548745
v -3.972414 2.283742 2.213272
v -3.612719 3.299749 2.014524
v -2.842240 4.530160 1.630310
v -2.592120 5.019850 0.911118
v -4.746756 0.594850 2.317650
v -4.800904 2.161365 1.995354
v -4.462624 3.321997 1.721474
v -3.697476 4.474394 1.164545
v -2.964590 4.975810 0.298676
v -5.106492 0.444025 2.057911
v -5.242582 1.994438 1.668867
v -4.821823 3.243148 1.350399
v -3.955902 4.395250 0.811754
v -3.060820 4.918020 0.097543
v -5.521286 0.497368 1.037161
v -5.132296 1.919252 0.856744
v -4.918559 3.081665 0.616874
v -4.353116 4.138321 -0.085598
v 0.454310 5.068180 0.153531
v 0.605440 5.041750 0.340064
v -1.709220 4.552040 -0.980986
v -2.027077 3.278994 -1.113431
v -1.831150 4.699090 -0.322722
v -1.813560 5.157170 0.662230
v -0.784062 4.974500 0.263673
v -1.537750 4.627770 -0.421263
v -0.443867 5.027890 0.133754
v -0.034590 4.999930 0.069335
v 0.253078 5.010170 1.122310
v -0.097701 4.953410 1.181270
v -0.674762 4.895640 1.178760
v -0.817242 4.906540 1.185990
v -1.205680 4.941950 1.131210
v -1.620430 5.122820 0.907985
v -0.499531 5.045810 0.672108
v -1.714362 2.971032 1.884104
v -1.662000 4.303410 0.606652
v -2.237770 4.463890 0.958563
v -1.521220 3.527727 1.551524
v -1.279500 3.984614 0.368408
v -1.758143 3.617052 0.605998
v -1.649934 3.902141 0.902651
v -2.389949 3.546839 0.500176
v -1.661280 4.334170 0.199247
v -1.715246 3.757140 0.213071
v -0.882505 4.526820 0.834749
v -3.028286 2.614013 1.873379
v -2.880643 3.097071 1.279137
v -3.583938 2.646950 1.612699
v -2.483910 2.721354 1.735969
v -2.268820 3.361713 1.103659
v -0.939986 4.356230 1.121410
v -3.199800 4.093238 0.189687
v -3.767844 3.393528 0.168141
v -2.586618 3.842382 -0.495663
v -2.697460 4.273090 0.347196
v -3.233317 3.159591 0.821711
v -3.156441 3.225510 -0.371315
v -3.444702 3.503092 1.036723
v -3.859899 2.772563 -0.247668
v -3.406090 2.921574 -0.562934
v -4.414747 1.778480 0.655219
v -4.006217 2.610742 0.853200
v -2.999985 1.747541 2.284997
v -0.371326 4.455770 0.020749
v -1.010840 4.278760 0.075431
v -2.355840 4.305560 0.468650
v -1.718150 4.317450 -0.349430
v 0.377816 4.510720 -0.131931
v -0.066686 4.470320 0.691843
v 1.263480 4.512660 -0.239236
v -4.417223 2.237715 1.468779
v -2.813596 3.691726 1.234134
v -4.203765 1.764110 1.765280
v -2.279424 3.875361 1.218690
v -4.170898 1.718196 1.089406
v -4.772182 1.086974 1.758894
vn 0.323670 -0.576747 0.750067
vn 0.244374 -0.681867 -0.689448
vn 0.277755 -0.700080 -0.657830
vn 0.487162 -0.664946 0.566145
vn 0.484983 -0.834092 -0.262834
vn 0.264759 -0.781887 -0.564408
vn 0.363867 -0.795766 -0.484105
vn 0.391456 -0.840275 -0.375101
vn 0.384882 -0.865523 -0.320524
vn 0.155681 -0.938741 -0.307454
vn -0.328912 -0.273335 -0.903939
vn -0.072186 -0.891172 -0.447885
vn 0.012624 -0.974120 -0.225681
vn 0.131555 -0.797649 -0.588600
vn 0.477923 -0.868109 -0.134074
vn 0.551773 -0.813494 -0.183775
vn 0.259476 -0.919227 -0.296130
vn 0.032020 -0.869239 -0.493354
vn -0.025774 0.256198 -0.966281
vn 0.379695 -0.674229 -0.633441
vn 0.561045 -0.727609 -0.394733
vn 0.150633 -0.875905 -0.458366
vn 0.282179 -0.944204 -0.169862
vn 0.549698 0.148798 -0.822005
vn 0.721707 -0.668878 -0.178159
vn 0.503728 -0.863824 0.008111
vn 0.647175 -0.761318 0.039504
vn 0.618068 -0.779442 0.102283
vn 0.817569 -0.566836 0.101381
vn 0.805494 -0.592484 0.011945
vn 0.699182 -0.711708 0.067936
vn 0.782333 -0.620535 -0.053776
vn 0.818998 -0.565281 -0.098488
vn 0.699301 -0.696024 -0.162876
vn 0.795878 -0.523279 -0.304561
vn 0.586254 -0.739689 -0.330404
vn 0.634729 -0.576120 -0.514980
vn 0.531625 -0.814261 -0.233139
vn 0.163465 -0.936457 0.310367
vn 0.017375 -0.986971 0.159958
vn 0.499006 -0.859462 -0.110983
vn 0.444021 -0.553724 -0.704439
vn 0.387685 -0.663380 -0.640021
vn 0.561105 -0.514653 -0.648301
vn 0.665643 -0.638384 -0.386505
vn 0.476501 -0.683922 0.552447
vn 0.299726 -0.528684 -0.794140
vn -0.067798 -0.603855 -0.794205
vn 0.346878 -0.535239 -0.770192
vn 0.454650 -0.765648 -0.455057
vn -0.071223 -0.675033 -0.734342
vn 0.349198 -0.932739 -0.089769
vn 0.630697 -0.774555 -0.047802
vn 0.268287 -0.962937 -0.027819
vn 0.643275 -0.765635 0.000739
vn 0.776572 -0.629832 0.015759
vn 0.758479 -0.649757 0.050257
vn 0.693906 -0.717091 0.065383
vn 0.599046 -0.800177 0.029318
vn 0.562099 -0.408936 -0.718900
vn 0.340448 -0.718157 -0.606915
vn 0.261291 -0.815463 -0.516476
vn 0.233192 -0.972242 -0.019164
vn 0.446855 -0.049913 -0.893213
vn 0.221632 -0.338807 -0.914379
vn -0.288998 -0.026778 -0.956955
vn -0.092296 0.371758 -0.923730
vn 0.171529 0.612122 -0.771936
vn -0.428904 0.379946 -0.819562
vn -0.265113 0.836374 -0.479785
vn -0.530080 0.351883 -0.771488
vn -0.729249 0.094527 -0.677687
vn -0.717883 -0.042028 -0.694894
vn -0.931645 0.070945 -0.356377
vn -0.952930 0.126233 -0.275662
vn -0.898355 0.236635 -0.370083
vn -0.662727 0.537406 -0.521525
vn -0.003482 0.773702 -0.633541
vn 0.257488 0.783193 -0.565958
vn -0.183840 0.810969 -0.555457
vn 0.856277 0.493641 -0.152017
vn 0.367880 0.918134 -0.147290
vn 0.405246 0.880082 0.247449
vn 0.863086 0.463867 0.199774
vn 0.750742 0.109076 0.651528
vn 0.429789 0.617150 0.659096
vn 0.472772 -0.068765 0.878497
vn 0.091018 0.529766 0.843246
vn 0.182151 0.069000 0.980846
vn -0.015006 0.245851 0.969192
vn -0.045441 0.661971 0.748151
vn -0.010818 0.630510 0.776106
vn -0.070830 0.401741 0.913010
vn 0.022723 0.016699 0.999602
vn -0.021528 0.052277 0.998401
vn 0.045680 0.019893 0.998758
vn -0.126472 0.305428 0.943779
vn -0.036846 0.586266 0.809281
vn -0.052573 0.853733 0.518050
vn -0.120659 0.486266 0.865440
vn -0.144230 0.326103 0.934267
vn -0.096485 0.174089 0.979992
vn 0.102108 0.042370 0.993871
vn -0.172255 0.129318 0.976527
vn -0.257034 0.230150 0.938597
vn -0.259766 0.354688 0.898175
vn -0.326113 0.626332 0.708066
vn -0.274639 0.919414 0.281515
vn -0.385981 0.125881 0.913878
vn -0.434396 0.232495 0.870199
vn -0.465582 0.476931 0.745500
vn -0.477170 0.761642 0.438417
vn -0.348905 0.933804 0.079214
vn -0.814921 0.020340 0.579215
vn -0.919654 0.219632 0.325572
vn -0.860322 0.478053 0.176949
vn -0.661426 0.748365 0.049654
vn -0.340590 0.916392 -0.210296
vn -0.996900 0.077222 -0.015094
vn -0.968706 0.207654 -0.135976
vn -0.930950 0.364097 -0.027670
vn -0.750185 0.655567 -0.086343
vn 0.070669 0.950698 -0.301959
vn 0.260212 0.953776 0.150337
vn -0.074424 0.198472 -0.977277
vn 0.497487 -0.317143 -0.807420
vn 0.132061 0.953796 -0.269875
vn 0.008157 0.961932 -0.273167
vn -0.013795 0.921714 -0.387626
vn -0.022179 0.919574 -0.392290
vn -0.213516 0.904667 -0.368767
vn -0.050442 0.948517 -0.312682
vn 0.166897 0.924919 0.341571
vn -0.070986 0.885195 0.459773
vn -0.050674 0.897902 0.437269
vn 0.033992 0.873595 0.485465
vn 0.065001 0.862762 0.501414
vn 0.028797 0.938767 0.343348
vn 0.017677 0.996909 0.076550
vt 1.000000 1.000000
vt 1.000000 1.000000
vt 1.000000 1.000000
vt 1.000000 1.000000
vt 1.000000 1.000000
vt 1.000000 1.000000
vt 1.000000 1.000000
vt 1.000000 1.000000
vt 1.000000 1.000000
vt 1.000000 1.000000
vt 1.000000 1.000000
vt 1.000000 1.000000
vt 1.000000 1.000000
vt 1.000000 1.000000
vt 1.000000 1.000000
vt 1.000000 1.000000
vt 1.000000 1.000000
vt 1.000000 1.000000
vt 1.000000 1.000000
vt 1.000000 1.000000
vt 1.000000 1.000000
vt 1.000000 1.000000
vt 1.000000 1.000000
vt 1.000000 1.000000
vt 1.000000 1.000000
vt 1.000000 1.000000
vt 1.000000 1.000000
vt 1.000000 1.000000
vt 1.000000 1.000000
vt 1.000000 1.000000
vt 1.000000 1.000000
vt 1.000000 1.000000
vt 1.000000 1.000000
vt 1.000000 1.000000
vt 1.000000 1.000000
vt 1.000000 1.000000
vt 1.000000 1.000000
vt 1.000000 1.000000
vt 1.000000 1.000000
vt 1.000000 1.000000
vt 1.000000 1.000000
vt 1.000000 1.000000
vt 1.000000 1.000000
vt 1.000000 1.000000
vt 1.000000 1.000000
vt 1.000000 1.000000
vt 1.000000 1.000000
vt 1.000000 1.000000
vt 1.000000 1.000000
vt 1.000000 1.000000
vt 1.000000 1.000000
vt 1.000000 1.000000
vt 1.000000 1.000000
vt 1.000000 1.000000
vt 1.000000 1.000000
vt 1.000000 1.000000
vt 1.000000 1.000000
vt 1.000000 1.000000
vt 1.000000 1.000000
vt 1.000000 1.000000
vt 1.000000 1.000000
vt 1.000000 1.000000
vt 1.000000 1.000000
vt 1.000000 1.000000
vt 1.000000 1.000000
vt 1.000000 1.000000
vt 1.000000 1.000000
vt 1.000000 1.000000
vt 1.000000 1.000000
vt 1.000000 1.000000
vt 1.000000 1.000000
vt 1.000000 1.000000
vt 1.000000 1.000000
vt 1.000000 1.000000
vt 1.000000 1.000000
vt 1.000000 1.000000
vt 1.000000 1.000000
vt 1.000000 1.000000
vt 1.000000 1.000000
vt 1.000000 1.000000
vt 1.000000 1.000000
vt 1.000000 1.000000
vt 1.000000 1.000000
vt 1.000000 1.000000
vt 1.000000 1.000000
vt 1.000000 1.000000
vt 1.000000 1.000000
vt 1.000000 1.000000
vt 1.000000 1.000000
vt 1.000000 1.000000
vt 1.000000 1.000000
vt 1.000000 1.000000
vt 1.000000 1.000000
vt 1.000000 1.000000
vt 1.000000 1.000000
vt 1.000000 1.000000
vt 1.000000 1.000000
vt 1.000000 1.000000
vt 1.000000 1.000000
vt 1.000000 1.000000
vt 1.000000 1.000000
vt 1.000000 1.000000
vt 1.000000 1.000000
vt 1.000000 1.000000
vt 1.000000 1.000000
vt 1.000000 1.000000
vt 1.000000 1.000000
vt 1.000000 1.000000
vt 1.000000 1.000000
vt 1.000000 1.000000
vt 1.000000 1.000000
vt 1.000000 1.000000
vt 1.000000 1.000000
vt 1.000000 1.000000
vt 1.000000 1.000000
vt 1.000000 1.000000
vt 1.000000 1.000000
vt 1.000000 1.000000
vt 1.000000 1.000000
vt 1.000000 1.000000
vt 1.000000 1.000000
vt 1.000000 1.000000
vt 1.000000 1.000000
vt 1.000000 1.000000
vt 1.000000 1.000000
vt 1.000000 1.000000
vt 1.000000 1.000000
vt 1.000000 1.000000
vt 1.000000 1.000000
vt 1.000000 1.000000
vt 1.000000 1.000000
vt 1.000000 1.000000
vt 1.000000 1.000000
vt 1.000000 1.000000
vt 1.000000 1.000000
vt 1.000000 1.000000
vt 1.000000 1.000000
vt 1.000000 1.000000
vt 1.000000 1.000000
f 1/1/1 2/2/2 3/3/3
f 3/3/3 4/4/4 1/1/1
f 3/3/3 5/5/5 4/4/4
f 3/3/3 2/2/2 6/6/6
f 6/6/6 7/7/7 3/3/3
f 7/7/7 6/6/6 8/8/8
f 8/8/8 9/9/9 7/7/7
f 9/9/9 8/8/8 10/10/10
f 10/10/10 8/8/8 11/11/11
f 11/11/11 12/12/12 10/10/10
f 10/10/10 12/12/12 13/13/13
f 13/13/13 9/9/9 10/10/10
f 9/9/9 13/13/13 14/14/14
f 14/14/14 7/7/7 9/9/9
f 7/7/7 14/14/14 5/5/5
f 5/5/5 3/3/3 7/7/7
f 5/5/5 14/14/14 15/15/15
f 13/13/13 15/15/15 14/14/14
f 16/16/16 15/15/15 13/13/13
f 17/17/17 16/16/16 13/13/13
f 18/18/18 17/17/17 13/13/13
f 12/12/12 18/18/18 13/13/13
f 19/19/19 11/11/11 8/8/8
f 8/8/8 20/20/20 19/19/19
f 21/21/21 20/20/20 22/22/22
f 22/22/22 23/23/23 21/21/21
f 24/24/24 19/19/19 20/20/20
f 20/20/20 21/21/21 24/24/24
f 25/25/25 24/24/24 21/21/21
f 21/21/21 23/23/23 26/26/26
f 21/21/21 26/26/26 25/25/25
f 27/27/27 28/28/28 29/29/29
f 29/29/29 30/30/30 27/27/27
f 31/31/31 27/27/27 30/30/30
f 30/30/30 32/32/32 31/31/31
f 32/32/32 30/30/30 33/33/33
f 33/33/33 34/34/34 32/32/32
f 35/35/35 33/33/33 30/30/30
f 30/30/30 29/29/29 35/35/35
f 36/36/36 33/33/33 35/35/35
f 35/35/35 37/37/37 36/36/36
f 34/34/34 33/33/33 36/36/36
f 36/36/36 38/38/38 34/34/34
f 38/38/38 36/36/36 39/39/39
f 39/39/39 40/40/40 38/38/38
f 36/36/36 37/37/37 41/41/41
f 41/41/41 39/39/39 36/36/36
f 41/41/41 37/37/37 42/42/42
f 42/42/42 43/43/43 41/41/41
f 44/44/44 42/42/42 37/37/37
f 37/37/37 35/35/35 44/44/44
f 45/45/45 44/44/44 35/35/35
f 35/35/35 29/29/29 45/45/45
f 2/2/2 1/1/1 46/46/46
f 46/46/46 47/47/47 2/2/2
f 2/2/2 48/48/48 6/6/6
f 48/48/48 2/2/2 47/47/47
f 47/47/47 49/49/49 48/48/48
f 49/49/49 47/47/47 42/42/42
f 42/42/42 44/44/44 49/49/49
f 50/50/50 49/49/49 44/44/44
f 44/44/44 45/45/45 50/50/50
f 51/51/51 48/48/48 49/49/49
f 49/49/49 50/50/50 51/51/51
f 6/6/6 48/48/48 51/51/51
f 51/51/51 22/22/22 6/6/6
f 22/22/22 51/51/51 52/52/52
f 52/52/52 23/23/23 22/22/22
f 52/52/52 26/26/26 23/23/23
f 52/52/52 53/53/53 28/28/28
f 28/28/28 26/26/26 52/52/52
f 29/29/29 28/28/28 53/53/53
f 8/8/8 6/6/6 22/22/22
f 22/22/22 20/20/20 8/8/8
f 38/38/38 54/54/54 55/55/55
f 55/55/55 34/34/34 38/38/38
f 34/34/34 55/55/55 56/56/56
f 56/56/56 32/32/32 34/34/34
f 32/32/32 56/56/56 57/57/57
f 57/57/57 31/31/31 32/32/32
f 31/31/31 57/57/57 58/58/58
f 58/58/58 59/59/59 31/31/31
f 58/58/58 60/60/60 59/59/59
f 61/61/61 57/57/57 56/56/56
f 56/56/56 62/62/62 61/61/61
f 62/62/62 56/56/56 55/55/55
f 55/55/55 63/63/63 62/62/62
f 55/55/55 54/54/54 63/63/63
f 64/64/64 60/60/60 58/58/58
f 58/58/58 65/65/65 64/64/64
f 58/58/58 61/61/61 65/65/65
f 61/61/61 66/66/66 65/65/65
f 64/64/64 65/65/65 66/66/66
f 66/66/66 67/67/67 64/64/64
f 60/60/60 64/64/64 68/68/68
f 68/68/68 69/69/69 60/60/60
f 70/70/70 68/68/68 67/67/67
f 67/67/67 71/71/71 70/70/70
f 71/71/71 67/67/67 66/66/66
f 66/66/66 72/72/72 71/71/71
f 61/61/61 62/62/62 73/73/73
f 62/62/62 63/63/63 74/74/74
f 73/73/73 62/62/62 74/74/74
f 74/74/74 75/75/75 73/73/73
f 72/72/72 73/73/73 75/75/75
f 75/75/75 76/76/76 72/72/72
f 71/71/71 72/72/72 76/76/76
f 76/76/76 77/77/77 71/71/71
f 71/71/71 77/77/77 70/70/70
f 67/67/67 68/68/68 64/64/64
f 54/54/54 38/38/38 40/40/40
f 18/18/18 12/12/12 78/78/78
f 78/78/78 79/79/79 18/18/18
f 78/78/78 12/12/12 11/11/11
f 11/11/11 80/80/80 78/78/78
f 79/79/79 81/81/81 17/17/17
f 17/17/17 18/18/18 79/79/79
f 82/82/82 83/83/83 84/84/84
f 84/84/84 81/81/81 82/82/82
f 81/81/81 84/84/84 16/16/16
f 16/16/16 17/17/17 81/81/81
f 84/84/84 85/85/85 15/15/15
f 15/15/15 16/16/16 84/84/84
f 83/83/83 86/86/86 85/85/85
f 85/85/85 84/84/84 83/83/83
f 85/85/85 87/87/87 5/5/5
f 5/5/5 15/15/15 85/85/85
f 87/87/87 85/85/85 86/86/86
f 87/87/87 86/86/86 88/88/88
f 88/88/88 89/89/89 87/87/87
f 89/89/89 4/4/4 87/87/87
f 4/4/4 5/5/5 87/87/87
f 89/89/89 90/90/90 1/1/1
f 1/1/1 4/4/4 89/89/89
f 88/88/88 91/91/91 90/90/90
f 90/90/90 89/89/89 88/88/88
f 91/91/91 92/92/92 93/93/93
f 93/93/93 90/90/90 91/91/91
f 46/46/46 94/94/94 95/95/95
f 95/95/95 96/96/96 46/46/46
f 97/97/97 95/95/95 94/94/94
f 94/94/94 93/93/93 97/97/97
f 98/98/98 97/97/97 93/93/93
f 93/93/93 92/92/92 98/98/98
f 99/99/99 100/100/100 98/98/98
f 98/98/98 100/100/100 101/101/101
f 101/101/101 97/97/97 98/98/98
f 97/97/97 101/101/101 102/102/102
f 102/102/102 95/95/95 97/97/97
f 43/43/43 42/42/42 47/47/47
f 47/47/47 46/46/46 43/43/43
f 94/94/94 46/46/46 1/1/1
f 1/1/1 90/90/90 94/94/94
f 41/41/41 43/43/43 103/103/103
f 103/103/103 104/104/104 41/41/41
f 104/104/104 103/103/103 102/102/102
f 102/102/102 105/105/105 104/104/104
f 105/105/105 102/102/102 101/101/101
f 101/101/101 106/106/106 105/105/105
f 106/106/106 101/101/101 100/100/100
f 100/100/100 107/107/107 106/106/106
f 107/107/107 100/100/100 99/99/99
f 99/99/99 108/108/108 107/107/107
f 39/39/39 41/41/41 104/104/104
f 104/104/104 109/109/109 39/39/39
f 109/109/109 104/104/104 105/105/105
f 105/105/105 110/110/110 109/109/109
f 110/110/110 105/105/105 106/106/106
f 106/106/106 111/111/111 110/110/110
f 111/111/111 106/106/106 107/107/107
f 107/107/107 112/112/112 111/111/111
f 112/112/112 107/107/107 108/108/108
f 108/108/108 113/113/113 112/112/112
f 40/40/40 39/39/39 109/109/109
f 109/109/109 114/114/114 40/40/40
f 114/114/114 109/109/109 110/110/110
f 110/110/110 115/115/115 114/114/114
f 115/115/115 110/110/110 111/111/111
f 111/111/111 116/116/116 115/115/115
f 116/116/116 111/111/111 112/112/112
f 112/112/112 117/117/117 116/116/116
f 117/117/117 112/112/112 113/113/113
f 113/113/113 118/118/118 117/117/117
f 54/54/54 40/40/40 114/114/114
f 114/114/114 119/119/119 54/54/54
f 119/119/119 114/114/114 115/115/115
f 115/115/115 120/120/120 119/119/119
f 120/120/120 115/115/115 116/116/116
f 116/116/116 121/121/121 120/120/120
f 121/121/121 116/116/116 117/117/117
f 117/117/117 122/122/122 121/121/121
f 70/70/70 122/122/122 117/117/117
f 117/117/117 118/118/118 70/70/70
f 70/70/70 77/77/77 122/122/122
f 122/122/122 77/77/77 76/76/76
f 76/76/76 121/121/121 122/122/122
f 121/121/121 76/76/76 75/75/75
f 75/75/75 120/120/120 121/121/121
f 120/120/120 75/75/75 74/74/74
f 74/74/74 119/119/119 120/120/120
f 119/119/119 74/74/74 63/63/63
f 63/63/63 54/54/54 119/119/119
f 82/82/82 81/81/81 79/79/79
f 11/11/11 19/19/19 80/80/80
f 50/50/50 45/45/45 53/53/53
f 53/53/53 52/52/52 50/50/50
f 50/50/50 52/52/52 51/51/51
f 27/27/27 26/26/26 28/28/28
f 27/27/27 31/31/31 59/59/59
f 59/59/59 26/26/26 27/27/27
f 43/43/43 96/96/96 103/103/103
f 102/102/102 103/103/103 96/96/96
f 96/96/96 95/95/95 102/102/102
f 72/72/72 66/66/66 61/61/61
f 61/61/61 73/73/73 72/72/72
f 58/58/58 57/57/57 61/61/61
f 29/29/29 53/53/53 45/45/45
f 82/82/82 79/79/79 123/123/123
f 123/123/123 124/124/124 82/82/82
f 24/24/24 125/125/125 69/69/69
f 69/69/69 68/68/68 24/24/24
f 60/60/60 69/69/69 125/125/125
f 125/125/125 126/126/126 60/60/60
f 126/126/126 125/125/125 24/24/24
f 24/24/24 25/25/25 126/126/126
f 59/59/59 126/126/126 25/25/25
f 25/25/25 26/26/26 59/59/59
f 60/60/60 126/126/126 59/59/59
f 127/127/127 68/68/68 70/70/70
f 70/70/70 128/128/128 127/127/127
f 113/113/113 128/128/128 118/118/118
f 128/128/128 129/129/129 130/130/130
f 130/130/130 127/127/127 128/128/128
f 129/129/129 24/24/24 130/130/130
f 129/129/129 131/131/131 19/19/19
f 19/19/19 24/24/24 129/129/129
f 131/131/131 132/132/132 80/80/80
f 80/80/80 19/19/19 131/131/131
f 132/132/132 123/123/123 78/78/78
f 78/78/78 80/80/80 132/132/132
f 123/123/123 79/79/79 78/78/78
f 124/124/124 83/83/83 82/82/82
f 124/124/124 133/133/133 86/86/86
f 86/86/86 83/83/83 124/124/124
f 133/133/133 134/134/134 88/88/88
f 88/88/88 86/86/86 133/133/133
f 134/134/134 135/135/135 91/91/91
f 91/91/91 88/88/88 134/134/134
f 135/135/135 136/136/136 92/92/92
f 92/92/92 91/91/91 135/135/135
f 136/136/136 137/137/137 98/98/98
f 98/98/98 92/92/92 136/136/136
f 137/137/137 138/138/138 99/99/99
f 99/99/99 98/98/98 137/137/137
f 138/138/138 128/128/128 108/108/108
f 108/108/108 99/99/99 138/138/138
f 128/128/128 113/113/113 108/108/108
f 139/139/139 129/129/129 128/128/128
f 70/70/70 118/118/118 128/128/128
f 139/139/139 131/131/131 129/129/129
f 139/139/139 132/132/132 131/131/131
f 139/139/139 123/123/123 132/132/132
f 139/139/139 124/124/124 123/123/123
f 139/139/139 133/133/133 124/124/124
f 139/139/139 134/134/134 133/133/133
f 139/139/139 135/135/135 134/134/134
f 139/139/139 136/136/136 135/135/135
f 139/139/139 137/137/137 136/136/136
f 139/139/139 138/138/138 137/137/137
f 139/139/139 128/128/128 138/138/138
f 43/43/43 46/46/46 96/96/96
f 94/94/94 90/90/90 93/93/93
f 24/24/24 68/68/68 127/127/127
f 127/127/127 130/130/130 24/24/24
