g 1_Visual
usemtl mat1
v -1.722061 1.956426 2.455355
v -1.984976 2.329288 1.880557
v -1.026421 2.677637 1.928534
v -1.391610 2.074076 2.476034
v 0.119966 2.595738 2.150020
v -1.660733 2.645708 1.422565
v -0.730781 3.242344 1.328311
v -0.696479 3.704207 0.089850
v -0.372791 3.826807 0.392384
v -0.240711 4.125270 -0.440103
v -0.371771 4.407198 -0.582234
v 0.274226 3.925510 -0.575373
v 0.270921 3.583057 0.856557
v 0.200506 3.386700 1.255830
v 1.245214 2.602660 1.415471
v 1.792187 1.646112 1.267160
v 1.480625 2.708836 0.509634
v 1.045126 3.364818 -0.240233
v -0.528708 4.476081 -0.599699
v -0.814441 3.627672 0.018439
v -1.561402 3.452566 -0.545034
v -1.251296 3.117789 0.571623
v -1.770636 3.062851 0.199128
v -1.469308 4.557063 -0.753306
v -1.614410 3.338152 -0.927102
v -2.182683 2.909384 -0.023069
v -2.986361 2.329884 -0.033626
v -2.857035 2.486199 0.221492
v -3.383357 1.720815 0.746285
v -3.496501 1.465697 0.537048
v -3.116013 2.224552 -0.290316
v -3.635944 1.286996 0.303689
v -3.617925 1.251313 0.679940
v -3.760574 1.060807 0.468149
v -3.468152 1.464344 0.915286
v -3.972388 0.195176 1.187397
v -3.731572 0.547103 1.344573
v -4.341814 -0.289939 0.972298
v -4.270633 -0.727094 1.397729
v -4.579359 -1.272514 1.107368
v -3.703483 0.028169 1.808938
v -2.933392 1.531320 1.701335
v -2.968213 0.916199 2.149247
v -2.983995 2.002030 1.356954
v -3.034590 2.190691 1.099375
v -2.071214 1.746560 2.385936
v -2.239087 2.204731 1.871291
v -2.177115 2.625141 1.501665
v -2.306814 2.582270 1.515328
v -2.321572 2.863067 1.111416
v -2.163475 2.919990 1.060278
v -2.181341 2.985077 0.589925
v -2.953186 2.406425 0.680869
v -4.831532 -0.482889 0.440388
v -4.212057 0.534425 -0.060939
v -3.987019 0.840884 -0.303892
v -3.515299 1.737206 -0.979151
v -3.142283 1.977011 -1.633168
v -2.392631 2.806068 -0.934519
v -2.125229 3.156927 -1.177925
v -3.785217 1.304719 -1.652486
v -4.483996 0.238707 -0.985992
v -4.724718 -0.025368 -0.553755
v -2.238638 3.235500 -1.583284
v -3.124190 2.064878 -1.833258
v -3.676574 2.160987 -1.791128
v -3.176207 3.377174 -1.697721
v -2.123900 4.800380 -0.648841
v -2.091822 4.743242 -0.809148
v -3.015830 4.772560 -0.504024
v -3.874510 3.542471 -1.258243
v -4.305748 2.291095 -1.331963
v -4.407595 1.502681 -1.294371
v -4.835411 0.263220 -0.637291
v -4.774317 1.321214 -0.557687
v -4.674083 2.451157 -0.596986
v -4.325902 3.766278 -0.645469
v 0.213013 4.299147 -0.468771
v 1.169289 3.466983 0.023591
v -0.219428 4.615795 -0.661727
v 1.323283 3.098744 0.448718
v 1.207440 3.316536 0.404151
v 1.067301 3.568700 0.887599
v 1.352235 2.855562 0.978013
v 1.169599 3.285087 1.365204
v 0.434996 4.043632 1.809769
v 0.067976 3.086688 2.296690
v -0.222089 4.465349 1.817769
v -0.674650 3.417356 2.444287
v -1.247548 3.471040 2.387810
v -0.798462 4.500790 1.805778
v -0.983598 4.495264 1.807925
v -1.420947 3.467764 2.357675
v -1.594626 2.987963 2.445588
v -2.296591 2.401725 2.486071
v -2.514171 1.381787 2.321746
v -1.960856 3.455848 2.258147
v -1.606877 4.561751 1.738178
v -2.317310 4.935720 1.249190
v -2.323564 4.590020 1.751009
v -2.770145 3.341833 2.046576
v -2.967714 2.226245 2.229315
v -2.992345 1.095117 2.248337
v -3.688908 0.397034 1.963838
v -3.559740 1.938901 1.968434
v -3.351386 3.181390 1.875959
v -2.858823 4.524863 1.621710
v -2.592120 5.019850 0.911118
v -4.359357 -0.610283 1.426684
v -4.250676 1.449877 1.621284
v -4.065732 2.910046 1.568173
v -3.691223 4.294050 1.168909
v -2.964590 4.975810 0.298676
v -4.682302 -1.300045 1.173738
v -4.568446 1.309267 1.302147
v -4.425705 2.737372 1.164213
v -3.946185 4.165875 0.831840
v -3.060820 4.918020 0.097543
v -4.949580 -0.216892 0.453269
v -4.754172 1.357559 0.445138
v -4.695323 2.630785 0.272689
v -4.339630 3.930189 -0.048183
v 0.395886 4.452358 0.363196
v 0.541168 4.298977 0.565289
v -1.707462 4.552688 -0.970158
v -1.882800 3.267543 -1.261966
v -1.831150 4.699090 -0.322722
v -1.813560 5.157170 0.662230
v -0.784062 4.974500 0.263673
v -1.537764 4.627745 -0.420769
v -0.443867 5.027890 0.133754
v -0.069145 4.808568 0.135874
v 0.206842 4.648628 1.182407
v -0.114961 4.841323 1.197600
v -0.674762 4.895640 1.178760
v -0.817242 4.906540 1.185990
v -1.205680 4.941950 1.131210
v -1.620430 5.122820 0.907985
v -0.499531 5.045810 0.672108
v -1.425746 3.146403 1.894929
v -1.694904 4.297677 0.619819
v -2.261019 4.462059 0.958384
v -1.409364 3.622743 1.527465
v -1.298762 3.964967 0.378674
v -1.714368 3.578798 0.486210
v -1.660583 3.902853 0.878436
v -2.329284 3.497880 0.346023
v -1.679395 4.329597 0.221650
v -1.681457 3.728732 0.159397
v -0.894678 4.525610 0.840614
v -2.537533 2.743721 1.778322
v -2.612897 3.117690 1.098769
v -3.060589 2.675879 1.414826
v -2.011536 2.957605 1.672731
v -2.115664 3.386429 0.968022
v -0.980446 4.350237 1.130581
v -3.220642 4.062054 0.197002
v -3.652618 3.236926 -0.035671
v -2.556762 3.825757 -0.526372
v -2.726997 4.266605 0.358383
v -3.084589 3.046407 0.525963
v -3.032761 3.165613 -0.600465
v -3.301854 3.418004 0.890620
v -3.674507 2.622911 -0.624863
v -3.242190 2.859433 -0.891906
v -4.143106 1.370605 0.183734
v -3.765067 2.309566 0.413673
v -2.669276 1.796151 2.183665
v -0.385149 4.436679 0.056187
v -1.025986 4.268117 0.119056
v -2.386942 4.300177 0.478896
v -1.725194 4.316422 -0.314022
v 0.289022 3.971318 0.143629
v -0.131577 4.312483 0.742296
v 1.139363 3.132352 0.485689
v -3.886799 1.922032 1.143758
v -2.736963 3.684089 1.153048
v -3.629768 1.631581 1.420866
v -2.277694 3.880317 1.175767
v -3.804018 1.432304 0.666726
v -4.231353 0.486961 1.239833
v -3.290339 2.686990 1.740655
vn 0.221851 -0.581071 0.783032
vn 0.303082 -0.760002 -0.574925
vn 0.225219 -0.760929 -0.608492
vn 0.294075 -0.587936 0.753560
vn 0.241254 -0.937611 -0.250366
vn 0.336529 -0.850319 -0.404607
vn 0.277261 -0.817209 -0.505269
vn 0.476234 -0.811320 -0.339060
vn 0.185369 -0.898533 -0.397841
vn -0.175122 -0.907809 -0.381070
vn -0.135620 -0.381565 -0.914339
vn -0.384094 -0.797464 -0.465321
vn -0.547327 -0.785090 -0.289943
vn -0.164875 -0.788174 -0.592957
vn -0.193157 -0.954256 0.228223
vn -0.427161 -0.870772 -0.243493
vn -0.469250 -0.692067 -0.548496
vn -0.361427 -0.770441 -0.525159
vn 0.026525 0.258343 -0.965689
vn 0.444008 -0.570105 -0.691258
vn 0.656847 -0.611699 -0.440882
vn 0.305208 -0.901590 -0.306567
vn 0.332739 -0.921994 -0.198020
vn 0.570914 0.231130 -0.787805
vn 0.794460 -0.574064 -0.198200
vn 0.560579 -0.828073 -0.006786
vn 0.705962 -0.708151 -0.011846
vn 0.682126 -0.728838 0.059158
vn 0.858877 -0.511437 -0.027616
vn 0.854717 -0.515420 -0.061654
vn 0.753209 -0.657733 0.007932
vn 0.841927 -0.529591 -0.103400
vn 0.880019 -0.438683 -0.181998
vn 0.841383 -0.489713 -0.228595
vn 0.851794 -0.415727 -0.318776
vn 0.836882 -0.405099 -0.368137
vn 0.780076 -0.400512 -0.480700
vn 0.799202 -0.443806 -0.405356
vn 0.841944 -0.513829 -0.164651
vn 0.781728 -0.405169 -0.474068
vn 0.805633 -0.523527 -0.277263
vn 0.684290 -0.433555 -0.586325
vn 0.698624 -0.540799 -0.468467
vn 0.710570 -0.462601 -0.530179
vn 0.756678 -0.571100 -0.318250
vn 0.618595 -0.696015 0.364558
vn 0.568566 -0.515211 -0.641319
vn 0.055728 -0.786687 -0.614832
vn 0.554152 -0.560417 -0.615506
vn 0.606577 -0.733622 -0.306371
vn 0.019971 -0.908941 -0.416447
vn 0.416245 -0.909176 -0.011830
vn 0.709448 -0.702038 -0.061854
vn 0.584366 -0.648915 -0.487263
vn 0.788001 -0.580085 -0.206293
vn 0.831693 -0.550861 -0.069565
vn 0.814697 -0.579601 -0.018190
vn 0.734734 -0.678351 -0.002188
vn 0.638803 -0.769094 -0.020604
vn 0.586858 -0.242271 -0.772594
vn 0.382452 -0.606361 -0.697178
vn 0.328219 -0.720371 -0.611014
vn 0.364297 -0.875176 -0.318362
vn 0.438597 0.134052 -0.888630
vn 0.231958 -0.151362 -0.960877
vn -0.283464 0.125155 -0.950781
vn -0.105326 0.472723 -0.874894
vn 0.168822 0.672636 -0.720459
vn -0.379545 0.426750 -0.820871
vn -0.336843 0.837000 -0.431239
vn -0.568642 0.423282 -0.705321
vn -0.744576 0.142212 -0.652213
vn -0.736186 -0.027478 -0.676221
vn -0.971228 0.014622 -0.237702
vn -0.979023 0.071297 -0.190868
vn -0.929582 0.200108 -0.309570
vn -0.719377 0.531770 -0.446898
vn 0.663302 0.577851 -0.475520
vn 0.803632 0.551173 -0.224464
vn 0.335241 0.753293 -0.565829
vn 0.911824 0.392997 0.118868
vn 0.848000 0.528852 0.034800
vn 0.819869 0.560383 0.117411
vn 0.911870 0.357886 0.201026
vn 0.735884 0.193530 0.648861
vn 0.677043 0.502014 0.538140
vn 0.400032 0.088627 0.912206
vn 0.218021 0.542216 0.811461
vn 0.104275 0.191221 0.975992
vn -0.032404 0.324704 0.945260
vn 0.007845 0.679327 0.733794
vn -0.009752 0.650263 0.759647
vn -0.112237 0.446628 0.887652
vn -0.041646 0.084552 0.995548
vn -0.193718 0.073714 0.978284
vn -0.162057 -0.115551 0.979993
vn -0.266080 0.345870 0.899764
vn -0.067687 0.591577 0.803403
vn -0.054958 0.852024 0.520611
vn -0.161093 0.426040 0.890246
vn -0.272274 0.278696 0.920975
vn -0.366676 0.111070 0.923695
vn -0.204630 -0.109793 0.972662
vn -0.456606 -0.037982 0.888858
vn -0.485049 0.064719 0.872089
vn -0.405479 0.212623 0.889032
vn -0.440789 0.516473 0.734140
vn -0.341533 0.896807 0.281233
vn -0.497984 -0.058531 0.865209
vn -0.546020 0.028763 0.837278
vn -0.601443 0.251525 0.758288
vn -0.619785 0.606647 0.497841
vn -0.436613 0.892192 0.115601
vn -0.845501 -0.052971 0.531340
vn -0.897455 0.075325 0.434627
vn -0.902764 0.234762 0.360421
vn -0.788315 0.593718 0.161426
vn -0.426104 0.883096 -0.196407
vn -0.990333 0.015986 0.137788
vn -0.989290 0.095470 0.110416
vn -0.969614 0.204548 0.134195
vn -0.832574 0.553835 0.009298
vn 0.715250 0.691645 -0.100226
vn 0.752036 0.656696 0.056503
vn -0.005610 0.292619 -0.956213
vn 0.550835 -0.140127 -0.822767
vn 0.131692 0.953685 -0.270447
vn 0.008186 0.961923 -0.273197
vn -0.008639 0.919267 -0.393539
vn -0.020704 0.918664 -0.394496
vn 0.011837 0.932967 -0.359768
vn 0.600626 0.781704 -0.167889
vn 0.644128 0.741380 0.188296
vn 0.191520 0.880619 0.433394
vn 0.062937 0.884672 0.461947
vn 0.034003 0.871912 0.488481
vn 0.065129 0.861391 0.503749
vn 0.028797 0.938767 0.343348
vn 0.323440 0.944407 0.059007
vt 1.000000 1.000000
vt 1.000000 1.000000
vt 1.000000 1.000000
vt 1.000000 1.000000
vt 1.000000 1.000000
vt 1.000000 1.000000
vt 1.000000 1.000000
vt 1.000000 1.000000
vt 1.000000 1.000000
vt 1.000000 1.000000
vt 1.000000 1.000000
vt 1.000000 1.000000
vt 1.000000 1.000000
vt 1.000000 1.000000
vt 1.000000 1.000000
vt 1.000000 1.000000
vt 1.000000 1.000000
vt 1.000000 1.000000
vt 1.000000 1.000000
vt 1.000000 1.000000
vt 1.000000 1.000000
vt 1.000000 1.000000
vt 1.000000 1.000000
vt 1.000000 1.000000
vt 1.000000 1.000000
vt 1.000000 1.000000
vt 1.000000 1.000000
vt 1.000000 1.000000
vt 1.000000 1.000000
vt 1.000000 1.000000
vt 1.000000 1.000000
vt 1.000000 1.000000
vt 1.000000 1.000000
vt 1.000000 1.000000
vt 1.000000 1.000000
vt 1.000000 1.000000
vt 1.000000 1.000000
vt 1.000000 1.000000
vt 1.000000 1.000000
vt 1.000000 1.000000
vt 1.000000 1.000000
vt 1.000000 1.000000
vt 1.000000 1.000000
vt 1.000000 1.000000
vt 1.000000 1.000000
vt 1.000000 1.000000
vt 1.000000 1.000000
vt 1.000000 1.000000
vt 1.000000 1.000000
vt 1.000000 1.000000
vt 1.000000 1.000000
vt 1.000000 1.000000
vt 1.000000 1.000000
vt 1.000000 1.000000
vt 1.000000 1.000000
vt 1.000000 1.000000
vt 1.000000 1.000000
vt 1.000000 1.000000
vt 1.000000 1.000000
vt 1.000000 1.000000
vt 1.000000 1.000000
vt 1.000000 1.000000
vt 1.000000 1.000000
vt 1.000000 1.000000
vt 1.000000 1.000000
vt 1.000000 1.000000
vt 1.000000 1.000000
vt 1.000000 1.000000
vt 1.000000 1.000000
vt 1.000000 1.000000
vt 1.000000 1.000000
vt 1.000000 1.000000
vt 1.000000 1.000000
vt 1.000000 1.000000
vt 1.000000 1.000000
vt 1.000000 1.000000
vt 1.000000 1.000000
vt 1.000000 1.000000
vt 1.000000 1.000000
vt 1.000000 1.000000
vt 1.000000 1.000000
vt 1.000000 1.000000
vt 1.000000 1.000000
vt 1.000000 1.000000
vt 1.000000 1.000000
vt 1.000000 1.000000
vt 1.000000 1.000000
vt 1.000000 1.000000
vt 1.000000 1.000000
vt 1.000000 1.000000
vt 1.000000 1.000000
vt 1.000000 1.000000
vt 1.000000 1.000000
vt 1.000000 1.000000
vt 1.000000 1.000000
vt 1.000000 1.000000
vt 1.000000 1.000000
vt 1.000000 1.000000
vt 1.000000 1.000000
vt 1.000000 1.000000
vt 1.000000 1.000000
vt 1.000000 1.000000
vt 1.000000 1.000000
vt 1.000000 1.000000
vt 1.000000 1.000000
vt 1.000000 1.000000
vt 1.000000 1.000000
vt 1.000000 1.000000
vt 1.000000 1.000000
vt 1.000000 1.000000
vt 1.000000 1.000000
vt 1.000000 1.000000
vt 1.000000 1.000000
vt 1.000000 1.000000
vt 1.000000 1.000000
vt 1.000000 1.000000
vt 1.000000 1.000000
vt 1.000000 1.000000
vt 1.000000 1.000000
vt 1.000000 1.000000
vt 1.000000 1.000000
vt 1.000000 1.000000
vt 1.000000 1.000000
vt 1.000000 1.000000
vt 1.000000 1.000000
vt 1.000000 1.000000
vt 1.000000 1.000000
vt 1.000000 1.000000
vt 1.000000 1.000000
vt 1.000000 1.000000
vt 1.000000 1.000000
vt 1.000000 1.000000
vt 1.000000 1.000000
vt 1.000000 1.000000
vt 1.000000 1.000000
vt 1.000000 1.000000
vt 1.000000 1.000000
vt 1.000000 1.000000
vt 1.000000 1.000000
f 1/1/1 2/2/2 3/3/3
f 3/3/3 4/4/4 1/1/1
f 3/3/3 5/5/5 4/4/4
f 3/3/3 2/2/2 6/6/6
f 6/6/6 7/7/7 3/3/3
f 7/7/7 6/6/6 8/8/8
f 8/8/8 9/9/9 7/7/7
f 9/9/9 8/8/8 10/10/10
f 10/10/10 8/8/8 11/11/11
f 11/11/11 12/12/12 10/10/10
f 10/10/10 12/12/12 13/13/13
f 13/13/13 9/9/9 10/10/10
f 9/9/9 13/13/13 14/14/14
f 14/14/14 7/7/7 9/9/9
f 7/7/7 14/14/14 5/5/5
f 5/5/5 3/3/3 7/7/7
f 5/5/5 14/14/14 15/15/15
f 13/13/13 15/15/15 14/14/14
f 16/16/16 15/15/15 13/13/13
f 17/17/17 16/16/16 13/13/13
f 18/18/18 17/17/17 13/13/13
f 12/12/12 18/18/18 13/13/13
f 19/19/19 11/11/11 8/8/8
f 8/8/8 20/20/20 19/19/19
f 21/21/21 20/20/20 22/22/22
f 22/22/22 23/23/23 21/21/21
f 24/24/24 19/19/19 20/20/20
f 20/20/20 21/21/21 24/24/24
f 25/25/25 24/24/24 21/21/21
f 21/21/21 23/23/23 26/26/26
f 21/21/21 26/26/26 25/25/25
f 27/27/27 28/28/28 29/29/29
f 29/29/29 30/30/30 27/27/27
f 31/31/31 27/27/27 30/30/30
f 30/30/30 32/32/32 31/31/31
f 32/32/32 30/30/30 33/33/33
f 33/33/33 34/34/34 32/32/32
f 35/35/35 33/33/33 30/30/30
f 30/30/30 29/29/29 35/35/35
f 36/36/36 33/33/33 35/35/35
f 35/35/35 37/37/37 36/36/36
f 34/34/34 33/33/33 36/36/36
f 36/36/36 38/38/38 34/34/34
f 38/38/38 36/36/36 39/39/39
f 39/39/39 40/40/40 38/38/38
f 36/36/36 37/37/37 41/41/41
f 41/41/41 39/39/39 36/36/36
f 41/41/41 37/37/37 42/42/42
f 42/42/42 43/43/43 41/41/41
f 44/44/44 42/42/42 37/37/37
f 37/37/37 35/35/35 44/44/44
f 45/45/45 44/44/44 35/35/35
f 35/35/35 29/29/29 45/45/45
f 2/2/2 1/1/1 46/46/46
f 46/46/46 47/47/47 2/2/2
f 2/2/2 48/48/48 6/6/6
f 48/48/48 2/2/2 47/47/47
f 47/47/47 49/49/49 48/48/48
f 49/49/49 47/47/47 42/42/42
f 42/42/42 44/44/44 49/49/49
f 50/50/50 49/49/49 44/44/44
f 44/44/44 45/45/45 50/50/50
f 51/51/51 48/48/48 49/49/49
f 49/49/49 50/50/50 51/51/51
f 6/6/6 48/48/48 51/51/51
f 51/51/51 22/22/22 6/6/6
f 22/22/22 51/51/51 52/52/52
f 52/52/52 23/23/23 22/22/22
f 52/52/52 26/26/26 23/23/23
f 52/52/52 53/53/53 28/28/28
f 28/28/28 26/26/26 52/52/52
f 29/29/29 28/28/28 53/53/53
f 8/8/8 6/6/6 22/22/22
f 22/22/22 20/20/20 8/8/8
f 38/38/38 54/54/54 55/55/55
f 55/55/55 34/34/34 38/38/38
f 34/34/34 55/55/55 56/56/56
f 56/56/56 32/32/32 34/34/34
f 32/32/32 56/56/56 57/57/57
f 57/57/57 31/31/31 32/32/32
f 31/31/31 57/57/57 58/58/58
f 58/58/58 59/59/59 31/31/31
f 58/58/58 60/60/60 59/59/59
f 61/61/61 57/57/57 56/56/56
f 56/56/56 62/62/62 61/61/61
f 62/62/62 56/56/56 55/55/55
f 55/55/55 63/63/63 62/62/62
f 55/55/55 54/54/54 63/63/63
f 64/64/64 60/60/60 58/58/58
f 58/58/58 65/65/65 64/64/64
f 58/58/58 61/61/61 65/65/65
f 61/61/61 66/66/66 65/65/65
f 64/64/64 65/65/65 66/66/66
f 66/66/66 67/67/67 64/64/64
f 60/60/60 64/64/64 68/68/68
f 68/68/68 69/69/69 60/60/60
f 70/70/70 68/68/68 67/67/67
f 67/67/67 71/71/71 70/70/70
f 71/71/71 67/67/67 66/66/66
f 66/66/66 72/72/72 71/71/71
f 61/61/61 62/62/62 73/73/73
f 62/62/62 63/63/63 74/74/74
f 73/73/73 62/62/62 74/74/74
f 74/74/74 75/75/75 73/73/73
f 72/72/72 73/73/73 75/75/75
f 75/75/75 76/76/76 72/72/72
f 71/71/71 72/72/72 76/76/76
f 76/76/76 77/77/77 71/71/71
f 71/71/71 77/77/77 70/70/70
f 67/67/67 68/68/68 64/64/64
f 54/54/54 38/38/38 40/40/40
f 18/18/18 12/12/12 78/78/78
f 78/78/78 79/79/79 18/18/18
f 78/78/78 12/12/12 11/11/11
f 11/11/11 80/80/80 78/78/78
f 79/79/79 81/81/81 17/17/17
f 17/17/17 18/18/18 79/79/79
f 82/82/82 83/83/83 84/84/84
f 84/84/84 81/81/81 82/82/82
f 81/81/81 84/84/84 16/16/16
f 16/16/16 17/17/17 81/81/81
f 84/84/84 85/85/85 15/15/15
f 15/15/15 16/16/16 84/84/84
f 83/83/83 86/86/86 85/85/85
f 85/85/85 84/84/84 83/83/83
f 85/85/85 87/87/87 5/5/5
f 5/5/5 15/15/15 85/85/85
f 87/87/87 85/85/85 86/86/86
f 87/87/87 86/86/86 88/88/88
f 88/88/88 89/89/89 87/87/87
f 89/89/89 4/4/4 87/87/87
f 4/4/4 5/5/5 87/87/87
f 89/89/89 90/90/90 1/1/1
f 1/1/1 4/4/4 89/89/89
f 88/88/88 91/91/91 90/90/90
f 90/90/90 89/89/89 88/88/88
f 91/91/91 92/92/92 93/93/93
f 93/93/93 90/90/90 91/91/91
f 46/46/46 94/94/94 95/95/95
f 95/95/95 96/96/96 46/46/46
f 97/97/97 95/95/95 94/94/94
f 94/94/94 93/93/93 97/97/97
f 98/98/98 97/97/97 93/93/93
f 93/93/93 92/92/92 98/98/98
f 99/99/99 100/100/100 98/98/98
f 98/98/98 100/100/100 101/101/101
f 101/101/101 97/97/97 98/98/98
f 97/97/97 101/101/101 102/102/102
f 102/102/102 95/95/95 97/97/97
f 43/43/43 42/42/42 47/47/47
f 47/47/47 46/46/46 43/43/43
f 94/94/94 46/46/46 1/1/1
f 1/1/1 90/90/90 94/94/94
f 41/41/41 43/43/43 103/103/103
f 103/103/103 104/104/104 41/41/41
f 104/104/104 103/103/103 102/102/102
f 102/102/102 105/105/105 104/104/104
f 105/105/105 102/102/102 101/101/101
f 101/101/101 106/106/106 105/105/105
f 106/106/106 101/101/101 100/100/100
f 100/100/100 107/107/107 106/106/106
f 107/107/107 100/100/100 99/99/99
f 99/99/99 108/108/108 107/107/107
f 39/39/39 41/41/41 104/104/104
f 104/104/104 109/109/109 39/39/39
f 109/109/109 104/104/104 105/105/105
f 105/105/105 110/110/110 109/109/109
f 110/110/110 105/105/105 106/106/106
f 106/106/106 111/111/111 110/110/110
f 111/111/111 106/106/106 107/107/107
f 107/107/107 112/112/112 111/111/111
f 112/112/112 107/107/107 108/108/108
f 108/108/108 113/113/113 112/112/112
f 40/40/40 39/39/39 109/109/109
f 109/109/109 114/114/114 40/40/40
f 114/114/114 109/109/109 110/110/110
f 110/110/110 115/115/115 114/114/114
f 115/115/115 110/110/110 111/111/111
f 111/111/111 116/116/116 115/115/115
f 116/116/116 111/111/111 112/112/112
f 112/112/112 117/117/117 116/116/116
f 117/117/117 112/112/112 113/113/113
f 113/113/113 118/118/118 117/117/117
f 54/54/54 40/40/40 114/114/114
f 114/114/114 119/119/119 54/54/54
f 119/119/119 114/114/114 115/115/115
f 115/115/115 120/120/120 119/119/119
f 120/120/120 115/115/115 116/116/116
f 116/116/116 121/121/121 120/120/120
f 121/121/121 116/116/116 117/117/117
f 117/117/117 122/122/122 121/121/121
f 70/70/70 122/122/122 117/117/117
f 117/117/117 118/118/118 70/70/70
f 70/70/70 77/77/77 122/122/122
f 122/122/122 77/77/77 76/76/76
f 76/76/76 121/121/121 122/122/122
f 121/121/121 76/76/76 75/75/75
f 75/75/75 120/120/120 121/121/121
f 120/120/120 75/75/75 74/74/74
f 74/74/74 119/119/119 120/120/120
f 119/119/119 74/74/74 63/63/63
f 63/63/63 54/54/54 119/119/119
f 82/82/82 81/81/81 79/79/79
f 11/11/11 19/19/19 80/80/80
f 50/50/50 45/45/45 53/53/53
f 53/53/53 52/52/52 50/50/50
f 50/50/50 52/52/52 51/51/51
f 27/27/27 26/26/26 28/28/28
f 27/27/27 31/31/31 59/59/59
f 59/59/59 26/26/26 27/27/27
f 43/43/43 96/96/96 103/103/103
f 102/102/102 103/103/103 96/96/96
f 96/96/96 95/95/95 102/102/102
f 72/72/72 66/66/66 61/61/61
f 61/61/61 73/73/73 72/72/72
f 58/58/58 57/57/57 61/61/61
f 29/29/29 53/53/53 45/45/45
f 82/82/82 79/79/79 123/123/123
f 123/123/123 124/124/124 82/82/82
f 24/24/24 125/125/125 69/69/69
f 69/69/69 68/68/68 24/24/24
f 60/60/60 69/69/69 125/125/125
f 125/125/125 126/126/126 60/60/60
f 126/126/126 125/125/125 24/24/24
f 24/24/24 25/25/25 126/126/126
f 59/59/59 126/126/126 25/25/25
f 25/25/25 26/26/26 59/59/59
f 60/60/60 126/126/126 59/59/59
f 127/127/127 68/68/68 70/70/70
f 70/70/70 128/128/128 127/127/127
f 113/113/113 128/128/128 118/118/118
f 128/128/128 129/129/129 130/130/130
f 130/130/130 127/127/127 128/128/128
f 129/129/129 24/24/24 130/130/130
f 129/129/129 131/131/131 19/19/19
f 19/19/19 24/24/24 129/129/129
f 131/131/131 132/132/132 80/80/80
f 80/80/80 19/19/19 131/131/131
f 132/132/132 123/123/123 78/78/78
f 78/78/78 80/80/80 132/132/132
f 123/123/123 79/79/79 78/78/78
f 124/124/124 83/83/83 82/82/82
f 124/124/124 133/133/133 86/86/86
f 86/86/86 83/83/83 124/124/124
f 133/133/133 134/134/134 88/88/88
f 88/88/88 86/86/86 133/133/133
f 134/134/134 135/135/135 91/91/91
f 91/91/91 88/88/88 134/134/134
f 135/135/135 136/136/136 92/92/92
f 92/92/92 91/91/91 135/135/135
f 136/136/136 137/137/137 98/98/98
f 98/98/98 92/92/92 136/136/136
f 137/137/137 138/138/138 99/99/99
f 99/99/99 98/98/98 137/137/137
f 138/138/138 128/128/128 108/108/108
f 108/108/108 99/99/99 138/138/138
f 128/128/128 113/113/113 108/108/108
f 139/139/139 129/129/129 128/128/128
f 70/70/70 118/118/118 128/128/128
f 139/139/139 131/131/131 129/129/129
f 139/139/139 132/132/132 131/131/131
f 139/139/139 123/123/123 132/132/132
f 139/139/139 124/124/124 123/123/123
f 139/139/139 133/133/133 124/124/124
f 139/139/139 134/134/134 133/133/133
f 139/139/139 135/135/135 134/134/134
f 139/139/139 136/136/136 135/135/135
f 139/139/139 137/137/137 136/136/136
f 139/139/139 138/138/138 137/137/137
f 139/139/139 128/128/128 138/138/138
f 43/43/43 46/46/46 96/96/96
f 94/94/94 90/90/90 93/93/93
f 24/24/24 68/68/68 127/127/127
f 127/127/127 130/130/130 24/24/24
