g 1_Visual
usemtl mat1
v -1.723470 1.958254 2.459301
v -1.986236 2.330261 1.883675
v -1.027177 2.678608 1.931249
v -1.392755 2.075924 2.479894
v 0.119852 2.597095 2.151850
v -1.661786 2.646312 1.425145
v -0.731330 3.242769 1.329866
v -0.696985 3.704104 0.090565
v -0.373122 3.826777 0.392790
v -0.241169 4.125077 -0.439831
v -0.371960 4.407166 -0.582098
v 0.273357 3.924529 -0.575318
v 0.270580 3.582883 0.856506
v 0.200250 3.386917 1.256179
v 1.245074 2.602691 1.415090
v 1.791386 1.645444 1.266169
v 1.479949 2.707362 0.508869
v 1.043799 3.362792 -0.240723
v -0.528823 4.476067 -0.599602
v -0.815072 3.627552 0.019307
v -1.562390 3.452383 -0.543826
v -1.252237 3.117936 0.573339
v -1.771726 3.062906 0.200868
v -1.469351 4.557060 -0.753254
v -1.615650 3.337764 -0.925643
v -2.183957 2.909415 -0.021157
v -2.988099 2.330052 -0.031064
v -2.858552 2.486436 0.223853
v -3.385140 1.721323 0.749327
v -3.498491 1.466158 0.540345
v -3.117948 2.224630 -0.287604
v -3.638158 1.287405 0.307166
v -3.619926 1.251824 0.683339
v -3.762767 1.061266 0.471699
v -3.469960 1.464900 0.918525
v -3.974256 0.195676 1.191011
v -3.733463 0.547706 1.348274
v -4.343728 -0.289578 0.975669
v -4.272349 -0.726763 1.400918
v -4.580849 -1.272445 1.110134
v -3.705780 0.029093 1.812984
v -2.935179 1.532240 1.704990
v -2.970557 0.917677 2.153651
v -2.985521 2.002671 1.359917
v -3.036045 2.191216 1.102041
v -2.072927 1.748331 2.390026
v -2.240472 2.205701 1.874494
v -2.178231 2.625740 1.504153
v -2.307970 2.582875 1.517839
v -2.322593 2.863456 1.113428
v -2.164454 2.920352 1.062237
v -2.182373 2.985302 0.591737
v -2.954615 2.406815 0.683285
v -4.834256 -0.482562 0.444273
v -4.214938 0.534776 -0.056835
v -3.989925 0.841100 -0.299832
v -3.517968 1.736921 -0.975730
v -3.144983 1.975965 -1.629859
v -2.394313 2.805650 -0.932376
v -2.126657 3.156401 -1.176185
v -3.788592 1.303897 -1.648394
v -4.487906 0.238695 -0.981084
v -4.728449 -0.025097 -0.548954
v -2.240090 3.234741 -1.581535
v -3.126855 2.063601 -1.830011
v -3.679132 2.160079 -1.788017
v -3.177368 3.376551 -1.696171
v -2.123900 4.800380 -0.648841
v -2.091854 4.743241 -0.809109
v -3.015830 4.772560 -0.504024
v -3.875463 3.542458 -1.256967
v -4.308084 2.291064 -1.328997
v -4.410716 1.502644 -1.290480
v -4.839125 0.263625 -0.632519
v -4.777308 1.321894 -0.553767
v -4.676135 2.451919 -0.594290
v -4.326687 3.766837 -0.644423
v 0.212668 4.298422 -0.468938
v 1.168471 3.465258 0.022757
v -0.219464 4.615722 -0.661740
v 1.322769 3.097606 0.447926
v 1.206937 3.315406 0.403394
v 1.067016 3.568194 0.887015
v 1.351683 2.854918 0.977546
v 1.169556 3.284945 1.364461
v 0.435230 4.044054 1.809497
v 0.068235 3.087931 2.297891
v -0.222054 4.465437 1.817838
v -0.674714 3.418203 2.445919
v -1.247907 3.471696 2.389400
v -0.798496 4.500808 1.805888
v -0.983639 4.495284 1.808041
v -1.421390 3.468385 2.359262
v -1.595349 2.989035 2.447921
v -2.297990 2.403123 2.489109
v -2.516263 1.383503 2.326041
v -1.961474 3.456368 2.259664
v -1.606906 4.561760 1.738239
v -2.317310 4.935720 1.249190
v -2.323586 4.590025 1.751045
v -2.770976 3.342257 2.048032
v -2.969327 2.227307 2.232186
v -2.994683 1.096640 2.252530
v -3.691300 0.398070 1.967693
v -3.561421 1.939741 1.971145
v -3.352386 3.181833 1.877406
v -2.858888 4.524879 1.621799
v -2.592120 5.019850 0.911118
v -4.361064 -0.609952 1.429641
v -4.252430 1.450696 1.623809
v -4.067000 2.910794 1.569706
v -3.691572 4.294346 1.169243
v -2.964590 4.975810 0.298676
v -4.683712 -1.299891 1.176261
v -4.570378 1.310122 1.304903
v -4.427187 2.738310 1.166047
v -3.946676 4.166381 0.832357
v -3.060820 4.918020 0.097543
v -4.952378 -0.216405 0.457251
v -4.756583 1.358489 0.448495
v -4.697062 2.631830 0.274964
v -4.340317 3.930905 -0.047330
v 0.395771 4.451913 0.362863
v 0.541054 4.298566 0.564865
v -1.707515 4.552680 -0.970096
v -1.884176 3.266952 -1.260321
v -1.831150 4.699090 -0.322722
v -1.813560 5.157170 0.662230
v -0.784062 4.974500 0.263673
v -1.537766 4.627745 -0.420766
v -0.443867 5.027890 0.133754
v -0.069193 4.808420 0.135788
v 0.206846 4.648617 1.182180
v -0.114958 4.841329 1.197540
v -0.674762 4.895640 1.178760
v -0.817242 4.906540 1.185990
v -1.205680 4.941950 1.131210
v -1.620430 5.122820 0.907985
v -0.499531 5.045810 0.672108
v -1.426370 3.147020 1.896828
v -1.695037 4.297697 0.620043
v -2.261096 4.462069 0.958508
v -1.409769 3.623015 1.528520
v -1.299044 3.965013 0.379110
v -1.714938 3.578912 0.487178
v -1.660895 3.902959 0.879014
v -2.329978 3.498008 0.347081
v -1.679522 4.329612 0.221843
v -1.681965 3.728775 0.160151
v -0.894715 4.525613 0.840676
v -2.538636 2.744345 1.780580
v -2.613789 3.118014 1.100351
v -3.061781 2.676384 1.416893
v -2.012417 2.958159 1.674785
v -2.116340 3.386667 0.969288
v -0.980532 4.350266 1.130763
v -3.221053 4.062163 0.197420
v -3.653750 3.237283 -0.034295
v -2.557326 3.825758 -0.525681
v -2.727204 4.266638 0.358643
v -3.085664 3.046707 0.527529
v -3.033963 3.165610 -0.598943
v -3.302703 3.418303 0.891710
v -3.676271 2.623068 -0.622624
v -3.243767 2.859301 -0.889924
v -4.145474 1.371199 0.187081
v -3.766763 2.310113 0.416027
v -2.671081 1.797459 2.187272
v -0.385236 4.436664 0.056279
v -1.026129 4.268125 0.119258
v -2.387105 4.300200 0.479130
v -1.725354 4.316421 -0.313818
v 0.288643 3.970883 0.143500
v -0.131699 4.312431 0.742325
v 1.138849 3.131436 0.485112
v -3.888460 1.922709 1.146261
v -2.737523 3.684274 1.153894
v -3.631441 1.632259 1.423762
v -2.278076 3.880439 1.176417
v -3.805994 1.432872 0.669851
v -4.233218 0.487531 1.242971
v -3.103616 3.009563 -1.031584
vn 0.221931 -0.580464 0.783459
vn 0.303045 -0.760919 -0.573730
vn 0.224855 -0.761878 -0.607439
vn 0.294553 -0.587441 0.753758
vn 0.240648 -0.938000 -0.249490
vn 0.336292 -0.850752 -0.403892
vn 0.276660 -0.817863 -0.504538
vn 0.475795 -0.811704 -0.338756
vn 0.184699 -0.898839 -0.397460
vn -0.176081 -0.907769 -0.380724
vn -0.136232 -0.381843 -0.914131
vn -0.385621 -0.797104 -0.464674
vn -0.548275 -0.784837 -0.288834
vn -0.165867 -0.788762 -0.591897
vn -0.193842 -0.953933 0.228993
vn -0.427769 -0.870943 -0.241809
vn -0.470053 -0.692201 -0.547638
vn -0.362646 -0.770412 -0.524360
vn 0.026490 0.257766 -0.965844
vn 0.443598 -0.570841 -0.690914
vn 0.656328 -0.612409 -0.440668
vn 0.304976 -0.901821 -0.306118
vn 0.332541 -0.922127 -0.197733
vn 0.570961 0.229974 -0.788109
vn 0.794054 -0.574655 -0.198118
vn 0.560310 -0.828257 -0.006622
vn 0.705640 -0.708472 -0.011810
vn 0.681850 -0.729097 0.059147
vn 0.858636 -0.511833 -0.027761
vn 0.854452 -0.515833 -0.061865
vn 0.752887 -0.658101 0.008016
vn 0.841593 -0.530072 -0.103656
vn 0.879823 -0.438862 -0.182512
vn 0.841185 -0.489762 -0.229216
vn 0.851624 -0.416018 -0.318850
vn 0.837007 -0.404990 -0.367970
vn 0.780232 -0.400921 -0.480104
vn 0.798953 -0.443541 -0.406135
vn 0.842249 -0.513362 -0.164547
vn 0.781512 -0.404386 -0.475090
vn 0.805899 -0.523662 -0.276234
vn 0.684615 -0.434368 -0.585343
vn 0.698847 -0.541625 -0.467179
vn 0.710515 -0.463280 -0.529660
vn 0.756345 -0.571643 -0.318067
vn 0.618428 -0.695851 0.365154
vn 0.568727 -0.516334 -0.640273
vn 0.055962 -0.787411 -0.613883
vn 0.554112 -0.561363 -0.614681
vn 0.606241 -0.734051 -0.306008
vn 0.020062 -0.909237 -0.415794
vn 0.416019 -0.909281 -0.011660
vn 0.709126 -0.702366 -0.061819
vn 0.583885 -0.648605 -0.488252
vn 0.787661 -0.580243 -0.207143
vn 0.831325 -0.551385 -0.069806
vn 0.814346 -0.580093 -0.018224
vn 0.734363 -0.678754 -0.001884
vn 0.638516 -0.769339 -0.020349
vn 0.586340 -0.243469 -0.772611
vn 0.381821 -0.607049 -0.696925
vn 0.327480 -0.720749 -0.610964
vn 0.363690 -0.875245 -0.318867
vn 0.438630 0.132554 -0.888838
vn 0.231837 -0.152663 -0.960701
vn -0.283405 0.124225 -0.950921
vn -0.105215 0.471839 -0.875384
vn 0.168905 0.671939 -0.721088
vn -0.379901 0.426183 -0.821001
vn -0.336630 0.836961 -0.431482
vn -0.568475 0.422973 -0.705642
vn -0.744545 0.142146 -0.652263
vn -0.736282 -0.027527 -0.676115
vn -0.971349 0.014906 -0.237191
vn -0.979038 0.071820 -0.190593
vn -0.929468 0.200572 -0.309613
vn -0.719125 0.531892 -0.447158
vn 0.663600 0.576982 -0.476158
vn 0.803886 0.550289 -0.225719
vn 0.335649 0.753022 -0.565948
vn 0.912137 0.392565 0.117890
vn 0.848293 0.528450 0.033754
vn 0.820193 0.560078 0.116604
vn 0.912208 0.357574 0.200045
vn 0.736570 0.193852 0.647986
vn 0.677503 0.502235 0.537354
vn 0.400875 0.089547 0.911746
vn 0.218281 0.543034 0.810844
vn 0.104686 0.192572 0.975683
vn -0.032370 0.326178 0.944754
vn 0.007869 0.679888 0.733273
vn -0.009714 0.650880 0.759118
vn -0.112219 0.447906 0.887010
vn -0.041893 0.086181 0.995398
vn -0.194134 0.075340 0.978078
vn -0.162631 -0.114291 0.980045
vn -0.266217 0.347351 0.899153
vn -0.067705 0.592254 0.802902
vn -0.054946 0.852044 0.520579
vn -0.161092 0.426918 0.889826
vn -0.272457 0.280029 0.920517
vn -0.367335 0.112483 0.923262
vn -0.205838 -0.108650 0.972536
vn -0.458093 -0.036957 0.888135
vn -0.485874 0.065648 0.871560
vn -0.405617 0.213743 0.888701
vn -0.440472 0.517162 0.733844
vn -0.341339 0.896886 0.281217
vn -0.499277 -0.057973 0.864501
vn -0.546219 0.029206 0.837133
vn -0.601113 0.252420 0.758252
vn -0.619247 0.607249 0.497777
vn -0.436316 0.892343 0.115556
vn -0.844901 -0.053102 0.532281
vn -0.896973 0.075449 0.435599
vn -0.902422 0.235552 0.360763
vn -0.787800 0.594393 0.161457
vn -0.425891 0.883191 -0.196444
vn -0.990165 0.016004 0.138986
vn -0.989172 0.095938 0.111058
vn -0.969409 0.205377 0.134415
vn -0.832144 0.554483 0.009246
vn 0.715648 0.691140 -0.100862
vn 0.752281 0.656469 0.055880
vn -0.005784 0.291543 -0.956540
vn 0.550674 -0.141531 -0.822634
vn 0.131691 0.953683 -0.270456
vn 0.008186 0.961923 -0.273197
vn -0.008626 0.919259 -0.393558
vn -0.020696 0.918659 -0.394508
vn 0.011966 0.932957 -0.359789
vn 0.601090 0.781332 -0.167964
vn 0.644205 0.741421 0.187870
vn 0.191584 0.880656 0.433290
vn 0.062968 0.884693 0.461902
vn 0.033986 0.871944 0.488425
vn 0.065127 0.861405 0.503726
vn 0.028797 0.938767 0.343348
vn 0.323592 0.944362 0.058903
vt 1.000000 1.000000
vt 1.000000 1.000000
vt 1.000000 1.000000
vt 1.000000 1.000000
vt 1.000000 1.000000
vt 1.000000 1.000000
vt 1.000000 1.000000
vt 1.000000 1.000000
vt 1.000000 1.000000
vt 1.000000 1.000000
vt 1.000000 1.000000
vt 1.000000 1.000000
vt 1.000000 1.000000
vt 1.000000 1.000000
vt 1.000000 1.000000
vt 1.000000 1.000000
vt 1.000000 1.000000
vt 1.000000 1.000000
vt 1.000000 1.000000
vt 1.000000 1.000000
vt 1.000000 1.000000
vt 1.000000 1.000000
vt 1.000000 1.000000
vt 1.000000 1.000000
vt 1.000000 1.000000
vt 1.000000 1.000000
vt 1.000000 1.000000
vt 1.000000 1.000000
vt 1.000000 1.000000
vt 1.000000 1.000000
vt 1.000000 1.000000
vt 1.000000 1.000000
vt 1.000000 1.000000
vt 1.000000 1.000000
vt 1.000000 1.000000
vt 1.000000 1.000000
vt 1.000000 1.000000
vt 1.000000 1.000000
vt 1.000000 1.000000
vt 1.000000 1.000000
vt 1.000000 1.000000
vt 1.000000 1.000000
vt 1.000000 1.000000
vt 1.000000 1.000000
vt 1.000000 1.000000
vt 1.000000 1.000000
vt 1.000000 1.000000
vt 1.000000 1.000000
vt 1.000000 1.000000
vt 1.000000 1.000000
vt 1.000000 1.000000
vt 1.000000 1.000000
vt 1.000000 1.000000
vt 1.000000 1.000000
vt 1.000000 1.000000
vt 1.000000 1.000000
vt 1.000000 1.000000
vt 1.000000 1.000000
vt 1.000000 1.000000
vt 1.000000 1.000000
vt 1.000000 1.000000
vt 1.000000 1.000000
vt 1.000000 1.000000
vt 1.000000 1.000000
vt 1.000000 1.000000
vt 1.000000 1.000000
vt 1.000000 1.000000
vt 1.000000 1.000000
vt 1.000000 1.000000
vt 1.000000 1.000000
vt 1.000000 1.000000
vt 1.000000 1.000000
vt 1.000000 1.000000
vt 1.000000 1.000000
vt 1.000000 1.000000
vt 1.000000 1.000000
vt 1.000000 1.000000
vt 1.000000 1.000000
vt 1.000000 1.000000
vt 1.000000 1.000000
vt 1.000000 1.000000
vt 1.000000 1.000000
vt 1.000000 1.000000
vt 1.000000 1.000000
vt 1.000000 1.000000
vt 1.000000 1.000000
vt 1.000000 1.000000
vt 1.000000 1.000000
vt 1.000000 1.000000
vt 1.000000 1.000000
vt 1.000000 1.000000
vt 1.000000 1.000000
vt 1.000000 1.000000
vt 1.000000 1.000000
vt 1.000000 1.000000
vt 1.000000 1.000000
vt 1.000000 1.000000
vt 1.000000 1.000000
vt 1.000000 1.000000
vt 1.000000 1.000000
vt 1.000000 1.000000
vt 1.000000 1.000000
vt 1.000000 1.000000
vt 1.000000 1.000000
vt 1.000000 1.000000
vt 1.000000 1.000000
vt 1.000000 1.000000
vt 1.000000 1.000000
vt 1.000000 1.000000
vt 1.000000 1.000000
vt 1.000000 1.000000
vt 1.000000 1.000000
vt 1.000000 1.000000
vt 1.000000 1.000000
vt 1.000000 1.000000
vt 1.000000 1.000000
vt 1.000000 1.000000
vt 1.000000 1.000000
vt 1.000000 1.000000
vt 1.000000 1.000000
vt 1.000000 1.000000
vt 1.000000 1.000000
vt 1.000000 1.000000
vt 1.000000 1.000000
vt 1.000000 1.000000
vt 1.000000 1.000000
vt 1.000000 1.000000
vt 1.000000 1.000000
vt 1.000000 1.000000
vt 1.000000 1.000000
vt 1.000000 1.000000
vt 1.000000 1.000000
vt 1.000000 1.000000
vt 1.000000 1.000000
vt 1.000000 1.000000
vt 1.000000 1.000000
vt 1.000000 1.000000
vt 1.000000 1.000000
vt 1.000000 1.000000
f 1/1/1 2/2/2 3/3/3
f 3/3/3 4/4/4 1/1/1
f 3/3/3 5/5/5 4/4/4
f 3/3/3 2/2/2 6/6/6
f 6/6/6 7/7/7 3/3/3
f 7/7/7 6/6/6 8/8/8
f 8/8/8 9/9/9 7/7/7
f 9/9/9 8/8/8 10/10/10
f 10/10/10 8/8/8 11/11/11
f 11/11/11 12/12/12 10/10/10
f 10/10/10 12/12/12 13/13/13
f 13/13/13 9/9/9 10/10/10
f 9/9/9 13/13/13 14/14/14
f 14/14/14 7/7/7 9/9/9
f 7/7/7 14/14/14 5/5/5
f 5/5/5 3/3/3 7/7/7
f 5/5/5 14/14/14 15/15/15
f 13/13/13 15/15/15 14/14/14
f 16/16/16 15/15/15 13/13/13
f 17/17/17 16/16/16 13/13/13
f 18/18/18 17/17/17 13/13/13
f 12/12/12 18/18/18 13/13/13
f 19/19/19 11/11/11 8/8/8
f 8/8/8 20/20/20 19/19/19
f 21/21/21 20/20/20 22/22/22
f 22/22/22 23/23/23 21/21/21
f 24/24/24 19/19/19 20/20/20
f 20/20/20 21/21/21 24/24/24
f 25/25/25 24/24/24 21/21/21
f 21/21/21 23/23/23 26/26/26
f 21/21/21 26/26/26 25/25/25
f 27/27/27 28/28/28 29/29/29
f 29/29/29 30/30/30 27/27/27
f 31/31/31 27/27/27 30/30/30
f 30/30/30 32/32/32 31/31/31
f 32/32/32 30/30/30 33/33/33
f 33/33/33 34/34/34 32/32/32
f 35/35/35 33/33/33 30/30/30
f 30/30/30 29/29/29 35/35/35
f 36/36/36 33/33/33 35/35/35
f 35/35/35 37/37/37 36/36/36
f 34/34/34 33/33/33 36/36/36
f 36/36/36 38/38/38 34/34/34
f 38/38/38 36/36/36 39/39/39
f 39/39/39 40/40/40 38/38/38
f 36/36/36 37/37/37 41/41/41
f 41/41/41 39/39/39 36/36/36
f 41/41/41 37/37/37 42/42/42
f 42/42/42 43/43/43 41/41/41
f 44/44/44 42/42/42 37/37/37
f 37/37/37 35/35/35 44/44/44
f 45/45/45 44/44/44 35/35/35
f 35/35/35 29/29/29 45/45/45
f 2/2/2 1/1/1 46/46/46
f 46/46/46 47/47/47 2/2/2
f 2/2/2 48/48/48 6/6/6
f 48/48/48 2/2/2 47/47/47
f 47/47/47 49/49/49 48/48/48
f 49/49/49 47/47/47 42/42/42
f 42/42/42 44/44/44 49/49/49
f 50/50/50 49/49/49 44/44/44
f 44/44/44 45/45/45 50/50/50
f 51/51/51 48/48/48 49/49/49
f 49/49/49 50/50/50 51/51/51
f 6/6/6 48/48/48 51/51/51
f 51/51/51 22/22/22 6/6/6
f 22/22/22 51/51/51 52/52/52
f 52/52/52 23/23/23 22/22/22
f 52/52/52 26/26/26 23/23/23
f 52/52/52 53/53/53 28/28/28
f 28/28/28 26/26/26 52/52/52
f 29/29/29 28/28/28 53/53/53
f 8/8/8 6/6/6 22/22/22
f 22/22/22 20/20/20 8/8/8
f 38/38/38 54/54/54 55/55/55
f 55/55/55 34/34/34 38/38/38
f 34/34/34 55/55/55 56/56/56
f 56/56/56 32/32/32 34/34/34
f 32/32/32 56/56/56 57/57/57
f 57/57/57 31/31/31 32/32/32
f 31/31/31 57/57/57 58/58/58
f 58/58/58 59/59/59 31/31/31
f 58/58/58 60/60/60 59/59/59
f 61/61/61 57/57/57 56/56/56
f 56/56/56 62/62/62 61/61/61
f 62/62/62 56/56/56 55/55/55
f 55/55/55 63/63/63 62/62/62
f 55/55/55 54/54/54 63/63/63
f 64/64/64 60/60/60 58/58/58
f 58/58/58 65/65/65 64/64/64
f 58/58/58 61/61/61 65/65/65
f 61/61/61 66/66/66 65/65/65
f 64/64/64 65/65/65 66/66/66
f 66/66/66 67/67/67 64/64/64
f 60/60/60 64/64/64 68/68/68
f 68/68/68 69/69/69 60/60/60
f 70/70/70 68/68/68 67/67/67
f 67/67/67 71/71/71 70/70/70
f 71/71/71 67/67/67 66/66/66
f 66/66/66 72/72/72 71/71/71
f 61/61/61 62/62/62 73/73/73
f 62/62/62 63/63/63 74/74/74
f 73/73/73 62/62/62 74/74/74
f 74/74/74 75/75/75 73/73/73
f 72/72/72 73/73/73 75/75/75
f 75/75/75 76/76/76 72/72/72
f 71/71/71 72/72/72 76/76/76
f 76/76/76 77/77/77 71/71/71
f 71/71/71 77/77/77 70/70/70
f 67/67/67 68/68/68 64/64/64
f 54/54/54 38/38/38 40/40/40
f 18/18/18 12/12/12 78/78/78
f 78/78/78 79/79/79 18/18/18
f 78/78/78 12/12/12 11/11/11
f 11/11/11 80/80/80 78/78/78
f 79/79/79 81/81/81 17/17/17
f 17/17/17 18/18/18 79/79/79
f 82/82/82 83/83/83 84/84/84
f 84/84/84 81/81/81 82/82/82
f 81/81/81 84/84/84 16/16/16
f 16/16/16 17/17/17 81/81/81
f 84/84/84 85/85/85 15/15/15
f 15/15/15 16/16/16 84/84/84
f 83/83/83 86/86/86 85/85/85
f 85/85/85 84/84/84 83/83/83
f 85/85/85 87/87/87 5/5/5
f 5/5/5 15/15/15 85/85/85
f 87/87/87 85/85/85 86/86/86
f 87/87/87 86/86/86 88/88/88
f 88/88/88 89/89/89 87/87/87
f 89/89/89 4/4/4 87/87/87
f 4/4/4 5/5/5 87/87/87
f 89/89/89 90/90/90 1/1/1
f 1/1/1 4/4/4 89/89/89
f 88/88/88 91/91/91 90/90/90
f 90/90/90 89/89/89 88/88/88
f 91/91/91 92/92/92 93/93/93
f 93/93/93 90/90/90 91/91/91
f 46/46/46 94/94/94 95/95/95
f 95/95/95 96/96/96 46/46/46
f 97/97/97 95/95/95 94/94/94
f 94/94/94 93/93/93 97/97/97
f 98/98/98 97/97/97 93/93/93
f 93/93/93 92/92/92 98/98/98
f 99/99/99 100/100/100 98/98/98
f 98/98/98 100/100/100 101/101/101
f 101/101/101 97/97/97 98/98/98
f 97/97/97 101/101/101 102/102/102
f 102/102/102 95/95/95 97/97/97
f 43/43/43 42/42/42 47/47/47
f 47/47/47 46/46/46 43/43/43
f 94/94/94 46/46/46 1/1/1
f 1/1/1 90/90/90 94/94/94
f 41/41/41 43/43/43 103/103/103
f 103/103/103 104/104/104 41/41/41
f 104/104/104 103/103/103 102/102/102
f 102/102/102 105/105/105 104/104/104
f 105/105/105 102/102/102 101/101/101
f 101/101/101 106/106/106 105/105/105
f 106/106/106 101/101/101 100/100/100
f 100/100/100 107/107/107 106/106/106
f 107/107/107 100/100/100 99/99/99
f 99/99/99 108/108/108 107/107/107
f 39/39/39 41/41/41 104/104/104
f 104/104/104 109/109/109 39/39/39
f 109/109/109 104/104/104 105/105/105
f 105/105/105 110/110/110 109/109/109
f 110/110/110 105/105/105 106/106/106
f 106/106/106 111/111/111 110/110/110
f 111/111/111 106/106/106 107/107/107
f 107/107/107 112/112/112 111/111/111
f 112/112/112 107/107/107 108/108/108
f 108/108/108 113/113/113 112/112/112
f 40/40/40 39/39/39 109/109/109
f 109/109/109 114/114/114 40/40/40
f 114/114/114 109/109/109 110/110/110
f 110/110/110 115/115/115 114/114/114
f 115/115/115 110/110/110 111/111/111
f 111/111/111 116/116/116 115/115/115
f 116/116/116 111/111/111 112/112/112
f 112/112/112 117/117/117 116/116/116
f 117/117/117 112/112/112 113/113/113
f 113/113/113 118/118/118 117/117/117
f 54/54/54 40/40/40 114/114/114
f 114/114/114 119/119/119 54/54/54
f 119/119/119 114/114/114 115/115/115
f 115/115/115 120/120/120 119/119/119
f 120/120/120 115/115/115 116/116/116
f 116/116/116 121/121/121 120/120/120
f 121/121/121 116/116/116 117/117/117
f 117/117/117 122/122/122 121/121/121
f 70/70/70 122/122/122 117/117/117
f 117/117/117 118/118/118 70/70/70
f 70/70/70 77/77/77 122/122/122
f 122/122/122 77/77/77 76/76/76
f 76/76/76 121/121/121 122/122/122
f 121/121/121 76/76/76 75/75/75
f 75/75/75 120/120/120 121/121/121
f 120/120/120 75/75/75 74/74/74
f 74/74/74 119/119/119 120/120/120
f 119/119/119 74/74/74 63/63/63
f 63/63/63 54/54/54 119/119/119
f 82/82/82 81/81/81 79/79/79
f 11/11/11 19/19/19 80/80/80
f 50/50/50 45/45/45 53/53/53
f 53/53/53 52/52/52 50/50/50
f 50/50/50 52/52/52 51/51/51
f 27/27/27 26/26/26 28/28/28
f 27/27/27 31/31/31 59/59/59
f 59/59/59 26/26/26 27/27/27
f 43/43/43 96/96/96 103/103/103
f 102/102/102 103/103/103 96/96/96
f 96/96/96 95/95/95 102/102/102
f 72/72/72 66/66/66 61/61/61
f 61/61/61 73/73/73 72/72/72
f 58/58/58 57/57/57 61/61/61
f 29/29/29 53/53/53 45/45/45
f 82/82/82 79/79/79 123/123/123
f 123/123/123 124/124/124 82/82/82
f 24/24/24 125/125/125 69/69/69
f 69/69/69 68/68/68 24/24/24
f 60/60/60 69/69/69 125/125/125
f 125/125/125 126/126/126 60/60/60
f 126/126/126 125/125/125 24/24/24
f 24/24/24 25/25/25 126/126/126
f 59/59/59 126/126/126 25/25/25
f 25/25/25 26/26/26 59/59/59
f 60/60/60 126/126/126 59/59/59
f 127/127/127 68/68/68 70/70/70
f 70/70/70 128/128/128 127/127/127
f 113/113/113 128/128/128 118/118/118
f 128/128/128 129/129/129 130/130/130
f 130/130/130 127/127/127 128/128/128
f 129/129/129 24/24/24 130/130/130
f 129/129/129 131/131/131 19/19/19
f 19/19/19 24/24/24 129/129/129
f 131/131/131 132/132/132 80/80/80
f 80/80/80 19/19/19 131/131/131
f 132/132/132 123/123/123 78/78/78
f 78/78/78 80/80/80 132/132/132
f 123/123/123 79/79/79 78/78/78
f 124/124/124 83/83/83 82/82/82
f 124/124/124 133/133/133 86/86/86
f 86/86/86 83/83/83 124/124/124
f 133/133/133 134/134/134 88/88/88
f 88/88/88 86/86/86 133/133/133
f 134/134/134 135/135/135 91/91/91
f 91/91/91 88/88/88 134/134/134
f 135/135/135 136/136/136 92/92/92
f 92/92/92 91/91/91 135/135/135
f 136/136/136 137/137/137 98/98/98
f 98/98/98 92/92/92 136/136/136
f 137/137/137 138/138/138 99/99/99
f 99/99/99 98/98/98 137/137/137
f 138/138/138 128/128/128 108/108/108
f 108/108/108 99/99/99 138/138/138
f 128/128/128 113/113/113 108/108/108
f 139/139/139 129/129/129 128/128/128
f 70/70/70 118/118/118 128/128/128
f 139/139/139 131/131/131 129/129/129
f 139/139/139 132/132/132 131/131/131
f 139/139/139 123/123/123 132/132/132
f 139/139/139 124/124/124 123/123/123
f 139/139/139 133/133/133 124/124/124
f 139/139/139 134/134/134 133/133/133
f 139/139/139 135/135/135 134/134/134
f 139/139/139 136/136/136 135/135/135
f 139/139/139 137/137/137 136/136/136
f 139/139/139 138/138/138 137/137/137
f 139/139/139 128/128/128 138/138/138
f 43/43/43 46/46/46 96/96/96
f 94/94/94 90/90/90 93/93/93
f 24/24/24 68/68/68 127/127/127
f 127/127/127 130/130/130 24/24/24
