# Blender v2.72 (sub 0) OBJ File: ''
# www.blender.org
mtllib box-inner.mtl
o Cube
v 1.000000 -1.000000 -1.000000
v 1.000000 -1.000000 1.000000
v -1.000000 -1.000000 1.000000
v -1.000000 -1.000000 -1.000000
v 1.000000 1.000000 -0.999999
v 0.999999 1.000000 1.000001
v -1.000000 1.000000 1.000000
v -1.000000 1.000000 -1.000000
v -0.015320 0.971100 0.116890
vn 0.000000 1.000000 0.000000
vn -1.000000 -0.000000 0.000000
vn 0.000000 -0.000000 -1.000000
vn 1.000000 0.000000 0.000000
vn -0.000000 -0.000000 1.000000
usemtl Material
s off
f 4//1 3//1 2//1
f 1//2 2//2 6//2
f 2//3 3//3 7//3
f 4//4 8//4 7//4
f 8//5 4//5 1//5
f 1//1 4//1 2//1
f 5//2 1//2 6//2
f 6//3 2//3 7//3
f 3//4 4//4 7//4
f 5//5 8//5 1//5
