# Blender v2.69 (sub 0) OBJ File: ''
# www.blender.org
mtllib ground.mtl
o Cube
v 8.198941 -0.753943 -8.269202
v 8.198941 -0.753943 8.269203
v -8.198942 -0.753943 8.269201
v -8.198938 -0.753943 -8.269206
v 8.198945 0.753943 -8.269198
v 8.198936 0.753943 8.269208
v -8.198944 0.753943 8.269200
v -8.198940 0.753943 -8.269203
vn 0.000000 -1.000000 -0.000000
vn 0.000000 1.000000 -0.000000
vn 1.000000 -0.000002 0.000001
vn -0.000000 -0.000003 1.000000
vn -1.000000 -0.000002 -0.000000
vn 0.000000 0.000003 -1.000000
vn 1.000000 0.000004 0.000000
vn -0.000000 0.000001 1.000000
vn -1.000000 -0.000001 -0.000000
vn 0.000000 0.000002 -1.000000
usemtl Material
s off
f 1//1 2//1 4//1
f 5//2 8//2 6//2
f 1//3 5//3 6//3
f 2//4 6//4 3//4
f 3//5 7//5 4//5
f 5//6 1//6 8//6
f 2//1 3//1 4//1
f 8//2 7//2 6//2
f 2//7 1//7 6//7
f 6//8 7//8 3//8
f 7//9 8//9 4//9
f 1//10 4//10 8//10
