# Blender v2.79 (sub 0) OBJ File: ''
# www.blender.org
mtllib articulation4O.mtl
o Cylinder_Cylinder.005_Cylinder_Cylinder.007
v 1.199999 -0.382683 0.923880
v 1.199999 -0.427634 0.899853
v 1.199999 -0.050724 0.995004
v 1.199999 -0.144368 -0.985781
v 1.199999 -0.980785 -0.195089
v 1.199999 -1.000000 0.000002
v 1.199999 -0.980785 0.195092
v 1.199999 -0.831469 0.555571
v 1.199999 -0.707106 0.707107
v 1.199999 -0.555570 0.831470
v 1.199999 -0.382685 -0.923879
v 1.199999 -0.555571 -0.831469
v 1.199999 -0.707108 -0.707106
v 1.199999 -0.831470 -0.555569
v 1.199999 -0.965910 -0.244127
v 1.199999 -0.923879 0.382684
v 1.199999 -0.195091 0.980785
v 1.199999 -0.243865 0.965990
v 1.199999 -0.261002 0.960791
v 1.199999 -0.923880 -0.382682
v 1.199999 -0.420788 0.198071
v 1.199999 0.012872 0.998732
v 1.199999 0.012872 0.998732
v -1.176945 2.579226 0.862647
v -1.200001 -0.000001 -1.000000
v -0.000002 3.545123 -0.999999
v 1.176941 2.579228 0.889201
v 0.000000 3.545122 1.000001
v -1.176944 2.579232 -0.888838
v 1.176940 2.579231 -0.862647
v 0.666684 3.342884 0.953735
v 0.554517 3.402838 0.952905
v 0.234108 3.522064 1.000001
v -0.234110 3.522066 -0.999999
v 0.459218 3.453778 -0.952199
v 0.554517 3.402840 -0.952904
v 0.459220 3.453776 0.970326
v -0.666692 3.342882 0.882065
v -0.848534 3.193646 0.829928
v -1.200002 2.345118 0.875114
v -0.848530 3.193652 -0.952277
v -0.666686 3.342887 -0.950047
v 0.997761 3.011807 -0.839611
v 1.108653 2.804343 -0.850660
v -1.108660 2.804337 0.850659
v -0.459229 3.453774 0.952200
v -0.554517 3.402841 0.952905
v -1.200002 2.345124 -0.913028
v -0.997766 3.011808 -0.934158
v -0.459222 3.453779 -0.968351
v 0.234106 3.522065 -0.953433
v 0.848526 3.193651 -0.829927
v 0.666682 3.342887 -0.882069
v 1.108654 2.804340 0.896598
v 0.997763 3.011804 0.935460
v 0.848527 3.193648 0.955801
v -0.234118 3.522063 0.953432
v -1.108658 2.804344 -0.895973
v -0.557584 3.401203 -0.949175
v -0.997769 3.011801 0.839611
v -1.200001 0.195090 0.980785
v 1.199998 2.345119 0.913552
v 1.176940 2.579231 -0.862647
v 1.199999 -0.000001 -1.000000
v 1.199998 2.345119 0.913552
v 1.176940 2.579231 -0.862647
v 1.199999 0.012872 0.998732
v 1.199998 2.345119 0.913552
v -1.200001 -0.382684 -0.923879
v -1.200001 -0.555571 -0.831469
v -1.200001 -0.923880 -0.382683
v -1.200001 -1.000000 0.000001
v -1.200001 -0.995004 0.050724
v -1.200001 -0.923880 0.382684
v -1.200001 -0.707107 0.707107
v -1.200001 -0.510620 0.855496
v -1.200001 -0.382683 0.923880
v -1.200001 -0.333909 0.938675
v -1.200001 -0.195090 0.980785
v -1.200001 -0.144367 0.985781
v -1.200001 -0.212227 0.975587
v -1.200001 -0.000001 -1.000000
v -1.200001 -0.243865 -0.965990
v -1.200001 -0.000000 1.000000
v -1.200001 -0.831470 -0.555570
v -1.200001 -0.050724 -0.995004
v -1.200001 -0.876333 -0.471636
v -1.200001 -0.855497 -0.510619
v -1.200001 -0.550518 0.090559
v -1.200001 0.195090 0.980785
v -1.200001 0.187180 0.981564
v -1.200001 0.050723 0.995004
vn -1.0000 -0.0000 0.0000
vn -0.9952 0.0980 0.0000
vn -0.9569 0.2903 0.0000
vn -0.8819 0.4714 0.0000
vn -0.7730 0.6344 0.0000
vn -0.6344 0.7730 0.0000
vn -0.4714 0.8819 0.0000
vn -0.2903 0.9569 0.0000
vn -0.0980 0.9952 0.0000
vn 0.0980 0.9952 0.0000
vn 0.2903 0.9569 0.0000
vn 0.4714 0.8819 0.0000
vn 0.6344 0.7730 0.0000
vn 0.7730 0.6344 0.0000
vn 0.8819 0.4714 0.0000
vn 0.9569 0.2903 0.0000
vn 0.9952 0.0980 -0.0000
vn 1.0000 -0.0000 0.0000
vn 1.0000 0.0089 -0.0001
vn 0.9999 -0.0005 -0.0130
vn 0.0000 0.0000 1.0000
usemtl (null).003
s off
f 25//1 61//1 48//1
f 61//1 40//1 48//1
f 24//2 29//2 48//2 40//2
f 24//3 45//3 58//3 29//3
f 45//4 60//4 49//4 58//4
f 39//5 41//5 49//5 60//5
f 38//6 42//6 41//6 39//6
f 38//7 47//7 59//7 42//7
f 46//7 50//7 59//7 47//7
f 34//8 50//8 46//8 57//8
f 26//9 34//9 57//9 28//9
f 26//10 28//10 33//10 51//10
f 37//11 35//11 51//11 33//11
f 32//12 36//12 35//12 37//12
f 31//12 53//12 36//12 32//12
f 31//13 56//13 52//13 53//13
f 43//14 52//14 56//14 55//14
f 43//15 55//15 54//15 44//15
f 27//16 63//16 44//16 54//16
f 27//17 62//17 63//17
f 21//18 11//18 4//18
f 64//19 66//19 67//19
f 67//20 66//20 65//20
f 67//18 21//18 64//18
f 18//18 21//18 17//18
f 17//18 21//18 3//18
f 23//21 21//21 22//21
f 3//18 21//18 23//18
f 2//18 21//18 1//18
f 1//18 21//18 19//18
f 19//18 21//18 18//18
f 21//18 4//18 64//18
f 10//18 21//18 2//18
f 8//18 21//18 9//18
f 9//18 21//18 10//18
f 7//18 21//18 16//18
f 16//18 21//18 8//18
f 5//18 21//18 6//18
f 6//18 21//18 7//18
f 20//18 21//18 15//18
f 15//18 21//18 5//18
f 13//18 21//18 14//18
f 14//18 21//18 20//18
f 11//18 21//18 12//18
f 12//18 21//18 13//18
f 72//18 74//18 73//18
f 82//1 86//1 89//1
f 75//1 89//1 74//1
f 75//1 76//1 89//1
f 90//1 89//1 91//1
f 91//1 89//1 92//1
f 89//1 83//1 69//1
f 89//1 69//1 70//1
f 70//1 85//1 89//1
f 71//1 72//1 89//1
f 71//1 89//1 87//1
f 72//1 73//1 89//1
f 72//18 89//18 74//18
f 73//1 74//1 89//1
f 76//1 77//1 89//1
f 77//1 78//1 89//1
f 78//1 81//1 89//1
f 79//1 80//1 89//1
f 79//1 89//1 81//1
f 80//1 84//1 89//1
f 85//1 88//1 89//1
f 88//1 87//1 89//1
f 83//1 89//1 86//1
f 84//1 92//1 89//1
f 82//1 89//1 90//1
l 30 63
l 30 44
l 65 68
o Cylinder_Cylinder.002_Cylinder_Cylinder.003
v -2.500000 0.000000 -1.000000
v -2.500000 -0.195091 -0.980785
v -2.500000 0.000000 0.000000
v -2.500000 -0.382684 -0.923880
v -2.500000 -0.555570 -0.831470
v -2.500000 -0.707107 -0.707107
v -2.500000 -0.831470 -0.555570
v -2.500000 -0.923880 -0.382683
v -2.500000 -0.980785 -0.195090
v -2.500000 -1.000000 -0.000000
v -2.500000 -0.980785 0.195090
v -2.500000 -0.923880 0.382683
v -2.500000 -0.831470 0.555570
v -2.500000 -0.707107 0.707107
v -2.500000 -0.555570 0.831470
v -2.500000 -0.382683 0.923880
v -2.500000 -0.195090 0.980785
v -2.500000 -0.000000 1.000000
v -0.923880 5.500000 0.382683
v -1.000000 5.500000 -0.000000
v -0.923879 5.500000 -0.382684
vn -1.0000 0.0000 0.0000
vn -0.9609 0.2717 0.0529
vn -0.9609 0.2717 -0.0529
usemtl (null).003
s off
f 93//22 94//22 95//22
f 95//22 94//22 96//22
f 95//22 96//22 97//22
f 95//22 97//22 98//22
f 95//22 98//22 99//22
f 95//22 99//22 100//22
f 95//22 100//22 101//22
f 95//22 101//22 102//22
f 95//22 102//22 103//22
f 95//22 103//22 104//22
f 95//22 104//22 105//22
f 95//22 105//22 106//22
f 95//22 106//22 107//22
f 95//22 107//22 108//22
f 95//22 108//22 109//22
f 95//22 109//22 110//22
f 110//23 111//23 112//23 95//23
f 95//24 112//24 113//24 93//24
o Cylinder_Cylinder.001_Cylinder_Cylinder.002
v 2.500000 0.000000 0.000000
v 2.500000 -0.195092 -0.980785
v 2.500000 -0.000001 -1.000000
v 2.500000 -0.382685 -0.923879
v 2.500000 -0.555572 -0.831469
v 2.500000 -0.707108 -0.707105
v 2.500000 -0.831471 -0.555569
v 2.500000 -0.923880 -0.382681
v 2.500000 -0.980786 -0.195088
v 2.500000 -1.000000 0.000002
v 2.500000 -0.980785 0.195092
v 2.500000 -0.923879 0.382685
v 2.500000 -0.831469 0.555571
v 2.500000 -0.707106 0.707107
v 2.500000 -0.555570 0.831470
v 2.500000 -0.382683 0.923880
v 2.500000 -0.195091 0.980785
v 2.500000 -0.000001 1.000000
v 0.923880 5.500000 -0.382683
v 1.000000 5.500000 0.000001
v 0.923880 5.500000 0.382684
vn 1.0000 0.0000 0.0000
vn 0.9609 0.2717 0.0529
vn 0.9609 0.2717 -0.0529
usemtl (null).003
s off
f 114//25 115//25 116//25
f 114//25 117//25 115//25
f 114//25 118//25 117//25
f 114//25 119//25 118//25
f 114//25 120//25 119//25
f 114//25 121//25 120//25
f 114//25 122//25 121//25
f 114//25 123//25 122//25
f 114//25 124//25 123//25
f 114//25 125//25 124//25
f 114//25 126//25 125//25
f 114//25 127//25 126//25
f 114//25 128//25 127//25
f 114//25 129//25 128//25
f 114//25 130//25 129//25
f 114//25 131//25 130//25
f 114//26 133//26 134//26 131//26
f 116//27 132//27 133//27 114//27
o Cylinder_Cylinder.000
v -2.500000 0.000000 -1.000000
v -2.500000 -0.195091 -0.980785
v 2.500000 -0.195092 -0.980785
v 2.500000 -0.000001 -1.000000
v -2.500000 -0.382684 -0.923880
v 2.500000 -0.382685 -0.923879
v -2.500000 -0.555570 -0.831470
v 2.500000 -0.555572 -0.831469
v -2.500000 -0.707107 -0.707107
v 2.500000 -0.707108 -0.707105
v -2.500000 -0.831470 -0.555570
v 2.500000 -0.831471 -0.555569
v -2.500000 -0.923880 -0.382683
v 2.500000 -0.923880 -0.382681
v -2.500000 -0.980785 -0.195090
v 2.500000 -0.980786 -0.195088
v -2.500000 -1.000000 -0.000000
v 2.500000 -1.000000 0.000002
v -2.500000 -0.980785 0.195090
v 2.500000 -0.980785 0.195092
v -2.500000 -0.923880 0.382683
v 2.500000 -0.923879 0.382685
v -2.500000 -0.831470 0.555570
v 2.500000 -0.831469 0.555571
v -2.500000 -0.707107 0.707107
v 2.500000 -0.707106 0.707107
v -2.500000 -0.555570 0.831470
v 2.500000 -0.555570 0.831470
v -2.500000 -0.382683 0.923880
v 2.500000 -0.382683 0.923880
v -2.500000 -0.195090 0.980785
v 2.500000 -0.195091 0.980785
v -2.500000 -0.000000 1.000000
v 2.500000 -0.000001 1.000000
v 0.000000 5.500000 1.000001
v -0.010805 5.500000 0.005776
v 0.382683 5.500000 0.923880
v -0.382684 5.500000 0.923880
v 0.000000 5.499999 -0.999999
v 0.382683 5.500000 -0.923879
v -0.387426 5.500000 -0.917813
v 0.707107 5.500000 -0.707106
v 0.923880 5.500000 -0.382683
v 1.000000 5.500000 0.000001
v 0.923880 5.500000 0.382684
v 0.707107 5.500000 0.707108
v -0.707107 5.500000 0.707107
v -0.923880 5.500000 0.382683
v -1.000000 5.500000 -0.000000
v -0.923879 5.500000 -0.382684
v -0.707106 5.500000 -0.707107
v -1.666667 -0.000000 1.000000
v -1.176945 2.579226 0.862647
v -1.200001 -0.365547 -0.929078
v -1.200001 -0.382684 -0.923879
v -1.200001 -0.555571 -0.831469
v -1.200001 -0.594970 -0.799135
v -1.200001 -0.693264 -0.718467
v -1.200001 -0.707107 -0.707106
v -1.200001 -0.923880 -0.382683
v -1.200001 -0.938675 -0.333909
v -1.200001 -0.975587 -0.212227
v -1.200001 -0.980785 -0.195090
v -1.200001 -1.000000 0.000001
v -1.200001 -0.995004 0.050724
v -1.200001 -0.982541 0.177269
v -1.200001 -0.980785 0.195091
v -1.200001 -0.923880 0.382684
v -1.200001 -0.899853 0.427634
v -1.200001 -0.839911 0.539777
v -1.200001 -0.831470 0.555570
v -1.200001 -0.707107 0.707107
v -1.200001 -0.667707 0.739441
v -1.200001 -0.510620 0.855496
v 1.199999 -0.382683 0.923880
v 1.199999 -0.427634 0.899853
v -1.200001 -0.555570 0.831470
v -1.200001 -0.569413 0.820109
v -1.200001 -0.382683 0.923880
v -1.200001 -0.333909 0.938675
v 1.199999 -0.000000 1.000000
v 1.199999 -0.050724 0.995004
v -1.200001 -0.195090 0.980785
v -1.200001 -0.144367 0.985781
v -1.200001 -0.212227 0.975587
v -1.666667 0.000000 -1.000000
v -1.200001 -0.000001 -1.000000
v 0.000000 3.545123 -0.999999
v -0.000002 3.545123 -0.999999
v 1.199999 -0.017823 -0.998245
v 1.199999 -0.000001 -1.000000
v 1.199999 -0.195092 -0.980785
v 1.199999 -0.144368 -0.985781
v 1.666667 -0.000001 1.000000
v 1.176941 2.579228 0.889201
v 0.000000 3.545121 1.000001
v 0.000000 3.545122 1.000001
v -1.200002 2.009983 0.892962
v -1.200002 1.913999 0.898073
v -1.200002 1.808921 0.903669
v -1.176944 2.579232 -0.888838
v -1.200001 -0.195091 -0.980785
v -1.200001 -0.243865 -0.965990
v 1.199998 2.345119 0.913552
v 1.666667 -0.000001 -1.000000
v -1.200002 1.740566 0.907309
v -1.200002 1.556527 0.917110
v -1.200002 1.273851 0.932163
v 1.176940 2.579231 -0.862647
v -1.200001 -0.000000 1.000000
v -1.200002 0.832186 0.955683
v -1.200001 -0.831470 -0.555570
v 0.666684 3.342884 0.953735
v 0.554517 3.402838 0.952905
v 0.234108 3.522064 1.000001
v -0.234110 3.522066 -0.999999
v 0.459218 3.453778 -0.952199
v 0.554517 3.402840 -0.952904
v 1.199999 -0.980785 -0.195089
v 1.199999 -1.000000 0.000002
v 1.199999 -0.980785 0.195092
v 1.199999 -0.831469 0.555571
v 1.199999 -0.707106 0.707107
v 1.199999 -0.555570 0.831470
v 0.459220 3.453776 0.970326
v -0.666692 3.342882 0.882065
v -0.848534 3.193646 0.829928
v -1.200002 2.345118 0.875114
v -0.848530 3.193652 -0.952277
v -0.666686 3.342887 -0.950047
v 0.997761 3.011807 -0.839611
v 1.108653 2.804343 -0.850660
v -1.200001 -0.050724 -0.995004
v 1.199999 -0.382685 -0.923879
v -1.108660 2.804337 0.850659
v -0.459229 3.453774 0.952200
v -0.554517 3.402841 0.952905
v -1.200002 2.345124 -0.913028
v -0.997766 3.011808 -0.934158
v -0.459222 3.453779 -0.968351
v 0.234106 3.522065 -0.953433
v 0.848526 3.193651 -0.829927
v 0.666682 3.342887 -0.882069
v 1.108654 2.804340 0.896598
v 0.997763 3.011804 0.935460
v 0.848527 3.193648 0.955801
v -0.234118 3.522063 0.953432
v -1.108658 2.804344 -0.895973
v -0.557584 3.401203 -0.949175
v -0.997769 3.011801 0.839611
v 1.199999 -0.555571 -0.831469
v 1.199999 -0.707108 -0.707106
v 1.199999 -0.831470 -0.555569
v -1.200001 -0.876333 -0.471636
v 1.199999 -0.965990 -0.243863
v 1.199999 -0.965910 -0.244127
v 1.199999 -0.923879 0.382684
v 1.199999 -0.195091 0.980785
v 1.199999 -0.243865 0.965990
v 1.199999 -0.261002 0.960791
v 1.199999 -0.923880 -0.382682
v -1.200001 -0.855497 -0.510619
v 1.199999 -0.420788 0.198071
v 1.199999 0.012872 0.998732
v 1.199999 0.003562 0.999649
v 1.199998 2.345119 0.913552
v 1.199999 0.195090 0.980785
v 1.199999 0.192310 0.981059
vn 0.0000 1.0000 0.0000
vn 0.0000 0.0532 0.9986
vn 0.0000 -0.2903 -0.9569
vn 0.0000 -0.6344 -0.7730
vn 0.0000 -0.9569 -0.2903
vn -0.0000 -0.9952 0.0980
vn -0.0000 -0.8819 0.4714
vn 0.0000 -0.6344 0.7730
vn 0.0000 -0.4714 0.8819
vn 0.0000 -0.2903 0.9569
vn 0.0000 -0.0980 0.9952
vn 0.0000 0.0000 -1.0000
vn 0.0000 -0.0980 -0.9952
vn 0.5501 0.1398 0.8233
vn 1.0000 0.0000 0.0000
vn -0.5450 0.1391 -0.8268
vn 0.0000 0.0000 1.0000
vn -0.0000 0.0532 -0.9986
vn -0.0000 0.0138 0.9999
vn 0.0000 0.0138 -0.9999
vn 0.1355 0.0160 0.9907
vn -0.3278 0.0703 0.9421
vn 0.0000 0.0149 -0.9999
vn -0.0000 0.0371 -0.9993
vn -0.1813 0.0509 -0.9821
vn -0.1443 0.0171 -0.9894
vn 0.0098 0.0142 -0.9999
vn 0.3278 0.0703 -0.9421
vn -0.0098 0.0142 0.9999
vn 0.2920 0.1455 0.9453
vn -0.2920 0.1455 0.9453
vn -0.2920 0.1455 -0.9453
vn 0.2920 0.1455 -0.9453
vn -0.0000 -0.4714 -0.8819
vn -0.0000 -0.7730 -0.6344
vn 0.0000 -0.8819 -0.4714
vn -0.0000 -0.9952 -0.0980
vn -0.0000 -0.9569 0.2903
vn 0.0000 -0.7730 0.6344
vn -0.1951 -0.0000 0.9808
vn -0.5547 0.0569 0.8301
vn -0.2074 0.0314 -0.9777
vn 0.5547 0.0569 -0.8301
vn 0.1950 0.0295 0.9804
vn 0.4816 0.1231 0.8677
vn 0.1951 0.0000 -0.9808
vn 0.0000 0.0368 0.9993
usemtl (null).003
s off
f 169//28 171//28 170//28
f 169//28 170//28 172//28
f 173//28 170//28 174//28
f 173//28 175//28 170//28
f 174//28 170//28 176//28
f 176//28 170//28 177//28
f 177//28 170//28 178//28
f 178//28 170//28 179//28
f 179//28 170//28 180//28
f 180//28 170//28 171//28
f 172//28 170//28 181//28
f 181//28 170//28 182//28
f 182//28 170//28 183//28
f 183//28 170//28 184//28
f 184//28 170//28 185//28
f 185//28 170//28 175//28
f 186//29 187//29 181//29
f 139//30 188//30 189//30
f 141//31 190//31 191//31
f 143//31 192//31 193//31
f 147//32 194//32 195//32
f 149//32 196//32 197//32
f 151//33 198//33 199//33
f 153//33 200//33 201//33
f 155//34 202//34 203//34
f 157//34 204//34 205//34
f 159//35 206//35 207//35
f 164//36 209//36 210//36
f 161//36 211//36 208//36
f 161//35 212//35 211//35
f 163//37 213//37 214//37
f 168//38 215//38 216//38
f 165//38 217//38 218//38
f 165//37 219//37 217//37
f 220//39 221//39 135//39
f 222//39 223//39 173//39
f 138//40 224//40 225//40
f 137//40 226//40 227//40
f 180//41 229//41 228//41
f 215//39 168//39 228//39
f 169//42 231//42 230//42
f 186//29 233//29 232//29
f 186//29 234//29 233//29
f 220//43 185//43 235//43
f 136//30 236//30 237//30
f 229//41 238//41 228//41
f 239//44 138//44 225//44
f 186//29 241//29 240//29
f 186//29 242//29 241//29
f 239//45 243//45 176//45
f 186//44 167//44 244//44
f 242//29 186//29 245//29
f 171//46 248//46 247//46
f 169//44 230//44 249//44
f 250//39 173//39 223//39
f 251//47 174//47 252//47
f 259//48 169//48 249//48
f 260//49 181//49 261//49
f 262//29 186//29 232//29
f 175//50 264//50 263//50
f 265//45 176//45 266//45
f 136//40 267//40 236//40
f 181//29 187//29 269//29
f 172//46 271//46 270//46
f 187//29 186//29 262//29
f 272//43 220//43 235//43
f 220//51 272//51 221//51
f 175//52 263//52 273//52
f 274//53 173//53 250//53
f 275//54 174//54 251//54
f 276//45 176//45 265//45
f 176//55 276//55 277//55
f 180//41 279//41 278//41
f 171//46 247//46 280//46
f 281//56 172//56 270//56
f 185//43 282//43 235//43
f 264//50 175//50 283//50
f 229//41 180//41 278//41
f 186//29 240//29 234//29
f 266//45 176//45 243//45
f 261//29 181//29 284//29
f 284//29 181//29 269//29
f 186//29 244//29 245//29
f 168//57 179//57 180//57 228//57
f 186//58 181//58 182//58 167//58
f 135//59 184//59 185//59 220//59
f 239//60 176//60 177//60 138//60
f 135//40 221//40 267//40 136//40
f 268//61 140//61 142//61 285//61
f 286//62 144//62 146//62 287//62
f 147//63 145//63 288//63 194//63
f 150//32 253//32 289//32 290//32
f 253//64 150//64 152//64 254//64
f 255//65 154//65 156//65 291//65
f 256//66 158//66 160//66 257//66
f 258//36 162//36 164//36 210//36
f 163//36 161//36 208//36 213//36
f 166//37 292//37 293//37 294//37
f 292//38 166//38 168//38 216//38
f 167//38 165//38 218//38 244//38
f 169//67 172//67 281//67 231//67
f 172//68 181//68 260//68 271//68
f 175//43 273//43 282//43 185//43
f 175//69 173//69 274//69 283//69
f 176//70 277//70 252//70 174//70
f 138//40 137//40 227//40 224//40
f 139//30 136//30 237//30 188//30
f 285//31 142//31 144//31 286//31
f 143//31 141//31 191//31 192//31
f 287//63 146//63 148//63 295//63
f 145//63 246//63 296//63 288//63
f 295//32 148//32 150//32 290//32
f 149//32 147//32 195//32 196//32
f 254//33 152//33 154//33 255//33
f 153//33 151//33 199//33 200//33
f 291//34 156//34 158//34 256//34
f 157//34 155//34 203//34 204//34
f 257//35 160//35 162//35 258//35
f 161//35 159//35 207//35 212//35
f 209//37 164//37 166//37 294//37
f 165//37 163//37 214//37 219//37
f 259//71 248//71 171//71 169//71
f 268//30 226//30 137//30 140//30
f 139//61 189//61 190//61 141//61
f 143//62 193//62 246//62 145//62
f 149//64 197//64 198//64 151//64
f 153//65 201//65 202//65 155//65
f 157//66 205//66 206//66 159//66
f 279//72 180//72 171//72 280//72
f 222//73 173//73 174//73 275//73
f 239//45 225//45 243//45
f 298//42 299//42 297//42
f 215//74 228//74 300//74
l 301 302
