# Blender v2.79 (sub 0) OBJ File: ''
# www.blender.org
mtllib articulation2O.mtl
o Cylinder.001_Cylinder.002
v 0.749999 6.661619 0.000001
v 0.749999 6.661619 -0.999999
v 0.749999 5.256968 -0.980784
v 0.749999 3.906298 -0.923879
v 0.749999 2.661512 -0.831470
v 0.750000 1.570450 -0.777818
v 0.750000 0.675037 -0.718652
v 0.750000 0.009686 -0.629968
v 0.750000 0.009686 0.629967
v 0.750000 0.675037 0.718652
v 0.750000 1.570450 0.777817
v 0.749999 2.661513 0.831470
v 0.749999 3.906299 0.923880
v 0.749999 5.256970 0.980786
v 0.749999 6.661621 1.000001
v 0.749999 8.066272 0.980786
v 0.749999 9.416943 0.923881
v 0.749999 10.661728 0.831471
v 0.749999 11.752792 0.707108
v 0.749999 12.648203 0.555571
v 0.749999 13.313555 0.382684
v 0.749999 13.723274 0.195091
v 0.749999 13.861619 0.000000
v 0.749999 13.723272 -0.195090
v 0.749999 13.313549 -0.382683
v 0.749999 12.648195 -0.555570
v 0.749999 11.752781 -0.707106
v 0.749999 10.661716 -0.831469
v 0.749999 9.416930 -0.923879
v 0.749999 8.066258 -0.980785
v 0.749999 4.500000 0.000001
v 0.749999 4.500000 0.000002
v 0.749999 4.385820 0.103326
v 0.749999 4.385220 0.103528
v 0.750000 2.062764 -0.209150
v 0.750000 -0.400035 -0.321155
v 0.750000 1.939342 -0.190918
v 0.750000 1.500001 -0.000001
v 0.750000 -0.538381 -0.000001
v 0.750000 1.500000 0.000001
v 0.749999 4.385212 -0.103527
v 0.749999 4.385819 -0.103323
v 0.749999 4.247206 0.150005
v 0.750000 2.166647 -0.224496
v 0.749999 2.425978 -0.249447
v 0.749999 2.707367 -0.264811
v 0.750000 3.000003 -0.269999
v 0.750000 1.528823 -0.052674
v 0.749999 4.471179 0.052676
v 0.750000 1.752800 0.150006
v 0.750000 1.614184 0.103327
v 0.749999 4.060662 0.190920
v 0.749999 3.292640 0.264814
v 0.750000 3.000005 0.270001
v 0.750000 -0.400035 0.321154
v 0.750000 2.166650 0.224498
v 0.750000 2.062749 0.209150
v 0.749999 4.247205 -0.150002
v 0.749999 4.060661 -0.190917
v 0.750000 1.614182 -0.103324
v 0.750000 1.752797 -0.150003
v 0.750000 1.939345 0.190921
v 0.749999 3.833359 0.224498
v 0.749999 4.471178 -0.052673
v 0.749999 2.707370 0.264813
v 0.749999 2.425980 0.249449
v 0.749999 3.292638 -0.264810
v 0.750000 1.528824 0.052677
v 0.749999 3.574029 0.249449
v 0.749999 3.574027 -0.249446
v 0.749999 3.833357 -0.224495
vn 1.0000 0.0000 0.0000
vn 0.9448 -0.3277 0.0000
usemtl (null)
s off
f 1//1 3//1 2//1
f 1//1 4//1 3//1
f 1//1 5//1 4//1
f 1//1 6//1 5//1
f 1//1 7//1 6//1
f 1//1 8//1 7//1
f 1//1 10//1 9//1
f 1//1 11//1 10//1
f 1//1 12//1 11//1
f 1//1 13//1 12//1
f 1//1 14//1 13//1
f 1//1 15//1 14//1
f 1//1 16//1 15//1
f 1//1 17//1 16//1
f 1//1 18//1 17//1
f 1//1 19//1 18//1
f 1//1 20//1 19//1
f 1//1 21//1 20//1
f 1//1 22//1 21//1
f 1//1 23//1 22//1
f 1//1 24//1 23//1
f 1//1 25//1 24//1
f 1//1 26//1 25//1
f 1//1 27//1 26//1
f 1//1 28//1 27//1
f 1//1 29//1 28//1
f 1//1 30//1 29//1
f 2//1 30//1 1//1
f 1//1 32//1 31//1
f 1//1 34//1 33//1
f 35//1 37//1 36//1
f 38//1 40//1 39//1
f 1//1 42//1 41//1
f 43//1 34//1 1//1
f 44//1 8//1 45//1
f 46//1 8//1 47//1
f 49//1 32//1 1//1
f 50//1 39//1 51//1
f 52//1 43//1 1//1
f 9//1 54//1 53//1
f 55//1 57//1 56//1
f 8//1 46//1 45//1
f 58//1 59//1 1//1
f 48//1 36//1 60//1
f 36//1 37//1 61//1
f 1//1 33//1 49//1
f 55//1 62//1 57//1
f 1//1 63//1 52//1
f 1//1 41//1 58//1
f 1//1 31//1 64//1
f 36//1 61//1 60//1
f 65//1 55//1 66//1
f 47//1 8//1 67//1
f 51//1 39//1 68//1
f 69//1 9//1 53//1
f 55//1 56//1 66//1
f 8//1 70//1 67//1
f 68//1 39//1 40//1
f 1//1 64//1 42//1
f 1//1 59//1 71//1
f 55//1 39//1 50//1
f 1//1 9//1 69//1
f 65//1 54//1 9//1
f 1//1 71//1 70//1
f 35//1 36//1 8//1
f 38//1 39//1 36//1
f 55//1 50//1 62//1
f 1//1 69//1 63//1
f 65//1 9//1 55//1
f 1//1 70//1 8//1
f 48//2 40//2 38//2
f 35//1 8//1 44//1
f 38//1 36//1 48//1
o Cylinder.001_Cylinder.001
v 2.249999 6.661619 0.000001
v 2.249999 5.256957 -0.980784
v 2.249999 6.661607 -0.999999
v 2.250000 3.906286 -0.923878
v 2.250000 2.661501 -0.831469
v 2.250000 1.570440 -0.777816
v 2.250000 0.675029 -0.718650
v 2.250000 0.009680 -0.629965
v 2.250000 0.675042 0.718653
v 2.250000 0.009691 0.629969
v 2.250000 1.570454 0.777818
v 2.250000 2.661514 0.831470
v 2.250000 3.906297 0.923880
v 2.249999 5.256965 0.980786
v 2.249999 6.661612 1.000001
v 2.249999 8.066259 0.980786
v 2.249999 9.416928 0.923882
v 2.249999 10.661712 0.831472
v 2.249999 11.752775 0.707110
v 2.249999 12.648188 0.555574
v 2.249999 13.313543 0.382688
v 2.249999 13.723269 0.195095
v 2.249999 13.861619 0.000005
v 2.249999 13.723280 -0.195085
v 2.249999 13.313564 -0.382677
v 2.249999 12.648222 -0.555564
v 2.249999 11.752817 -0.707101
v 2.249999 10.661760 -0.831465
v 2.249999 9.416983 -0.923875
v 2.249999 8.066319 -0.980783
v 2.250000 -0.538381 0.000003
v 2.250000 1.500000 0.000000
v 2.250000 1.500001 0.000002
v 2.250000 4.500000 0.000002
v 2.250000 4.500000 0.000001
v 2.250000 4.471178 0.052675
v 2.250000 4.060661 0.190919
v 2.250000 4.247206 0.150005
v 2.250000 4.385213 0.103530
v 2.250000 -0.400039 -0.321152
v 2.250000 1.939341 -0.190919
v 2.250000 1.752797 -0.150004
v 2.250000 1.528822 -0.052675
v 2.250000 1.528823 0.052675
v 2.250000 1.614182 0.103325
v 2.250000 3.833357 0.224497
v 2.250000 3.292638 0.264813
v 2.250000 3.574027 0.249448
v 2.250000 -0.400033 0.321157
v 2.250000 2.062765 0.209151
v 2.250000 2.166647 0.224497
v 2.250000 3.000003 0.270000
v 2.250000 2.425978 0.249448
v 2.250000 2.707367 0.264812
v 2.250000 2.707366 -0.264812
v 2.250000 2.425976 -0.249448
v 2.250000 2.166646 -0.224497
v 2.250000 2.062746 -0.209149
v 2.250000 4.471178 -0.052674
v 2.250000 4.385819 -0.103324
v 2.250000 1.614182 -0.103325
v 2.250000 4.385819 0.103325
v 2.250000 1.939342 0.190919
v 2.250000 4.060660 -0.190918
v 2.250000 3.833356 -0.224496
v 2.250000 3.574026 -0.249447
v 2.250000 3.292637 -0.264811
v 2.250000 3.000002 -0.270000
v 2.250000 4.385220 -0.103526
v 2.250000 4.247205 -0.150003
v 2.250000 1.752798 0.150004
vn 1.0000 0.0000 0.0000
vn 0.4416 0.8972 0.0000
usemtl (null)
s off
f 72//3 73//3 74//3
f 72//3 75//3 73//3
f 72//3 76//3 75//3
f 72//3 77//3 76//3
f 72//3 78//3 77//3
f 72//3 79//3 78//3
f 72//3 80//3 81//3
f 72//3 82//3 80//3
f 72//3 83//3 82//3
f 72//3 84//3 83//3
f 72//3 85//3 84//3
f 72//3 86//3 85//3
f 72//3 87//3 86//3
f 72//3 88//3 87//3
f 72//3 89//3 88//3
f 72//3 90//3 89//3
f 72//3 91//3 90//3
f 72//3 92//3 91//3
f 72//3 93//3 92//3
f 72//3 94//3 93//3
f 72//3 95//3 94//3
f 72//3 96//3 95//3
f 72//3 97//3 96//3
f 72//3 98//3 97//3
f 72//3 99//3 98//3
f 72//3 100//3 99//3
f 72//3 101//3 100//3
f 72//3 74//3 101//3
f 102//3 103//3 104//3
f 72//3 105//3 106//3
f 72//3 107//3 105//3
f 72//3 108//3 109//3
f 109//3 110//3 72//3
f 111//3 112//3 113//3
f 114//3 103//3 102//3
f 102//3 115//3 116//3
f 117//3 108//3 72//3
f 118//3 119//3 81//3
f 120//3 121//3 122//3
f 123//3 118//3 81//3
f 120//3 124//3 125//3
f 126//3 127//3 79//3
f 111//3 128//3 129//3
f 72//3 130//3 131//3
f 113//3 132//3 111//3
f 72//3 133//3 107//3
f 104//3 115//3 102//3
f 120//3 122//3 124//3
f 135//3 136//3 72//3
f 137//3 138//3 79//3
f 139//3 126//3 79//3
f 72//3 140//3 141//3
f 129//3 112//3 111//3
f 72//3 106//3 130//3
f 116//3 142//3 102//3
f 142//3 134//3 102//3
f 72//3 110//3 133//3
f 141//3 135//3 72//3
f 138//3 139//3 79//3
f 131//3 140//3 72//3
f 72//3 119//3 117//3
f 103//4 115//4 104//4
f 128//3 79//3 127//3
f 114//3 111//3 132//3
f 134//3 120//3 102//3
f 137//3 72//3 136//3
f 125//3 81//3 120//3
f 72//3 81//3 119//3
f 106//3 105//3 107//3
f 128//3 111//3 79//3
f 114//3 102//3 111//3
f 134//3 121//3 120//3
f 137//3 79//3 72//3
f 125//3 123//3 81//3
o Cylinder.001_Cylinder
v 0.749999 6.661619 -0.999999
v 0.749999 5.256968 -0.980784
v 2.249999 5.256957 -0.980784
v 2.249999 6.661607 -0.999999
v 0.749999 3.906298 -0.923879
v 2.250000 3.906286 -0.923878
v 0.749999 2.661512 -0.831470
v 2.250000 2.661501 -0.831469
v 0.750000 1.570450 -0.777818
v 2.250000 1.570440 -0.777816
v 0.750000 0.675037 -0.718652
v 2.250000 0.675029 -0.718650
v 0.750000 0.009686 -0.629968
v 2.250000 0.009680 -0.629965
v 0.750000 0.009686 0.629967
v 0.750000 0.675037 0.718652
v 2.250000 0.675042 0.718653
v 2.250000 0.009691 0.629969
v 0.750000 1.570450 0.777817
v 2.250000 1.570454 0.777818
v 0.749999 2.661513 0.831470
v 2.250000 2.661514 0.831470
v 0.749999 3.906299 0.923880
v 2.250000 3.906297 0.923880
v 0.749999 5.256970 0.980786
v 2.249999 5.256965 0.980786
v 0.749999 6.661621 1.000001
v 2.249999 6.661612 1.000001
v 0.749999 8.066272 0.980786
v 2.249999 8.066259 0.980786
v 0.749999 9.416943 0.923881
v 2.249999 9.416928 0.923882
v 0.749999 10.661728 0.831471
v 2.249999 10.661712 0.831472
v 0.749999 11.752792 0.707108
v 2.249999 11.752775 0.707110
v 0.749999 12.648203 0.555571
v 2.249999 12.648188 0.555574
v 0.749999 13.313555 0.382684
v 2.249999 13.313543 0.382688
v 0.749999 13.723274 0.195091
v 2.249999 13.723269 0.195095
v 0.749999 13.861619 0.000000
v 2.249999 13.861619 0.000005
v 0.749999 13.723272 -0.195090
v 2.249999 13.723280 -0.195085
v 0.749999 13.313549 -0.382683
v 2.249999 13.313564 -0.382677
v 0.749999 12.648195 -0.555570
v 2.249999 12.648222 -0.555564
v 0.749999 11.752781 -0.707106
v 2.249999 11.752817 -0.707101
v 0.749999 10.661716 -0.831469
v 2.249999 10.661760 -0.831465
v 0.749999 9.416930 -0.923879
v 2.249999 9.416983 -0.923875
v 0.749999 8.066258 -0.980785
v 2.249999 8.066319 -0.980783
v 0.749999 4.500000 0.000001
v 0.749999 4.500000 0.000002
v 2.250000 -0.538381 0.000003
v 2.250000 1.500000 0.000000
v 0.749999 4.385820 0.103326
v 0.749999 4.385220 0.103528
v 0.750000 2.062764 -0.209150
v 0.750000 -0.400035 -0.321155
v 0.750000 1.939342 -0.190918
v 0.750000 -0.538381 -0.000001
v 0.750000 1.500000 0.000001
v 2.250000 4.500000 0.000002
v 2.250000 4.500000 0.000001
v 0.749999 4.385212 -0.103527
v 0.749999 4.385819 -0.103323
v 2.250000 4.471178 0.052675
v 0.749999 4.247206 0.150005
v 2.250000 4.060661 0.190919
v 2.250000 4.247206 0.150005
v 2.250000 4.385213 0.103530
v 0.750000 2.166647 -0.224496
v 0.749999 2.425978 -0.249447
v 0.749999 2.707367 -0.264811
v 0.750000 3.000003 -0.269999
v 2.250000 -0.400039 -0.321152
v 2.250000 1.939341 -0.190919
v 2.250000 1.752797 -0.150004
v 2.250000 1.528822 -0.052675
v 0.750000 1.528823 -0.052674
v 0.749999 4.471179 0.052676
v 0.750000 1.752800 0.150006
v 0.750000 1.614184 0.103327
v 2.250000 1.528823 0.052675
v 2.250000 1.614182 0.103325
v 0.749999 4.060662 0.190920
v 0.749999 3.292640 0.264814
v 0.750000 3.000005 0.270001
v 0.750000 -0.400035 0.321154
v 0.750000 2.166650 0.224498
v 0.750000 2.062749 0.209150
v 2.250000 3.833357 0.224497
v 2.250000 3.292638 0.264813
v 2.250000 3.574027 0.249448
v 2.250000 -0.400033 0.321157
v 2.250000 2.062765 0.209151
v 2.250000 2.166647 0.224497
v 2.250000 3.000003 0.270000
v 2.250000 2.425978 0.249448
v 2.250000 2.707367 0.264812
v 0.749999 4.247205 -0.150002
v 0.749999 4.060661 -0.190917
v 2.250000 2.707366 -0.264812
v 2.250000 2.425976 -0.249448
v 2.250000 2.166646 -0.224497
v 2.250000 2.062746 -0.209149
v 2.250000 4.471178 -0.052674
v 2.250000 4.385819 -0.103324
v 0.750000 1.614182 -0.103324
v 0.750000 1.752797 -0.150003
v 2.250000 1.614182 -0.103325
v 2.250000 4.385819 0.103325
v 0.750000 1.939345 0.190921
v 2.250000 1.939342 0.190919
v 0.749999 3.833359 0.224498
v 0.749999 4.471178 -0.052673
v 2.250000 4.060660 -0.190918
v 2.250000 3.833356 -0.224496
v 2.250000 3.574026 -0.249447
v 2.250000 3.292637 -0.264811
v 2.250000 3.000002 -0.270000
v 2.250000 4.385220 -0.103526
v 2.250000 4.247205 -0.150003
v 2.250000 1.752798 0.150004
v 0.749999 2.707370 0.264813
v 0.749999 2.425980 0.249449
v 0.749999 3.292638 -0.264810
v 0.750000 1.528824 0.052677
v 0.749999 3.574029 0.249449
v 0.749999 3.574027 -0.249446
v 0.749999 3.833357 -0.224495
vn 0.0000 0.8773 0.4800
vn -0.0000 -0.8773 -0.4800
vn -0.0000 0.1461 -0.9893
vn 0.0000 -1.0000 0.0000
vn -0.0000 0.8773 -0.4800
vn -0.0000 -0.0137 -0.9999
vn -0.0000 -0.0421 -0.9991
vn 0.0000 -0.0740 -0.9973
vn 0.0000 -0.0491 -0.9988
vn 0.0000 -0.0659 -0.9978
vn 0.0000 -0.1321 -0.9912
vn -0.0000 -0.6019 -0.7986
vn -0.0000 -0.9184 -0.3956
vn -0.0000 -0.9184 0.3956
vn -0.0000 -0.6019 0.7986
vn -0.0000 -0.1321 0.9912
vn -0.0000 -0.0659 0.9978
vn -0.0000 -0.0491 0.9988
vn -0.0000 -0.0740 0.9973
vn -0.0000 -0.0421 0.9991
vn -0.0000 -0.0137 0.9999
vn 0.0000 0.0137 0.9999
vn -0.0000 0.0421 0.9991
vn 0.0000 0.0740 0.9973
vn -0.0000 0.1132 0.9936
vn -0.0000 0.1669 0.9860
vn -0.0000 0.2515 0.9679
vn -0.0000 0.4163 0.9092
vn -0.0000 0.8157 0.5785
vn -0.0000 0.8157 -0.5785
vn -0.0000 0.4163 -0.9092
vn -0.0000 0.2515 -0.9679
vn -0.0000 0.1669 -0.9860
vn -0.0000 0.1133 -0.9936
vn 0.0000 0.0740 -0.9973
vn -0.0000 0.0421 -0.9991
vn 0.0000 0.0137 -0.9999
vn -0.0000 -0.3202 -0.9474
vn 0.0000 0.0958 0.9954
vn 0.0000 0.5103 0.8600
vn -0.0000 -0.2142 -0.9768
vn -0.0000 -0.0958 -0.9954
vn -0.0000 -0.3191 -0.9477
vn 0.0000 0.2142 0.9768
vn -0.0000 0.5103 -0.8600
vn -0.0000 -0.0177 -0.9998
vn -0.0000 -0.1461 -0.9893
vn -0.0000 0.0545 -0.9985
vn 0.0000 0.0545 0.9985
vn 0.0000 -0.2142 0.9768
vn 0.0000 -0.0958 0.9954
vn 0.0000 0.1461 0.9893
vn 0.0000 -0.5103 0.8600
vn 0.0000 0.3191 0.9477
vn -0.0000 -0.5103 -0.8600
vn -0.0000 -0.0545 -0.9985
vn -0.0000 0.0177 -0.9998
vn -0.0000 0.0958 -0.9954
vn 0.0000 -0.8773 0.4800
vn 0.0000 -0.0545 0.9985
vn 0.0000 0.0177 0.9998
vn 0.0000 -0.3191 0.9477
vn -0.0000 0.3191 -0.9477
vn -0.0000 0.2142 -0.9768
vn 0.0000 -0.0177 0.9998
vn 0.0000 -0.3196 0.9476
vn 0.0000 -0.1461 0.9893
vn 0.0000 0.8157 -0.5784
vn -0.0000 -0.3196 -0.9476
vn 1.0000 0.0000 0.0000
vn 0.0000 -0.3185 0.9479
usemtl (null)
s off
f 229//5 204//5 228//5
f 216//6 230//6 202//6
f 246//7 245//7 239//7
f 262//7 240//7 263//7
f 201//8 213//8 202//8
f 233//9 211//9 277//9
f 146//10 144//10 143//10
f 145//11 147//11 144//11
f 148//12 149//12 147//12
f 150//13 151//13 149//13
f 152//14 153//14 151//14
f 154//15 155//15 153//15
f 156//16 208//16 155//16
f 225//17 210//17 208//17
f 203//18 238//18 210//18
f 244//19 157//19 238//19
f 160//20 158//20 157//20
f 159//21 161//21 158//21
f 162//22 163//22 161//22
f 163//23 166//23 165//23
f 165//24 168//24 167//24
f 167//25 170//25 169//25
f 169//26 172//26 171//26
f 171//27 174//27 173//27
f 173//28 176//28 175//28
f 175//29 178//29 177//29
f 177//30 180//30 179//30
f 179//31 182//31 181//31
f 181//32 184//32 183//32
f 183//33 186//33 185//33
f 185//34 188//34 187//34
f 187//35 190//35 189//35
f 189//36 192//36 191//36
f 191//37 194//37 193//37
f 193//38 196//38 195//38
f 195//39 198//39 197//39
f 197//40 200//40 199//40
f 146//41 199//41 200//41
f 220//42 205//42 261//42
f 229//5 211//5 204//5
f 213//6 216//6 202//6
f 253//43 221//43 254//43
f 258//44 228//44 260//44
f 235//45 219//45 218//45
f 278//46 241//46 243//46
f 220//47 217//47 206//47
f 226//48 259//48 227//48
f 277//49 234//49 233//49
f 237//50 242//50 247//50
f 245//7 240//7 239//7
f 264//51 218//51 241//51
f 275//52 249//52 248//52
f 222//53 252//53 223//53
f 272//54 251//54 266//54
f 267//55 279//55 268//55
f 254//56 207//56 255//56
f 256//57 215//57 257//57
f 258//58 227//58 259//58
f 230//59 261//59 205//59
f 236//60 243//60 242//60
f 247//61 274//61 237//61
f 248//62 239//62 275//62
f 265//63 213//63 201//63
f 276//64 268//64 279//64
f 252//65 224//65 223//65
f 272//66 214//66 250//66
f 255//56 209//56 226//56
f 273//67 232//67 231//67
f 263//68 231//68 262//68
f 269//69 224//69 270//69
f 257//70 214//70 271//70
f 266//71 280//71 267//71
f 146//10 145//10 144//10
f 145//11 148//11 147//11
f 148//12 150//12 149//12
f 150//13 152//13 151//13
f 152//14 154//14 153//14
f 154//15 156//15 155//15
f 156//16 225//16 208//16
f 225//17 203//17 210//17
f 203//18 244//18 238//18
f 244//19 160//19 157//19
f 160//20 159//20 158//20
f 159//21 162//21 161//21
f 162//22 164//22 163//22
f 163//23 164//23 166//23
f 165//24 166//24 168//24
f 167//25 168//25 170//25
f 169//26 170//26 172//26
f 171//27 172//27 174//27
f 173//28 174//28 176//28
f 175//29 176//29 178//29
f 177//30 178//30 180//30
f 179//31 180//31 182//31
f 181//32 182//32 184//32
f 183//33 184//33 186//33
f 185//72 186//72 188//72
f 187//35 188//35 190//35
f 189//36 190//36 192//36
f 191//37 192//37 194//37
f 193//38 194//38 196//38
f 195//39 196//39 198//39
f 197//40 198//40 200//40
f 146//41 143//41 199//41
f 220//73 206//73 205//73
f 204//9 211//9 233//9
f 213//74 212//74 216//74
f 253//43 222//43 221//43
f 258//44 229//44 228//44
f 235//45 217//45 219//45
f 278//46 264//46 241//46
f 220//47 219//47 217//47
f 226//48 209//48 259//48
f 277//49 232//49 234//49
f 237//50 236//50 242//50
f 245//7 263//7 240//7
f 264//51 235//51 218//51
f 275//52 274//52 249//52
f 222//53 253//53 252//53
f 272//54 250//54 251//54
f 267//55 280//55 279//55
f 254//56 221//56 207//56
f 256//57 265//57 215//57
f 258//58 260//58 227//58
f 230//59 216//59 261//59
f 236//60 278//60 243//60
f 247//61 249//61 274//61
f 248//62 246//62 239//62
f 265//63 256//63 213//63
f 276//64 269//64 268//64
f 252//65 270//65 224//65
f 272//66 271//66 214//66
f 255//56 207//56 209//56
f 273//67 234//67 232//67
f 263//68 273//68 231//68
f 269//69 276//69 224//69
f 257//75 215//75 214//75
f 266//71 251//71 280//71
