# Blender v2.74 (sub 0) OBJ File: ''
# www.blender.org
mtllib axeX2.mtl
o Plane.001_Plane.002
v 0.001294 12.179274 -0.046364
v -0.354583 12.633939 -0.038428
v -0.354583 12.632225 0.060529
v 0.001294 12.177547 0.052593
v 0.369720 12.633847 -0.038430
v 0.369720 12.632120 0.060527
v 0.586386 12.633847 -0.038430
v 0.586386 12.632107 0.060527
v 0.098495 12.000861 -0.049479
v 0.098495 11.999139 0.049479
v -0.098495 11.999139 0.049479
v -0.098495 12.000866 -0.049478
v -0.571261 12.633939 -0.038428
v -0.571261 12.632211 0.060529
v 0.001294 11.820726 0.046364
v -0.354583 11.367294 0.038428
v -0.354583 11.366684 -0.060529
v 0.001294 11.822453 -0.052593
v 0.369720 11.367262 0.038430
v 0.369720 11.366647 -0.060527
v 0.586386 11.367262 0.038430
v 0.586386 11.366642 -0.060527
v -0.571261 11.367294 0.038428
v -0.571261 11.366679 -0.060529
vn 0.787500 0.616200 0.010700
vn 0.776900 -0.629500 -0.011000
vn -0.000000 -0.999800 -0.017500
vn -0.792100 0.610300 0.010700
vn -0.000000 0.999800 0.017400
vn 0.000000 0.017500 -0.999800
vn 0.000000 -0.017500 0.999800
vn 0.787400 -0.616400 -0.003500
vn 0.776900 0.629600 0.003500
vn 0.000000 1.000000 -0.006200
vn 0.000000 -1.000000 0.006200
vn -0.000000 -0.017400 0.999800
vn -0.000000 0.017400 -0.999800
vn 0.801300 0.598200 0.010400
vn 0.801200 -0.598300 -0.003400
vn -0.792100 -0.610400 -0.003400
usemtl (null)
s off
f 1//1 2//1 3//1 4//1
f 1//2 5//2 6//2 4//2
f 5//3 7//3 8//3 6//3
f 7//4 9//4 10//4 8//4
f 2//5 13//5 14//5 3//5
f 4//6 6//6 8//6 10//6
f 7//7 5//7 1//7 9//7
f 15//8 16//8 17//8 18//8
f 15//9 19//9 20//9 18//9
f 19//10 21//10 22//10 20//10
f 16//11 23//11 24//11 17//11
f 18//12 20//12 22//12 9//12
f 13//6 2//6 1//6 12//6
f 1//7 12//7 9//7
f 18//13 17//13 24//13 12//13
f 18//6 12//6 9//6
f 4//7 3//7 14//7 11//7
f 4//7 11//7 10//7
f 23//7 16//7 15//7 11//7
f 12//14 13//14 14//14 11//14
f 11//15 23//15 24//15 12//15
f 21//6 19//6 15//6 10//6
f 21//16 10//16 9//16 22//16
f 15//6 11//6 10//6
o Cylinder
v 0.000000 -0.022000 -0.000001
v 0.000000 -0.022000 -0.200001
v 0.039018 -0.022000 -0.196158
v 0.000000 9.722001 0.000001
v 0.039018 9.722001 -0.196156
v 0.000000 9.722001 -0.199999
v 0.076537 -0.022000 -0.184776
v 0.076537 9.722001 -0.184775
v 0.111114 -0.022000 -0.166294
v 0.111114 9.722001 -0.166293
v 0.141421 -0.022000 -0.141422
v 0.141422 9.722001 -0.141420
v 0.166294 -0.022000 -0.111115
v 0.166294 9.722001 -0.111113
v 0.184776 -0.022000 -0.076537
v 0.184776 9.722001 -0.076535
v 0.196157 -0.022000 -0.039019
v 0.196157 9.722001 -0.039017
v 0.200000 -0.022000 -0.000001
v 0.200000 9.722001 0.000001
v 0.196157 -0.022000 0.039017
v 0.196157 9.722001 0.039019
v 0.184776 -0.022000 0.076536
v 0.184776 9.722001 0.076538
v 0.166294 -0.022000 0.111113
v 0.166294 9.722001 0.111115
v 0.141421 -0.022000 0.141421
v 0.141421 9.722001 0.141422
v 0.111114 -0.022000 0.166293
v 0.111114 9.722001 0.166295
v 0.076537 -0.022000 0.184775
v 0.076537 9.722001 0.184777
v 0.039018 -0.022000 0.196157
v 0.039018 9.722001 0.196158
v 0.000000 -0.022000 0.199999
v 0.000000 9.722001 0.200001
v -0.039018 -0.022000 0.196156
v -0.039018 9.722001 0.196158
v -0.076537 -0.022000 0.184775
v -0.076536 9.722001 0.184777
v -0.111114 -0.022000 0.166293
v -0.111114 9.722001 0.166295
v -0.141421 -0.022000 0.141421
v -0.141421 9.722001 0.141423
v -0.166294 -0.022000 0.111113
v -0.166294 9.722001 0.111116
v -0.184776 -0.022000 0.076536
v -0.184776 9.722001 0.076538
v -0.196157 -0.022000 0.039017
v -0.196157 9.722001 0.039020
v -0.200000 -0.022000 -0.000001
v -0.200000 9.722001 0.000002
v -0.196157 -0.022000 -0.039019
v -0.196157 9.722001 -0.039016
v -0.184776 -0.022000 -0.076537
v -0.184776 9.722001 -0.076535
v -0.166294 -0.022000 -0.111115
v -0.166295 9.722001 -0.111112
v -0.141421 -0.022000 -0.141422
v -0.141422 9.722001 -0.141420
v -0.111114 -0.022000 -0.166295
v -0.111115 9.722001 -0.166292
v -0.076536 -0.022000 -0.184777
v -0.076538 9.722001 -0.184774
v -0.039018 -0.022000 -0.196158
v -0.039019 9.722001 -0.196156
vn 0.000000 -1.000000 -0.000000
vn 0.000000 1.000000 0.000000
vn 0.098000 0.000000 -0.995200
vn 0.290300 0.000000 -0.956900
vn 0.471400 0.000000 -0.881900
vn 0.634400 0.000000 -0.773000
vn 0.773000 0.000000 -0.634400
vn 0.881900 0.000000 -0.471400
vn 0.956900 0.000000 -0.290300
vn 0.995200 0.000000 -0.098000
vn 0.995200 -0.000000 0.098000
vn 0.956900 -0.000000 0.290300
vn 0.881900 -0.000000 0.471400
vn 0.773000 -0.000000 0.634400
vn 0.634400 -0.000000 0.773000
vn 0.471400 -0.000000 0.881900
vn 0.290300 -0.000000 0.956900
vn 0.098000 -0.000000 0.995200
vn -0.098000 -0.000000 0.995200
vn -0.290300 -0.000000 0.956900
vn -0.471400 -0.000000 0.881900
vn -0.634400 -0.000000 0.773000
vn -0.773000 -0.000000 0.634400
vn -0.881900 -0.000000 0.471400
vn -0.956900 -0.000000 0.290300
vn -0.995200 -0.000000 0.098000
vn -0.995200 0.000000 -0.098000
vn -0.956900 0.000000 -0.290300
vn -0.881900 0.000000 -0.471400
vn -0.773000 0.000000 -0.634400
vn -0.634400 0.000000 -0.773000
vn -0.471400 0.000000 -0.881900
vn -0.290300 0.000000 -0.956900
vn -0.098000 0.000000 -0.995200
usemtl (null)
s off
f 25//17 26//17 27//17
f 28//18 29//18 30//18
f 25//17 27//17 31//17
f 28//18 32//18 29//18
f 25//17 31//17 33//17
f 28//18 34//18 32//18
f 25//17 33//17 35//17
f 28//18 36//18 34//18
f 25//17 35//17 37//17
f 28//18 38//18 36//18
f 25//17 37//17 39//17
f 28//18 40//18 38//18
f 25//17 39//17 41//17
f 28//18 42//18 40//18
f 25//17 41//17 43//17
f 28//18 44//18 42//18
f 25//17 43//17 45//17
f 28//18 46//18 44//18
f 25//17 45//17 47//17
f 28//18 48//18 46//18
f 25//17 47//17 49//17
f 28//18 50//18 48//18
f 25//17 49//17 51//17
f 28//18 52//18 50//18
f 25//17 51//17 53//17
f 28//18 54//18 52//18
f 25//17 53//17 55//17
f 28//18 56//18 54//18
f 25//17 55//17 57//17
f 28//18 58//18 56//18
f 25//17 57//17 59//17
f 28//18 60//18 58//18
f 25//17 59//17 61//17
f 28//18 62//18 60//18
f 25//17 61//17 63//17
f 28//18 64//18 62//18
f 25//17 63//17 65//17
f 28//18 66//18 64//18
f 25//17 65//17 67//17
f 28//18 68//18 66//18
f 25//17 67//17 69//17
f 28//18 70//18 68//18
f 25//17 69//17 71//17
f 28//18 72//18 70//18
f 25//17 71//17 73//17
f 28//18 74//18 72//18
f 25//17 73//17 75//17
f 28//18 76//18 74//18
f 25//17 75//17 77//17
f 28//18 78//18 76//18
f 25//17 77//17 79//17
f 28//18 80//18 78//18
f 25//17 79//17 81//17
f 28//18 82//18 80//18
f 25//17 81//17 83//17
f 28//18 84//18 82//18
f 25//17 83//17 85//17
f 28//18 86//18 84//18
f 25//17 85//17 87//17
f 28//18 88//18 86//18
f 25//17 87//17 89//17
f 28//18 90//18 88//18
f 89//17 26//17 25//17
f 28//18 30//18 90//18
f 26//19 30//19 29//19 27//19
f 27//20 29//20 32//20 31//20
f 31//21 32//21 34//21 33//21
f 33//22 34//22 36//22 35//22
f 35//23 36//23 38//23 37//23
f 37//24 38//24 40//24 39//24
f 39//25 40//25 42//25 41//25
f 41//26 42//26 44//26 43//26
f 43//27 44//27 46//27 45//27
f 45//28 46//28 48//28 47//28
f 47//29 48//29 50//29 49//29
f 49//30 50//30 52//30 51//30
f 51//31 52//31 54//31 53//31
f 53//32 54//32 56//32 55//32
f 55//33 56//33 58//33 57//33
f 57//34 58//34 60//34 59//34
f 59//35 60//35 62//35 61//35
f 61//36 62//36 64//36 63//36
f 63//37 64//37 66//37 65//37
f 65//38 66//38 68//38 67//38
f 67//39 68//39 70//39 69//39
f 69//40 70//40 72//40 71//40
f 71//41 72//41 74//41 73//41
f 73//42 74//42 76//42 75//42
f 75//43 76//43 78//43 77//43
f 77//44 78//44 80//44 79//44
f 79//45 80//45 82//45 81//45
f 81//46 82//46 84//46 83//46
f 83//47 84//47 86//47 85//47
f 85//48 86//48 88//48 87//48
f 87//49 88//49 90//49 89//49
f 30//50 26//50 89//50 90//50
o Cone
v 0.097545 9.450000 -0.490392
v 0.000000 9.450000 -0.499999
v 0.000000 10.450000 0.000001
v 0.191342 9.450000 -0.461939
v 0.277785 9.450000 -0.415734
v 0.353553 9.450000 -0.353553
v 0.415735 9.450000 -0.277784
v 0.461940 9.450000 -0.191341
v 0.490393 9.450000 -0.097545
v 0.500000 9.450000 0.000001
v 0.490393 9.450000 0.097546
v 0.461940 9.450000 0.191342
v 0.415735 9.450000 0.277786
v 0.353553 9.450000 0.353554
v 0.277785 9.450000 0.415735
v 0.191342 9.450000 0.461940
v 0.097545 9.450000 0.490393
v 0.000000 9.450000 0.500001
v -0.097545 9.450000 0.490393
v -0.191342 9.450000 0.461940
v -0.277785 9.450000 0.415735
v -0.353554 9.450000 0.353554
v -0.415735 9.450000 0.277785
v -0.461940 9.450000 0.191342
v -0.490393 9.450000 0.097545
v -0.500000 9.450000 -0.000000
v -0.490393 9.450000 -0.097545
v -0.461940 9.450000 -0.191342
v -0.415734 9.450000 -0.277785
v -0.353553 9.450000 -0.353553
v -0.277785 9.450000 -0.415735
v -0.191341 9.450000 -0.461939
v -0.097544 9.450000 -0.490392
v 0.000000 9.450000 0.000001
vn 0.087800 0.445500 -0.891000
vn 0.259900 0.445500 -0.856700
vn 0.422000 0.445500 -0.789600
vn 0.568000 0.445500 -0.692100
vn 0.692100 0.445500 -0.568000
vn 0.789600 0.445500 -0.422000
vn 0.856700 0.445500 -0.259900
vn 0.891000 0.445500 -0.087800
vn 0.891000 0.445500 0.087800
vn 0.856700 0.445500 0.259900
vn 0.789600 0.445500 0.422000
vn 0.692100 0.445500 0.568000
vn 0.568000 0.445500 0.692100
vn 0.422000 0.445500 0.789600
vn 0.259900 0.445500 0.856700
vn 0.087800 0.445500 0.891000
vn -0.087800 0.445500 0.891000
vn -0.259900 0.445500 0.856700
vn -0.422000 0.445500 0.789600
vn -0.568000 0.445500 0.692100
vn -0.692100 0.445500 0.568000
vn -0.789600 0.445500 0.422000
vn -0.856700 0.445500 0.259900
vn -0.891000 0.445500 0.087800
vn -0.891000 0.445500 -0.087800
vn -0.856700 0.445500 -0.259900
vn -0.789600 0.445500 -0.422000
vn -0.692100 0.445500 -0.568000
vn -0.568000 0.445500 -0.692100
vn -0.422000 0.445500 -0.789600
vn -0.259900 0.445500 -0.856700
vn -0.087800 0.445500 -0.891000
vn 0.000000 -1.000000 0.000000
usemtl (null)
s off
f 91//51 92//51 93//51
f 93//52 94//52 91//52
f 93//53 95//53 94//53
f 93//54 96//54 95//54
f 93//55 97//55 96//55
f 93//56 98//56 97//56
f 93//57 99//57 98//57
f 93//58 100//58 99//58
f 93//59 101//59 100//59
f 93//60 102//60 101//60
f 93//61 103//61 102//61
f 93//62 104//62 103//62
f 93//63 105//63 104//63
f 93//64 106//64 105//64
f 93//65 107//65 106//65
f 93//66 108//66 107//66
f 93//67 109//67 108//67
f 93//68 110//68 109//68
f 93//69 111//69 110//69
f 93//70 112//70 111//70
f 93//71 113//71 112//71
f 93//72 114//72 113//72
f 93//73 115//73 114//73
f 93//74 116//74 115//74
f 93//75 117//75 116//75
f 93//76 118//76 117//76
f 93//77 119//77 118//77
f 93//78 120//78 119//78
f 93//79 121//79 120//79
f 93//80 122//80 121//80
f 93//81 123//81 122//81
f 93//82 92//82 123//82
f 124//83 92//83 91//83
f 124//83 91//83 94//83
f 124//83 94//83 95//83
f 124//83 95//83 96//83
f 124//83 96//83 97//83
f 124//83 97//83 98//83
f 124//83 98//83 99//83
f 124//83 99//83 100//83
f 124//83 100//83 101//83
f 124//83 101//83 102//83
f 124//83 102//83 103//83
f 124//83 103//83 104//83
f 124//83 104//83 105//83
f 124//83 105//83 106//83
f 124//83 106//83 107//83
f 124//83 107//83 108//83
f 124//83 108//83 109//83
f 124//83 109//83 110//83
f 124//83 110//83 111//83
f 124//83 111//83 112//83
f 124//83 112//83 113//83
f 124//83 113//83 114//83
f 124//83 114//83 115//83
f 124//83 115//83 116//83
f 124//83 116//83 117//83
f 124//83 117//83 118//83
f 124//83 118//83 119//83
f 124//83 119//83 120//83
f 124//83 120//83 121//83
f 124//83 121//83 122//83
f 124//83 122//83 123//83
f 123//83 92//83 124//83
