# OBJ output by FlowVR Render
#Face Count 12
#Vertex Count 28
v 0.010000 -1.000000 -0.500000
v 0.010000 -1.000000 -0.500000
v 0.010000 -1.000000 -0.500000
v 0.010000 -1.000000 0.500000
v 0.010000 -1.000000 0.500000
v 0.010000 -1.000000 0.500000
v 0.010000 -1.000000 0.500000
v -0.010000 -1.000000 0.500000
v -0.010000 -1.000000 0.500000
v -0.010000 -1.000000 0.500000
v -0.010000 -1.000000 0.500000
v -0.010000 -1.000000 -0.500000
v -0.010000 -1.000000 -0.500000
v -0.010000 -1.000000 -0.500000
v 0.010000 1.000000 -0.500000
v 0.010000 1.000000 -0.500000
v 0.010000 1.000000 -0.500000
v 0.010000 1.000000 -0.500000
v 0.010000 1.000000 0.500000
v 0.010000 1.000000 0.500000
v 0.010000 1.000000 0.500000
v 0.010000 1.000000 0.500000
v -0.010000 1.000000 0.500000
v -0.010000 1.000000 0.500000
v -0.010000 1.000000 0.500000
v -0.010000 1.000000 -0.500000
v -0.010000 1.000000 -0.500000
v -0.010000 1.000000 -0.500000
vn 0.000000 0.000000 -1.000000
vn 1.000000 -0.000000 0.000000
vn -0.000000 -1.000000 0.000000
vn -0.000000 -0.000000 1.000000
vn 1.000000 -0.000000 0.000000
vn 1.000000 0.000000 0.000001
vn -0.000000 -1.000000 0.000000
vn -1.000000 -0.000000 -0.000000
vn -0.000000 -0.000000 1.000000
vn -0.000001 0.000000 1.000000
vn -0.000000 -1.000000 0.000000
vn 0.000000 0.000000 -1.000000
vn -1.000000 -0.000000 -0.000000
vn -0.000000 -1.000000 0.000000
vn 0.000000 0.000000 -1.000000
vn 1.000000 -0.000000 0.000000
vn 1.000000 0.000000 0.000001
vn 0.000000 1.000000 -0.000000
vn -0.000000 -0.000000 1.000000
vn -0.000001 0.000000 1.000000
vn 1.000000 0.000000 0.000001
vn 0.000000 1.000000 -0.000000
vn -1.000000 -0.000000 -0.000000
vn -0.000001 0.000000 1.000000
vn 0.000000 1.000000 -0.000000
vn 0.000000 0.000000 -1.000000
vn -1.000000 -0.000000 -0.000000
vn 0.000000 1.000000 -0.000000
g default
usemtl Material
f 15//15 1//1 26//26
f 1//1 12//12 26//26
f 8//8 23//23 27//27
f 8//8 27//27 13//13
f 4//4 19//19 9//9
f 20//20 24//24 10//10
f 2//2 16//16 5//5
f 17//17 21//21 6//6
f 18//18 28//28 25//25
f 18//18 25//25 22//22
f 3//3 7//7 11//11
f 3//3 11//11 14//14
