# Blender3D v2.5 OBJ File: <memory2>
# www.blender3d.org
mtllib test.mtl
o Cube
v 1.000000 -1.000000 -1.000000
v 1.000000 -1.000000 1.000000
v -1.000000 -1.000000 1.000000
v -1.000000 -1.000000 -1.000000
v 1.000000 1.000000 -1.000000
v 0.999999 1.000000 1.000001
v -1.000000 1.000000 1.000000
v -1.000000 1.000000 -1.000000
vt 0.998980 0.500000
vt 1.000000 0.998471
vt 0.667686 1.000000
vt 0.666667 0.501529
vt 0.666667 0.498471
vt 0.667686 0.000000
vt 1.000000 0.001529
vt 0.001020 1.000000
vt 0.000000 0.501529
vt 0.332314 0.500000
vt 0.333333 0.998471
vt 0.334353 1.000000
vt 0.333333 0.501529
vt 0.665647 0.500000
vt 0.666667 0.998471
vt 0.666667 0.001529
vt 0.333333 0.498471
vt 0.334353 0.000000
vt 0.001020 0.000000
vt 0.333333 0.001529
vt 0.000000 0.498471
vn -0.000000 -1.000000 0.000000
vn 0.000000 1.000000 -0.000000
vn 1.000000 0.000000 0.000000
vn -0.000000 -0.000000 1.000000
vn -1.000000 -0.000000 -0.000000
vn 0.000000 0.000000 -1.000000
s off
f 1/1/1 2/2/1 3/3/1 4/4/1
f 5/5/2 8/6/2 7/7/2 6/1/2
f 1/8/3 5/9/3 6/10/3 2/11/3
f 2/12/4 6/13/4 7/14/4 3/15/4
f 3/16/5 7/14/5 8/17/5 4/18/5
f 5/19/6 1/20/6 4/10/6 8/21/6
