# Max2Obj Version 4.0 Mar 10th, 2001
#
# object objCube.003 to come ...
#
v  -74.672249 -1.329670 -74.672279
v  -74.672249 -1.329670 74.672249
v  74.672279 -1.329670 74.672234
v  74.672241 -1.329670 -74.672295
v  -74.672295 -5.329670 -74.672226
v  -74.672203 -5.329670 74.672295
v  74.672295 -5.329670 74.672226
v  74.672264 -5.329670 -74.672264
v  0.000015 -1.329670 74.672249
v  -74.672249 -1.329670 -0.000012
v  -0.000006 -1.329670 -74.672279
v  74.672256 -1.329670 -0.000030
v  0.000004 -1.329670 -0.000018
v  -37.336117 -1.329670 74.672249
v  37.336147 -1.329670 74.672241
v  -74.672249 -1.329670 -37.336143
v  -74.672249 -1.329670 37.336121
v  -37.336128 -1.329670 -74.672279
v  37.336117 -1.329670 -74.672287
v  74.672272 -1.329670 37.336102
v  74.672249 -1.329670 -37.336163
v  0.000010 -1.329670 37.336113
v  -37.336124 -1.329670 -0.000015
v  -0.000001 -1.329670 -37.336151
v  37.336132 -1.329670 -0.000024
v  -37.336121 -1.329670 37.336117
v  -37.336124 -1.329670 -37.336147
v  37.336140 -1.329670 37.336109
v  37.336124 -1.329670 -37.336155
v  -74.672249 -5.329670 0.000033
v  0.000045 -5.329670 74.672256
v  74.672279 -5.329670 -0.000018
v  -0.000015 -5.329670 -74.672249
v  0.000018 -5.329670 0.000007
v  -74.672272 -5.329670 -37.336098
v  -74.672218 -5.329670 37.336166
v  -37.336082 -5.329670 74.672279
v  37.336170 -5.329670 74.672249
v  74.672287 -5.329670 37.336105
v  74.672272 -5.329670 -37.336140
v  -37.336151 -5.329670 -74.672234
v  37.336124 -5.329670 -74.672256
v  37.336151 -5.329670 -0.000005
v  0.000001 -5.329670 -37.336121
v  -37.336113 -5.329670 0.000020
v  0.000031 -5.329670 37.336132
v  37.336136 -5.329670 -37.336128
v  -37.336136 -5.329670 -37.336109
v  37.336159 -5.329670 37.336117
v  -37.336098 -5.329670 37.336147
# 50 vertices

vt  0.001999 3.998002 3.998002
vt  0.001998 0.001999 3.998002
vt  3.998002 0.001999 3.998002
vt  3.998002 3.998002 3.998002
vt  0.001998 3.998001 0.001998
vt  0.002000 0.001998 0.001998
vt  3.998002 0.001999 0.001998
vt  3.998002 3.998001 0.001998
vt  2.000000 0.001999 3.998002
vt  0.001999 2.000000 3.998002
vt  2.000000 3.998002 3.998002
vt  3.998001 2.000000 3.998002
vt  2.000000 2.000000 3.998002
vt  1.000999 0.001999 3.998002
vt  2.999001 0.001999 3.998002
vt  0.001999 2.999001 3.998002
vt  0.001999 1.001000 3.998002
vt  1.001000 3.998002 3.998002
vt  2.999001 3.998002 3.998002
vt  3.998002 1.000999 3.998002
vt  3.998002 2.999001 3.998002
vt  2.000000 1.001000 3.998002
vt  1.000999 2.000000 3.998002
vt  2.000000 2.999001 3.998002
vt  2.999001 2.000000 3.998002
vt  1.000999 1.001000 3.998002
vt  1.001000 2.999001 3.998002
vt  2.999001 1.000999 3.998002
vt  2.999001 2.999001 3.998002
vt  0.001999 1.999999 0.001998
vt  2.000001 0.001999 0.001998
vt  3.998002 2.000000 0.001998
vt  2.000000 3.998001 0.001998
vt  2.000000 2.000000 0.001998
vt  0.001998 2.999000 0.001998
vt  0.001999 1.000999 0.001998
vt  1.001000 0.001998 0.001998
vt  2.999001 0.001999 0.001998
vt  3.998002 1.000999 0.001998
vt  3.998002 2.999000 0.001998
vt  1.000999 3.998001 0.001998
vt  2.999001 3.998001 0.001998
vt  2.999001 2.000000 0.001998
vt  2.000000 2.999000 0.001998
vt  1.001000 2.000000 0.001998
vt  2.000001 1.000999 0.001998
vt  2.999001 2.999000 0.001998
vt  1.000999 2.999000 0.001998
vt  2.999001 1.000999 0.001998
vt  1.001000 1.000999 0.001998
# 50 texture vertices

vn  0.000000 1.000000 -0.000000
vn  0.000000 1.000000 -0.000000
vn  0.000000 1.000000 -0.000000
vn  0.000000 1.000000 -0.000000
vn  0.000000 -1.000000 -0.000000
vn  0.000000 -1.000000 -0.000000
vn  0.000000 -1.000000 -0.000000
vn  0.000000 -1.000000 -0.000000
vn  0.000000 1.000000 -0.000000
vn  0.000000 1.000000 -0.000000
vn  0.000000 1.000000 -0.000000
vn  0.000000 1.000000 -0.000000
vn  0.000000 1.000000 -0.000000
vn  0.000000 1.000000 -0.000000
vn  0.000000 1.000000 -0.000000
vn  0.000000 1.000000 -0.000000
vn  0.000000 1.000000 -0.000000
vn  0.000000 1.000000 -0.000000
vn  0.000000 1.000000 -0.000000
vn  0.000000 1.000000 -0.000000
vn  0.000000 1.000000 -0.000000
vn  0.000000 1.000000 -0.000000
vn  0.000000 1.000000 -0.000000
vn  0.000000 1.000000 -0.000000
vn  0.000000 1.000000 -0.000000
vn  0.000000 1.000000 -0.000000
vn  0.000000 1.000000 -0.000000
vn  0.000000 1.000000 -0.000000
vn  0.000000 1.000000 -0.000000
vn  0.000000 -1.000000 -0.000000
vn  0.000000 -1.000000 -0.000000
vn  0.000000 -1.000000 -0.000000
vn  0.000000 -1.000000 -0.000000
vn  0.000000 -1.000000 -0.000000
vn  0.000000 -1.000000 -0.000000
vn  0.000000 -1.000000 -0.000000
vn  0.000000 -1.000000 -0.000000
vn  0.000000 -1.000000 -0.000000
vn  0.000000 -1.000000 -0.000000
vn  0.000000 -1.000000 -0.000000
vn  0.000000 -1.000000 -0.000000
vn  0.000000 -1.000000 -0.000000
vn  0.000000 -1.000000 -0.000000
vn  0.000000 -1.000000 -0.000000
vn  0.000000 -1.000000 -0.000000
vn  0.000000 -1.000000 -0.000000
vn  0.000000 -1.000000 -0.000000
vn  0.000000 -1.000000 -0.000000
vn  0.000000 -1.000000 -0.000000
vn  0.000000 -1.000000 -0.000000
vn 0 0 -1
vn 1 0 0
vn 0 0 1
vn -1 0 0
# 54 vertex normals

g objCube.003
s 0
f 19/19/19 29/29/29 21/21/21
f 19/19/19 21/21/21 4/4/4
f 29/29/29 25/25/25 21/21/21
f 25/25/25 12/12/12 21/21/21
f 11/11/11 24/24/24 29/29/29
f 11/11/11 29/29/29 19/19/19
f 24/24/24 13/13/13 29/29/29
f 13/13/13 25/25/25 29/29/29
f 25/25/25 28/28/28 12/12/12
f 28/28/28 20/20/20 12/12/12
f 28/28/28 15/15/15 20/20/20
f 15/15/15 3/3/3 20/20/20
f 13/13/13 22/22/22 28/28/28
f 13/13/13 28/28/28 25/25/25
f 22/22/22 9/9/9 15/15/15
f 22/22/22 15/15/15 28/28/28
f 18/18/18 27/27/27 11/11/11
f 27/27/27 24/24/24 11/11/11
f 27/27/27 23/23/23 13/13/13
f 27/27/27 13/13/13 24/24/24
f 1/1/1 16/16/16 27/27/27
f 1/1/1 27/27/27 18/18/18
f 16/16/16 10/10/10 23/23/23
f 16/16/16 23/23/23 27/27/27
f 23/23/23 26/26/26 22/22/22
f 23/23/23 22/22/22 13/13/13
f 26/26/26 14/14/14 9/9/9
f 26/26/26 9/9/9 22/22/22
f 10/10/10 17/17/17 26/26/26
f 10/10/10 26/26/26 23/23/23
f 17/17/17 2/2/2 14/14/14
f 17/17/17 14/14/14 26/26/26

f 36/36/36 50/50/50 37/37/37
f 36/36/36 37/37/37 6/6/6
f 50/50/50 46/46/46 31/31/31
f 50/50/50 31/31/31 37/37/37
f 30/30/30 45/45/45 36/36/36
f 45/45/45 50/50/50 36/36/36
f 45/45/45 34/34/34 50/50/50
f 34/34/34 46/46/46 50/50/50
f 46/46/46 49/49/49 38/38/38
f 46/46/46 38/38/38 31/31/31
f 49/49/49 39/39/39 7/7/7
f 49/49/49 7/7/7 38/38/38
f 34/34/34 43/43/43 49/49/49
f 34/34/34 49/49/49 46/46/46
f 43/43/43 32/32/32 39/39/39
f 43/43/43 39/39/39 49/49/49
f 35/35/35 48/48/48 30/30/30
f 48/48/48 45/45/45 30/30/30
f 48/48/48 44/44/44 45/45/45
f 44/44/44 34/34/34 45/45/45
f 5/5/5 41/41/41 35/35/35
f 41/41/41 48/48/48 35/35/35
f 41/41/41 33/33/33 48/48/48
f 33/33/33 44/44/44 48/48/48
f 44/44/44 47/47/47 34/34/34
f 47/47/47 43/43/43 34/34/34
f 47/47/47 40/40/40 43/43/43
f 40/40/40 32/32/32 43/43/43
f 33/33/33 42/42/42 44/44/44
f 42/42/42 47/47/47 44/44/44
f 42/42/42 8/8/8 40/40/40
f 42/42/42 40/40/40 47/47/47

f 1/1/51 18/18/51 41/41/51
f 1/1/51 41/41/51 5/5/51
f 11/11/51 33/33/51 18/18/51
f 33/33/51 41/41/51 18/18/51
f 11/11/51 19/19/51 42/42/51
f 11/11/51 42/42/51 33/33/51
f 4/4/51 8/8/51 42/42/51
f 4/4/51 42/42/51 19/19/51

f 4/4/52 21/21/52 8/8/52
f 21/21/52 40/40/52 8/8/52
f 12/12/52 32/32/52 40/40/52
f 12/12/52 40/40/52 21/21/52
f 12/12/52 20/20/52 32/32/52
f 20/20/52 39/39/52 32/32/52
f 3/3/52 7/7/52 20/20/52
f 7/7/52 39/39/52 20/20/52

f 3/3/53 15/15/53 38/38/53
f 3/3/53 38/38/53 7/7/53
f 9/9/53 31/31/53 15/15/53
f 31/31/53 38/38/53 15/15/53
f 9/9/53 14/14/53 37/37/53
f 9/9/53 37/37/53 31/31/53
f 2/2/53 6/6/53 14/14/53
f 6/6/53 37/37/53 14/14/53

f 2/2/54 17/17/54 36/36/54
f 2/2/54 36/36/54 6/6/54
f 10/10/54 30/30/54 17/17/54
f 30/30/54 36/36/54 17/17/54
f 10/10/54 16/16/54 35/35/54
f 10/10/54 35/35/54 30/30/54
f 1/1/54 5/5/54 16/16/54
f 5/5/54 35/35/54 16/16/54
# 96 faces

g
