# This file uses centimeters as units for non-parametric coordinates.

mtllib PokeCube.mtl
g default
v -0.500000 -0.500000 -0.500000
v 0.500000 -0.500000 -0.500000
v -0.500000 -0.500000 0.500000
v 0.500000 -0.500000 0.500000
v -0.500000 0.500000 0.500000
v 0.500000 0.500000 0.500000
v -0.500000 0.500000 -0.500000
v 0.500000 0.500000 -0.500000
v 0.000000 -0.500000 0.000000
v 0.000000 0.000000 0.500000
v 0.000000 0.500000 0.000000
v 0.000000 0.000000 -0.500000
v 0.500000 0.000000 0.000000
v -0.500000 0.000000 0.000000
vt 0.000000 0.000000
vt 1.000000 0.000000
vt 0.000000 1.000000
vt 1.000000 1.000000
vt 0.000000 2.000000
vt 1.000000 2.000000
vt 0.000000 3.000000
vt 1.000000 3.000000
vt 0.000000 4.000000
vt 1.000000 4.000000
vt 2.000000 0.000000
vt 2.000000 1.000000
vt -1.000000 0.000000
vt -1.000000 1.000000
vt 0.500000 0.500000
vt 0.500000 1.500000
vt 0.500000 2.500000
vt 0.500000 3.500000
vt 1.500000 0.500000
vt -0.500000 0.500000
vn 0.000000 -1.000000 0.000000
vn 0.000000 -1.000000 0.000000
vn 0.000000 -1.000000 0.000000
vn 0.000000 0.000000 1.000000
vn 0.000000 0.000000 1.000000
vn 0.000000 0.000000 1.000000
vn 0.000000 1.000000 0.000000
vn 0.000000 1.000000 0.000000
vn 0.000000 1.000000 0.000000
vn 0.000000 0.000000 -1.000000
vn 0.000000 0.000000 -1.000000
vn 0.000000 0.000000 -1.000000
vn 1.000000 0.000000 0.000000
vn 1.000000 0.000000 0.000000
vn 1.000000 0.000000 0.000000
vn -1.000000 0.000000 0.000000
vn -1.000000 0.000000 0.000000
vn -1.000000 0.000000 0.000000
vn 0.000000 -1.000000 0.000000
vn 0.000000 -1.000000 0.000000
vn 0.000000 0.000000 1.000000
vn 0.000000 0.000000 1.000000
vn 0.000000 1.000000 0.000000
vn 0.000000 1.000000 0.000000
vn 0.000000 0.000000 -1.000000
vn 0.000000 0.000000 -1.000000
vn 1.000000 0.000000 0.000000
vn 1.000000 0.000000 0.000000
vn -1.000000 0.000000 0.000000
vn -1.000000 0.000000 0.000000
s 1
g pCube1
usemtl initialShadingGroup
f 3/3/1 9/15/2 4/4/3
s 2
f 5/5/4 10/16/5 6/6/6
s 3
f 7/7/7 11/17/8 8/8/9
s 4
f 1/9/10 12/18/11 2/10/12
s 5
f 4/4/13 13/19/14 6/12/15
s 6
f 5/14/16 14/20/17 3/3/18
s 1
f 1/1/19 2/2/20 9/15/2
f 9/15/2 2/2/20 4/4/3
f 1/1/19 9/15/2 3/3/1
s 2
f 3/3/21 4/4/22 10/16/5
f 10/16/5 4/4/22 6/6/6
f 3/3/21 10/16/5 5/5/4
s 3
f 5/5/23 6/6/24 11/17/8
f 11/17/8 6/6/24 8/8/9
f 5/5/23 11/17/8 7/7/7
s 4
f 7/7/25 8/8/26 12/18/11
f 12/18/11 8/8/26 2/10/12
f 7/7/25 12/18/11 1/9/10
s 5
f 2/2/27 8/11/28 13/19/14
f 13/19/14 8/11/28 6/12/15
f 2/2/27 13/19/14 4/4/13
s 6
f 7/13/29 1/1/30 14/20/17
f 14/20/17 1/1/30 3/3/18
f 7/13/29 14/20/17 5/14/16
