# Blender OBJ File: c://Documents and Settings//test//Bureau//Sofa29//coussin2.DXF.blend
# modified to have the same order as smCube27.xs3
# www.blender.org
o Cube_Cube
v -3.5 -3.5 -3.5
v -3.5 -3.5  0.0
v -3.5 -3.5  3.5
v -3.5  0.0 -3.5
v -3.5  0.0  0.0
v -3.5  0.0  3.5
v -3.5  3.5 -3.5
v -3.5  3.5  0.0
v -3.5  3.5  3.5
v  0.0 -3.5 -3.5
v  0.0 -3.5  0.0
v  0.0 -3.5  3.5
v  0.0  0.0 -3.5
v  0.0  0.0  0.0
v  0.0  0.0  3.5
v  0.0  3.5 -3.5
v  0.0  3.5  0.0
v  0.0  3.5  3.5
v  3.5 -3.5 -3.5
v  3.5 -3.5  0.0
v  3.5 -3.5  3.5
v  3.5  0.0 -3.5
v  3.5  0.0  0.0
v  3.5  0.0  3.5
v  3.5  3.5 -3.5
v  3.5  3.5  0.0
v  3.5  3.5  3.5
vn -1  0  0
vn  1  0  0
vn  0 -1  0
vn  0  1  0
vn  0  0 -1
vn  0  0  1
f 4//1 2//1 5//1
f 5//1 6//1 8//1
f 3//1 6//1 5//1
f 9//1 8//1 6//1
f 7//1 5//1 8//1
f 1//1 2//1 4//1
f 3//1 5//1 2//1
f 7//1 4//1 5//1
f 24//2 20//2 23//2
f 23//2 22//2 26//2
f 19//2 22//2 23//2
f 25//2 26//2 22//2
f 27//2 23//2 26//2
f 21//2 20//2 24//2
f 19//2 23//2 20//2
f 27//2 24//2 23//2
f 12//3 2//3 11//3
f 11//3 10//3 20//3
f 1//3 10//3 11//3
f 19//3 20//3 10//3
f 21//3 11//3 20//3
f 3//3 2//3 12//3
f 1//3 11//3 2//3
f 21//3 12//3 11//3
f 8//4 18//4 17//4
f 17//4 26//4 16//4
f 27//4 26//4 17//4
f 25//4 16//4 26//4
f 7//4 17//4 16//4
f 9//4 18//4 8//4
f 27//4 17//4 18//4
f 7//4 8//4 17//4
f 22//5 10//5 13//5
f 13//5 4//5 16//5
f 1//5 4//5 13//5
f 7//5 16//5 4//5
f 25//5 13//5 16//5
f 19//5 10//5 22//5
f 1//5 13//5 10//5
f 25//5 22//5 13//5
f 12//6 15//6 6//6
f 15//6 24//6 18//6
f 24//6 15//6 21//6
f 27//6 18//6 24//6
f 9//6 15//6 18//6
f 3//6 12//6 6//6
f 21//6 15//6 12//6
f 6//6 15//6 9//6
