# OBJ output by FlowVR Render
#Face Count 80
#Vertex Count 42
v 0.719424 1.438847 44.721359
v 40.719425 1.438848 20.000000
v 13.080103 39.481110 20.000002
v -31.641256 24.950254 20.000000
v -31.641253 -22.072567 19.999998
v 13.080110 -36.603413 19.999998
v 33.080105 24.950260 -19.999998
v -11.641257 39.481110 -19.999998
v -39.280575 1.438846 -20.000000
v -11.641258 -36.603409 -20.000000
v 33.080116 -22.072546 -20.000002
v 0.719424 1.438851 -44.721359
v 24.230835 1.438848 38.042259
v 7.984848 23.799526 38.042263
v -18.301706 15.258506 38.042259
v -18.301702 -12.380815 38.042259
v 7.984852 -20.921833 38.042259
v 31.496260 23.799526 23.511412
v 31.496262 -20.921831 23.511408
v 43.251965 15.258510 0.000001
v 43.251968 -12.380802 -0.000001
v -11.036283 37.619186 23.511412
v 27.005980 37.619190 0.000002
v 0.719422 46.160206 0.000002
v -37.322834 1.438844 23.511410
v -25.567135 37.619186 0.000002
v -41.813114 15.258506 0.000001
v -11.036275 -34.741493 23.511406
v -41.813114 -12.380816 -0.000001
v -25.567131 -34.741489 -0.000002
v 0.719425 -43.282509 -0.000002
v 27.005991 -34.741486 -0.000002
v 12.475129 37.619190 -23.511410
v 38.761688 1.438858 -23.511406
v 19.740555 15.258510 -38.042259
v -30.057411 23.799526 -23.511410
v -6.546002 23.799530 -38.042259
v -30.057411 -20.921829 -23.511410
v -22.791985 1.438848 -38.042259
v 12.475136 -34.741486 -23.511415
v -6.546003 -20.921829 -38.042259
v 19.740562 -12.380802 -38.042259
vn -0.000000 -0.000000 1.000000
vn 0.894427 -0.000000 0.447214
vn 0.276393 0.850651 0.447214
vn -0.723607 0.525731 0.447214
vn -0.723607 -0.525731 0.447214
vn 0.276393 -0.850651 0.447214
vn 0.723607 0.525731 -0.447214
vn -0.276393 0.850651 -0.447214
vn -0.894427 -0.000000 -0.447214
vn -0.276393 -0.850651 -0.447214
vn 0.723607 -0.525731 -0.447214
vn -0.000000 0.000000 -1.000000
vn 0.525731 -0.000000 0.850651
vn 0.162460 0.500000 0.850651
vn -0.425325 0.309017 0.850651
vn -0.425325 -0.309017 0.850651
vn 0.162460 -0.500000 0.850651
vn 0.688191 0.500000 0.525731
vn 0.688191 -0.500000 0.525731
vn 0.951056 0.309017 0.000000
vn 0.951057 -0.309017 -0.000000
vn -0.262866 0.809017 0.525731
vn 0.587785 0.809017 0.000000
vn -0.000000 1.000000 0.000000
vn -0.850651 -0.000000 0.525731
vn -0.587785 0.809017 0.000000
vn -0.951057 0.309017 0.000000
vn -0.262865 -0.809017 0.525731
vn -0.951056 -0.309017 -0.000000
vn -0.587785 -0.809017 -0.000000
vn 0.000000 -1.000000 -0.000000
vn 0.587785 -0.809017 -0.000000
vn 0.262866 0.809017 -0.525731
vn 0.850651 0.000000 -0.525731
vn 0.425325 0.309017 -0.850651
vn -0.688191 0.500000 -0.525731
vn -0.162460 0.500000 -0.850651
vn -0.688191 -0.500000 -0.525731
vn -0.525731 0.000000 -0.850651
vn 0.262866 -0.809017 -0.525731
vn -0.162460 -0.500000 -0.850651
vn 0.425326 -0.309017 -0.850651
g GeoSphere01
usemtl default
f 14//14 1//1 13//13
f 13//13 2//2 18//18
f 14//14 13//13 18//18
f 18//18 3//3 14//14
f 15//15 1//1 14//14
f 14//14 3//3 22//22
f 15//15 14//14 22//22
f 22//22 4//4 15//15
f 16//16 1//1 15//15
f 15//15 4//4 25//25
f 16//16 15//15 25//25
f 25//25 5//5 16//16
f 17//17 1//1 16//16
f 16//16 5//5 28//28
f 17//17 16//16 28//28
f 28//28 6//6 17//17
f 13//13 1//1 17//17
f 17//17 6//6 19//19
f 13//13 17//17 19//19
f 19//19 2//2 13//13
f 20//20 2//2 21//21
f 21//21 11//11 34//34
f 20//20 21//21 34//34
f 34//34 7//7 20//20
f 24//24 3//3 23//23
f 23//23 7//7 33//33
f 24//24 23//23 33//33
f 33//33 8//8 24//24
f 27//27 4//4 26//26
f 26//26 8//8 36//36
f 27//27 26//26 36//36
f 36//36 9//9 27//27
f 30//30 5//5 29//29
f 29//29 9//9 38//38
f 30//30 29//29 38//38
f 38//38 10//10 30//30
f 32//32 6//6 31//31
f 31//31 10//10 40//40
f 32//32 31//31 40//40
f 40//40 11//11 32//32
f 20//20 7//7 23//23
f 23//23 3//3 18//18
f 20//20 23//23 18//18
f 18//18 2//2 20//20
f 24//24 8//8 26//26
f 26//26 4//4 22//22
f 24//24 26//26 22//22
f 22//22 3//3 24//24
f 27//27 9//9 29//29
f 29//29 5//5 25//25
f 27//27 29//29 25//25
f 25//25 4//4 27//27
f 30//30 10//10 31//31
f 31//31 6//6 28//28
f 30//30 31//31 28//28
f 28//28 5//5 30//30
f 32//32 11//11 21//21
f 21//21 2//2 19//19
f 32//32 21//21 19//19
f 19//19 6//6 32//32
f 35//35 12//12 37//37
f 37//37 8//8 33//33
f 35//35 37//37 33//33
f 33//33 7//7 35//35
f 37//37 12//12 39//39
f 39//39 9//9 36//36
f 37//37 39//39 36//36
f 36//36 8//8 37//37
f 39//39 12//12 41//41
f 41//41 10//10 38//38
f 39//39 41//41 38//38
f 38//38 9//9 39//39
f 41//41 12//12 42//42
f 42//42 11//11 40//40
f 41//41 42//42 40//40
f 40//40 10//10 41//41
f 42//42 12//12 35//35
f 35//35 7//7 34//34
f 42//42 35//35 34//34
f 34//34 11//11 42//42
