####
#
#	OBJ File Generated by LightWave3D
#	LightWave3D OBJ Export v2.3
#
####
o cystitome.obj
mtllib cystitome.mtl
g default
v -1.2 -1.7 33.6
v -1.2 -1.7 10.7
v -1.09647 -1.7 10.4
v -1.03923 -2.3 33.6
v -1.03923 -2.3 10.7
v -1.03923 -1.1 33.6
v -1.03923 -1.1 10.7
v -0.949573 -2.24824 10.4
v -0.949573 -1.15176 10.4
v -0.893094 -1.88284 10.7422
v -0.888711 -2.2131 10.7422
v -0.744245 -1.85237 8.8408
v -0.740592 -2.12758 8.7373
v -0.682362 -1.7 10.1
v -0.604893 -2.38202 10.7422
v -0.6 -2.73923 33.6
v -0.6 -2.73923 10.7
v -0.6 -0.66077 33.6
v -0.6 -0.66077 10.7
v -0.590943 -2.04118 10.1
v -0.590943 -1.35882 10.1
v -0.570795 -1.7 10.7422
v -0.548236 -2.64957 10.4
v -0.548236 -0.750427 10.4
v -0.504078 -2.26835 8.8408
v -0.494323 -1.4146 10.7422
v -0.475662 -1.7 8.7028
v -0.41829 -1.7 8.44167
v -0.411935 -1.93783 8.5993
v -0.411935 -1.46217 8.5993
v -0.36225 -1.90915 8.44167
v -0.36225 -1.49085 8.44167
v -0.341181 -1.10906 10.1
v -0.341181 -2.29094 10.1
v -0.310466 -1.7 8.31318
v -0.288201 -0.835137 10.7422
v -0.285397 -2.19432 10.7422
v -0.285397 -1.20568 10.7422
v -0.268872 -1.85523 8.31318
v -0.268872 -1.54477 8.31318
v -0.240167 -0.979281 8.8408
v -0.237831 -2.11194 8.7028
v -0.237831 -1.28806 8.7028
v -0.209145 -2.06225 8.44167
v -0.209145 -1.33775 8.44167
v -0.165196 -1.7 8.2293
v -0.155233 -1.96887 8.31318
v -0.155233 -1.43113 8.31318
v -0.143064 -1.7826 8.2293
v -0.143064 -1.6174 8.2293
v -0.1 -1.7 8.29934
v -0.1 -1.7 4.86
v -0.1 -1.68 4.748
v -0.1 -0.88 3.598
v -0.1 -0.38 2.548
v -0.1 -0.0300002 1.348
v -0.1 0.106301 0.0939367
v -0.0825979 -1.84306 8.2293
v -0.0825979 -1.55694 8.2293
v -0.0707107 -1.77071 8.29934
v -0.0707107 -1.77071 4.86
v -0.0707107 -1.75071 4.7084
v -0.0707107 -1.62929 8.29934
v -0.0707107 -1.62929 4.86
v -0.0707107 -1.60929 4.7876
v -0.0707107 -0.950711 3.5584
v -0.0707107 -0.809289 3.6376
v -0.0707107 -0.450711 2.5084
v -0.0707107 -0.309289 2.5876
v -0.0707107 -0.100711 1.3084
v -0.0707107 0.0407105 1.3876
v -0.0707107 0.0429383 -0.00248499
v -0.0707107 0.169664 0.190358
v 0 -2.9 33.6
v 0 -2.9 10.7
v 0 -2.79647 10.4
v 0 -2.38236 10.1
v 0 -2.27079 10.7422
v 0 -2.17566 8.5993
v 0 -2.11829 8.44167
v 0 -2.01047 8.31318
v 0 -1.8652 8.2293
v 0 -1.8 8.29934
v 0 -1.8 4.86
v 0 -1.78 4.692
v 0 -1.7 8.20017
v 0 -1.6 8.29934
v 0 -1.6 4.86
v 0 -1.58 4.804
v 0 -1.5348 8.2293
v 0 -1.38953 8.31318
v 0 -1.28171 8.44167
v 0 -1.22434 8.5993
v 0 -1.01764 10.1
v 0 -0.98 3.542
v 0 -0.844838 8.7373
v 0 -0.78 3.654
v 0 -0.673806 10.7422
v 0 -0.603528 10.4
v 0 -0.5 33.6
v 0 -0.5 10.7
v 0 -0.48 2.492
v 0 -0.28 2.604
v 0 -0.13 1.292
v 0 0.0166924 -0.0424244
v 0 0.07 1.404
v 0 0.19591 0.230297
v 0.0707107 -1.77071 8.29934
v 0.0707107 -1.77071 4.86
v 0.0707107 -1.75071 4.7084
v 0.0707107 -1.62929 8.29934
v 0.0707107 -1.62929 4.86
v 0.0707107 -1.60929 4.7876
v 0.0707107 -0.950711 3.5584
v 0.0707107 -0.809289 3.6376
v 0.0707107 -0.450711 2.5084
v 0.0707107 -0.309289 2.5876
v 0.0707107 -0.100711 1.3084
v 0.0707107 0.0407105 1.3876
v 0.0707107 0.0429383 -0.00248499
v 0.0707107 0.169664 0.190358
v 0.0825979 -1.84306 8.2293
v 0.0825979 -1.55694 8.2293
v 0.1 -1.7 8.29934
v 0.1 -1.7 4.86
v 0.1 -1.68 4.748
v 0.1 -0.88 3.598
v 0.1 -0.38 2.548
v 0.1 -0.0300002 1.348
v 0.1 0.106301 0.0939367
v 0.143064 -1.7826 8.2293
v 0.143064 -1.6174 8.2293
v 0.155233 -1.96887 8.31318
v 0.155233 -1.43113 8.31318
v 0.165196 -1.7 8.2293
v 0.209145 -2.06225 8.44167
v 0.209145 -1.33775 8.44167
v 0.237831 -2.11194 8.7028
v 0.237831 -1.28806 8.7028
v 0.240167 -0.979281 8.8408
v 0.268872 -1.85523 8.31318
v 0.268872 -1.54477 8.31318
v 0.285397 -2.19432 10.7422
v 0.285397 -1.20568 10.7422
v 0.288201 -0.835137 10.7422
v 0.310466 -1.7 8.31318
v 0.341181 -2.29094 10.1
v 0.341181 -1.10906 10.1
v 0.36225 -1.90915 8.44167
v 0.36225 -1.49085 8.44167
v 0.411935 -1.93783 8.5993
v 0.411935 -1.46217 8.5993
v 0.41829 -1.7 8.44167
v 0.475662 -1.7 8.7028
v 0.494323 -1.4146 10.7422
v 0.504078 -2.26835 8.8408
v 0.548236 -2.64957 10.4
v 0.548236 -0.750427 10.4
v 0.570795 -1.7 10.7422
v 0.590943 -2.04118 10.1
v 0.590943 -1.35882 10.1
v 0.6 -2.73923 33.6
v 0.6 -2.73923 10.7
v 0.6 -0.66077 33.6
v 0.6 -0.66077 10.7
v 0.604893 -2.38202 10.7422
v 0.682362 -1.7 10.1
v 0.740592 -2.12758 8.7373
v 0.744245 -1.85237 8.8408
v 0.888711 -2.2131 10.7422
v 0.893094 -1.88284 10.7422
v 0.949573 -2.24824 10.4
v 0.949573 -1.15176 10.4
v 1.03923 -2.3 33.6
v 1.03923 -2.3 10.7
v 1.03923 -1.1 33.6
v 1.03923 -1.1 10.7
v 1.09647 -1.7 10.4
v 1.2 -1.7 33.6
v 1.2 -1.7 10.7
vn -1 0 -0
vn -1 0 -0
vn -0.999999 0.00137424 6.24353e-005
vn -0.999996 0.00275995 0.000125392
vn -0.999989 -0.000108371 0.00476723
vn -0.999988 -0.000109322 0.00480872
vn -0.98618 -2.73249e-008 -0.16568
vn -0.924749 0.378813 -0.0365989
vn -0.888074 -1.37002e-008 0.459701
vn -0.88525 0.0134947 -0.464919
vn -0.884863 0.337395 -0.321219
vn -0.870736 0.488198 -0.0590075
vn -0.86609 0.471675 -0.16556
vn -0.865654 0.497335 -0.05745
vn -0.865123 0.499494 -0.0454742
vn -0.862762 -0.498017 -0.0872954
vn -0.854056 -0.49309 -0.16568
vn -0.854056 0.49309 -0.16568
vn -0.809162 0.472645 -0.349089
vn -0.80654 0.464834 -0.365269
vn -0.801465 -3.59262e-008 -0.598042
vn -0.79039 0.611439 -0.0377752
vn -0.773688 0.418131 -0.475997
vn -0.769094 -0.444037 0.459701
vn -0.769094 0.444037 0.459701
vn -0.765401 -0.431401 -0.477549
vn -0.740662 -0.581004 -0.337422
vn -0.740662 0.581004 0.337422
vn -0.738106 -0.63054 -0.240041
vn -0.738106 0.63054 0.24004
vn -0.732608 -0.637324 -0.238965
vn -0.728627 -0.671839 -0.133172
vn -0.727647 0.673007 0.132634
vn -0.726157 0.627789 0.280315
vn -0.725283 0.610442 -0.318316
vn -0.720395 -0.689419 -0.075719
vn -0.718361 0.69165 0.0746918
vn -0.707107 0.707107 -0
vn -0.707106 -0.707107 -0
vn -0.70679 -0.706099 -0.0432658
vn -0.706612 0.702385 0.0857636
vn -0.6967 -0.408076 -0.589987
vn -0.694089 -0.400733 -0.598042
vn -0.694089 0.400733 -0.598042
vn -0.655959 -0.371887 -0.656824
vn -0.641995 -6.52622e-008 -0.766709
vn -0.555984 -0.320998 -0.766709
vn -0.555984 0.320998 -0.766709
vn -0.49309 -0.854056 -0.16568
vn -0.49309 0.854056 -0.16568
vn -0.454312 -0.759902 -0.464919
vn -0.444037 -0.769094 0.459701
vn -0.444037 0.769094 0.459701
vn -0.438677 0.764543 -0.472268
vn -0.40718 -1.57038e-008 -0.913348
vn -0.400733 -0.694089 -0.598042
vn -0.400732 0.694089 -0.598042
vn -0.352629 0.20359 -0.913348
vn -0.352629 -0.20359 -0.913348
vn -0.341373 -1.90082e-008 -0.939928
vn -0.320998 -0.555984 -0.766709
vn -0.320998 0.555984 -0.766709
vn -0.295638 0.170687 -0.939928
vn -0.295638 -0.170687 -0.939928
vn -0.20359 0.352629 -0.913348
vn -0.20359 -0.352629 -0.913348
vn -0.179038 -0.932367 -0.314067
vn -0.170687 -0.295638 -0.939928
vn -0.170687 0.295638 -0.939928
vn -0.134313 -0.990263 -0.036599
vn -0.0148732 -0.93621 -0.351126
vn -0.00301017 0.994245 0.107089
vn -0.00269833 -0.994008 -0.109271
vn -0.00203163 -0.998209 -0.0597839
vn -0.00151929 0.981035 0.193823
vn -0.00136156 -0.980819 -0.194918
vn -8.2699e-009 -0.864757 -0.50219
vn -8.25327e-009 -0.934503 -0.355954
vn -8.117e-009 0.990886 0.1347
vn -9.50412e-010 0.341374 -0.939928
vn 0 -1 -0
vn 0 -0.999016 -0.0443512
vn 0 -0.998244 -0.0592405
vn 0 -0.98618 -0.16568
vn 0 -0.981307 -0.19245
vn 0 -0.935783 -0.352577
vn 0 -0.888074 0.459701
vn 0 -0.863645 -0.504101
vn 0 -0.801465 -0.598042
vn 0 -0.641995 -0.766708
vn 0 -0.40718 -0.913348
vn 0 -0.341373 -0.939928
vn 0 0.40718 -0.913348
vn 0 0.641996 -0.766708
vn 0 0.794441 -0.607342
vn 0 0.801465 -0.598042
vn 0 0.888074 0.459701
vn 0 0.906292 0.422652
vn 0 0.934503 0.355954
vn 0 0.986179 -0.16568
vn 0 0.99589 -0.0905685
vn 0 1 -0
vn 1.26228e-009 -3.15571e-008 -1
vn 3.94052e-009 0.896612 -0.442816
vn 1.65398e-008 0.864757 0.50219
vn 2.02408e-008 0.814099 -0.580725
vn 0.00203163 -0.998209 -0.0597839
vn 0.0148732 -0.93621 -0.351126
vn 0.134313 -0.990263 -0.036599
vn 0.170687 0.295638 -0.939928
vn 0.170687 -0.295638 -0.939928
vn 0.179038 -0.932367 -0.314067
vn 0.20359 -0.352629 -0.913348
vn 0.20359 0.352629 -0.913348
vn 0.295638 -0.170687 -0.939928
vn 0.295638 0.170687 -0.939928
vn 0.320998 0.555984 -0.766709
vn 0.320998 -0.555984 -0.766709
vn 0.341373 -2.09091e-008 -0.939928
vn 0.352629 -0.20359 -0.913348
vn 0.352629 0.20359 -0.913348
vn 0.400732 0.694089 -0.598042
vn 0.400733 -0.694089 -0.598042
vn 0.40718 -1.57038e-008 -0.913348
vn 0.438677 0.764543 -0.472268
vn 0.444037 0.769094 0.459701
vn 0.444037 -0.769094 0.459701
vn 0.454312 -0.759902 -0.464919
vn 0.49309 0.854056 -0.16568
vn 0.49309 -0.854056 -0.16568
vn 0.555984 0.320998 -0.766709
vn 0.555984 -0.320998 -0.766709
vn 0.641995 -6.14233e-008 -0.766709
vn 0.655959 -0.371887 -0.656824
vn 0.694089 -0.400732 -0.598042
vn 0.694089 0.400733 -0.598042
vn 0.6967 -0.408076 -0.589987
vn 0.706612 0.702385 0.0857636
vn 0.70679 -0.706099 -0.0432658
vn 0.707106 -0.707107 -0
vn 0.707107 0.707107 -0
vn 0.716263 0.693796 0.0749233
vn 0.718521 -0.691348 -0.0759311
vn 0.725283 0.610442 -0.318316
vn 0.726157 0.627789 0.280315
vn 0.726619 0.674086 0.132789
vn 0.727707 -0.672808 -0.133313
vn 0.732608 -0.637324 -0.238965
vn 0.738106 -0.63054 -0.240041
vn 0.738106 0.63054 0.24004
vn 0.740662 0.581004 0.337422
vn 0.740662 -0.581004 -0.337422
vn 0.765401 -0.431401 -0.477549
vn 0.769094 -0.444037 0.459701
vn 0.769094 0.444037 0.459701
vn 0.773688 0.418131 -0.475997
vn 0.79039 0.611439 -0.0377752
vn 0.801465 -3.59262e-008 -0.598042
vn 0.80654 0.464834 -0.365269
vn 0.809162 0.472645 -0.349089
vn 0.854056 0.49309 -0.16568
vn 0.854056 -0.49309 -0.16568
vn 0.862762 -0.498017 -0.0872954
vn 0.865123 0.499494 -0.0454742
vn 0.865654 0.497335 -0.05745
vn 0.86609 0.471675 -0.16556
vn 0.870736 0.488198 -0.0590075
vn 0.884863 0.337395 -0.321219
vn 0.88525 0.0134947 -0.464919
vn 0.888074 -1.37002e-008 0.459701
vn 0.924749 0.378813 -0.0365989
vn 0.98618 -3.12285e-008 -0.16568
vn 0.999988 -0.000109322 0.00480872
vn 0.999989 -0.000108379 0.00476723
vn 0.999996 0.00275995 0.000125392
vn 0.999999 0.00137425 6.24214e-005
vn 1 7.93536e-009 -1.38869e-008
vn 1 0 -0
g group_scleraExtMat
usemtl scleraExtMat
s 1
f 83//81 84//83 109//139 108//140
f 60//39 61//40 84//83 83//81
f 108//140 109//139 125//173 124//178
f 51//1 52//6 61//40 60//39
f 124//178 125//173 112//138 111//141
f 63//38 64//41 52//6 51//1
f 87//102 88//79 64//41 63//38
f 111//141 112//138 88//79 87//102
f 85//86 110//148 109//139 84//83
f 61//40 62//31 85//86 84//83
f 110//148 126//174 125//173 109//139
f 52//6 53//5 62//31 61//40
f 126//174 113//145 112//138 125//173
f 64//41 65//34 53//5 52//6
f 88//79 89//98 65//34 64//41
f 113//145 89//98 88//79 112//138
f 95//77 114//152 110//148 85//86
f 66//27 95//77 85//86 62//31
f 114//152 127//178 126//174 110//148
f 54//1 66//27 62//31 53//5
f 127//178 115//151 113//145 126//174
f 67//28 54//1 53//5 65//34
f 97//105 67//28 65//34 89//98
f 115//151 97//105 89//98 113//145
f 102//78 116//149 114//152 95//77
f 68//29 102//78 95//77 66//27
f 116//149 128//177 127//178 114//152
f 55//2 68//29 66//27 54//1
f 128//177 117//150 115//151 127//178
f 69//30 55//2 54//1 67//28
f 103//99 69//30 67//28 97//105
f 117//150 103//99 97//105 115//151
f 104//76 118//147 116//149 102//78
f 70//32 104//76 102//78 68//29
f 118//147 129//176 128//177 116//149
f 56//3 70//32 68//29 55//2
f 129//176 119//146 117//150 128//177
f 71//33 56//3 55//2 69//30
f 106//75 71//33 69//30 103//99
f 119//146 106//75 103//99 117//150
f 120//143 118//147 104//76 105//73
f 70//32 72//36 105//73 104//76
f 120//143 130//175 129//176 118//147
f 56//3 57//4 72//36 70//32
f 121//142 119//146 129//176 130//175
f 56//3 71//33 73//37 57//4
f 106//75 107//72 73//37 71//33
f 107//72 106//75 119//146 121//142
f 96//106 98//101 145//167 140//160
f 152//166 139//144 144//171 155//164
f 154//168 152//166 155//164 159//157
f 168//137 169//159 171//165 170//163
f 156//108 168//137 170//163 166//107
f 79//85 138//112 143//70 78//82
f 37//109 42//67 79//85 78//82
f 11//16 13//42 25//71 15//74
f 10//14 12//20 13//42 11//16
f 26//15 30//13 27//11 22//22
f 38//8 43//35 30//13 26//15
f 36//12 98//101 96//106 41//19
f 92//104 93//95 139//144 137//125
f 137//125 139//144 152//166 150//156
f 153//169 150//156 152//166 154//168
f 149//153 153//169 154//168 151//134
f 136//128 149//153 151//134 138//112
f 80//88 136//128 138//112 79//85
f 42//67 44//51 80//88 79//85
f 29//45 31//26 44//51 42//67
f 27//11 28//10 31//26 29//45
f 30//13 32//23 28//10 27//11
f 30//13 43//35 45//54 32//23
f 43//35 93//95 92//104 45//54
f 91//94 92//104 137//125 134//117
f 134//117 137//125 150//156 142//131
f 146//133 142//131 150//156 153//169
f 141//132 146//133 153//169 149//153
f 133//118 141//132 149//153 136//128
f 81//90 133//118 136//128 80//88
f 44//51 47//61 81//90 80//88
f 31//26 39//47 47//61 44//51
f 28//10 35//46 39//47 31//26
f 32//23 40//48 35//46 28//10
f 32//23 45//54 48//62 40//48
f 45//54 92//104 91//94 48//62
f 90//80 91//94 134//117 123//110
f 123//110 134//117 142//131 132//116
f 135//119 132//116 142//131 146//133
f 131//115 135//119 146//133 141//132
f 122//111 131//115 141//132 133//118
f 82//92 122//111 133//118 81//90
f 47//61 58//68 82//92 81//90
f 39//47 49//64 58//68 47//61
f 35//46 46//60 49//64 39//47
f 40//48 50//63 46//60 35//46
f 40//48 48//62 59//69 50//63
f 48//62 91//94 90//80 59//69
f 90//80 123//110 86//103
f 123//110 132//116 86//103
f 132//116 135//119 86//103
f 86//103 135//119 131//115
f 86//103 131//115 122//111
f 86//103 122//111 82//92
f 58//68 86//103 82//92
f 49//64 86//103 58//68
f 46//60 86//103 49//64
f 46//60 50//63 86//103
f 50//63 59//69 86//103
f 59//69 90//80 86//103
f 144//171 139//144 140//160 145//167
f 139//144 93//95 96//106 140//160
f 169//159 154//168 159//157 171//165
f 151//134 154//168 169//159 168//137
f 138//112 151//134 168//137 156//108
f 143//70 138//112 156//108 166//107
f 25//71 42//67 37//109 15//74
f 13//42 29//45 42//67 25//71
f 12//20 27//11 29//45 13//42
f 22//22 27//11 12//20 10//14
f 96//106 93//95 43//35 41//19
f 41//19 43//35 38//8 36//12
f 18//53 6//25 1//9 4//24 16//52 74//87 162//127 174//154 179//170 176//155 164//126 100//97
f 165//129 101//100 100//97 164//126
f 177//161 165//129 164//126 176//155
f 180//172 177//161 176//155 179//170
f 175//162 180//172 179//170 174//154
f 163//130 175//162 174//154 162//127
f 75//84 163//130 162//127 74//87
f 16//52 17//49 75//84 74//87
f 4//24 5//17 17//49 16//52
f 1//9 2//7 5//17 4//24
f 6//25 7//18 2//7 1//9
f 18//53 19//50 7//18 6//25
f 100//97 101//100 19//50 18//53
f 148//114 161//121 167//124 160//120 147//113 77//91 34//66 20//59 14//55 21//58 33//65 94//93
f 99//96 101//100 165//129 158//122
f 19//50 101//100 99//96 24//57
f 7//18 19//50 24//57 9//44
f 7//18 9//44 3//21 2//7
f 2//7 3//21 8//43 5//17
f 5//17 8//43 23//56 17//49
f 17//49 23//56 76//89 75//84
f 76//89 157//123 163//130 75//84
f 157//123 172//135 175//162 163//130
f 172//135 178//158 180//172 175//162
f 178//158 173//136 177//161 180//172
f 158//122 165//129 177//161 173//136
f 94//93 99//96 158//122 148//114
f 24//57 99//96 94//93 33//65
f 9//44 24//57 33//65 21//58
f 9//44 21//58 14//55 3//21
f 3//21 14//55 20//59 8//43
f 8//43 20//59 34//66 23//56
f 23//56 34//66 77//91 76//89
f 77//91 147//113 157//123 76//89
f 147//113 160//120 172//135 157//123
f 160//120 167//124 178//158 172//135
f 167//124 161//121 173//136 178//158
f 148//114 158//122 173//136 161//121
