o Floor
g Floor
v -20.0 0.0 -20.0
v -20.0 0.0  20.0
v  20.0 0.0  20.0
v  20.0 0.0 -20.0

v -20.0 20.0 -40.0
v -40.0 20.0 -20.0
v -40.0 20.0  20.0
v -20.0 20.0  40.0
v  20.0 20.0  40.0
v  40.0 20.0  20.0
v  40.0 20.0 -20.0
v  20.0 20.0 -40.0

vn 0 1 0
vn 1 1 1
vn 1 1 0
vn 1 1 -1
vn 0 1 -1
vn -1 1 -1
vn -1 1 0
vn -1 1 1
vn 0 1 1

vt -2.0 -2.0
vt -2.0  2.0
vt  2.0  2.0
vt  2.0 -2.0

vt -2.0 -5.0
vt -5.0 -2.0
vt -5.0  2.0
vt -2.0  5.0
vt  2.0  5.0
vt  5.0  2.0
vt  5.0 -2.0
vt  2.0 -5.0

vt 0 0
vt -1.5 3
vt 1.5 3

f 1/1/1 2/2/1 3/3/1 4/4/1
f 1/13/2 5/14/2 6/15/2
f 1/1/3 6/6/3 7/7/3 2/2/3
f 2/13/4 7/14/4 8/15/4
f 2/2/5 8/8/5 9/9/5 3/3/5
f 3/3/6 9/9/6 10/10/6
f 3/3/7 10/10/7 11/11/7 4/4/7
f 4/4/8 11/11/8 12/12/8
f 4/4/9 12/12/9 5/5/9 1/1/9
