# Max2Obj Version 4.0 Mar 10th, 2001
#
# object GeoSphere01 to come ...
#
v  0.719424 1.438847 50.000000
v  45.440784 1.438848 22.360680
v  14.539083 43.971386 22.360682
v  -35.460918 27.725401 22.360682
v  -35.460911 -24.847712 22.360678
v  14.539090 -41.093693 22.360678
v  36.899765 27.725405 -22.360678
v  -13.100238 43.971390 -22.360678
v  -44.001934 1.438846 -22.360680
v  -13.100240 -41.093689 -22.360682
v  36.899776 -24.847691 -22.360682
v  0.719424 1.438851 -50.000000
# 12 vertices

vt  0.400000 1.000000 50.000000
vt  0.500000 0.647584 50.000000
vt  0.700000 0.647584 50.000000
vt  0.900000 0.647584 50.000000
vt  0.100000 0.647584 50.000000
vt  0.300000 0.647584 50.000000
vt  0.600000 0.352416 50.000000
vt  0.800000 0.352416 50.000000
vt  0.000000 0.352416 50.000000
vt  0.200000 0.352416 50.000000
vt  0.400000 0.352416 50.000000
vt  0.500000 0.000000 50.000000
vt  0.600000 1.000000 50.000000
vt  0.800000 1.000000 50.000000
vt  0.000000 1.000000 50.000000
vt  -0.100000 0.647584 50.000000
vt  0.200000 1.000000 50.000000
vt  -0.100000 0.647584 50.000000
vt  -0.200000 0.352416 50.000000
vt  -0.100000 0.647584 50.000000
vt  0.700000 0.000000 50.000000
vt  -0.100000 0.000000 50.000000
vt  -0.200000 0.352416 50.000000
vt  0.100000 0.000000 50.000000
vt  0.300000 0.000000 50.000000
# 25 texture vertices

vn  -0.000000 -0.000000 1.000000
vn  0.894427 0.000000 0.447214
vn  0.276393 0.850651 0.447214
vn  -0.723607 0.525731 0.447214
vn  -0.723607 -0.525731 0.447214
vn  0.276393 -0.850651 0.447214
vn  0.723607 0.525731 -0.447214
vn  -0.276393 0.850651 -0.447214
vn  -0.894427 -0.000000 -0.447214
vn  -0.276393 -0.850651 -0.447214
vn  0.723607 -0.525731 -0.447214
vn  -0.000000 0.000000 -1.000000
# 12 vertex normals

g GeoSphere01
s 1
f 1/13/1 2/2/2 3/3/3
f 1/14/1 3/3/3 4/4/4
f 1/15/1 4/16/4 5/5/5
f 1/17/1 5/5/5 6/6/6
f 1/1/1 6/6/6 2/2/2
f 2/2/2 11/11/11 7/7/7
f 3/3/3 7/7/7 8/8/8
f 4/18/4 8/19/8 9/9/9
f 5/5/5 9/9/9 10/10/10
f 6/6/6 10/10/10 11/11/11
f 7/7/7 3/3/3 2/2/2
f 8/8/8 4/4/4 3/3/3
f 9/9/9 5/5/5 4/20/4
f 10/10/10 6/6/6 5/5/5
f 11/11/11 2/2/2 6/6/6
f 12/21/12 8/8/8 7/7/7
f 12/22/12 9/9/9 8/23/8
f 12/24/12 10/10/10 9/9/9
f 12/25/12 11/11/11 10/10/10
f 12/12/12 7/7/7 11/11/11
# 20 faces

g
